<?xml version="1.0" standalone="no"?>
<!DOCTYPE svg PUBLIC "-//W3C//DTD SVG 1.1//EN" "http://www.w3.org/Graphics/SVG/1.1/DTD/svg11.dtd" >
<svg xmlns="http://www.w3.org/2000/svg">
<metadata>Generated by IcoMoon</metadata>
<defs>
<font id="icomoon" horiz-adv-x="1024">
<font-face units-per-em="1024" ascent="960" descent="-64" />
<missing-glyph horiz-adv-x="1024" />
<glyph unicode="&#x20;" horiz-adv-x="512" d="" />
<glyph unicode="&#xe900;" glyph-name="arrow-left-semi-wide" horiz-adv-x="1142" d="M1077.616 544.699l1.763-0.43h-764.044l240.22 259.827c11.307 12.663 18.218 29.463 18.218 47.876s-6.91 35.213-18.279 47.947l0.062-0.070-37.364 40.374c-10.9 12.101-26.622 19.675-44.114 19.675s-33.214-7.574-44.067-19.622l-0.047-0.053-411.776-444.41c-11.298-12.643-18.204-29.421-18.204-47.812s6.906-35.168 18.265-47.882l-0.061 0.070 411.776-444.496c10.906-12.089 26.627-19.654 44.114-19.654s33.208 7.565 44.068 19.602l0.047 0.053 37.364 40.374c11.306 12.329 18.234 28.831 18.234 46.952 0 0.242-0.001 0.483-0.004 0.725v-0.037c0.002 0.187 0.003 0.407 0.003 0.628 0 17.852-6.939 34.084-18.267 46.145l-242.896 261.296h765.85c35.453 2.249 63.357 31.554 63.357 67.377 0 0.619-0.008 1.237-0.025 1.852l0.002-0.091v57.099c0.003 0.237 0.005 0.516 0.005 0.796 0 35.8-28.541 64.934-64.11 65.889l-0.088 0.002z" />
<glyph unicode="&#xe901;" glyph-name="arrow-right" horiz-adv-x="602" d="M585.249 487.946l-455.705 455.705c-10.153 10.11-24.157 16.36-39.62 16.36s-29.467-6.25-39.622-16.362l0.002 0.002-33.582-33.536c-10.121-10.148-16.379-24.154-16.379-39.62s6.258-29.472 16.38-39.622l382.64-382.64-383.106-383.106c-10.11-10.153-16.36-24.157-16.36-39.62s6.25-29.467 16.362-39.622l-0.002 0.002 33.582-33.536c10.153-10.11 24.157-16.36 39.62-16.36s29.467 6.25 39.622 16.362l456.121 456.121c10.104 10.208 16.346 24.255 16.346 39.76s-6.242 29.552-16.351 39.765l0.005-0.005z" />
<glyph unicode="&#xe902;" glyph-name="arrow-wide-down" horiz-adv-x="901" d="M365.258 902.445l0.378 1.588v-685.213l-228.593 215.547c-11.060 10.13-25.859 16.337-42.107 16.337s-31.047-6.207-42.154-16.379l0.047 0.042-35.509-33.504c-10.661-9.875-17.312-23.947-17.312-39.574s6.651-29.699 17.277-39.542l0.035-0.032 390.934-369.38c11.043-10.122 25.822-16.325 42.051-16.325s31.008 6.203 42.097 16.367l-0.046-0.042 390.934 369.38c10.651 9.88 17.294 23.951 17.294 39.574s-6.644 29.694-17.26 39.542l-0.034 0.032-35.509 33.504c-10.789 10.121-25.346 16.339-41.354 16.339-0.192 0-0.383-0.001-0.574-0.003h0.029c-0.141 0.001-0.308 0.002-0.475 0.002-15.779 0-30.103-6.227-40.65-16.357l0.020 0.019-229.841-217.967v686.801c-1.71 31.686-27.82 56.732-59.78 56.732-0.361 0-0.722-0.003-1.081-0.010l0.054 0.001h-50.219c-0.048 0-0.104 0-0.16 0-31.95 0-57.918-25.613-58.491-57.426l-0.001-0.054z" />
<glyph unicode="&#xe903;" glyph-name="arrow-wide-left" horiz-adv-x="1456" d="M475.646-48.618c9.264-8.863 21.852-14.318 35.714-14.318 28.553 0 51.699 23.146 51.699 51.699 0 13.675-5.31 26.11-13.98 35.356l0.026-0.028-372.173 372.173h1228.020c0.067 0 0.146 0 0.226 0 28.304 0 51.249 22.945 51.249 51.249 0 0.079 0 0.159-0.001 0.238v-0.012c0.002 0.179 0.003 0.39 0.003 0.602 0 28.52-22.993 51.669-51.453 51.922h-1228.119l372.173 371.272c9.262 9.462 14.978 22.428 14.978 36.73s-5.715 27.267-14.987 36.739l0.009-0.009c-9.347 9.515-22.35 15.411-36.73 15.411s-27.383-5.897-36.722-15.404l-0.007-0.008-460.263-460.263c-9.5-9.17-15.399-22.017-15.399-36.242s5.899-27.071 15.384-36.228l0.015-0.014z" />
<glyph unicode="&#xe904;" glyph-name="arrow-wide-right" horiz-adv-x="1456" d="M980.78 944.618c-9.264 8.863-21.852 14.318-35.714 14.318-28.553 0-51.699-23.146-51.699-51.699 0-13.675 5.31-26.11 13.98-35.356l-0.026 0.028 372.173-372.173h-1228.020c-0.067 0-0.146 0-0.226 0-28.304 0-51.249-22.945-51.249-51.249 0-0.079 0-0.159 0.001-0.238v0.012c-0.002-0.179-0.003-0.39-0.003-0.602 0-28.52 22.993-51.669 51.453-51.922h1228.119l-372.173-371.272c-9.262-9.462-14.978-22.428-14.978-36.73s5.715-27.267 14.987-36.739l-0.009 0.009c9.347-9.515 22.35-15.411 36.73-15.411s27.383 5.897 36.722 15.404l0.007 0.008 460.263 460.263c9.5 9.17 15.399 22.017 15.399 36.242s-5.899 27.071-15.384 36.228l-0.015 0.014z" />
<glyph unicode="&#xe905;" glyph-name="attach" horiz-adv-x="1025" d="M956.475 889.909c-42.539 43.142-101.576 69.92-166.869 70.091h-0.838c-65.569-0.369-124.761-27.365-167.372-70.712l-0.033-0.033c-8.411-8.511-13.606-20.216-13.606-33.134s5.195-24.623 13.611-33.138l-0.005 0.005c8.385-8.337 19.944-13.49 32.706-13.49s24.321 5.153 32.708 13.492l-0.002-0.002c25.946 26.657 62.173 43.195 102.262 43.195 39.768 0 75.735-16.273 101.605-42.524l0.017-0.017c25.661-26.17 41.499-62.055 41.499-101.638 0-40.51-16.588-77.146-43.342-103.486l-0.019-0.018-547.146-547.247c-26.129-24.919-61.591-40.254-100.634-40.254-80.589 0-145.919 65.33-145.919 145.919 0 39.043 15.334 74.505 40.308 100.692l-0.055-0.058 25.712 26.114 340.696 340.595c10.597 7.6 23.828 12.153 38.122 12.153 20.392 0 38.619-9.267 50.701-23.819l0.087-0.108 0.352-0.352c10.348-9.439 17.032-22.743 17.757-37.612l0.005-0.126c-0.94-15.363-7.916-28.934-18.565-38.497l-0.052-0.046-276.441-276.341c-9.956-8.559-16.223-21.169-16.223-35.243 0-25.622 20.771-46.392 46.392-46.392 14.074 0 26.683 6.267 35.191 16.162l0.052 0.061 276.391 276.391c27.325 26.202 44.65 62.648 45.784 103.144l0.005 0.207c-0.341 40.946-17.494 77.819-44.883 104.108l-0.050 0.048-0.352 0.352c-28.743 31.658-70.060 51.454-116.001 51.454-40.061 0-76.605-15.054-104.286-39.813l0.15 0.132-129.868-130.371-236.389-236.49c-41.916-42.97-67.771-101.774-67.771-166.618 0-131.832 106.871-238.704 238.704-238.704 64.881 0 123.716 25.885 166.742 67.892l-0.047-0.046 547.297 547.448c43.549 43.224 70.506 103.111 70.506 169.295 0 65.231-26.187 124.346-68.622 167.404l0.028-0.028z" />
<glyph unicode="&#xe906;" glyph-name="box" horiz-adv-x="1076" d="M956.385 597.228l113.484 113.484c3.815 3.804 6.176 9.065 6.176 14.878 0 7.903-4.364 14.787-10.813 18.373l-0.107 0.055-136.424 74.911c-2.919 1.633-6.404 2.594-10.115 2.594-11.607 0-21.017-9.41-21.017-21.017 0-7.897 4.356-14.777 10.796-18.368l0.107-0.055 111.875-61.43-97.39-97.354-350.269 192.336 97.354 97.38 98.44-54.057c2.919-1.633 6.404-2.594 10.115-2.594 11.607 0 21.017 9.41 21.017 21.017 0 7.897-4.356 14.777-10.796 18.368l-0.107 0.055-112.244 61.605c-2.915 1.628-6.395 2.587-10.099 2.587-5.811 0-11.071-2.36-14.875-6.173v0l-113.484-113.464-113.484 113.494c-3.804 3.814-9.064 6.173-14.875 6.173-3.704 0-7.184-0.959-10.206-2.641l0.107 0.055-388.652-213.441c-6.557-3.641-10.921-10.525-10.921-18.428 0-5.813 2.361-11.074 6.175-14.877l113.48-113.465-113.484-113.464c-3.815-3.804-6.176-9.065-6.176-14.878 0-7.903 4.364-14.787 10.813-18.373l0.107-0.055 117.445-64.494v-215.557c0-0.008 0-0.018 0-0.028 0-7.896 4.356-14.775 10.797-18.364l0.107-0.055 388.647-213.405c2.919-1.633 6.404-2.595 10.115-2.595s7.196 0.962 10.221 2.65l-0.107-0.055 388.647 213.405c6.547 3.644 10.904 10.522 10.904 18.418 0 0.010 0 0.019 0 0.029v-0.002 215.562l117.445 64.484c6.557 3.641 10.921 10.525 10.921 18.428 0 5.813-2.361 11.074-6.175 14.877l-0.001 0.001zM538.009 407.813l-344.982 189.415 344.982 189.456 344.982-189.456zM405.961 912.968l97.354-97.354-350.249-192.361-97.38 97.354zM153.081 571.204l350.269-192.336-97.39-97.364-350.275 192.336zM905.643 182.813l-346.626-190.281v214.835c0 11.602-9.406 21.008-21.008 21.008s-21.008-9.406-21.008-21.008v0-214.83l-346.626 190.322v180.049l229.171-125.843c2.915-1.628 6.395-2.587 10.099-2.587 5.811 0 11.071 2.36 14.875 6.173v0l113.489 113.464 113.489-113.51c3.804-3.814 9.064-6.173 14.875-6.173 3.704 0 7.184 0.959 10.206 2.641l-0.107-0.055 229.171 125.843zM670.067 281.458l-97.39 97.441 350.269 192.33 97.395-97.354zM850.73 816.726c0.001 0 0.001 0 0.002 0 11.617 0 21.034 9.417 21.034 21.034s-9.417 21.034-21.034 21.034c-11.617 0-21.034-9.417-21.034-21.034 0-5.814 2.359-11.077 6.172-14.885v0c3.814-3.784 9.061-6.129 14.856-6.149h0.004zM538.009 298.152c-11.599-0.005-20.999-9.409-20.999-21.008 0-11.602 9.406-21.008 21.008-21.008s21.008 9.406 21.008 21.008c0 5.803-2.353 11.057-6.157 14.859v0c-3.811 3.789-9.060 6.135-14.857 6.149h-0.003z" />
<glyph unicode="&#xe907;" glyph-name="calendar" d="M811.985 540.020c0-22.082-17.901-39.983-39.983-39.983s-39.983 17.901-39.983 39.983c0 22.082 17.901 39.983 39.983 39.983s39.983-17.901 39.983-39.983zM864.023 879.988h-52.038v40.029c0 22.095-17.911 40.006-40.006 40.006s-40.006-17.911-40.006-40.006v0-39.983h-181.993v39.983c0 22.095-17.911 40.006-40.006 40.006s-40.006-17.911-40.006-40.006v0-39.983h-179.991v39.983c0 22.095-17.911 40.006-40.006 40.006s-40.006-17.911-40.006-40.006v0-39.983h-49.943c-88.346-0.079-159.944-71.677-160.023-160.015v-624.043c0.106-88.326 71.693-159.897 160.016-159.977h305.997c22.095 0 40.006 17.911 40.006 40.006s-17.911 40.006-40.006 40.006h-305.99c-44.168 0.053-79.959 35.844-80.012 80.006v623.993c0.079 44.148 35.86 79.912 80.007 79.965h49.995v-40.122c0-22.095 17.911-40.006 40.006-40.006s40.006 17.911 40.006 40.006v0 40.122h180.084v-40.122c0-22.095 17.911-40.006 40.006-40.006s40.006 17.911 40.006 40.006v0 40.122h181.993v-40.122c0-22.095 17.911-40.006 40.006-40.006s40.006 17.911 40.006 40.006v0 40.122h51.991c44.168-0.053 79.959-35.844 80.012-80.006v-228.078c0-22.095 17.911-40.006 40.006-40.006s40.006 17.911 40.006 40.006v0 228.073c-0.080 88.379-71.73 159.997-160.114 160.023h-0.002zM781.964 420.073c-133.673 0-242.036-108.363-242.036-242.036s108.363-242.036 242.036-242.036c133.673 0 242.036 108.363 242.036 242.036v0c-0.132 133.62-108.417 241.904-242.024 242.036h-0.013zM781.964 16.058c-89.458 0-161.978 72.52-161.978 161.978s72.52 161.978 161.978 161.978c89.458 0 161.978-72.52 161.978-161.978v0c-0.079-89.435-72.546-161.919-161.968-162.025h-0.010zM840.006 218.019h-18.013v41.891c0 22.095-17.911 40.006-40.006 40.006s-40.006-17.911-40.006-40.006v0-81.873c0-22.082 17.901-39.983 39.983-39.983v0h57.996c22.095 0 40.006 17.911 40.006 40.006s-17.911 40.006-40.006 40.006v0zM637.952 540.020c0-22.082-17.901-39.983-39.983-39.983s-39.983 17.901-39.983 39.983c0 22.082 17.901 39.983 39.983 39.983s39.983-17.901 39.983-39.983zM463.965 366.033c0-22.082-17.901-39.983-39.983-39.983s-39.983 17.901-39.983 39.983c0 22.082 17.901 39.983 39.983 39.983s39.983-17.901 39.983-39.983zM289.978 540.020c0-22.082-17.901-39.983-39.983-39.983s-39.983 17.901-39.983 39.983c0 22.082 17.901 39.983 39.983 39.983s39.983-17.901 39.983-39.983zM289.978 366.033c0-22.082-17.901-39.983-39.983-39.983s-39.983 17.901-39.983 39.983c0 22.082 17.901 39.983 39.983 39.983s39.983-17.901 39.983-39.983zM289.978 192c0-22.082-17.901-39.983-39.983-39.983s-39.983 17.901-39.983 39.983c0 22.082 17.901 39.983 39.983 39.983s39.983-17.901 39.983-39.983zM463.965 192c0-22.082-17.901-39.983-39.983-39.983s-39.983 17.901-39.983 39.983c0 22.082 17.901 39.983 39.983 39.983s39.983-17.901 39.983-39.983zM463.965 540.020c0-22.082-17.901-39.983-39.983-39.983s-39.983 17.901-39.983 39.983c0 22.082 17.901 39.983 39.983 39.983s39.983-17.901 39.983-39.983z" />
<glyph unicode="&#xe908;" glyph-name="camera" d="M602.499 506.512c49.989-49.989 49.989-131.036 0-181.025s-131.036-49.989-181.025 0-49.989 131.036 0 181.025 131.036 49.989 181.025 0zM895.998 768.009h-88.441l-64.033 128.004h-463.109l-63.972-128.067-88.315-0.157c-70.408-0.126-127.724-57.502-127.784-127.942l-0.344-511.827c0-70.596 57.408-128.036 128.004-128.036h767.993c70.596 0 128.004 57.408 128.004 128.004v512.018c-0.002 70.594-57.41 128.002-128.004 128.002zM511.984 159.991c-141.161 0-256.009 114.847-256.009 256.009s114.847 256.009 256.009 256.009 256.009-114.847 256.009-256.009-114.847-256.009-256.009-256.009z" />
<glyph unicode="&#xe909;" glyph-name="caret-left" horiz-adv-x="931" d="M148.294 366.452c-28.943 16.164-48.192 46.608-48.192 81.548s19.249 65.384 47.721 81.306l0.471 0.242 644.655 354.583c12.945 7.255 28.409 11.527 44.87 11.527 51.407 0 93.082-41.669 93.091-93.074v-709.167c-0.009-51.406-41.684-93.075-93.091-93.075-16.461 0-31.925 4.273-45.342 11.769l0.472-0.242z" />
<glyph unicode="&#xe90a;" glyph-name="check" horiz-adv-x="1319" d="M504.963-44.26c-12.182-12.187-29.014-19.726-47.607-19.726s-35.425 7.538-47.607 19.726l-380.156 380.226c-18.285 18.271-29.596 43.52-29.596 71.411s11.311 53.14 29.596 71.411l47.608 47.608c18.271 18.285 43.52 29.596 71.411 29.596s53.14-11.311 71.411-29.596l237.405-237.37 641.311 641.381c18.271 18.285 43.52 29.596 71.411 29.596s53.14-11.311 71.411-29.596l47.608-47.608c18.285-18.271 29.596-43.52 29.596-71.411s-11.311-53.14-29.596-71.411l-0.001-0.001z" />
<glyph unicode="&#xe90b;" glyph-name="check-list-verified" horiz-adv-x="834" d="M424.665 886.854h-22.527c-12.032 0.006-21.784 9.758-21.79 21.789v0.76c0 27.944-22.653 50.597-50.597 50.597v0h-1.188c-27.944 0-50.597-22.653-50.597-50.597v0-0.737c0-0.003 0-0.007 0-0.011 0-12.040-9.761-21.801-21.801-21.801-0.004 0-0.008 0-0.012 0h-22.526c-23.995 0-43.448-19.452-43.448-43.448v0-0.88c0-23.995 19.452-43.448 43.448-43.448h191.049c23.995 0 43.448 19.452 43.448 43.448v0 0.88c0 23.995-19.452 43.448-43.448 43.448-0.004 0-0.008 0-0.012 0h0.001zM329.135 886.854c-12.119 0-21.944 9.825-21.944 21.944s9.825 21.944 21.944 21.944c12.119 0 21.944-9.825 21.944-21.944v0c0-12.115-9.818-21.938-21.932-21.944h-0.001zM426.832 38.393h-368.315c-32.318 0-58.517 26.199-58.517 58.517v0 702.18c0 32.316 26.201 58.517 43.888 58.517h118.585c-0.965-4.528-1.518-9.731-1.518-15.062 0-0.003 0-0.005 0-0.008v0c0.044-40.137 32.569-72.662 72.702-72.706h191.009c40.234 0.366 72.708 33.067 72.708 73.352 0 5.104-0.521 10.087-1.514 14.897l0.082-0.474h89.205c46.945 0 73.146-26.201 73.146-58.517v-439.657c-4.862 0.308-9.69 0.737-14.629 0.737-20.836-0.081-40.982-2.886-60.148-8.076l1.631 0.376v344.215h-512v-585.168h337.198c1.641-26.725 7.547-51.628 17.052-74.668l-0.564 1.544zM643.652 316.337c-105.027 0-190.169-85.141-190.169-190.169s85.141-190.169 190.169-190.169c105.027 0 190.169 85.141 190.169 190.169v0c0 105.023-85.135 190.162-190.157 190.169h-0.001zM767.945 165.238l-117.1-131.652c-5.384-6.034-13.182-9.815-21.864-9.815-6.944 0-13.323 2.419-18.34 6.46l0.056-0.044-73.146 58.517c-6.521 5.406-10.644 13.508-10.644 22.574 0 16.159 13.099 29.258 29.258 29.258 6.794 0 13.046-2.315 18.012-6.2l-0.064 0.048 51.444-41.16 98.577 110.896c5.384 6.036 13.184 9.818 21.867 9.818 16.16 0 29.26-13.1 29.26-29.26 0-7.476-2.804-14.298-7.418-19.47l0.025 0.029zM512 448h-234.034c-8.079 0-14.629 6.55-14.629 14.629v0 14.629c0 8.079 6.55 14.629 14.629 14.629h234.056c8.079 0 14.629-6.55 14.629-14.629v0-14.629c0 0 0 0 0 0 0-8.079-6.55-14.629-14.629-14.629-0.008 0-0.015 0-0.023 0h0.001zM512 579.663h-234.034c-8.079 0-14.629 6.55-14.629 14.629v0 14.629c0 8.079 6.55 14.629 14.629 14.629h234.056c8.079 0 14.629-6.55 14.629-14.629v0-14.629c0-0.003 0-0.007 0-0.011 0-8.079-6.55-14.629-14.629-14.629-0.008 0-0.015 0-0.023 0h0.001zM438.854 330.977h-160.888c-8.079 0-14.629 6.55-14.629 14.629v0 14.629c0.019 8.065 6.561 14.596 14.629 14.596 0 0 0 0 0 0h160.888c8.079 0 14.629-6.55 14.629-14.629v0-14.629c-0.013-8.070-6.557-14.607-14.629-14.607 0 0 0 0 0 0v0zM409.596 199.315h-131.63c-8.079 0-14.629 6.55-14.629 14.629v0 14.596c0 8.079 6.55 14.629 14.629 14.629v0h131.663c8.079 0 14.629-6.55 14.629-14.629v0-14.629c-0.019-8.065-6.561-14.596-14.629-14.596-0.008 0-0.015 0-0.023 0h0.001zM235.31 633.758l-53.897-60.607c-2.477-2.777-6.066-4.518-10.062-4.518-3.197 0-6.134 1.114-8.443 2.976l0.026-0.020-33.669 26.938c-3.092 2.489-5.053 6.273-5.053 10.515 0 7.438 6.030 13.468 13.468 13.468 3.196 0 6.131-1.113 8.441-2.972l-0.026 0.020 23.682-18.941 45.384 51.059c2.467 2.641 5.97 4.288 9.857 4.288 7.442 0 13.474-6.033 13.474-13.474 0-3.335-1.211-6.386-3.218-8.739l0.016 0.019zM235.31 503.602l-53.875-60.574c-2.479-2.775-6.068-4.514-10.063-4.514-3.196 0-6.132 1.113-8.442 2.972l0.026-0.020-33.68 26.861c-3.092 2.489-5.053 6.273-5.053 10.515 0 7.438 6.030 13.468 13.468 13.468 3.196 0 6.131-1.113 8.441-2.972l-0.026 0.020 23.682-18.952 45.384 51.059c2.467 2.641 5.97 4.288 9.857 4.288 7.442 0 13.474-6.033 13.474-13.474 0-3.335-1.211-6.386-3.218-8.739l0.016 0.019zM235.31 379.133l-53.897-60.607c-2.479-2.775-6.068-4.514-10.063-4.514-3.196 0-6.132 1.113-8.442 2.972l0.026-0.020-33.669 26.938c-3.092 2.489-5.053 6.273-5.053 10.515 0 7.438 6.030 13.468 13.468 13.468 3.196 0 6.131-1.113 8.441-2.972l-0.026 0.020 23.682-18.941 45.384 51.059c2.467 2.641 5.97 4.288 9.857 4.288 7.442 0 13.474-6.033 13.474-13.474 0-3.335-1.211-6.386-3.218-8.739l0.016 0.019zM235.31 253.74l-53.897-60.607c-2.479-2.775-6.068-4.514-10.063-4.514-3.196 0-6.132 1.113-8.442 2.972l0.026-0.020-33.669 26.938c-3.092 2.489-5.053 6.273-5.053 10.515 0 7.438 6.030 13.468 13.468 13.468 3.196 0 6.131-1.113 8.441-2.972l-0.026 0.020 23.682-18.941 45.384 51.059c2.467 2.641 5.97 4.288 9.857 4.288 7.442 0 13.474-6.033 13.474-13.474 0-3.335-1.211-6.386-3.218-8.739l0.016 0.019z" />
<glyph unicode="&#xe90c;" glyph-name="checkLsit" horiz-adv-x="820" d="M599.195-33.938h-569.134v741.486c0 8.301-6.73 15.031-15.031 15.031s-15.031-6.73-15.031-15.031v0-746.459c0.016-13.829 11.222-25.036 25.050-25.051h574.173c8.301 0 15.031 6.73 15.031 15.031s-6.73 15.031-15.031 15.031v0zM815.378 824.101l-127.753 131.328c-2.73 2.815-6.545 4.564-10.769 4.571h-651.804c-13.829-0.016-25.036-11.222-25.051-25.050v-117.232c0-8.301 6.73-15.031 15.031-15.031s15.031 6.73 15.031 15.031v0 112.219h640.448l119.067-122.423v-841.454h-85.184c-8.301 0-15.031-6.73-15.031-15.031s6.73-15.031 15.031-15.031h90.203c13.829 0.016 25.036 11.222 25.051 25.050v852.573c-0.004 4.079-1.632 7.776-4.273 10.481l0.003-0.003zM815.387 824.101l-127.762 131.337c-2.737 2.828-6.567 4.584-10.807 4.584-8.301 0-15.031-6.73-15.031-15.031 0-0.008 0-0.015 0-0.023v0.001-131.346c0-8.301 6.73-15.031 15.031-15.031v0h127.753c8.298 0.004 15.024 6.732 15.024 15.031 0 4.076-1.623 7.774-4.257 10.481l0.003-0.003zM691.895 828.672v79.296l77.138-79.314h-77.138zM479.378 880.192h-362.13c-13.829-0.016-25.036-11.222-25.051-25.050v-83.065c0.016-13.829 11.222-25.036 25.050-25.051h362.132c13.829 0.016 25.036 11.222 25.051 25.050v83.074c-0.021 13.825-11.225 25.027-25.050 25.042h-0.001zM474.368 777.088h-352.11v73.051h352.11zM242.313 668.379c-2.491 1.902-5.649 3.048-9.074 3.048-4.859 0-9.18-2.306-11.928-5.884l-0.026-0.036-66.405-87.378-19.941 17.454c-2.6 2.211-5.997 3.555-9.707 3.555-8.301 0-15.031-6.73-15.031-15.031 0-4.413 1.902-8.383 4.931-11.132l0.012-0.011 32.064-28.050c2.628-2.309 6.095-3.718 9.892-3.721h0.001c0.503 0 1.006 0 1.518 0.073 4.281 0.447 7.979 2.631 10.424 5.825l0.026 0.036 76.151 100.197c1.902 2.491 3.048 5.649 3.048 9.074 0 4.876-2.321 9.209-5.919 11.955l-0.036 0.027zM694.629 671.442h-378.514c-8.301 0-15.031-6.73-15.031-15.031s6.73-15.031 15.031-15.031v0h378.514c8.301 0 15.031 6.73 15.031 15.031s-6.73 15.031-15.031 15.031v0zM561.856 621.349h-245.769c-8.301 0-15.031-6.73-15.031-15.031s6.73-15.031 15.031-15.031v0h245.769c8.301 0 15.031 6.73 15.031 15.031s-6.73 15.031-15.031 15.031v0zM617.966 571.246h-301.879c-8.301 0-15.031-6.73-15.031-15.031s6.73-15.031 15.031-15.031v0h301.879c8.301 0 15.031 6.73 15.031 15.031s-6.73 15.031-15.031 15.031v0zM242.313 463.973c-2.491 1.902-5.649 3.048-9.074 3.048-4.859 0-9.18-2.306-11.928-5.884l-0.026-0.036-66.405-87.378-19.941 17.454c-2.6 2.211-5.997 3.555-9.707 3.555-8.301 0-15.031-6.73-15.031-15.031 0-4.413 1.902-8.383 4.931-11.132l0.012-0.011 32.064-28.050c2.628-2.309 6.095-3.718 9.892-3.721h0.001c0.503 0 1.006 0 1.518 0.073 4.281 0.447 7.979 2.631 10.424 5.825l0.026 0.036 76.151 100.197c1.902 2.491 3.048 5.649 3.048 9.074 0 4.876-2.321 9.209-5.919 11.955l-0.036 0.027zM694.629 467.035h-378.514c-8.301 0-15.031-6.73-15.031-15.031s6.73-15.031 15.031-15.031v0h378.514c8.301 0 15.031 6.73 15.031 15.031s-6.73 15.031-15.031 15.031v0zM561.856 416.942h-245.769c-8.301 0-15.031-6.73-15.031-15.031s6.73-15.031 15.031-15.031v0h245.769c8.301 0 15.031 6.73 15.031 15.031s-6.73 15.031-15.031 15.031v0zM617.966 366.839h-301.879c-8.301 0-15.031-6.73-15.031-15.031s6.73-15.031 15.031-15.031v0h301.879c8.301 0 15.031 6.73 15.031 15.031s-6.73 15.031-15.031 15.031v0zM694.629 262.629h-378.514c-8.301 0-15.031-6.73-15.031-15.031s6.73-15.031 15.031-15.031v0h378.514c8.301 0 15.031 6.73 15.031 15.031s-6.73 15.031-15.031 15.031v0zM561.856 212.535h-245.769c-8.301 0-15.031-6.73-15.031-15.031s6.73-15.031 15.031-15.031v0h245.769c8.301 0 15.031 6.73 15.031 15.031s-6.73 15.031-15.031 15.031v0zM617.966 162.432h-301.879c-8.301 0-15.031-6.73-15.031-15.031s6.73-15.031 15.031-15.031v0h301.879c8.301 0 15.031 6.73 15.031 15.031s-6.73 15.031-15.031 15.031v0zM215.177 262.629h-80.155c-13.829-0.016-25.036-11.222-25.051-25.050v-80.157c0.016-13.829 11.222-25.036 25.050-25.051h80.157c13.829 0.016 25.036 11.222 25.051 25.050v80.157c-0.016 13.829-11.222 25.036-25.050 25.051h-0.002zM210.167 162.432h-70.135v70.135h70.135z" />
<glyph unicode="&#xe90d;" glyph-name="circled-info" d="M511.969 960c282.753 0 511.969-229.217 511.969-511.969s-229.217-511.969-511.969-511.969c-282.753 0-511.969 229.217-511.969 511.969v0c0.348 282.613 229.357 511.622 511.937 511.969h0.033zM511.969 29.13c231.353 0 418.901 187.548 418.901 418.901s-187.548 418.901-418.901 418.901c-231.353 0-418.901-187.548-418.901-418.901v0c0.278-231.24 187.66-418.622 418.874-418.901h0.027zM511.969 742.819c34.263-0.035 62.025-27.819 62.025-62.087 0-34.289-27.797-62.087-62.087-62.087s-62.087 27.797-62.087 62.087v0c0.035 34.297 27.846 62.087 62.148 62.087v0zM512.031 525.578c25.717 0 46.565-20.848 46.565-46.565v0-279.267c0.019-0.503 0.031-1.093 0.031-1.687 0-25.717-20.848-46.565-46.565-46.565s-46.565 20.848-46.565 46.565c0 0.593 0.011 1.184 0.033 1.771l-0.003-0.085v279.267c0 25.696 20.813 46.53 46.501 46.565h0.003z" />
<glyph unicode="&#xe90e;" glyph-name="circled-plus" d="M874.079 810.023c-92.666 92.638-220.668 149.934-362.051 149.934-282.823 0-512.097-229.274-512.097-512.097 0-141.44 57.341-269.487 150.045-362.162l0.001-0.001c92.426-91.304 219.515-147.702 359.776-147.702 282.785 0 512.028 229.243 512.028 512.028 0 140.261-56.397 267.351-147.753 359.828l0.051-0.052zM512.028 15.976c-238.585 0-431.996 193.411-431.996 431.996s193.411 431.996 431.996 431.996c238.585 0 431.996-193.411 431.996-431.996v0c-0.287-238.469-193.526-431.709-431.968-431.996h-0.028zM552.044 487.988h179.961v-79.976h-179.961v-179.961h-80.032v179.961h-179.961v80.032h179.961v180.017h80.032z" />
<glyph unicode="&#xe90f;" glyph-name="clock" d="M898.861 685.869c-14.082-6.933-23.601-21.18-23.601-37.651 0-6.627 1.541-12.894 4.284-18.463l-0.109 0.245c26.128-52.741 41.414-114.843 41.414-180.515 0-0.512-0.001-1.024-0.003-1.536v0.080c0-0.009 0-0.020 0-0.030 0-231.073-187.322-418.394-418.394-418.394s-418.394 187.322-418.394 418.394c0 231.073 187.322 418.394 418.394 418.394v0c0.531 0.002 1.159 0.004 1.788 0.004 97.939 0 187.922-34.060 258.751-90.982l-0.805 0.625c7.074-5.652 16.149-9.069 26.022-9.069 23.122 0 41.867 18.744 41.867 41.867 0 13.25-6.155 25.062-15.761 32.733l-0.084 0.065c-84.8 67.661-193.542 108.57-311.838 108.57-277.314 0-502.121-224.807-502.121-502.121s224.807-502.121 502.121-502.121c277.284 0 502.072 224.758 502.121 502.031v0.005c0.002 0.478 0.003 1.044 0.003 1.61 0 78.879-18.378 153.466-51.086 219.713l1.299-2.909c-6.922 14.087-21.167 23.611-37.637 23.611-6.633 0-12.905-1.545-18.476-4.294l0.245 0.109zM502.453 782.728c-23.097-0.017-41.816-18.736-41.833-41.832v-292.866c0.017-23.097 18.736-41.816 41.832-41.833h209.139c23.104 0 41.833 18.729 41.833 41.833s-18.729 41.833-41.833 41.833v0h-167.304v251.031c-0.017 23.097-18.736 41.816-41.832 41.833h-0.002z" />
<glyph unicode="&#xe910;" glyph-name="close-circle" d="M512 960c-282.714 0-512-229.286-512-512s229.286-512 512-512 512 229.286 512 512-229.286 512-512 512zM810.545 281.091l-131.639-131.639-166.906 166.909-166.909-166.909-131.639 131.639 166.909 166.909-166.909 166.909 131.639 131.639 166.909-166.909 166.909 166.909 131.639-131.639-166.909-166.909 166.906-166.909z" />
<glyph unicode="&#xe911;" glyph-name="coin-stack" horiz-adv-x="1152" d="M334.827 366.090c0.211 0 0.46 0 0.708 0 32.65 0 64.791 2.18 96.285 6.403l-3.682-0.404v324.686c-27.823 3.819-59.975 5.999-92.637 5.999-0.237 0-0.474 0-0.711 0h0.037c-184.909 0-334.875-67.984-334.875-151.917v-32.945c0-83.79 149.965-151.822 334.875-151.822zM334.827 196.606c0.181 0 0.396 0 0.61 0 32.684 0 64.859 2.18 96.388 6.403l-3.686-0.404v95.216c-27.82-3.819-59.969-5.999-92.628-5.999-0.241 0-0.481 0-0.722 0h0.038c-161.439 0-296.122 51.797-327.781 120.781-4.385-9.103-6.976-19.784-7.046-31.064v-32.969c-0.048-83.98 149.918-151.965 334.827-151.965zM428.139 120.767v7.379c-27.823-3.819-59.975-5.999-92.637-5.999-0.237 0-0.474 0-0.711 0h0.037c-161.439 0-296.122 51.797-327.781 120.781-4.385-9.103-6.976-19.784-7.046-31.064v-32.969c0-83.885 149.918-151.869 334.827-151.869 0.302 0 0.659-0.001 1.017-0.001 36.987 0 73.316 2.822 108.782 8.261l-3.966-0.5c-7.845 15.476-12.45 33.739-12.473 53.075v0.008zM817.619 960c-184.909 0-334.827-67.984-334.827-151.869v-32.945c0-83.885 149.918-151.869 334.827-151.869s334.827 67.984 334.827 151.869v32.945c0 83.885-149.918 151.869-334.827 151.869zM817.619 548.905c-161.391 0-296.122 51.797-327.781 120.781-4.385-9.103-6.976-19.784-7.046-31.064v-32.969c0-83.885 149.918-151.869 334.827-151.869s334.827 67.984 334.827 151.869v32.802c-0.070 11.304-2.661 21.985-7.238 31.533l0.192-0.445c-31.659-68.794-166.342-120.639-327.781-120.639zM817.619 379.373c-161.391 0-296.122 51.797-327.781 120.781-4.385-9.103-6.976-19.784-7.046-31.064v-32.969c0-83.885 149.918-151.869 334.827-151.869s334.827 67.984 334.827 151.869v32.945c-0.070 11.304-2.661 21.985-7.238 31.533l0.192-0.445c-31.659-68.936-166.342-120.781-327.781-120.781zM817.619 200.653c-161.391 0-296.122 51.797-327.781 120.781-4.386-9.103-6.977-19.785-7.046-31.064v-32.969c0-83.885 149.918-151.869 334.827-151.869s334.827 67.984 334.827 151.869v32.945c-0.069 11.304-2.66 21.985-7.238 31.533l0.192-0.445c-31.659-68.936-166.342-120.781-327.781-120.781zM817.619 31.121c-161.391 0-296.122 51.797-327.781 120.734-4.386-9.103-6.977-19.785-7.046-31.064v-32.969c0-83.885 149.918-151.869 334.827-151.869s334.827 67.984 334.827 151.869v32.945c-0.069 11.304-2.66 21.985-7.238 31.533l0.192-0.445c-31.659-68.889-166.342-120.734-327.781-120.734z" />
<glyph unicode="&#xe912;" glyph-name="comment" horiz-adv-x="1163" d="M169.241-64h-82.363l58.284 58.284c30.308 30.349 50.776 70.531 56.206 115.348l0.093 0.946c-77.516 49.211-137.664 119.645-173.004 203.133l-1.095 2.912c-17.399 43.373-27.491 93.654-27.491 146.292 0 39.885 5.794 78.417 16.587 114.799l-0.726-2.851c33.685 112.095 101.935 205.213 192.178 269.435l1.554 1.050c101.25 71.777 227.329 114.739 363.441 114.739 3.684 0 7.36-0.031 11.029-0.094l-0.552 0.007c8.287 0.392 18.001 0.615 27.767 0.615 154.587 0 296.106-55.954 405.407-148.714l-0.903 0.748c90.624-81.331 147.372-198.837 147.372-329.597 0-64.144-13.656-125.098-38.218-180.115l1.12 2.808c-26.892-60.413-64.228-111.618-110.188-153.527l-0.359-0.323c-108.311-92.329-249.899-148.498-404.606-148.498-9.634 0-19.216 0.218-28.744 0.649l1.353-0.049c-69.504 0.069-136.857 9.15-200.993 26.135l5.483-1.235c-55.454-57.297-133.002-92.921-218.871-93.103h-0.035z" />
<glyph unicode="&#xe913;" glyph-name="comment-2" d="M883.2 919.087h-742.4c-77.73-0.079-140.72-63.070-140.8-140.792v-454.338c0.079-77.55 62.779-140.43 140.253-140.8h0.035v-206.196l296.308 206.196h446.836c77.63 0.212 140.488 63.152 140.567 140.792v454.338c-0.079 77.73-63.070 140.72-140.792 140.8h-0.008zM749.94 390.982h-475.881v60.090h475.881zM749.94 518.982h-475.881v60.090h475.881zM749.94 646.982h-475.881v60.090h475.881z" />
<glyph unicode="&#xe914;" glyph-name="contract" d="M768.030 383.977v469.358c-0.069 58.881-47.783 106.596-106.658 106.664h-469.365c-0.061 0.001-0.133 0.001-0.205 0.001-5.777 0-11.017-2.298-14.857-6.029l-170.983-170.862c-3.726-3.835-6.024-9.075-6.024-14.852 0-0.072 0-0.144 0.001-0.216v0.011-725.389c0.137-58.851 47.859-106.51 106.721-106.544h554.705c58.881 0.069 106.596 47.783 106.664 106.658v42.649h-42.642v-42.642c0-35.359-28.664-64.023-64.023-64.023h-554.702c0 0 0 0 0 0-35.316 0-63.954 28.595-64.022 63.896v716.482l158.22 158.22h460.505c35.359 0 64.023-28.664 64.023-64.023v0-469.358zM170.867 938.679v-127.985c0-11.775-9.546-21.321-21.321-21.321v0h-42.642v-42.642h42.642c35.359 0 64.023 28.664 64.023 64.023v0 127.925zM1017.736 446.615l-59.084 59.084c-3.856 3.847-9.179 6.226-15.057 6.226s-11.201-2.379-15.057-6.226v0l-324.931-325.232c-3.847-3.856-6.226-9.179-6.226-15.057s2.379-11.201 6.226-15.057v0l59.084-59.084c3.856-3.847 9.179-6.226 15.057-6.226s11.201 2.379 15.057 6.226v0l325.232 325.232c3.758 3.841 6.077 9.103 6.077 14.906 0 5.953-2.44 11.337-6.375 15.205l-0.003 0.003zM677.447 136.801l-28.91 28.91 294.757 294.757 28.91-28.91zM639.985 128.008v42.642h-42.642v-64.023c0-11.775 9.546-21.321 21.321-21.321v0h64.023v42.642zM618.664 874.657h-42.702v-42.642h42.642c11.775 0 21.321-9.546 21.321-21.321v0-42.642h42.642v42.581c0 0 0 0 0 0 0 35.316-28.595 63.954-63.896 64.022h-0.007zM554.702 661.328h-341.373c-11.775 0-21.321-9.546-21.321-21.321v-298.672c0-0.005 0-0.010 0-0.015 0-8.401 4.859-15.668 11.92-19.142l0.125-0.056 148.402-72.274c9.185-5.346 20.209-8.516 31.971-8.552h0.011c0.082 0 0.178-0.001 0.275-0.001 10.967 0 21.255 2.905 30.137 7.987l-0.297-0.157 149.486 73.238c7.186 3.53 12.046 10.796 12.046 19.198 0 0.005 0 0.011 0 0.016v-0.001 298.672c-0.136 11.671-9.629 21.080-21.319 21.080-0.022 0-0.043 0-0.065 0h0.003zM533.381 354.646l-138.525-68.058c-3.063-1.701-6.717-2.702-10.605-2.702-4.35 0-8.407 1.253-11.831 3.418l0.091-0.054-137.561 67.395v264.040h298.672v-264.040zM475.622 545.148l-112.928-112.928-48.905 48.905-30.114-30.114 64.023-64.023c3.856-3.847 9.179-6.226 15.057-6.226s11.201 2.379 15.057 6.226v0l127.985 127.985zM426.898 127.947c-11.775 0-21.321 9.546-21.321 21.321v0 42.702h-42.642v-42.642c0-35.359 28.664-64.023 64.023-64.023v0h127.985v42.642zM490.679 874.657h42.642v-42.642h-42.642v42.642z" />
<glyph unicode="&#xe915;" glyph-name="copy" horiz-adv-x="862" d="M319.993-64h381.982c88.306 0.102 159.864 71.66 159.966 159.956v542.078c-0.102 88.306-71.66 159.864-159.956 159.966h-381.993c-88.332-0.068-159.924-71.639-160.026-159.956v-542.019c0.068-88.353 71.674-159.958 160.020-160.026h0.006zM701.975 717.958c44.146-0.068 79.915-35.837 79.983-79.977v-542.015c-0.068-44.146-35.837-79.915-79.977-79.983h-381.988c-44.146 0.068-79.915 35.837-79.983 79.977v542.074c0.068 44.146 35.837 79.915 79.977 79.983h0.006zM0 196.035v603.999c0.102 88.306 71.66 159.864 159.956 159.966h443.803c22.087 0 39.992-17.905 39.992-39.992s-17.905-39.992-39.992-39.992v0h-443.793c-44.146-0.068-79.915-35.837-79.983-79.977v-603.765c0-0.035 0-0.078 0-0.12 0-22.087-17.905-39.992-39.992-39.992-22.045 0-39.924 17.837-39.992 39.866v0.007z" />
<glyph unicode="&#xe916;" glyph-name="credit" horiz-adv-x="1149" d="M1104.89 809.9l-703.567 148.89c-3.406 0.743-7.318 1.169-11.33 1.169-26.521 0-48.695-18.607-54.182-43.478l-0.068-0.368-13.35-85.897 811.824-171.793 13.35 85.897c0.743 3.406 1.169 7.318 1.169 11.33 0 26.521-18.607 48.695-43.478 54.182l-0.368 0.068zM809.029 640.193c-6.837 23.774-28.391 40.874-53.939 40.874-5.27 0-10.371-0.728-15.206-2.088l0.395 0.095-133.496-37.087-314.759 66.665-34.626-163.616-216.514-60.073c-23.772-6.822-40.873-28.367-40.873-53.907 0-5.267 0.727-10.364 2.087-15.196l-0.095 0.394 121.941-439.411c6.818-23.777 28.366-40.884 53.91-40.884 5.281 0 10.391 0.731 15.235 2.098l-0.394-0.095 699.437 194.112c23.774 6.837 40.874 28.391 40.874 53.939 0 5.27-0.728 10.371-2.088 15.206l0.095-0.395-20.859 75.425 78.429-16.687c3.406-0.743 7.318-1.169 11.33-1.169 26.521 0 48.695 18.607 54.182 43.478l0.068 0.368 49.644 234.536-282.553 59.781zM889.795 416.879l17.313 81.766c2.279 10.388 11.402 18.047 22.315 18.047 1.656 0 3.271-0.176 4.826-0.511l-0.15 0.027 81.766-17.313c10.388-2.279 18.047-11.402 18.047-22.315 0-1.656-0.176-3.271-0.511-4.826l0.027 0.15-17.313-81.766c-2.279-10.388-11.402-18.047-22.315-18.047-1.656 0-3.271 0.176-4.826 0.511l0.15-0.027-81.766 17.313c-10.368 2.294-18.007 11.408-18.007 22.306 0 1.659 0.177 3.277 0.513 4.835l-0.027-0.15zM53.023 441.117l699.395 194.070c0.799 0.232 1.717 0.368 2.666 0.375h0.004c4.715-0.049 8.686-3.182 9.993-7.476l0.020-0.075 5.757-20.859 18.064-65.163-719.211-199.494-23.821 85.938c-0.214 0.791-0.338 1.7-0.338 2.638 0 4.729 3.134 8.725 7.439 10.025l0.074 0.019zM887.083 188.642c0.184-0.737 0.29-1.583 0.29-2.454 0-4.719-3.109-8.712-7.391-10.042l-0.074-0.020-699.395-194.279c-0.799-0.233-1.717-0.369-2.666-0.375h-0.003c-4.732 0.030-8.723 3.169-10.034 7.476l-0.020 0.075-70.92 256.271 719.295 199.619 43.887-158.068zM293.525 171.162c-2.777 9.695-11.561 16.672-21.976 16.672-2.156 0-4.242-0.299-6.219-0.858l0.161 0.039-81.683-22.694c-9.695-2.777-16.672-11.561-16.672-21.976 0-2.156 0.299-4.242 0.858-6.219l-0.039 0.161 22.653-81.683c2.777-9.695 11.561-16.672 21.976-16.672 2.156 0 4.242 0.299 6.219 0.858l-0.161-0.039 81.683 22.653c9.695 2.777 16.672 11.561 16.672 21.976 0 2.156-0.299 4.242-0.858 6.219l0.039-0.161z" />
<glyph unicode="&#xe917;" glyph-name="cross" d="M787.895 980.48l-296.375-296.375-296.375 296.375-215.625-215.625 296.375-296.375-296.375-296.375 215.625-215.625 296.375 296.375 296.375-296.375 215.625 215.625-296.375 296.375 296.375 296.375z" />
<glyph unicode="&#xe918;" glyph-name="cross-2" d="M989.385 758.304l-310.266-310.298 310.266-310.283c46.15-46.168 46.15-120.954 0-167.122-23.059-23.059-53.291-34.597-83.508-34.597-30.267 0-60.502 11.521-83.544 34.597l-310.333 310.318-310.31-310.316c-23.056-23.059-53.291-34.597-83.535-34.597-30.235 0-60.449 11.521-83.526 34.597-46.15 46.148-46.15 120.937 0 167.122l310.257 310.283-310.274 310.295c-46.15 46.15-46.15 120.954 0 167.105 46.142 46.115 120.901 46.115 167.061 0l310.324-310.298 310.301 310.298c46.168 46.115 120.937 46.115 167.069 0 46.168-46.15 46.168-120.954 0.018-167.105z" />
<glyph unicode="&#xe919;" glyph-name="cv" d="M301.994 597.998c-66.18 0-121.998-53.816-121.998-119.998h243.996c0 66.18-55.818 119.998-121.998 119.998zM663.988 939.992v-161.998h161.996zM301.994 777.994c-33.076 0-61.998-26.924-61.998-59.998s28.924-59.998 61.998-59.998c33.076 0 61.998 26.924 61.998 59.998s-28.922 59.998-61.998 59.998zM573.988 537.998h173.72c28.788 28.84 60.276 60.36 96.274 96.374v83.622h-209.994c-16.568 0-30 13.432-30 30v211.996h-513.99c-49.8 0-89.998-42.196-89.998-91.998v-839.984c0-49.796 40.198-91.998 89.998-91.998h663.986c49.802 0 89.998 42.202 89.998 91.998v267.012l-168.19-168.164-158.316-112.762c-35.71-25.372-84.878-21.72-116.306 10.136-9.69 9.814-15.732 21.53-20.024 33.78h-49.154c-16.582 0-30 13.418-30 30s13.418 30 30 30h49.604c2.872 7.796 5.936 15.596 11.078 22.618l109.158 148.708c1.516 2.23 5.292 7.382 186.016 188.668h-113.86c-16.582 0-30 13.418-30 30s13.42 29.994 30 29.994zM393.992 178.006h-243.994c-16.582 0-30 13.418-30 30s13.418 30 30 30h243.996c16.582 0 30-13.418 30-30-0.002-16.582-13.42-30-30.002-30zM393.992 298.004h-243.994c-16.582 0-30 13.418-30 30s13.418 30 30 30h243.996c16.582 0 30-13.418 30-30s-13.42-30-30.002-30zM483.99 448c0-16.582-13.418-30-30-30h-303.992c-16.582 0-30 13.418-30 30v30c0 67.828 38.148 126.296 93.7 156.974-20.768 21.582-33.702 50.766-33.702 83.022 0 66.18 55.816 119.998 121.998 119.998 66.18 0 121.998-53.818 121.998-119.998 0-32.256-12.93-61.44-33.698-83.022 55.552-30.676 93.696-89.144 93.696-156.974v-30zM573.988 657.996h119.998c16.582 0 30-13.418 30-30s-13.418-30-30-30h-119.998c-16.582 0-30 13.418-30 30s13.42 30 30 30zM1006.402 627.12c-23.402 23.398-61.44 23.398-84.842-0.002-1.396-1.398-40.964-41.012-93.568-93.722l84.772-84.772 93.638 93.624c23.416 23.416 23.51 61.362 0 84.872zM785.618 490.928c-75.342-75.526-161.714-162.212-205.916-206.916 41.446-10.298 73.924-42.954 83.874-84.534l206.762 206.73-84.72 84.72zM552.162 227.722h-21.122l-89.966-122.562c-8.716-11.876-7.522-28.322 2.82-38.812 10.342-10.492 26.77-11.924 38.768-3.376l124.344 88.548v21.328c-0.002 30.266-24.612 54.874-54.844 54.874z" />
<glyph unicode="&#xe91a;" glyph-name="design" d="M632.010 268.001c-11.052 0-20.011-8.959-20.011-20.011s8.959-20.011 20.011-20.011c11.052 0 20.011 8.959 20.011 20.011v0c0 11.052-8.959 20.011-20.011 20.011v0zM924.054 960h-824.043c-55.21-0.060-99.95-44.8-100.010-100.005v-612.006c0.060-55.21 44.8-99.95 100.005-100.010h312.102v-92.002h-20.011c-55.229-0.012-99.998-44.781-100.010-100.009v-0.001c0-0.006 0-0.014 0-0.021 0-11.040 8.95-19.989 19.989-19.989 0.007 0 0.015 0 0.022 0h399.997c0.006 0 0.014 0 0.021 0 11.040 0 19.989 8.95 19.989 19.989 0 0.007 0 0.015 0 0.022v-0.001c-0.060 55.21-44.8 99.95-100.005 100.010h-20.101v92.023h312.054c55.21 0.060 99.95 44.8 100.010 100.005v611.984c-0.060 55.21-44.8 99.95-100.005 100.010h-0.006zM100.010 920h824.043c33.128-0.036 59.974-26.882 60.010-60.007v-511.951h-92.065v459.966c0 0.006 0 0.014 0 0.021 0 11.040-8.95 19.989-19.989 19.989-0.007 0-0.015 0-0.022 0h-159.977c-0.006 0-0.014 0-0.021 0-11.040 0-19.989-8.95-19.989-19.989 0-0.007 0-0.015 0-0.022v0.001-460.009h-100.116c-0.212 20.69-0.743 41.083-1.614 60.86-2.083 58.336-7.69 113.496-16.663 167.518l1.028-7.498c24.782 18.417 40.665 47.603 40.665 80.499 0 18.39-4.963 35.62-13.624 50.425l0.256-0.473-69.293 120.042c-3.518 6.029-9.955 10.016-17.323 10.016s-13.806-3.987-17.272-9.921l-0.051-0.095-69.357-120.063c-8.392-14.321-13.348-31.538-13.348-49.911 0-30.513 13.667-57.833 35.214-76.174l0.141-0.117c-8.534-47.741-14.578-104.296-16.794-161.832l-0.073-2.373c-0.892-19.989-1.466-40.361-1.678-60.903h-100.095v299.988c-0.003 3.137-0.732 6.104-2.028 8.742l0.052-0.117s0 0.212-0.127 0.319l-80 160.021c-3.363 6.598-10.106 11.038-17.886 11.038s-14.524-4.44-17.834-10.925l-0.052-0.113-80.148-160.318c-1.244-2.521-1.973-5.487-1.976-8.624v-300.010h-92.002v511.989c0.036 33.128 26.882 59.974 60.007 60.010h0.004zM731.999 348v439.934h120v-39.936h-20.011c-10.767-0.362-19.359-9.178-19.359-20s8.591-19.638 19.326-19.999l0.033-0.001h20.011v-60.010h-20.011c-10.767-0.362-19.359-9.178-19.359-20s8.591-19.638 19.326-19.999l0.033-0.001h20.011v-60.095h-20.011c-10.767-0.362-19.359-9.178-19.359-20s8.591-19.638 19.326-19.999l0.033-0.001h20.011v-80h-20.011c-0.194 0.007-0.423 0.011-0.652 0.011-11.052 0-20.011-8.959-20.011-20.011s8.959-20.011 20.011-20.011c0.229 0 0.458 0.004 0.685 0.012l-0.033-0.001h20.011v-39.894zM515.324 549.38c7.658 0.017 15.103 0.89 22.255 2.53l-0.673-0.13c3.717-23.792 9.156-65.852 12.384-123.781h-74.349c3.378 57.865 9.092 100.605 13.043 125.204 8.211-2.427 17.645-3.824 27.404-3.824 0.014 0 0.029 0 0.043 0h-0.002zM515.324 589.38c-33.135 0.057-59.974 26.931-59.974 60.074 0 10.99 2.951 21.292 8.105 30.154l-0.154-0.287 52.023 90.069 52.002-90.047c5.018-8.585 7.982-18.901 7.982-29.91 0-33.138-26.85-60.004-59.981-60.032h-0.003zM473.009 388h78.045c0.425-13.149 0.701-26.511 0.85-40h-79.787c0.149 13.404 0.446 26.766 0.892 40zM252.086 348v279.999h40v-279.999zM172.086 348v279.999h39.915v-279.999zM184.45 667.999l47.647 95.273 47.647-95.273zM688.579-24h-353.18c8.517 23.489 30.625 39.973 56.587 40h240.045c25.959-0.030 48.060-16.514 56.436-39.582l0.133-0.418zM572 56h-120v92.002h120zM924.054 188.001h-824.065c-33.128 0.036-59.974 26.882-60.010 60.007v59.993h944.022v-60.010c-0.048-33.097-26.853-59.917-59.94-59.989h-0.007zM552.010 268.001h-120c-0.194 0.007-0.423 0.011-0.652 0.011-11.052 0-20.011-8.959-20.011-20.011s8.959-20.011 20.011-20.011c0.229 0 0.458 0.004 0.685 0.012l-0.033-0.001h120c10.767 0.362 19.359 9.178 19.359 20s-8.591 19.638-19.326 19.999l-0.033 0.001z" />
<glyph unicode="&#xe91b;" glyph-name="double-check" horiz-adv-x="1968" d="M1380.193 754.343l-783.024-783.024c-21.749-21.901-51.876-35.458-85.169-35.458s-63.42 13.556-85.162 35.451l-391.519 391.519c-21.797 21.797-35.278 51.908-35.278 85.169 0 66.521 53.926 120.447 120.447 120.447 33.261 0 63.372-13.482 85.169-35.278l306.3-306.3 697.812 697.812c21.797 21.797 51.908 35.278 85.169 35.278 66.521 0 120.447-53.926 120.447-120.447 0-33.261-13.482-63.372-35.278-85.169v0zM1064.977-64c-0.003 0-0.006 0-0.009 0-33.267 0-63.373 13.535-85.111 35.399l-358.256 358.17 170.338 170.338 273.038-273.124 697.897 697.812c21.797 21.797 51.908 35.278 85.169 35.278 66.521 0 120.447-53.926 120.447-120.447 0-33.261-13.482-63.372-35.278-85.169l-783.109-782.938c-21.735-21.819-51.807-35.319-85.031-35.319-0.033 0-0.067 0-0.1 0h0.005z" />
<glyph unicode="&#xe91c;" glyph-name="eye" horiz-adv-x="1607" d="M1596.405 479.247c-14.312 19.646-356.298 480.753-793.136 480.753s-778.734-461.107-793.047-480.753c-6.261-8.63-10.015-19.434-10.015-31.114s3.754-22.483 10.122-31.269l-0.107 0.155c14.312-19.646 356.298-480.753 793.136-480.753s778.734 461.107 793.136 480.753c6.234 8.618 9.971 19.399 9.971 31.052 0 11.707-3.772 22.533-10.166 31.329l0.106-0.154zM803.27 41.965c-321.717 0-600.408 306.071-682.815 406.080 82.407 100.098 360.476 405.991 682.815 405.991s600.319-305.982 682.815-406.080c-82.318-100.098-360.387-405.991-682.815-405.991zM803.536 765.761c-175.519 0-317.805-142.286-317.805-317.805s142.286-317.805 317.805-317.805c175.519 0 317.805 142.286 317.805 317.805v0c-0.202 175.438-142.368 317.603-317.786 317.805h-0.019zM803.536 236.115c-116.996 0-211.841 94.844-211.841 211.841s94.844 211.841 211.841 211.841c116.996 0 211.841-94.844 211.841-211.841v0c-0.152-116.935-94.905-211.689-211.826-211.841h-0.015z" />
<glyph unicode="&#xe91d;" glyph-name="fast" horiz-adv-x="1067" d="M1064.693 398.712c-18.675 182.047-151.051 328.556-324.172 368.214l-2.826 0.545v52.934c31.144 7.899 53.817 35.682 53.817 68.761 0 39.121-31.714 70.835-70.835 70.835-0.029 0-0.059 0-0.088 0h-150.024c-0.025 0-0.054 0-0.083 0-39.121 0-70.835-31.714-70.835-70.835 0-33.079 22.674-60.862 53.327-68.655l0.49-0.106v-53.082c-80.841-18.413-150.552-58.105-205.177-112.854l-0.008-0.008c-12.346-12.34-23.932-25.438-34.682-39.219l-0.706-0.941h-149.88c-11.507 0-20.836-9.328-20.836-20.836s9.328-20.836 20.836-20.836v0h121.517c-13.94-22.89-26.43-49.324-36.073-77.090l-0.886-2.933h-226.821c-11.507 0-20.836-9.328-20.836-20.836s9.328-20.836 20.836-20.836v0h215.084c-5.643-23.654-9.36-51.133-10.324-79.311l-0.019-0.712h-92.116c-11.507 0-20.836-9.328-20.836-20.836s9.328-20.836 20.836-20.836v0h92.768c1.96-29.361 6.59-56.68 13.692-82.984l-0.681 2.961h-134.972c-11.507 0-20.836-9.328-20.836-20.836s9.328-20.836 20.836-20.836v0h148.191c56.987-147.171 190.278-252.916 350.043-269.292l1.792-0.149q20.747-2.045 41.286-2.045c0.065 0 0.143 0 0.22 0 85.309 0 164.704 25.321 231.079 68.858l-1.602-0.986c5.733 3.773 9.465 10.179 9.465 17.457 0 11.505-9.326 20.831-20.831 20.831-4.227 0-8.16-1.259-11.445-3.423l0.078 0.048c-58.29-38.372-129.767-61.211-206.578-61.211-209.422 0-379.191 169.77-379.191 379.191s169.77 379.191 379.191 379.191c209.422 0 379.191-169.77 379.191-379.191 0-76.634-22.733-147.959-61.824-207.598l0.887 1.442c-2.109-3.203-3.364-7.131-3.364-11.351 0-11.507 9.328-20.835 20.835-20.835 7.286 0 13.699 3.74 17.423 9.405l0.049 0.079c42.422 64.737 67.662 144.050 67.662 229.258 0 14.61-0.742 29.047-2.191 43.275l0.147-1.788zM541.401 889.165c0.017 16.1 13.064 29.147 29.162 29.164h150.001c16.107 0 29.164-13.057 29.164-29.164s-13.057-29.164-29.164-29.164v0h-149.999c-16.1 0.017-29.147 13.064-29.164 29.162v0.002zM595.135 774.494v43.835h100.77v-43.746c-15.013 1.882-32.388 2.956-50.013 2.956-17.889 0-35.519-1.106-52.826-3.255l2.069 0.209zM928.772 94.831c-11.406-0.068-20.627-9.33-20.627-20.746 0-11.458 9.289-20.747 20.747-20.747s20.747 9.289 20.747 20.747c0 5.715-2.31 10.889-6.048 14.642l0.001-0.001c-3.789 3.773-9.014 6.105-14.785 6.105-0.012 0-0.024 0-0.036 0h0.002zM645.876 680.097c-178.501 0-323.205-144.704-323.205-323.205s144.704-323.205 323.205-323.205c178.501 0 323.205 144.704 323.205 323.205v0c-0.219 178.413-144.792 322.985-323.183 323.205h-0.021zM645.876 75.477c-155.503 0-281.563 126.060-281.563 281.563s126.060 281.563 281.563 281.563c155.503 0 281.563-126.060 281.563-281.563v0c-0.084-155.499-126.076-281.543-281.547-281.711h-0.016zM777.677 518.124l-103.2-103.2c-8.342 4.212-18.183 6.678-28.601 6.678s-20.259-2.467-28.972-6.848l0.371 0.169-46.176 46.176c-3.77 3.77-8.978 6.101-14.73 6.101-11.505 0-20.832-9.327-20.832-20.832 0-5.752 2.332-10.96 6.101-14.73l46.176-46.176c-4.206-8.348-6.669-18.194-6.669-28.615 0-35.749 28.981-64.73 64.73-64.73s64.73 28.981 64.73 64.73c0 10.421-2.463 20.268-6.838 28.988l0.17-0.373 103.141 103.141c3.77 3.77 6.101 8.978 6.101 14.73 0 11.505-9.327 20.832-20.832 20.832-5.752 0-10.96-2.332-14.73-6.101v0zM645.876 333.804c-12.735 0-23.059 10.324-23.059 23.059s10.324 23.059 23.059 23.059c12.735 0 23.059-10.324 23.059-23.059v0c0 0 0 0 0 0 0-12.73-10.303-23.054-23.026-23.088h-0.003zM868.666 377.461h-19.294c-11.507 0-20.836-9.328-20.836-20.836s9.328-20.836 20.836-20.836h19.294c11.507 0 20.836 9.328 20.836 20.836s-9.328 20.836-20.836 20.836v0zM442.41 377.965h-19.294c-11.507 0-20.836-9.328-20.836-20.836s9.328-20.836 20.836-20.836h19.294c11.507 0 20.836 9.328 20.836 20.836s-9.328 20.836-20.836 20.836v0zM646.143 539.523c11.458 0 20.747 9.289 20.747 20.747v0 19.294c0 11.507-9.328 20.836-20.836 20.836s-20.836-9.328-20.836-20.836v0-19.294c0 0 0 0 0-0.001 0-11.458 9.289-20.747 20.747-20.747 0.063 0 0.125 0 0.187 0.001h-0.010zM645.639 174.232c-11.458 0-20.747-9.289-20.747-20.747v0-19.294c0-11.507 9.328-20.836 20.836-20.836s20.836 9.328 20.836 20.836v0 19.087c0.001 0.062 0.001 0.135 0.001 0.208 0 11.458-9.289 20.747-20.747 20.747-0.063 0-0.126 0-0.188-0.001h0.010zM20.747 249.157c-11.328-0.17-20.445-9.393-20.445-20.745 0-11.458 9.289-20.747 20.747-20.747 5.654 0 10.779 2.261 14.521 5.929l-0.003-0.003c3.845 3.769 6.229 9.017 6.229 14.821 0 11.458-9.289 20.747-20.747 20.747-0.106 0-0.212-0.001-0.318-0.002h0.016z" />
<glyph unicode="&#xe91e;" glyph-name="files-and-folders" horiz-adv-x="897" d="M891.314 512.557c-4.585 6.789-12.251 11.193-20.946 11.193-13.915 0-25.195-11.28-25.195-25.195s11.28-25.195 25.195-25.195c6.525 0 12.47 2.48 16.945 6.55l-0.020-0.018c5.054 4.657 8.208 11.308 8.208 18.696 0 5.201-1.563 10.036-4.245 14.062l0.058-0.093zM0 145.987c0.273-17.529 8.517-33.079 21.26-43.218l0.115-0.088 177.493-148.771c13.658-11.157 31.288-17.918 50.497-17.918 0.386 0 0.772 0.003 1.157 0.008l-0.058-0.001h573.649c40.213 0 72.955 27.437 72.955 61.17v420.222c0 26.185-48.642 26.293-48.642 0v-420.222c-1.152-11.528-10.802-20.455-22.537-20.455-0.625 0-1.244 0.025-1.857 0.075l0.081-0.005h-566.333v115.039c0 33.732-32.727 61.17-72.955 61.17h-136.104v450.598h799.783v-21.467c0-26.185 48.642-26.293 48.642 0v316.706c0 33.732-32.727 61.17-72.955 61.17h-751.234c-40.213 0-72.955-27.437-72.955-61.17zM209.137 91.855v-88.839l-130.289 109.239h105.976c0.535 0.045 1.158 0.071 1.787 0.071 11.751 0 21.412-8.952 22.534-20.409l0.007-0.093zM48.642 644.377v254.453c1.152 11.528 10.802 20.455 22.537 20.455 0.625 0 1.244-0.025 1.857-0.075l-0.081 0.005h751.142c0.532 0.044 1.151 0.070 1.776 0.070 11.735 0 21.384-8.927 22.529-20.36l0.008-0.095v-254.453zM316.876 853.498c-4.28 2.592-9.451 4.126-14.981 4.126-0.29 0-0.58-0.004-0.868-0.013l0.042 0.001h-57.643c-21.282 0-21.065-44.853 0-44.853h28.659v-120.22c0-43.012-54.859-43.198-58.958 0-2.243 26.417-51.379 19.395-51.379-8.893-0.034-0.756-0.053-1.642-0.053-2.532 0-19.361 9.038-36.611 23.125-47.76l0.127-0.097c16.048-11.875 36.231-19.007 58.080-19.007 22.041 0 42.387 7.259 58.778 19.516l-0.257-0.184c13.686 13.368 22.173 32.007 22.173 52.628 0 2.228-0.099 4.433-0.293 6.611l0.020-0.282v149.266c0.003 0.109 0.005 0.238 0.005 0.367 0 4.825-2.62 9.037-6.516 11.292l-0.063 0.033zM509.17 839.331c-31.598 27.19-85.885 18.281-124.675 18.281-0.519 0.055-1.121 0.086-1.73 0.086-8.974 0-16.369-6.764-17.363-15.472l-0.007-0.080v-209.493c0-21.931 51.379-21.931 51.379 0v71.145c31.428 0 65.578-3.016 91.406 18.56 30.376 25.473 31.134 90.989 0.99 116.972zM479.026 776.259q0-32.943-29.649-32.943h-32.603v69.491h32.603c21.684 0 30.299-16.766 29.603-36.563zM639.134 812.806c0.846 0.095 1.827 0.149 2.82 0.149 14.769 0 26.741-11.973 26.741-26.741 0-1.077-0.064-2.139-0.187-3.183l0.012 0.126c0.541-25.52 51.379-20.106 51.379 8.893 0.028 0.665 0.044 1.445 0.044 2.23 0 18.756-9.082 35.391-23.089 45.746l-0.155 0.109c-15.995 11.303-35.899 18.067-57.382 18.067-22.277 0-42.856-7.273-59.491-19.574l0.273 0.192c-13.686-13.366-22.174-32.003-22.174-52.622 0-2.23 0.099-4.438 0.294-6.617l-0.020 0.282v-87.292c-0.172-1.885-0.271-4.076-0.271-6.291 0-20.665 8.557-39.33 22.321-52.648l0.020-0.019c16.195-12.149 36.631-19.454 58.772-19.454s42.578 7.305 59.028 19.637l-0.256-0.183c13.784 13.337 22.341 32.002 22.341 52.667 0 2.215-0.098 4.406-0.291 6.571l0.020-0.28v34.598c0.009 0.198 0.014 0.431 0.014 0.665 0 8.542-6.925 15.466-15.466 15.466-0.005 0-0.010 0-0.015 0h-55.338c-20.493 0-20.942-39.532 0-39.532h19.426v-11.198c0.089-0.86 0.139-1.858 0.139-2.868 0-16.358-13.261-29.618-29.618-29.618s-29.618 13.261-29.618 29.618c0 1.010 0.051 2.008 0.149 2.992l-0.010-0.124v87.308q-0.062 32.928 29.587 32.928zM687.822 181.452c13.837 0.342 24.923 11.64 24.923 25.528 0 5.27-1.597 10.168-4.333 14.235l0.058-0.091-148.957 212.648c-4.704 6.39-12.197 10.49-20.648 10.49s-15.943-4.1-20.598-10.419l-0.050-0.070-97.253-138.857-60.922 66.506c-4.654 4.954-11.246 8.040-18.56 8.040s-13.906-3.086-18.547-8.026l-0.012-0.013-126.221-137.651c-4.105-4.47-6.62-10.455-6.62-17.029 0-13.913 11.27-25.193 25.178-25.21h472.578zM538.865 375.401l100.532-143.528h-160.619l-22.921 25.009zM341.467 307.055l49.879-54.411-14.554-20.771h-104.244zM450.428 447.985c-0.009 49.903-40.466 90.355-90.37 90.355-49.91 0-90.37-40.46-90.37-90.37s40.46-90.37 90.37-90.37v0c49.891 0.062 90.317 40.494 90.37 90.38v0.005zM320.093 447.985c0 22.072 17.893 39.965 39.965 39.965s39.965-17.893 39.965-39.965c0-22.072-17.893-39.965-39.965-39.965v0c-0.009 0-0.020 0-0.031 0-22.081 0-39.985 17.887-40.012 39.963v0.003z" />
<glyph unicode="&#xe91f;" glyph-name="global" d="M512 933.559c-268.167 0-485.559-217.392-485.559-485.559s217.392-485.559 485.559-485.559c268.167 0 485.559 217.392 485.559 485.559v0c0 268.167-217.392 485.559-485.559 485.559v0zM931.933 277.827l-138.074-23.85c15.035 53.001 24.227 114.050 25.374 177.063l0.010 0.672h145.53c-1.984-55.933-13.865-108.556-33.937-156.922l1.097 2.984zM59.227 431.818h145.53c1.156-63.685 10.348-124.734 26.601-182.834l-1.218 5.098-138.074 23.744c-18.98 45.399-30.863 98.042-32.818 153.211l-0.022 0.78zM92.067 618.12l138.074 23.85c-15.035-53.001-24.227-114.050-25.374-177.063l-0.010-0.672h-145.53c1.984 55.933 13.865 108.556 33.937 156.922l-1.097-2.984zM528.182 673.699c61.888-0.819 121.827-6.557 180.198-16.841l-6.694 0.977 57.112-9.836c16.723-54.789 26.902-117.886 28.071-183.183l0.009-0.634h-258.697zM707.186 689.563c-53.271 9.677-115.094 15.68-178.148 16.595l-0.856 0.010v194.128c92.754-9.043 173.399-93.653 219.036-217.502zM495.66 705.851c-63.824-0.809-125.669-6.701-185.896-17.291l6.891 1.004-40.084-6.927c46.007 124.007 126.44 208.618 219.247 217.714zM322.578 657.834c51.678 9.309 111.617 15.046 172.746 15.857l0.759 0.008v-209.517h-259.014c1.179 65.931 11.358 129.028 29.354 188.736l-1.274-4.919zM237.068 431.818h258.75v-209.517c-61.888 0.819-121.827 6.557-180.198 16.841l6.694-0.977-57.112 9.836c-16.723 54.789-26.902 117.886-28.071 183.183l-0.009 0.634zM316.761 206.278c53.302-9.6 115.138-15.528 178.2-16.385l0.805-0.009v-194.234c-92.807 8.937-173.399 93.865-219.089 217.502zM528.288 189.885c63.866 0.865 125.702 6.793 185.924 17.403l-6.92-1.010 40.084 6.927c-45.69-123.69-126.281-208.671-219.089-217.555zM701.792 238.166c-51.678-9.309-111.617-15.047-172.746-15.857l-0.759-0.008v209.517h258.591c-1.179-65.931-11.358-129.028-29.354-188.736l1.274 4.919zM819.348 464.182c-1.156 63.685-10.348 124.734-26.601 182.834l1.218-5.098 138.074-23.85c18.974-45.383 30.856-98.006 32.817-153.155l0.022-0.783zM915.646 653.762l-132.204 22.845c-25.086 80.292-69.69 148.398-128.36 201.172l-0.407 0.36c114.45-38.969 206.29-118.85 259.934-221.804l1.195-2.52zM369.59 878.139c-59.097-53.13-103.719-121.236-127.963-198.37l-0.857-3.162-132.204-22.845c54.806 105.477 146.609 185.372 257.82 223.424l3.204 0.953zM108.407 242.238l132.204-22.845c25.086-80.292 69.69-148.398 128.36-201.172l0.407-0.36c-114.394 39.017-206.176 118.909-259.776 221.854l-1.195 2.523zM654.41 17.914c59.106 53.188 103.716 121.37 127.912 198.581l0.854 3.162 132.204 22.845c-54.84-105.474-146.68-185.355-257.925-223.372l-3.205-0.952zM654.41 17.914" />
<glyph unicode="&#xe920;" glyph-name="hamburger" horiz-adv-x="1434" d="M102.4 755.2h1228.8c56.554 0 102.4 45.846 102.4 102.4s-45.846 102.4-102.4 102.4v0h-1228.8c-56.554 0-102.4-45.846-102.4-102.4s45.846-102.4 102.4-102.4v0zM1331.2 550.4h-1228.8c-56.554 0-102.4-45.846-102.4-102.4s45.846-102.4 102.4-102.4h1228.8c56.554 0 102.4 45.846 102.4 102.4s-45.846 102.4-102.4 102.4v0zM1331.2 140.8h-1228.8c-56.554 0-102.4-45.846-102.4-102.4s45.846-102.4 102.4-102.4h1228.8c56.554 0 102.4 45.846 102.4 102.4s-45.846 102.4-102.4 102.4v0z" />
<glyph unicode="&#xe921;" glyph-name="hamburger-2" horiz-adv-x="1434" d="M102.4 883.2h1228.8c56.533 0 102.357 45.824 102.357 102.4 0.043 56.533-45.781 102.4-102.357 102.4v0h-1228.8c-56.576 0-102.4-45.867-102.4-102.4 0-56.576 45.824-102.4 102.4-102.4zM1331.2 550.4h-1228.8c-56.576 0-102.4-45.824-102.4-102.4s45.824-102.4 102.357-102.4h1228.843c56.533 0 102.357 45.824 102.357 102.4 0.043 56.576-45.781 102.4-102.357 102.4v0zM1331.2 12.8h-1228.8c-56.533 0.043-102.4-45.781-102.443-102.315s45.781-102.4 102.315-102.443c0.043 0 0.085 0 0.128 0h1228.8c56.533 0.043 102.357 45.909 102.315 102.443 0 56.491-45.781 102.272-102.315 102.315z" />
<glyph unicode="&#xe922;" glyph-name="heart" horiz-adv-x="1151" d="M1059.709 859.782c-56.76 61.701-137.888 100.226-228.014 100.226-0.79 0-1.58-0.003-2.369-0.009l0.121 0.001c-0.344 0.001-0.752 0.002-1.16 0.002-68.135 0-130.773-23.532-180.231-62.912l0.589 0.453c-27.987-22.010-52.107-47.152-72.379-75.253l-0.749-1.091c-21.019 29.194-45.139 54.335-72.337 75.743l-0.792 0.601c-48.861 38.927-111.492 62.459-179.619 62.459-0.44 0-0.88-0.001-1.319-0.003h0.068c-0.639 0.005-1.394 0.007-2.15 0.007-90.135 0-171.272-38.524-227.844-100.006l-0.2-0.22c-56.708-63.315-91.376-147.397-91.376-239.577 0-2.137 0.019-4.269 0.056-6.396l-0.004 0.32c2.839-108.7 45.742-206.862 114.417-280.738l-0.244 0.265c87.795-96.605 181.159-184.419 280.973-264.528l4.768-3.7c39.608-33.725 84.484-71.965 131.070-112.736 11.817-10.364 27.403-16.687 44.465-16.687s32.648 6.323 44.542 16.753l-0.077-0.066c46.586 41.045 91.53 79.011 131.138 112.805 104.584 83.803 197.949 171.618 283.958 266.238l1.782 1.99c68.431 73.611 111.334 171.773 114.161 279.913l0.012 0.56c0.033 1.808 0.051 3.94 0.051 6.077 0 92.179-34.668 176.261-91.677 239.919l0.301-0.342z" />
<glyph unicode="&#xe923;" glyph-name="info" horiz-adv-x="452" d="M438.876 46.529l-14.314-58.472q-64.414-25.387-102.765-38.689c-25.256-8.586-54.348-13.542-84.598-13.542-1.592 0-3.181 0.014-4.766 0.041l0.239-0.003c-3.348-0.225-7.257-0.353-11.196-0.353-41.85 0-80.323 14.455-110.7 38.644l0.361-0.278c-26.535 22.703-43.247 56.225-43.247 93.649 0 1.021 0.012 2.039 0.037 3.054l-0.003-0.15c0.024 16.406 1.202 32.516 3.455 48.278l-0.214-1.824q3.308 23.767 10.466 53.678l53.61 189.865q7.157 27.008 12.086 51.72c2.951 13.315 4.714 28.658 4.861 44.386l0.001 0.109c0.255 2.222 0.4 4.797 0.4 7.407 0 16.497-5.806 31.639-15.487 43.492l0.098-0.124c-13.407 9.292-30.020 14.844-47.93 14.844-3.334 0-6.622-0.192-9.856-0.567l0.394 0.037c-15.297-0.201-29.949-2.655-43.737-7.045l1.065 0.293c-14.584-4.321-27.008-8.507-37.541-12.356l14.314 58.539q52.733 21.471 100.874 36.731c27.347 9.5 58.878 15.198 91.675 15.662l0.219 0.002c3.376 0.234 7.317 0.368 11.289 0.368 41.025 0 78.724-14.236 108.428-38.039l-0.342 0.265c25.811-22.862 41.999-56.086 41.999-93.091 0-1.455-0.025-2.904-0.075-4.347l0.006 0.209c0-8.237-0.945-22.754-2.903-43.55-1.846-21.163-5.645-40.637-11.269-59.32l0.534 2.063-53.408-189.054c-4.093-13.621-8.174-31.169-11.31-49.043l-0.438-3.015c-2.772-12.996-4.638-28.177-5.186-43.695l-0.013-0.463c-0.302-2.331-0.475-5.027-0.475-7.764 0-16.895 6.58-32.252 17.317-43.65l-0.030 0.032c14.1-8.744 31.204-13.927 49.519-13.927 3.153 0 6.269 0.154 9.343 0.454l-0.39-0.031c15.847 0.31 31.002 2.756 45.353 7.060l-1.195-0.308c13.884 3.515 25.69 7.558 37.057 12.429l-1.609-0.613zM452.38 840.423c0.005-0.388 0.008-0.846 0.008-1.305 0-32.941-14.392-62.52-37.232-82.792l-0.114-0.099c-22.749-21.587-53.569-34.864-87.489-34.864-0.86 0-1.719 0.009-2.575 0.026l0.128-0.002c-0.741-0.015-1.614-0.024-2.49-0.024-34.057 0-65.014 13.271-87.983 34.924l0.064-0.060c-23.189 20.341-37.749 50.032-37.749 83.123 0 0.377 0.002 0.754 0.006 1.131v-0.057c-0.002 0.245-0.003 0.535-0.003 0.826 0 33.251 14.549 63.104 37.629 83.539l0.117 0.102c23.671 21.756 55.381 35.092 90.206 35.092s66.535-13.336 90.302-35.179l-0.096 0.087c22.961-20.555 37.344-50.285 37.344-83.375 0-0.384-0.002-0.767-0.006-1.15v0.058z" />
<glyph unicode="&#xe924;" glyph-name="key" horiz-adv-x="1907" d="M1906.732 582.829h-900.878c-61.248 219.117-259.13 377.165-493.927 377.165-282.77 0-512-229.23-512-512 0-281.938 227.884-510.651 509.506-511.994h0.128c235.55 1.236 433.79 159.546 495.401 375.47l0.891 3.652h326.341v-256h400.585v256h173.951zM552.585 207.805c-14.029-2.837-30.155-4.461-46.661-4.461-135.997 0-246.244 110.247-246.244 246.244s110.247 246.244 246.244 246.244c135.997 0 246.244-110.247 246.244-246.244 0-16.505-1.624-32.632-4.721-48.227l0.259 1.567c-19.582-98.877-96.245-175.54-193.555-194.862l-1.567-0.259z" />
<glyph unicode="&#xe925;" glyph-name="light-bulb" d="M143.36 509.44h-81.92c-11.304 0-20.48-9.176-20.48-20.48s9.176-20.48 20.48-20.48h81.92c11.304 0 20.48 9.176 20.48 20.48 0 11.306-9.176 20.48-20.48 20.48zM512 837.12c11.304 0 20.48 9.176 20.48 20.48v81.92c0 11.304-9.176 20.48-20.48 20.48s-20.48-9.176-20.48-20.48v-81.92c0-11.304 9.176-20.48 20.48-20.48zM552.96-23.040h-81.92c-11.306 0-20.48-9.176-20.48-20.48s9.174-20.48 20.48-20.48h81.92c11.304 0 20.48 9.176 20.48 20.48s-9.176 20.48-20.48 20.48zM251.33 729.15c5.242 0 10.486 2.008 14.458 6.022 8.028 7.988 8.028 20.93 0 28.958l-57.918 57.918c-7.988 7.988-20.972 7.988-28.958 0s-7.988-20.972 0-28.958l57.918-57.918c4.014-4.016 9.258-6.022 14.5-6.022zM962.56 509.44h-81.92c-11.304 0-20.48-9.176-20.48-20.48s9.176-20.48 20.48-20.48h81.92c11.304 0 20.48 9.176 20.48 20.48 0 11.306-9.176 20.48-20.48 20.48zM816.128 822.046l-57.918-57.918c-8.028-8.028-8.028-20.972 0-28.958 3.974-4.014 9.216-6.022 14.458-6.022s10.486 2.008 14.5 6.022l57.918 57.918c7.988 7.988 7.988 20.972 0 28.958s-20.97 7.988-28.958 0zM593.92 58.88h-163.84c-11.304 0-20.48-9.176-20.48-20.48s9.176-20.48 20.48-20.48h163.84c11.304 0 20.48 9.176 20.48 20.48s-9.176 20.48-20.48 20.48zM707.298 726.16c-71.188 58.654-164.782 81.88-256.82 64.020-121.118-23.592-217.62-120.996-240.19-242.402-27.198-146.432 49.192-287.54 185.754-343.204 8.356-3.4 13.558-10.362 13.558-18.146v-66.11c0-11.304 9.176-20.48 20.48-20.48h163.84c11.304 0 20.48 9.176 20.48 20.48v67.584c0 8.274 6.184 13.68 12.042 16.056 117.064 46.982 192.758 158.884 192.758 285 0 92.12-40.796 178.546-111.902 237.202z" />
<glyph unicode="&#xe926;" glyph-name="loading" d="M511.99 960c-28.499 0-51.602-23.103-51.602-51.602v0-179.742c0-28.499 23.103-51.602 51.602-51.602s51.602 23.103 51.602 51.602v0 179.742c0 28.499-23.103 51.602-51.602 51.602v0zM350.045 682.933l-127.103 127.103c-9.338 9.338-22.239 15.114-36.489 15.114-28.5 0-51.604-23.104-51.604-51.604 0-14.25 5.776-27.151 15.114-36.489l127.103-127.103c9.338-9.338 22.239-15.114 36.489-15.114 28.5 0 51.604 23.104 51.604 51.604 0 14.25-5.776 27.151-15.114 36.489v0zM231.364 499.612h-179.762c-28.499 0-51.602-23.103-51.602-51.602s23.103-51.602 51.602-51.602v0h179.742c28.499 0 51.602 23.103 51.602 51.602s-23.103 51.602-51.602 51.602v0zM350.045 286.045c-9.338 9.339-22.239 15.115-36.489 15.115s-27.151-5.776-36.489-15.115l-127.103-127.103c-9.338-9.338-15.114-22.239-15.114-36.489 0-28.5 23.104-51.604 51.604-51.604 14.25 0 27.151 5.776 36.489 15.114l127.103 127.103c9.339 9.338 15.115 22.239 15.115 36.489s-5.776 27.151-15.115 36.489v0zM511.99 218.965c-28.499 0-51.602-23.103-51.602-51.602v0-179.742c0-28.499 23.103-51.602 51.602-51.602s51.602 23.103 51.602 51.602v0 179.742c0 28.499-23.103 51.602-51.602 51.602v0zM874.036 158.943l-127.103 127.103c-9.338 9.338-22.239 15.114-36.489 15.114-28.5 0-51.604-23.104-51.604-51.604 0-14.25 5.776-27.151 15.114-36.489v0l127.103-127.103c9.338-9.338 22.239-15.114 36.489-15.114 28.5 0 51.604 23.104 51.604 51.604 0 14.25-5.776 27.151-15.114 36.489v0zM972.398 499.612h-179.742c-28.499 0-51.602-23.103-51.602-51.602s23.103-51.602 51.602-51.602v0h179.742c28.499 0 51.602 23.103 51.602 51.602s-23.103 51.602-51.602 51.602v0zM874.036 810.036c-9.338 9.339-22.239 15.115-36.489 15.115s-27.151-5.776-36.489-15.115l-127.103-127.103c-9.338-9.338-15.114-22.239-15.114-36.489 0-28.5 23.104-51.604 51.604-51.604 14.25 0 27.151 5.776 36.489 15.114l127.103 127.103c9.339 9.338 15.115 22.239 15.115 36.489s-5.776 27.151-15.115 36.489v0z" />
<glyph unicode="&#xe927;" glyph-name="lock" horiz-adv-x="768" d="M746.541 575.983h-63.874v85.333c0.011 0.94 0.017 2.050 0.017 3.162 0 164.958-133.725 298.683-298.683 298.683s-298.683-133.725-298.683-298.683c0-1.112 0.006-2.222 0.018-3.331l-0.001 0.169v-85.333h-64.008c-11.777 0-21.325-9.548-21.325-21.325v0-533.325c0.057-47.105 38.228-85.276 85.328-85.333h597.339c47.105 0.057 85.276 38.228 85.333 85.328v533.33c0 0 0 0 0 0 0 11.777-9.548 21.325-21.325 21.325-0.047 0-0.094 0-0.141 0h0.007zM447.891 130.335c0.085-0.713 0.133-1.539 0.133-2.377 0-11.777-9.547-21.324-21.324-21.325h-85.233c-0.010 0-0.021 0-0.032 0-11.777 0-21.325 9.548-21.325 21.325 0 0.837 0.048 1.664 0.142 2.476l-0.009-0.099 13.391 121.020c-21.26 15.516-34.917 40.349-34.917 68.37 0 0.091 0 0.181 0 0.272v-0.014c0 47.147 38.22 85.367 85.367 85.367s85.367-38.22 85.367-85.367v0c0-0.077 0-0.167 0-0.258 0-28.022-13.657-52.854-34.678-68.204l-0.239-0.167zM554.683 575.983h-341.467v85.333c0 94.294 76.44 170.734 170.734 170.734s170.734-76.44 170.734-170.734v0z" />
<glyph unicode="&#xe928;" glyph-name="logout" horiz-adv-x="1071" d="M34.875 482.912h674.912c19.282 0 34.912-15.631 34.912-34.912s-15.631-34.912-34.912-34.912v0h-674.912c-19.282 0-34.912 15.631-34.912 34.912s15.631 34.912 34.912 34.912v0zM523.613 669.087c0.032 0 0.069 0 0.107 0 9.607 0 18.301-3.91 24.577-10.225l186.177-186.177c6.317-6.318 10.225-15.046 10.225-24.686s-3.907-18.368-10.225-24.686l-186.175-186.175c-6.296-6.194-14.94-10.018-24.477-10.018-19.282 0-34.912 15.631-34.912 34.912 0 9.537 3.824 18.181 10.023 24.482l161.521 161.521-161.526 161.526c-6.327 6.314-10.24 15.043-10.24 24.686 0 19.261 15.614 34.875 34.875 34.875 0.031 0 0.062 0 0.094 0h-0.005zM558.525 960c282.764-0.008 511.986-229.235 511.986-512 0-282.77-229.23-512-512-512-215.351 0-399.65 132.954-475.29 321.257l-1.222 3.445c-1.532 3.785-2.42 8.176-2.42 12.774 0 19.284 15.633 34.917 34.917 34.917 14.686 0 27.254-9.067 32.413-21.908l0.083-0.235c66.375-165.504 225.466-280.255 411.36-280.255 244.124 0 442.025 197.901 442.025 442.025s-197.901 442.025-442.025 442.025c-185.893 0-344.985-114.751-410.305-277.282l-1.055-2.973c-5.135-13.293-17.812-22.551-32.651-22.551-19.282 0-34.912 15.631-34.912 34.912 0 4.74 0.945 9.259 2.656 13.38l-0.085-0.231c76.076 191.636 259.882 324.667 474.759 324.667 0.621 0 1.242-0.001 1.863-0.003h-0.096z" />
<glyph unicode="&#xe929;" glyph-name="logout-2" horiz-adv-x="1027" d="M512.028 21.338h-384.049c-23.537 0.032-42.609 19.104-42.641 42.638v768.045c0.032 23.537 19.104 42.609 42.638 42.641h384.052c23.565 0 42.669 19.104 42.669 42.669s-19.104 42.669-42.669 42.669h-384.049c-70.642-0.095-127.884-57.337-127.979-127.97v-768.051c0.095-70.642 57.337-127.884 127.97-127.979h384.058c23.565 0 42.669 19.104 42.669 42.669s-19.104 42.669-42.669 42.669v0zM1014.711 478.414l-259.428 256.014c-7.696 7.586-18.27 12.271-29.938 12.271-23.559 0-42.657-19.098-42.657-42.657 0-11.891 4.865-22.645 12.713-30.381l0.005-0.005 185.393-182.931h-496.751c-23.565 0-42.669-19.104-42.669-42.669s19.104-42.669 42.669-42.669h496.751l-185.393-182.931c-7.853-7.741-12.719-18.495-12.719-30.386 0-23.559 19.098-42.657 42.657-42.657 11.668 0 22.242 4.685 29.943 12.276l-0.005-0.005 259.428 256.014c7.857 7.739 12.725 18.494 12.725 30.386s-4.868 22.647-12.72 30.381l-0.005 0.005z" />
<glyph unicode="&#xe92a;" glyph-name="mail" horiz-adv-x="933" d="M2.725 928.163l370.669-978.634c3.086-7.956 10.668-13.5 19.548-13.528h1.773c9.378 0.841 16.924 7.753 18.717 16.741l0.022 0.133 87.863 451.648 414.361 80.023c9.704 1.93 16.916 10.377 16.916 20.509 0 8.212-4.739 15.318-11.631 18.731l-0.122 0.055-890.58 434.104c-2.673 1.308-5.816 2.073-9.138 2.073-5.422 0-10.368-2.038-14.115-5.389l0.020 0.018c-4.297-3.843-6.989-9.404-6.989-15.594 0-2.606 0.477-5.1 1.349-7.4l-0.048 0.144 1.243-3.346zM846.266 513.754l-355.133-68.598-383.576 428.463zM461.018 416.139l-74.526-383.146-306.277 808.597z" />
<glyph unicode="&#xe92b;" glyph-name="menu" d="M934 838h-604c-49.64 0-90-40.38-90-90 0-49.64 40.36-90 90-90h604c49.62 0 90 40.36 90 90 0 49.62-40.38 90-90 90zM934 538h-604c-49.64 0-90-40.38-90-90 0-49.64 40.36-90 90-90h604c49.62 0 90 40.36 90 90 0 49.62-40.38 90-90 90zM934 238h-604c-49.64 0-90-40.38-90-90 0-49.64 40.36-90 90-90h604c49.62 0 90 40.36 90 90 0 49.62-40.38 90-90 90zM90 838c-49.64 0-90-40.38-90-90 0-49.64 40.36-90 90-90 49.62 0 90 40.36 90 90 0 49.62-40.38 90-90 90zM90 538c-49.64 0-90-40.38-90-90 0-49.64 40.36-90 90-90 49.62 0 90 40.36 90 90 0 49.62-40.38 90-90 90zM90 238c-49.64 0-90-40.38-90-90 0-49.64 40.36-90 90-90 49.62 0 90 40.36 90 90 0 49.62-40.38 90-90 90z" />
<glyph unicode="&#xe92c;" glyph-name="money" horiz-adv-x="1059" d="M900.031 540.238c0.005 0 0.011 0 0.016 0 8.362 0 15.142 6.774 15.151 15.134v53.128c0 0.005 0 0.011 0 0.016 0 8.362-6.774 15.142-15.134 15.151h-884.913c-0.005 0-0.011 0-0.016 0-8.362 0-15.142-6.774-15.151-15.134v-424.775c0-0.005 0-0.011 0-0.016 0-8.362 6.774-15.142 15.134-15.151h601.757c8.377 0 15.168 6.791 15.168 15.168s-6.791 15.168-15.168 15.168h-586.573v394.439h854.561v-37.927c0-0.005 0-0.011 0-0.016 0-8.362 6.774-15.142 15.134-15.151h0.001zM77.83 851.378c-3.345-2.153-5.765-5.495-6.674-9.416l-0.020-0.103-35.396-159.284c-0.226-0.981-0.356-2.108-0.356-3.265 0-8.379 6.793-15.172 15.172-15.172 7.222 0 13.266 5.046 14.797 11.805l0.019 0.102 32.082 144.427 693.072-155.937c0.981-0.238 2.107-0.375 3.265-0.376v0c8.339 0.050 15.080 6.821 15.080 15.167 0 7.188-5 13.208-11.712 14.772l-0.102 0.020-707.783 159.235c-1 0.234-2.148 0.368-3.327 0.368-3.010 0-5.817-0.873-8.179-2.38l0.062 0.037zM258.878 867.166l29.045 58.123 411.631-171.431c1.731-0.743 3.746-1.175 5.861-1.175 8.399 0 15.208 6.809 15.208 15.208 0 6.283-3.811 11.677-9.247 13.995l-0.099 0.038-424.79 176.901c-1.729 0.741-3.742 1.172-5.855 1.172-5.921 0-11.051-3.381-13.567-8.318l-0.040-0.086-35.396-70.793c-1.154-2.093-1.833-4.588-1.833-7.241 0-8.406 6.815-15.221 15.221-15.221 5.753 0 10.76 3.192 13.348 7.901l0.040 0.079c0.163 0.294 0.31 0.588 0.441 0.882zM737.106 537.708c0 8.377-6.791 15.168-15.168 15.168v0h-140.41c-8.377 0-15.168-6.791-15.168-15.168s6.791-15.168 15.168-15.168h140.41c8.377 0 15.168 6.791 15.168 15.168v0zM439.909 240.413c86.014 0 155.741 69.728 155.741 155.741s-69.728 155.741-155.741 155.741c-86.014 0-155.741-69.728-155.741-155.741v0 0c0.093-85.976 69.765-155.648 155.733-155.741h0.009zM439.909 523.569c70.333 0 127.349-57.016 127.349-127.349s-57.016-127.349-127.349-127.349c-70.333 0-127.349 57.016-127.349 127.349v0c0 70.333 57.016 127.349 127.349 127.349v0zM864.634 502.327c-93.797 0-194.664-22.155-194.664-70.793v-424.725c0-48.638 100.867-70.793 194.664-70.793s194.664 22.155 194.664 70.793v424.725c0.016 48.638-100.867 70.793-194.664 70.793zM1023.902 77.831c-2.678-9.796-55.74-35.658-159.268-35.658s-156.607 25.845-159.284 35.396v27.756c37.666-18.972 99.871-27.756 159.284-27.756s121.635 8.931 159.268 27.837zM1023.902 148.624c-2.678-9.796-55.74-35.658-159.268-35.658s-156.607 25.845-159.284 35.396v27.756c37.666-18.972 99.871-27.756 159.284-27.756s121.635 8.931 159.268 27.837zM1023.902 219.417c-2.678-9.796-55.74-35.658-159.268-35.658s-156.607 25.845-159.284 35.396v27.756c37.666-18.972 99.871-27.756 159.284-27.756s121.635 8.931 159.268 27.837zM1023.902 290.21c-2.678-9.796-55.74-35.658-159.268-35.658s-156.607 25.845-159.284 35.396v27.756c37.666-18.89 99.871-27.756 159.284-27.756s121.635 8.931 159.268 27.837zM1023.902 361.003c-2.678-9.796-55.74-35.658-159.268-35.658s-156.607 25.845-159.284 35.396v27.756c37.666-18.89 99.871-27.756 159.284-27.756s121.635 8.931 159.268 27.837zM864.634 466.915c102.647 0 155.741-25.372 159.268-35.396-3.543-10.025-56.638-35.396-159.268-35.396-103.365 0-156.427 25.764-159.284 35.070v0.114c2.857 9.878 55.919 35.625 159.284 35.625zM864.634-28.604c-103.528 0-156.607 25.845-159.284 35.396v27.756c37.666-18.972 99.871-27.756 159.284-27.756s121.635 8.931 159.268 27.837v-27.576c-2.661-9.812-55.74-35.641-159.268-35.641zM171.17 522.573h127.153c8.377 0 15.168 6.791 15.168 15.168s-6.791 15.168-15.168 15.168h-133.308c-0.009 0-0.020 0-0.031 0-4.116 0-7.85-1.638-10.585-4.297l0.004 0.003-79.054-77.111c-2.841-3.302-4.572-7.631-4.572-12.364 0-0.010 0-0.020 0-0.030v0.002-125.929c0-0.001 0-0.002 0-0.003 0-3.949 1.507-7.545 3.978-10.246l-0.010 0.012 71.838-78.646c2.781-3.016 6.752-4.898 11.162-4.898 0.013 0 0.027 0 0.040 0h140.408c8.377 0 15.168 6.791 15.168 15.168s-6.791 15.168-15.168 15.168h-133.635l-63.43 69.373v115.039zM448.758 369.656h-44.246c-9.774 0-17.698-7.924-17.698-17.698s7.924-17.698 17.698-17.698v0h17.698c0-9.774 7.924-17.698 17.698-17.698s17.698 7.924 17.698 17.698v0 0.8c19.515 2.831 34.473 19.006 35.393 38.848l0.003 0.091c-1.264 22.326-19.677 39.952-42.206 39.952-0.717 0-1.43-0.018-2.139-0.053l0.1 0.004h-17.698c-5.502 0-8.849 3.086-8.849 4.425s3.265 4.425 8.849 4.425h44.246c9.774 0 17.698 7.924 17.698 17.698s-7.924 17.698-17.698 17.698v0h-17.698c0 9.774-7.924 17.698-17.698 17.698s-17.698-7.924-17.698-17.698v0-0.8c-19.53-2.834-34.497-19.034-35.393-38.899l-0.003-0.089c1.264-22.326 19.677-39.952 42.206-39.952 0.717 0 1.43 0.018 2.139 0.053l-0.1-0.004h17.698c5.502 0 8.849-3.086 8.849-4.425s-3.347-4.376-8.849-4.376z" />
<glyph unicode="&#xe92d;" glyph-name="note" d="M0.465 226.164c-0.294-1.576-0.462-3.39-0.462-5.243 0-14.728 10.622-26.975 24.623-29.499l0.182-0.027 133.167-23.273-83.782 475.695zM160.396 959.488c-1.608 0.306-3.458 0.48-5.349 0.48-14.727 0-26.977-10.604-29.532-24.593l-0.028-0.184-31.837-180.457 605.324 106.775zM1023.581 96.209l-125.021 709.073c-2.574 14.183-14.829 24.798-29.564 24.798-1.84 0-3.64-0.165-5.389-0.482l0.183 0.028-709.073-125.021c-14.183-2.574-24.798-14.829-24.798-29.564 0-1.84 0.165-3.64 0.482-5.389l-0.028 0.183 125.068-709.073c2.551-14.183 14.798-24.805 29.526-24.805 1.853 0 3.667 0.168 5.427 0.49l-0.184-0.028 709.027 125.068c14.183 2.574 24.798 14.829 24.798 29.564 0 1.84-0.165 3.64-0.482 5.389l0.028-0.183zM290.351 454.33c-0.289 1.565-0.455 3.366-0.455 5.206 0 14.735 10.615 26.99 24.615 29.536l0.183 0.028 472.623 83.316c1.567 0.29 3.371 0.457 5.213 0.457 16.563 0 29.99-13.427 29.99-29.99 0-14.721-10.606-26.964-24.593-29.505l-0.183-0.028-472.716-83.363c-1.576-0.294-3.39-0.462-5.243-0.462-14.728 0-26.975 10.622-29.499 24.623l-0.027 0.182zM681.891 249.204l-315.113-55.575c-1.978-0.464-4.248-0.73-6.581-0.73-16.581 0-30.022 13.441-30.022 30.022 0 15.225 11.333 27.803 26.024 29.758l0.153 0.017 315.113 55.575c1.978 0.464 4.248 0.73 6.581 0.73 16.581 0 30.022-13.441 30.022-30.022 0-15.225-11.333-27.803-26.024-29.758l-0.153-0.017zM818.548 395.078l-472.716-83.27c-1.978-0.464-4.248-0.73-6.581-0.73-16.581 0-30.022 13.441-30.022 30.022 0 15.225 11.333 27.803 26.024 29.758l0.153 0.017 472.716 83.363c1.978 0.464 4.248 0.73 6.581 0.73 16.581 0 30.022-13.441 30.022-30.022 0-15.225-11.333-27.803-26.024-29.758l-0.153-0.017z" />
<glyph unicode="&#xe92e;" glyph-name="packard-bell" horiz-adv-x="812" d="M264.081 28.378c24.57-54.869 78.695-92.404 141.585-92.404s117.015 37.535 141.193 91.425l0.393 0.979zM405.775 862.163c0.070 0 0.152 0 0.235 0 42.542 0 83.3-7.634 120.98-21.608l-2.408 0.782v4.592c-0.082 62.954-51.084 113.968-114.025 114.071h-9.447c-62.967-0.082-113.989-51.104-114.071-114.063v-4.527c35.251 13.146 75.98 20.753 118.487 20.753 0.087 0 0.175 0 0.262 0h-0.013zM780.781 88.468h-749.904c-0.121-0.002-0.264-0.003-0.407-0.003-14.347 0-26.383 9.889-29.667 23.222l-0.044 0.21c-0.506 2.033-0.797 4.367-0.797 6.768 0 11.633 6.816 21.674 16.673 26.347l0.177 0.075c21.263 17.187 37.832 39.357 48.033 64.769l0.379 1.071c41.724 88.184 50.618 212.378 50.618 301.032 0 0.172-0.001 0.375-0.001 0.578 0 160.225 129.888 290.113 290.113 290.113 160.022 0 289.784-129.559 290.113-289.504v-0.031c0-0.398 0-0.759 0-1.157 0-88.654 8.75-212.848 50.618-301.032 10.54-26.471 27.061-48.639 47.972-65.607l0.295-0.232c10.034-4.748 16.85-14.789 16.85-26.422 0-2.402-0.291-4.736-0.838-6.968l0.041 0.2c-3.326-13.544-15.364-23.433-29.711-23.433-0.181 0-0.362 0.002-0.543 0.005h0.027zM795.243 144.871v0z" />
<glyph unicode="&#xe92f;" glyph-name="pause" horiz-adv-x="1073" d="M0-64h357.818v1024h-357.818zM715.636 960v-1024h357.818v1024z" />
<glyph unicode="&#xe930;" glyph-name="pin" horiz-adv-x="1037" d="M366.632 308.688c-22.020 22.090-42.429 44.459-60.773 66.514-3.882 4.751-9.741 7.76-16.302 7.76-0.349 0-0.695-0.008-1.040-0.025l0.049 0.002c-6.906-0.267-12.909-3.904-16.44-9.303l-0.048-0.079-268.576-404.72c-2.173-3.3-3.467-7.346-3.467-11.695 0-5.882 2.366-11.211 6.199-15.088l-0.002 0.002c3.787-3.723 8.986-6.022 14.721-6.022 0.043 0 0.086 0 0.129 0h-0.007c0.124-0.003 0.271-0.004 0.418-0.004 4.261 0 8.216 1.31 11.484 3.55l-0.069-0.045 403.81 270.467c5.321 3.684 8.875 9.595 9.309 16.355l0.003 0.063c0.022 0.356 0.034 0.773 0.034 1.193 0 6.567-3.013 12.429-7.733 16.281l-0.038 0.030c-26.062 21.176-49.424 42.354-71.603 64.707l-0.057 0.057zM1024.735 716.419c-22.825 53.61-54.605 99.249-93.905 137.144l-0.125 0.12c-65.604 65.604-140.87 106.317-196.286 106.317-0.978 0.046-2.124 0.073-3.276 0.073-19.359 0-36.98-7.44-50.16-19.617l0.050 0.045c-12.327-13.487-19.878-31.52-19.878-51.316 0-3.619 0.252-7.179 0.74-10.663l-0.046 0.402c-0.665-14.353-229.963-197.056-251.598-196.041-57.482 17.504-103.272 11.692-130.822-15.963-61.578-61.683-8.682-210.849 119.935-339.466 90.109-90.039 192.926-145.981 268.681-145.981 1.384-0.070 3.006-0.11 4.637-0.11 25.545 0 48.795 9.824 66.178 25.9l-0.065-0.059c16.71 19.324 26.889 44.697 26.889 72.448 0 10.457-1.446 20.577-4.148 30.17l0.188-0.782c0.134 0.923 0.21 1.989 0.21 3.073 0 0.003 0 0.006 0 0.008v0c0.003 0.115 0.005 0.25 0.005 0.386 0 2.17-0.479 4.228-1.338 6.074l0.037-0.089c-1.295 15.578 178.257 265.496 194.431 266.056 3.081-0.28 6.021-0.455 8.962-0.455 1.080-0.057 2.344-0.090 3.615-0.090 19.358 0 36.95 7.565 49.979 19.9l-0.033-0.031c23.315 23.455 26.010 63.433 7.141 112.549z" />
<glyph unicode="&#xe931;" glyph-name="plane" d="M1013.926 957.383c-2.847 1.653-6.264 2.629-9.909 2.629-3.755 0-7.269-1.036-10.271-2.837l0.091 0.050-366.513-216.736c-5.919-3.546-9.82-9.926-9.82-17.217 0-11.047 8.955-20.003 20.003-20.003 3.756 0 7.271 1.035 10.273 2.836l-0.091-0.050 262.956 155.562-489.766-508.281-243.653 74.534 317.932 187.988c5.919 3.546 9.82 9.926 9.82 17.217 0 11.047-8.955 20.003-20.003 20.003-3.756 0-7.271-1.035-10.273-2.836l0.091 0.050-356.93-211.069c-5.912-3.55-9.806-9.927-9.806-17.213 0-8.955 5.882-16.536 13.993-19.090l0.142-0.038 290.817-89.016 128.349-233.618c0.133-0.24 0.27-0.446 0.421-0.64l-0.008 0.010c3.544-5.873 9.89-9.739 17.14-9.739 5.431 0 10.355 2.17 13.952 5.69l-0.004-0.004 147.573 144.248 277.615-84.923c1.754-0.558 3.771-0.879 5.864-0.879 11.041 0 19.991 8.95 19.991 19.991 0 0.005 0 0.009 0 0.014v-0.001 785.994c0 0.022 0 0.047 0 0.073 0 7.353-3.969 13.778-9.882 17.251l-0.094 0.051zM542.538 301.548c-2.228-3.181-3.561-7.131-3.561-11.393v0-122.348l-87.639 159.536 387.842 402.442zM578.979 137.388v125.732l97.989-29.967zM984.018 181.030l-392.997 120.223 392.997 567.35zM328.852 264.852c-3.621 3.62-8.623 5.859-14.147 5.859s-10.526-2.239-14.147-5.859l-186.631-186.709c-3.616-3.619-5.853-8.617-5.853-14.138 0-11.046 8.954-20 20-20 5.525 0 10.527 2.241 14.147 5.863l186.71 186.71c3.595 3.614 5.818 8.596 5.818 14.098 0 5.541-2.254 10.555-5.895 14.176l-0.001 0.001zM80.142 16.122c-3.62 3.614-8.618 5.849-14.138 5.849s-10.517-2.235-14.138-5.849v0l-45.964-45.964c-3.622-3.62-5.863-8.622-5.863-14.147 0-11.046 8.954-20 20-20 5.521 0 10.519 2.237 14.138 5.853l46.003 46.003c3.596 3.617 5.819 8.603 5.819 14.108 0 5.525-2.239 10.526-5.859 14.147v0zM285.308-28.681c-3.613 3.589-8.592 5.808-14.088 5.808-11.041 0-19.991-8.95-19.991-19.991s8.95-19.991 19.991-19.991c11.041 0 19.991 8.95 19.991 19.991 0 0.013 0 0.025 0 0.038v-0.002c-0.029 5.528-2.279 10.524-5.903 14.147v0zM434.199 120.211c-3.618 3.619-8.616 5.857-14.138 5.857s-10.52-2.238-14.137-5.857l-98.894-98.894c-3.618-3.618-5.856-8.616-5.856-14.138 0-11.042 8.951-19.993 19.993-19.993 5.521 0 10.519 2.238 14.138 5.856v0l98.894 98.894c3.614 3.62 5.849 8.618 5.849 14.138s-2.235 10.517-5.849 14.138v0zM775.428 127.727c-3.62 3.614-8.618 5.849-14.138 5.849s-10.517-2.235-14.138-5.849v0l-99.169-99.149c-3.621-3.621-5.86-8.622-5.86-14.147 0-11.050 8.958-20.007 20.007-20.007 5.525 0 10.527 2.239 14.147 5.86l99.169 99.149c3.614 3.62 5.849 8.618 5.849 14.138 0 5.53-2.243 10.535-5.868 14.157v0zM566.996 687.383c-3.613 3.589-8.592 5.808-14.088 5.808-11.041 0-19.991-8.95-19.991-19.991s8.95-19.991 19.991-19.991c11.041 0 19.991 8.95 19.991 19.991 0 0.006 0 0.012 0 0.017v-0.001c-0.023 5.535-2.275 10.54-5.903 14.167v0z" />
<glyph unicode="&#xe932;" glyph-name="play-button" d="M512 960c-282.77 0-512-229.23-512-512s229.23-512 512-512c282.77 0 512 229.23 512 512v0c-0.326 282.638-229.361 511.674-511.968 512h-0.032zM512-21.336c-259.207 0-469.336 210.129-469.336 469.336s210.129 469.336 469.336 469.336c259.207 0 469.336-210.129 469.336-469.336v0c-0.3-259.087-210.25-469.036-469.308-469.336h-0.028zM715.539 465.943l-298.679 191.992c-3.258 2.119-7.244 3.38-11.524 3.38-11.776 0-21.324-9.541-21.336-21.314v-384.001c0.004-11.776 9.551-21.321 21.328-21.321 4.284 0 8.272 1.263 11.614 3.436l-0.083-0.050 298.679 191.962c5.927 3.854 9.792 10.445 9.792 17.939s-3.865 14.085-9.71 17.889l-0.082 0.050zM426.679 295.088v305.824l237.874-152.912z" />
<glyph unicode="&#xe933;" glyph-name="playlist" horiz-adv-x="1463" d="M0 960h877.746v-146.254h-877.746v146.254zM0 667.382h877.746v-146.254h-877.746v146.254zM0 374.873h585.127v-146.254h-585.127v146.254zM1170.254 374.763v292.618h-146.254v-292.618h-292.618v-146.254h292.618v-292.618h146.254v292.618h292.618v146.254z" />
<glyph unicode="&#xe934;" glyph-name="plus" d="M932.551 539.449h-310.85c-10.116 0-18.316 8.2-18.316 18.316v0 310.785c0.021 0.726 0.032 1.58 0.032 2.437 0 50.506-40.943 91.449-91.449 91.449s-91.449-40.943-91.449-91.449c0-0.857 0.012-1.711 0.035-2.562l-0.003 0.125v-310.85c0-10.116-8.2-18.316-18.316-18.316v0h-310.785c-0.726 0.021-1.58 0.032-2.437 0.032-50.506 0-91.449-40.943-91.449-91.449s40.943-91.449 91.449-91.449c0.857 0 1.711 0.012 2.562 0.035l-0.125-0.003h310.85c10.116 0 18.316-8.2 18.316-18.316v0-310.85c-0.021-0.726-0.032-1.58-0.032-2.437 0-50.506 40.943-91.449 91.449-91.449s91.449 40.943 91.449 91.449c0 0.857-0.012 1.711-0.035 2.562l0.003-0.125v310.915c0 10.116 8.2 18.316 18.316 18.316v0h310.85c0.726-0.021 1.58-0.032 2.437-0.032 50.506 0 91.449 40.943 91.449 91.449s-40.943 91.449-91.449 91.449c-0.857 0-1.711-0.012-2.562-0.035l0.125 0.003z" />
<glyph unicode="&#xe935;" glyph-name="plus-2" d="M606.783 30.711l-189.573 0.141s10.961 311.001-0.24 322.202c-11.031 11.031-322.085 0.123-322.085 0.123l-0.17 189.602s309.027-13.274 322.173-0.129c13.368 13.368 0.123 322.424 0.123 322.424l189.783 0.070s-9.726-312.4 0.070-322.196 322.296-0.17 322.296-0.17l-0.070-189.783s-311.235 11.172-322.477-0.070c-10.692-10.692 0.17-322.214 0.17-322.214z" />
<glyph unicode="&#xe936;" glyph-name="portfolio" d="M422 418h180v-60h-180zM830.758 358h-168.758v-30c0-16.578-13.422-30-30-30h-240c-16.578 0-30 13.422-30 30v30h-168.758c-38.789 0-73.094 24.727-85.375 61.523l-107.867 323.656v-655.18c0-49.625 40.375-90 90-90h844c49.625 0 90 40.375 90 90v655.156l-107.875-323.633c-12.273-36.797-46.578-61.523-85.367-61.523zM632 898h-240c-49.625 0-90-40.375-90-90v-30h-250.383l113.148-339.492c4.102-12.273 15.555-20.508 28.477-20.508h168.758v30c0 16.578 13.422 30 30 30h240c16.578 0 30-13.422 30-30v-30h168.758c12.922 0 24.375 8.234 28.477 20.508l113.156 339.492h-250.391v30c0 49.625-40.375 90-90 90zM362 778v30c0 16.555 13.445 30 30 30h240c16.555 0 30-13.445 30-30v-30z" />
<glyph unicode="&#xe937;" glyph-name="pushpin" d="M8.117-5.094c-5.031-5.727-8.1-13.285-8.1-21.559 0-9.033 3.658-17.211 9.573-23.135v0l4.623-4.623c5.923-5.915 14.102-9.573 23.134-9.573 8.274 0 15.832 3.069 21.596 8.132l-0.037-0.032 317.372 277.679-90.516 90.516zM1022.459 599.374c-1.096 3.425-27.912 83.941-151.511 207.54s-204.218 150.449-207.574 151.511c-2.99 0.994-6.432 1.567-10.009 1.567-9.037 0-17.219-3.661-23.143-9.581l-123.291-123.291c-5.925-5.925-9.59-14.11-9.59-23.151s3.665-17.226 9.59-23.151l13.699-13.699-324.495-250.349c-7.771-6.046-12.723-15.399-12.723-25.908 0-9.033 3.658-17.211 9.573-23.134l338.707-338.879c5.925-5.926 14.111-9.592 23.153-9.592 10.518 0 19.878 4.96 25.868 12.668l0.055 0.074 250.349 324.495 13.699-13.699c5.919-5.923 14.099-9.587 23.134-9.587s17.215 3.664 23.134 9.587l123.291 123.291c5.971 5.932 9.666 14.149 9.666 23.228 0 3.595-0.58 7.056-1.65 10.292l0.066-0.231zM565.495 630.197l-200.416-170.21c-5.671-4.839-13.087-7.783-21.191-7.783-9.028 0-17.203 3.654-23.126 9.564l0.001-0.001q-0.959 0.959-1.815 1.986c-4.834 5.67-7.774 13.082-7.774 21.181 0 9.975 4.461 18.908 11.496 24.913l0.045 0.038 200.382 170.21c5.64 4.738 12.98 7.616 20.992 7.616 18.082 0 32.741-14.658 32.741-32.741 0-9.879-4.375-18.736-11.294-24.739l-0.041-0.034z" />
<glyph unicode="&#xe938;" glyph-name="recent-money" d="M16.957 395.94c26.095-219.152 210.832-387.456 434.878-387.456 147.222 0 277.471 72.672 356.831 184.099l0.908 1.342c4.811 6.737 7.705 15.131 7.741 24.199v0.009c-0.063 23.727-19.313 42.937-43.049 42.937-14.531 0-27.381-7.2-35.176-18.227l-0.090-0.135c-64.591-90.063-168.962-148.045-286.875-148.045-194.387 0-351.969 157.582-351.969 351.969s157.582 351.969 351.969 351.969c173.151 0 317.099-125.032 346.484-289.735l0.315-2.13h-97.772c-9.464-0.019-17.129-7.695-17.129-17.162 0-4.436 1.683-8.478 4.445-11.524l-0.013 0.014 146.022-154.583c3.152-3.469 7.682-5.639 12.718-5.639s9.566 2.169 12.705 5.625l0.013 0.014 146.022 154.583c2.749 3.032 4.432 7.074 4.432 11.51 0 9.467-7.665 17.143-17.127 17.162h-107.235c-28.446 216.912-212.131 382.643-434.524 382.643-241.924 0-438.041-196.118-438.041-438.041 0-19.53 1.278-38.762 3.755-57.616l-0.238 2.218zM477.839 471.429v154.542c43.928-0.601 80.038-33.305 85.963-75.681l0.053-0.464c0-9.49 7.693-17.183 17.183-17.183s17.183 7.693 17.183 17.183v0c-6.374 61.69-57.567 109.535-120.153 110.591l-0.106 0.001v18.104c0 9.49-7.693 17.183-17.183 17.183s-17.183-7.693-17.183-17.183v-18.145c-62.712-1.085-113.905-48.986-120.174-110.192l-0.043-0.523c6.374-61.69 57.567-109.535 120.153-110.591l0.106-0.001v-154.378c-43.928 0.601-80.038 33.305-85.963 75.681l-0.053 0.464c0 9.49-7.693 17.183-17.183 17.183s-17.183-7.693-17.183-17.183v0c6.374-61.69 57.567-109.535 120.153-110.591l0.106-0.001v-18.145c0-9.49 7.693-17.183 17.183-17.183s17.183 7.693 17.183 17.183v18.145c62.691 1.057 113.885 48.902 120.214 110.065l0.044 0.527c-6.376 61.704-57.591 109.557-120.196 110.591l-0.104 0.001zM357.581 549.663c5.978 42.84 42.088 75.543 85.954 76.144l0.062 0.001v-152.248c-43.916 0.598-80.020 33.281-85.963 75.639l-0.053 0.464zM477.839 284.57v152.289c43.928-0.601 80.038-33.305 85.963-75.681l0.053-0.464c-5.978-42.84-42.088-75.543-85.954-76.144l-0.062-0.001z" />
<glyph unicode="&#xe939;" glyph-name="reload" horiz-adv-x="1138" d="M1124.973 381.797c-7.812 8.646-19.066 14.055-31.583 14.055-12.36 0-23.488-5.275-31.256-13.697l-0.027-0.029-102.065-107.787v173.669c0.009 1.172 0.015 2.557 0.015 3.943 0 138.471-53.475 264.452-140.9 358.419l0.296-0.322c-84.496 91.972-205.201 149.532-339.356 149.951h-0.076c-82.951-0.12-160.688-22.336-227.672-61.074l2.199 1.173-0.277-0.156-0.589-0.329-1.3-0.746-0.641-0.364-0.468-0.26q-3.884-2.254-7.732-4.577l-0.503-0.312c-10.402-6.345-20.805-13.142-30.67-20.267-12.053-9.107-19.761-23.412-19.761-39.518 0-9.778 2.841-18.893 7.743-26.563l-0.119 0.198c7.737-12.536 21.344-20.8 36.89-20.943h0.021c9.314 0.021 17.917 3.048 24.894 8.162l-0.118-0.083c9.585 6.98 20.713 14.208 32.215 20.864l1.871 0.999c52.853 30.7 116.289 48.854 183.959 48.944h0.026c215.677 0 391.132-187.14 391.132-417.19v-174.727l-102.291 106.504c-7.779 8.304-18.812 13.478-31.053 13.478-12.629 0-23.972-5.507-31.758-14.25l-0.037-0.043c-7.844-8.746-12.64-20.365-12.64-33.105 0-13.137 5.1-25.083 13.428-33.966l-0.025 0.027 114.93-119.628c23.481-24.85 56.666-40.318 93.463-40.318 37.139 0 70.599 15.757 94.057 40.952l0.072 0.078 115.381 121.83c8.161 8.824 13.167 20.67 13.167 33.685 0 12.843-4.874 24.548-12.874 33.366l0.037-0.041zM47.921 523.739c-0.458 0.017-0.996 0.026-1.537 0.026-24.778 0-44.931-19.802-45.498-44.444l-0.001-0.053c-0.589-10.402-0.884-20.805-0.884-31.207 0-6.935 0.139-13.974 0.399-20.805 0.179-24.67 19.812-44.697 44.309-45.509l0.075-0.002h1.734c23.991 1.902 42.738 21.839 42.738 46.154 0 1.097-0.038 2.186-0.113 3.264l0.008-0.145c-0.208 5.635-0.329 11.391-0.329 17.077 0 8.513 0.243 17.112 0.728 25.555 0.104 1.165 0.163 2.521 0.163 3.891 0 24.009-18.223 43.761-41.591 46.181l-0.199 0.017zM146.657 229.679c-6.935 12.050-13.384 24.602-19.071 37.293-6.669 15.807-22.038 26.699-39.951 26.699-7.072 0-13.747-1.698-19.64-4.707l0.245 0.113c-15.2-8.481-25.31-24.464-25.31-42.808 0-7.434 1.661-14.481 4.631-20.789l-0.126 0.298c7.056-15.604 14.962-31.017 23.492-45.805 7.571-13.421 21.671-22.373 37.876-22.538h0.023c8.664 0.018 16.711 2.644 23.401 7.135l-0.152-0.096c12.892 9.014 21.219 23.788 21.219 40.506 0 9.097-2.465 17.617-6.764 24.931l0.126-0.231zM480.021 30.836c-14.048 0.001-27.914 0.775-41.559 2.284l1.683-0.151c-1.043 0.085-2.257 0.134-3.482 0.134-24.039 0-43.703-18.731-45.194-42.393l-0.007-0.131c-0.221-1.707-0.346-3.681-0.346-5.685 0-23.486 17.296-42.932 39.844-46.296l0.257-0.031c14.64-1.665 31.611-2.616 48.803-2.618h0.002c24.909 1.629 44.496 22.232 44.496 47.409s-19.587 45.78-44.355 47.402l-0.142 0.007zM289.101 83.802c-13.13 7.894-24.144 15.377-34.737 23.388l0.981-0.711c-7.062 5.366-16.001 8.596-25.695 8.596-15.213 0-28.567-7.955-36.131-19.932l-0.104-0.176c-5.094-7.65-8.129-17.052-8.129-27.163 0-15.737 7.352-29.758 18.809-38.814l0.104-0.079c11.783-8.923 25.298-18.078 39.28-26.538l2.139-1.201c6.185-3.797 13.672-6.052 21.685-6.068h0.005c16.906 0.212 31.495 9.918 38.703 24.023l0.115 0.249c3.599 6.661 5.714 14.58 5.714 22.993 0 17.336-8.982 32.575-22.546 41.316l-0.194 0.117zM137.624 739.104c-6.768 4.688-15.153 7.488-24.192 7.488-15.872 0-29.727-8.635-37.124-21.463l-0.11-0.207c-8.825-14.615-17.025-29.855-24.376-45.303-3.101-6.244-4.915-13.598-4.915-21.376 0-17.999 9.716-33.729 24.19-42.231l0.23-0.125c5.798-3.249 12.718-5.173 20.086-5.201h0.008c17.575 0.255 32.644 10.727 39.555 25.732l0.113 0.275c5.999 12.587 12.674 25.001 19.869 36.894 4.467 7.278 7.113 16.091 7.113 25.522 0 16.397-7.998 30.926-20.305 39.898l-0.141 0.098z" />
<glyph unicode="&#xe93a;" glyph-name="research" d="M575.488 222.028h-229.776c-11.122 0-20.138-9.018-20.138-20.142s9.016-20.142 20.138-20.142h229.776c11.122 0 20.138 9.018 20.138 20.142 0.002 11.124-9.016 20.142-20.138 20.142zM238.254 98.624c0-11.124 9.016-20.142 20.138-20.142h112.424c11.122 0 20.138 9.018 20.138 20.142s-9.016 20.142-20.138 20.142h-112.424c-11.122 0-20.138-9.018-20.138-20.142zM530.248 98.624c0-11.124 9.018-20.142 20.138-20.142h112.424c11.122 0 20.138 9.018 20.138 20.142s-9.018 20.142-20.138 20.142h-112.424c-11.12 0-20.138-9.018-20.138-20.142zM460.402 118.766c-11.122 0-20.138-9.018-20.138-20.142s9.016-20.142 20.138-20.142h0.396c11.122 0 20.138 9.018 20.138 20.142s-9.016 20.142-20.138 20.142zM51.622 626.93c11.122 0 20.138 9.018 20.138 20.142v0.398c0 11.124-9.016 20.142-20.138 20.142s-20.138-9.018-20.138-20.142v-0.398c0-11.124 9.016-20.142 20.138-20.142zM968.818 165.406l-90.488 90.486v510.030c0 0.644-0.036 1.284-0.098 1.922-0.026 0.268-0.072 0.53-0.106 0.794-0.048 0.358-0.096 0.714-0.162 1.068-0.062 0.32-0.14 0.634-0.216 0.948-0.070 0.288-0.14 0.576-0.222 0.86-0.096 0.332-0.204 0.658-0.318 0.984-0.090 0.26-0.184 0.52-0.284 0.778-0.126 0.322-0.26 0.64-0.404 0.954-0.116 0.256-0.24 0.51-0.366 0.762-0.15 0.296-0.304 0.592-0.468 0.88-0.15 0.264-0.31 0.52-0.472 0.778-0.166 0.262-0.328 0.524-0.506 0.778-0.192 0.274-0.396 0.54-0.602 0.806-0.172 0.222-0.34 0.446-0.52 0.662-0.050 0.060-0.092 0.122-0.142 0.182l-149.936 173.932c-0.128 0.148-0.274 0.278-0.406 0.422-0.288 0.314-0.578 0.626-0.886 0.922-0.206 0.198-0.418 0.386-0.632 0.574-0.306 0.27-0.616 0.534-0.938 0.786-0.22 0.172-0.444 0.338-0.67 0.502-0.344 0.246-0.696 0.48-1.054 0.706-0.218 0.136-0.436 0.272-0.658 0.4-0.396 0.226-0.802 0.436-1.214 0.636-0.204 0.098-0.402 0.202-0.608 0.294-0.454 0.202-0.918 0.38-1.388 0.548-0.182 0.066-0.358 0.138-0.54 0.198-0.504 0.164-1.020 0.3-1.54 0.426-0.162 0.040-0.322 0.090-0.484 0.124-0.546 0.118-1.104 0.202-1.666 0.272-0.144 0.018-0.286 0.050-0.43 0.066-0.704 0.072-1.416 0.114-2.138 0.114h-586.71c-49.66 0-90.062-40.434-90.062-90.136v-132.62c0-11.124 9.016-20.142 20.138-20.142s20.138 9.018 20.138 20.142v132.62c0 27.49 22.334 49.852 49.786 49.852h566.572v-129.822c0-24.326 19.812-44.116 44.164-44.116h105.77v-449.61l-44.238 44.238c-0.11 0.116-0.206 0.24-0.318 0.352-0.114 0.114-0.238 0.21-0.354 0.32l-94.958 94.956c19.428 37.102 30.438 79.278 30.438 123.984 0 147.798-120.22 268.040-267.992 268.040-147.802 0-268.046-120.242-268.046-268.040 0-70.546 27.398-134.802 72.092-182.72 0.92-1.23 1.984-2.356 3.182-3.36 48.778-50.534 117.164-82.018 192.774-82.018 44.68 0 86.83 11.010 123.91 30.436l94.924-94.96c0.114-0.12 0.212-0.248 0.33-0.364 0.116-0.116 0.244-0.214 0.362-0.328l157.896-157.958v-42.612c0-27.49-22.334-49.852-49.786-49.852h-666.722c-27.452 0-49.786 22.364-49.786 49.852v531.56c0 11.124-9.016 20.142-20.138 20.142s-20.138-9.018-20.138-20.142v-531.558c0-49.702 40.402-90.136 90.062-90.136h666.722c49.66 0 90.062 40.434 90.062 90.136v8.348c11.036-5.656 22.232-8.17 33.050-8.17 21.418 0.002 41.354 9.762 55.608 24.028 28.322 28.34 38.588 78.298 1.83 115.064zM728.396 789.894v95.756l85.844-99.588h-81.956c-2.108 0-3.888 1.756-3.888 3.832zM460.63 787.776c125.562 0 227.714-102.172 227.714-227.756 0-41.616-11.222-80.658-30.782-114.268-1.422-1.684-2.53-3.542-3.312-5.502-3.964-6.388-8.234-12.568-12.79-18.516-23.942 44.288-62.968 78.084-109.158 95.836 27.286 21.94 44.798 55.57 44.798 93.232 0 65.982-53.646 119.664-119.586 119.664-65.97 0-119.642-53.68-119.642-119.664 0-37.622 17.482-71.224 44.734-93.166-15.866-6.092-31.030-14.122-45.182-24.064-25.322-17.792-46.098-40.624-61.256-67.030-27.228 37.538-43.31 83.662-43.31 133.48 0 125.582 102.178 227.754 227.772 227.754zM378.146 610.8c0 43.77 35.604 79.38 79.366 79.38 43.732 0 79.31-35.61 79.31-79.38 0-43.74-35.576-79.324-79.31-79.324-43.762 0-79.366 35.586-79.366 79.324zM304.666 394.154c27.578 58.536 87.45 97.040 152.846 97.040 67.302 0 127.888-40.13 154.614-101.098-9.86-8.808-20.49-16.772-31.772-23.778-1.984-0.788-3.864-1.91-5.566-3.352-33.584-19.548-72.586-30.76-114.16-30.76-60.29 0-115.176 23.56-155.962 61.948zM648.178 368.716c1.384 1.066 2.608 2.296 3.654 3.654 8.784 8.956 16.948 18.52 24.418 28.63l74.506-74.504-56.706-56.718-74.488 74.518c10.106 7.472 19.666 15.636 28.616 24.42zM938.502 78.822c-12.936-12.946-34.156-19.39-54.908 1.342l-161.068 161.13 56.712 56.722 64.34-64.34c0.254-0.266 0.512-0.526 0.78-0.78l95.98-95.978c20.63-20.634 10.206-46.048-1.836-58.096z" />
<glyph unicode="&#xe93b;" glyph-name="rocket" d="M1019.565 929.128c-1.586 13.99-12.592 24.982-26.452 26.532l-0.136 0.012c-237.324 26.329-439.689-68.645-604.777-238.579-43.559-45.166-84.018-94.063-120.596-145.895l-2.609-3.898c-0.528 0.004-1.152 0.007-1.777 0.007-66.341 0-126.347-27.119-169.539-70.876l-84.895-84.895c-5.423-5.429-8.776-12.925-8.776-21.205 0-16.572 13.434-30.006 30.006-30.006 2.759 0 5.432 0.372 7.97 1.070l-0.211-0.049c24.167 6.583 52.339 11.178 81.3 12.822l1.104 0.050c3.649 0.205 7.919 0.322 12.216 0.322 5.666 0 11.285-0.203 16.849-0.603l-0.747 0.043c-18.713-36.021-33.057-66.178-37.816-73.815-2.891-4.53-4.607-10.053-4.607-15.977 0-8.283 3.356-15.782 8.783-21.212l49.109-49.109c-71.392-97.461-72.647-147.371-72.387-154.445 0.604-16.168 13.856-29.045 30.116-29.045 0.502 0 1 0.012 1.496 0.036l-0.070-0.003c16.745 0 64.794 7.118 152.238 72.063l51.64-51.64c5.43-5.431 12.933-8.791 21.22-8.791 6.029 0 11.642 1.778 16.344 4.838l-0.116-0.071c8.069 5.192 36.475 18.951 70.527 36.778-0.569-40.401-4.315-79.5-11.002-117.587l0.64 4.398c-0.198-1.297-0.312-2.793-0.312-4.316 0-16.584 13.444-30.028 30.028-30.028 8.259 0 15.74 3.334 21.168 8.731l-0.002-0.002 84.805 84.957c41.623 42.658 67.299 101.042 67.299 165.423 0 1.51-0.014 3.017-0.042 4.521l0.003-0.225c58.755 40.892 110.262 83.438 158.043 129.8l-0.31-0.299c168.312 165.045 260.365 365.895 234.339 600.169zM962.17 898.257c1.153-13.935 1.811-30.163 1.811-46.545 0-50.232-6.182-99.020-17.827-145.646l0.872 4.126c-41.616 14.326-77.067 37.322-105.647 66.983l-0.078 0.082c-29.875 28.747-52.947 64.346-66.704 104.281l-0.556 1.855c42.329 10.579 90.923 16.648 140.935 16.648 16.64 0 33.123-0.672 49.424-1.99l-2.144 0.139zM116.261 434.165l19.795 19.795c23.156 22.976 52.233 40.019 84.738 48.638l1.322 0.298c-16.182-25.68-30.612-50.212-43.268-72.842-14.111 2.935-30.327 4.615-46.936 4.615-5.484 0-10.925-0.183-16.318-0.544l0.731 0.039zM173.050 289.715c6.49 12.807 14.343 28.881 28.752 56.118l39.482-39.504q-22.045-23.646-39.915-44.934zM319.772 301.181c16.109 16.414 38.528 26.588 63.323 26.588 1.948 0 3.882-0.063 5.8-0.187l-0.261 0.014c0.092-1.523 0.145-3.304 0.145-5.097 0-24.925-10.165-47.477-26.575-63.735l-0.007-0.007c-93.134-93.134-156.976-134.736-195.16-153.298 18.843 38.941 60.575 103.54 152.736 195.722zM353.52 109.245l-30.937 30.937q21.18 17.999 44.804 40.044l42.035-42.035c-27.648-14.754-39.179-20.314-55.902-28.968zM517.939 72.099l-24.014-24.014c0.789 8.065 1.239 17.434 1.239 26.909 0 14.018-0.985 27.805-2.89 41.297l0.179-1.551c22.067 12.418 46.015 26.502 71.132 42.273-7.52-33.308-23.552-62.11-45.692-84.96l0.045 0.046zM464.027 168.457l-53.804 53.825c39.806 43.787 38.314 85.995 38.314 135.299 0 16.572-13.434 30.006-30.006 30.006v0c-46.059 0-90.387 2.466-135.299-38.335l-51.359 51.359c140.21 245.935 302.464 401.656 484.579 465.779 17.304-51.772 45.602-95.91 82.295-131.429l0.087-0.084c35.46-36.635 79.382-64.86 128.629-81.539l2.278-0.67c-64.404-181.141-220.169-343.179-465.714-484.211zM756.388 692.453c-27.147 27.147-64.65 43.939-106.075 43.939-82.848 0-150.010-67.162-150.010-150.010s67.162-150.010 150.010-150.010c41.425 0 78.928 16.791 106.075 43.938v0c27.104 27.165 43.864 64.661 43.864 106.071s-16.76 78.906-43.866 106.074l0.003-0.003zM713.964 522.734c-16.285-16.281-38.781-26.35-63.628-26.35-49.704 0-89.997 40.293-89.997 89.997s40.293 89.997 89.997 89.997c24.847 0 47.343-10.069 63.628-26.35v0c16.266-16.299 26.324-38.799 26.324-63.647s-10.058-47.348-26.326-63.649l0.002 0.002z" />
<glyph unicode="&#xe93c;" glyph-name="search" horiz-adv-x="989" d="M973.596 27.279l-243.755 253.48c60.131 71.298 96.675 164.199 96.675 265.635 0 228.249-185.033 413.282-413.282 413.282s-413.282-185.033-413.282-413.282c0-228.249 185.033-413.282 413.282-413.282 0.051 0 0.103 0 0.154 0h-0.008c0.305-0.001 0.665-0.001 1.026-0.001 88.401 0 170.252 28.046 237.141 75.725l-1.25-0.847 245.571-255.392c9.831-10.22 23.623-16.569 38.897-16.569 29.792 0 53.942 24.151 53.942 53.942 0 14.517-5.735 27.695-15.062 37.391l0.017-0.017zM413.444 852.158c168.779 0 305.602-136.823 305.602-305.602s-136.823-305.602-305.602-305.602c-168.779 0-305.602 136.823-305.602 305.602v0c0.184 168.705 136.897 305.418 305.584 305.602h0.018z" />
<glyph unicode="&#xe93d;" glyph-name="see" horiz-adv-x="1231" d="M615.226 263.146c19.925 0 36.078 16.152 36.078 36.078v0 44.215c0 19.925-16.152 36.078-36.078 36.078s-36.078-16.152-36.078-36.078v0-44.215c0-19.925 16.152-36.078 36.078-36.078v0zM88.176 600.75c6.399-5.888 14.975-9.497 24.394-9.497 19.925 0 36.078 16.152 36.078 36.078 0 9.363-3.567 17.894-9.416 24.306l0.025-0.028-76.987 77.273c-6.399 5.888-14.975 9.497-24.394 9.497-19.925 0-36.078-16.152-36.078-36.078 0-9.363 3.567-17.894 9.416-24.306l-0.025 0.028zM1115.958 589.942c0.013 0 0.028 0 0.043 0 10.163 0 19.341 4.213 25.884 10.988l0.010 0.010 76.764 79.466c6.275 6.483 10.142 15.33 10.142 25.079 0 19.926-16.153 36.080-36.080 36.080-10.177 0-19.369-4.213-25.928-10.99l-0.009-0.010-76.764-79.466c-6.275-6.483-10.143-15.33-10.143-25.079 0-19.925 16.152-36.078 36.078-36.078 0.001 0 0.002 0 0.003 0v0zM615.226 780.089c19.925 0 36.078 16.152 36.078 36.078v0 107.756c0 19.925-16.152 36.078-36.078 36.078s-36.078-16.152-36.078-36.078v0-107.756c0-19.925 16.152-36.078 36.078-36.078v0zM1226.321 299.541c3.135 5.272 4.988 11.624 4.988 18.408 0 8.315-2.783 15.979-7.469 22.113l0.065-0.088c-52.77 66.48-110.307 125.086-173.418 177.18l-1.98 1.587c-55.707 46.994-118.764 88.248-186.527 121.362l-5.4 2.383c-70.324 35.051-153.004 56.11-240.469 57.433l-0.441 0.005c-87.917-1.324-170.608-22.383-244.257-58.926l3.316 1.488c-73.162-35.494-136.22-76.748-193.298-124.871l1.371 1.126c-65.225-53.754-122.861-112.478-173.846-176.718l-1.837-2.399c-4.451-5.978-7.126-13.508-7.126-21.662s2.675-15.684 7.195-21.76l-0.069 0.097c52.826-66.636 110.46-125.359 173.701-177.529l1.982-1.588c55.706-46.996 118.763-88.25 186.527-121.362l5.4-2.383c70.334-35.055 153.025-56.115 240.502-57.433l0.439-0.005c87.906 1.329 170.586 22.388 244.225 58.926l-3.315-1.488c73.162 35.497 136.22 76.751 193.299 124.871l-1.372-1.127c65.225 53.754 122.861 112.478 173.846 176.718l1.837 2.399c0.683 0.918 1.387 1.976 2.036 3.071l0.094 0.172zM229.975 464.1c90.877 74.666 231.532 163.668 385.665 163.668s294.819-89.002 385.697-163.668c51.997-43.166 98.535-88.938 140.987-138.325l1.289-1.535c-11.83-6.671-25.973-10.602-41.034-10.602-3.789 0-7.519 0.249-11.176 0.731l0.43-0.046c-25.363 4.318-47.675 15.099-65.863 30.579l0.193-0.16c-24.094 23.744-49.015 46.122-74.031 66.497-146.631 119.294-263.827 144.31-336.491 144.31-131.469 0-255.563-78.481-336.491-144.31-25.429-20.629-50.572-43.293-74.952-67.387-17.208-18.489-41.681-30.018-68.847-30.018-3.371 0-6.7 0.177-9.978 0.524l0.409-0.035c-13.685 1.924-26.051 5.999-37.308 11.901l0.626-0.299c43.334 50.225 89.398 95.423 138.943 136.576l1.903 1.536zM615.608 479.389c0.132 0 0.289 0.001 0.445 0.001 89.128 0 161.38-72.252 161.38-161.38s-72.252-161.38-161.38-161.38c-89.127 0-161.379 72.252-161.38 161.379v0c0 0.010 0 0.021 0 0.032 0 88.965 72.002 161.112 160.912 161.347h0.023zM615.608 8.187c-154.164 0-294.819 89.002-385.697 163.668-29.307 24.094-55.499 48.284-77.909 70.534 40.149 4.859 75.4 22.815 102.037 49.399l0.537 0.537c22.823 22.568 46.376 43.738 69.93 63.001 22.59 18.598 47.733 36.905 73.934 53.706l3.148 1.889c-12.194-27.356-19.294-59.277-19.294-92.857 0-128.732 104.358-233.090 233.090-233.090s233.090 104.358 233.090 233.090c0 33.58-7.101 65.501-19.883 94.344l0.588-1.487c29.399-18.722 54.594-37.081 78.597-56.836l-1.356 1.083c23.649-19.231 47.203-40.432 69.93-63.001 0.763-0.731 1.526-1.462 2.352-2.13 27.616-23.711 61.947-40.365 99.764-46.777l1.222-0.171c-98.538-97.87-271.202-235.22-464.304-235.22z" />
</font>
</defs>
</svg>
