<svg xmlns="http://www.w3.org/2000/svg" width="30.712" height="30.712" viewBox="0 0 30.712 30.712"><path d="M10.6,14.156H3.552A3.556,3.556,0,0,1,0,10.6V3.552A3.556,3.556,0,0,1,3.552,0H10.6a3.556,3.556,0,0,1,3.552,3.552V10.6A3.556,3.556,0,0,1,10.6,14.156Z" fill="#0abee3"/><path d="M286.557,14.156H279.6a3.6,3.6,0,0,1-3.6-3.6V3.6A3.6,3.6,0,0,1,279.6,0h6.958a3.6,3.6,0,0,1,3.6,3.6v6.958A3.6,3.6,0,0,1,286.557,14.156Z" transform="translate(-259.444)" fill="#0abee3"/><path d="M10.6,290.156H3.552A3.556,3.556,0,0,1,0,286.6v-7.053A3.556,3.556,0,0,1,3.552,276H10.6a3.556,3.556,0,0,1,3.552,3.552V286.6A3.556,3.556,0,0,1,10.6,290.156Z" transform="translate(0 -259.444)" fill="#0abee3"/><path d="M286.557,290.156H279.6a3.6,3.6,0,0,1-3.6-3.6V279.6a3.6,3.6,0,0,1,3.6-3.6h6.958a3.6,3.6,0,0,1,3.6,3.6v6.958A3.6,3.6,0,0,1,286.557,290.156Z" transform="translate(-259.444 -259.444)" fill="#0abee3"/></svg>