<svg xmlns="http://www.w3.org/2000/svg" xmlns:xlink="http://www.w3.org/1999/xlink" width="666.951" height="556.222" viewBox="0 0 666.951 556.222"><defs><clipPath id="a"><path d="M103.381,177.81l-6.64,63.333,48.472,21.06L142.3,269.36,89.919,255.806a14.542,14.542,0,0,1-10.849-12.779l-2.279-25.3Z" transform="translate(-76.79 -177.81)" fill="#f77e0e" stroke="#263238" stroke-linecap="round" stroke-linejoin="round" stroke-width="1"/></clipPath><clipPath id="b"><path d="M95.4,168.738l27.093,17.14L90.022,266.9s-4.65,3.039-24.054-2.507S40,246.4,40,246.4l14.45-82.6,25.832-1.519Z" transform="translate(-40 -162.28)" fill="#f77e0e" stroke="#263238" stroke-linecap="round" stroke-linejoin="round" stroke-width="1"/></clipPath><clipPath id="c"><path d="M90.1,178.08,76.422,203.015l-.334-15.5-6.078-9.239.258-10.241s-5.2-5.759-5.744-9.968.4-14.815,7.324-17.6,16.441-2.841,16.441-2.841-5.121-4.011-.532-3.86,6.975,6.078,6.975,6.078,1.519-5.349,3.13-.851a6.078,6.078,0,0,1-3.51,8.266c-2.431.821-3.8,9.694-4.239,15.347S90.1,178.08,90.1,178.08Z" transform="translate(-64.394 -133.767)" fill="#fff" stroke="#263238" stroke-linecap="round" stroke-linejoin="round" stroke-width="1"/></clipPath><clipPath id="d"><path d="M91.6,140.78s3.753,5.121,3.875,7.932a9.786,9.786,0,0,1-1.185,4.984l5.288,7.871L95.746,162.8l-.729,15.195-1.383.41-16.441-4.908-3.161-7.6s-3.632-2.644-4.437-4.726a18.627,18.627,0,0,1-.79-3.981,2.9,2.9,0,0,1,2.933-3.206,3.282,3.282,0,0,1,2.887,1.322,41.025,41.025,0,0,1,2.69,5.166l2.112-.091.836-4.984s5.607-.957,5.531-2.355a84.871,84.871,0,0,0-2.127-8.372Z" transform="translate(-68.789 -140.78)" fill="#f4ad85"/></clipPath><clipPath id="e"><path d="M77,173.315l-9.907,10.409L65.01,163.879l4.65-3.009Z" transform="translate(-65.01 -160.87)" fill="#c6ff00" stroke="#263238" stroke-linecap="round" stroke-linejoin="round" stroke-width="1"/></clipPath><clipPath id="f"><path d="M69.916,163.28,13.8,206.4a8.889,8.889,0,0,0-2.9,10.211l18.234,47.712,9.664-1.52L32.931,221.9a8.9,8.9,0,0,1,4.467-9.026l26.287-14.648S70.919,167.413,69.916,163.28Z" transform="translate(-10.318 -163.28)" fill="#f77e0e" stroke="#263238" stroke-linecap="round" stroke-linejoin="round" stroke-width="1"/></clipPath></defs><g transform="translate(-0.022 -0.005)"><g transform="translate(0.022 0.005)"><path d="M119.71,460.6S177,516.122,266.935,516.821,380.077,439.326,411.5,425.164s66.949,19.282,134.354,11.852,110.665-110.3,63.135-170.108-116.3-85.229-110.027-121.044,46.391-74.456,4.118-107.095-99.558-57.331-214.873-20.1S169.215,125.625,81.57,135.228-23.275,215.047,30.956,284.762,67.941,414.042,119.71,460.6Z" transform="translate(-0.022 0)" fill="#c6ff00"/><path d="M119.71,460.6S177,516.122,266.935,516.821,380.077,439.326,411.5,425.164s66.949,19.282,134.354,11.852,110.665-110.3,63.135-170.108-116.3-85.229-110.027-121.044,46.391-74.456,4.118-107.095-99.558-57.331-214.873-20.1S169.215,125.625,81.57,135.228-23.275,215.047,30.956,284.762,67.941,414.042,119.71,460.6Z" transform="translate(-0.022 0)" fill="#d6dbe5"/><g opacity="0.5"><path d="M12.388,213.267,310.058,81.83.581,156.544C-1.531,173.714,2.329,193.134,12.388,213.267Z" transform="translate(-0.022 42.503)" fill="#e2e8f5"/><path d="M75,391.184,295.133,90.14,48.29,324.949C55.629,348.9,61.525,371.035,75,391.184Z" transform="translate(25.053 46.82)" fill="#e2e8f5"/><path d="M144,453.344,283.707,92.72,84.09,419.322A233.73,233.73,0,0,0,144,453.344Z" transform="translate(43.651 48.161)" fill="#fff"/><path d="M75.1,96.793c-28.156,3.039-49.05,12.46-62.634,26.044L301.3,78.057,137.3,74C120.659,85.411,101.771,93.921,75.1,96.793Z" transform="translate(6.445 38.436)" fill="#e2e8f5"/><path d="M189.6,468.056a136.057,136.057,0,0,0,28.187-2.614L257.99,94,148.89,463.908a220,220,0,0,0,40.707,4.148Z" transform="translate(77.315 48.826)" fill="#fff"/><path d="M49.87,290.6,303.627,86.42,20.65,240.482A219.979,219.979,0,0,1,49.87,290.6Z" transform="translate(10.694 44.888)" fill="#e2e8f5"/><path d="M423.357,390.558a78.422,78.422,0,0,0,40.571-17.535L235.82,89.56,400.291,391.607a179.136,179.136,0,0,0,23.066-1.048Z" transform="translate(122.476 46.519)" fill="#fff"/><path d="M504.638,279.483,239.53,85.67,487,345.824A124.6,124.6,0,0,0,504.638,279.483Z" transform="translate(124.403 44.498)" fill="#e2e8f5"/><path d="M483.2,224.923c-31.91-40.069-73.225-64.731-95.182-87.447L242.15,80.95,487.7,231.016Q485.574,227.9,483.2,224.923Z" transform="translate(125.764 42.046)" fill="#e2e8f5"/><path d="M372.533,106.51a90.388,90.388,0,0,1,4.71-16.259L243.39,75.77l128.9,37.988A26.572,26.572,0,0,1,372.533,106.51Z" transform="translate(126.408 39.355)" fill="#e2e8f5"/><path d="M275.809,394.692,229.1,93.83,220.21,449.652C245.267,433.819,261.464,411.057,275.809,394.692Z" transform="translate(114.366 48.737)" fill="#fff"/><path d="M110.47,68.01l139.718,15.2L132.746,48.5C124.951,55.171,117.612,61.765,110.47,68.01Z" transform="translate(57.356 25.188)" fill="#e2e8f5"/><path d="M360.221,384.5,231.23,92.35l68.135,282.339C316.474,371.088,335.392,378.715,360.221,384.5Z" transform="translate(120.091 47.968)" fill="#fff"/><path d="M195.12,11.832,224.689,78.8,207.656,8.2Q201.5,9.887,195.12,11.832Z" transform="translate(101.332 4.252)" fill="#e2e8f5"/><path d="M377.821,25.65,241.75,85.731,394.992,48.746C392.561,40.815,387.334,33.08,377.821,25.65Z" transform="translate(125.556 13.318)" fill="#e2e8f5"/><path d="M394.815,54.87,243.26,78.392l142.119,3.556C389.33,72.861,393.053,63.8,394.815,54.87Z" transform="translate(126.341 28.498)" fill="#e2e8f5"/><path d="M336.7,8.81,239,87.49,360.56,21.255A173.616,173.616,0,0,0,336.7,8.81Z" transform="translate(124.128 4.569)" fill="#e2e8f5"/><path d="M264.476,79.348,245.5,78.877l16.684-7.37L243.72,75.959l14.207-11.442L241.258,73.6,252.017,58.88,238.265,71.963l6.595-17-9.907,16.2,1.96-18.128-5.364,18.2-2.811-18.021-.471,18.979L220.9,55.507l4.452,18.462L213.923,59.761l9.087,16.669L208.285,65.672l13.083,13.752L204.35,72.844l16.213,9.892-18.143-1.96,18.219,5.379-18.021,2.8,18.979.471-16.684,7.37,18.462-4.452-14.223,11.427,16.684-9.071,2.614-3.586,2.644-.638-.669,1.717L232.81,90.9l-.2,1.823-3.784,3.616-6.595,17,9.907-16.2-1.96,18.128,5.364-18.219,2.8,18.037.486-18.994,7.37,16.7L241.73,94.33l11.442,14.207-9.087-16.684,14.724,10.773L245.726,88.86l17,6.595-16.2-9.907,18.143,1.96-18.219-5.364Z" transform="translate(105.124 27.542)" fill="#fff"/><path d="M296.889,1.24,235.06,85.785,319.1,5.844a168.665,168.665,0,0,0-22.215-4.6Z" transform="translate(122.081 0.637)" fill="#e2e8f5"/><path d="M221.513,81.307,210.74,96.031l13.767-13.083,1.6-4.148Z" transform="translate(109.446 40.929)" fill="#fff"/><path d="M212.4,6.841l11.153,71.842L225.468,4C221.183,4.821,216.852,5.778,212.4,6.841Z" transform="translate(110.309 2.07)" fill="#e2e8f5"/><path d="M157.69,28.423l73.817,53.988-58.577-61.6Q164.892,24.533,157.69,28.423Z" transform="translate(81.887 10.803)" fill="#e2e8f5"/><path d="M177.23,18.459l49.794,61.859L190.647,13.46Q183.673,15.944,177.23,18.459Z" transform="translate(92.038 6.985)" fill="#e2e8f5"/><path d="M135.94,44.007,238.886,83.894,153.612,31.76C147.275,35.787,141.425,39.874,135.94,44.007Z" transform="translate(70.588 16.492)" fill="#e2e8f5"/><path d="M262.24.195,230.33,82.506,280.656.195Q271.843-.185,262.24.195Z" transform="translate(119.623 -0.005)" fill="#e2e8f5"/><path d="M233.477,2.905,225.12,80.051,248.46.93Q241.2,1.7,233.477,2.905Z" transform="translate(116.917 0.476)" fill="#e2e8f5"/></g><g transform="translate(28.837 388.134)"><ellipse cx="303.505" cy="84.044" rx="303.505" ry="84.044" fill="#c6ff00"/><ellipse cx="303.505" cy="84.044" rx="303.505" ry="84.044" fill="#e2e8f5"/></g><g transform="translate(470.06 184.703)"><path d="M388.552,121.56s45.251,52.332,45.494,117.093-44.613,117.579-44.613,117.579S344.182,303.9,344,239.109,388.552,121.56,388.552,121.56Z" transform="translate(-291.385 -121.56)" fill="#c6ff00"/><path d="M467.063,219.1s.289,42.546-22.58,69.654-60.233,28.369-60.233,28.369-.289-42.546,22.6-69.654S467.063,219.1,467.063,219.1Z" transform="translate(-270.474 -70.888)" fill="#29b2fe"/><path d="M309.414,216.51s-1.884,42.546,19.951,70.687,59.109,31.271,59.109,31.271,1.884-42.546-19.951-70.687S309.414,216.51,309.414,216.51Z" transform="translate(-309.373 -72.233)" fill="#29b2fe"/><path d="M388.552,121.56s45.251,52.332,45.494,117.093-44.613,117.579-44.613,117.579S344.182,303.9,344,239.109,388.552,121.56,388.552,121.56Z" transform="translate(-291.385 -121.56)" fill="#05304b"/><path d="M358.193,296.333h0a1.094,1.094,0,0,1,1.656-.228l23.765,21.273a1.185,1.185,0,0,0,1.915-1.064l-.2-49a1.413,1.413,0,0,0-.4-1l-35.708-36a1.52,1.52,0,0,1-.091-1.884h0a1.079,1.079,0,0,1,1.656-.122l32.563,32.836a1.17,1.17,0,0,0,1.96-1.018L385.1,206.2a1.519,1.519,0,0,0-.4-1L361.08,181.9a1.52,1.52,0,0,1-.122-1.884h0a1.079,1.079,0,0,1,1.656-.137L383.128,200.1a1.185,1.185,0,0,0,1.96-1.018l-.289-76.173a1.261,1.261,0,0,1,1.17-1.352h0a1.261,1.261,0,0,1,1.17,1.337l.441,112.914a1.155,1.155,0,0,0,2.143.745l26.5-44.157a1.094,1.094,0,0,1,1.641-.35h0a1.52,1.52,0,0,1,.3,1.869L387.778,244.5l-.182-.152.167,46.284a1.17,1.17,0,0,0,1.96.988l32.32-33.11a1.079,1.079,0,0,1,1.656.106h0a1.52,1.52,0,0,1-.076,1.9L387.793,297.2h0l.213,57.741a1.246,1.246,0,0,1-1.17,1.337h0a1.246,1.246,0,0,1-1.185-1.322l-.106-31.818a1.52,1.52,0,0,0-.441-1.048l-26.713-23.871A1.519,1.519,0,0,1,358.193,296.333Z" transform="translate(-288.863 -121.56)" fill="#fff"/><path d="M310.408,218.478h0a1.064,1.064,0,0,1,1.656.106l35.906,45.676c.76.972,2.188.243,2.036-1.064l-2.948-26.637a1.291,1.291,0,0,1,1.018-1.519h0a1.216,1.216,0,0,1,1.307,1.155l3.86,34.705h0l13.995,17.839a1.155,1.155,0,0,0,2.051-.745l2.538-25.467a1.231,1.231,0,0,1,1.307-1.185h0a1.322,1.322,0,0,1,1.033,1.519l-3.039,30.223a1.367,1.367,0,0,0,.289,1.033l18.735,23.871a1.519,1.519,0,0,1-.091,1.884h0a1.094,1.094,0,0,1-1.671-.091l-10.12-12.9a1.063,1.063,0,0,0-.942-.441l-18.72,1.292a1.276,1.276,0,0,1-1.246-1.261h0a1.307,1.307,0,0,1,1.109-1.428l14.952-1.018a1.383,1.383,0,0,0,.805-2.234l-14.967-19.07a1.109,1.109,0,0,0-.881-.441H331.666a1.261,1.261,0,0,1-1.17-1.337h0a1.246,1.246,0,0,1,1.17-1.337h22.519a1.368,1.368,0,0,0,.866-2.234l-16.5-21.045a1.155,1.155,0,0,0-.9-.456l-17.17.243a1.261,1.261,0,0,1-1.185-1.322h0a1.261,1.261,0,0,1,1.155-1.352l13.068-.182a1.368,1.368,0,0,0,.866-2.234l-24.069-30.664A1.519,1.519,0,0,1,310.408,218.478Z" transform="translate(-309.03 -71.391)" fill="#fff"/><path d="M393.656,279.154h0a1.216,1.216,0,0,1,1.322,1.155L397,297.221a1.155,1.155,0,0,0,2.021.76l15.56-18.432a1.52,1.52,0,0,0,.334-1.033l-2.021-30.39a1.291,1.291,0,0,1,1.079-1.519h0a1.246,1.246,0,0,1,1.261,1.231l1.7,25.573a1.155,1.155,0,0,0,2.021.836l17.186-20.225a1.519,1.519,0,0,0,.334-1.048l-1.519-19.5a1.292,1.292,0,0,1,1.064-1.444h0a1.231,1.231,0,0,1,1.276,1.216l1.14,14.83a1.14,1.14,0,0,0,2.006.805l25.041-29.63a1.064,1.064,0,0,1,1.656,0h0a1.52,1.52,0,0,1,0,1.9l-37.3,44.157c-.805.942,0,2.507,1.079,2.234l23.1-5.333a1.185,1.185,0,0,1,1.383,1.048h0a1.337,1.337,0,0,1-.912,1.519L424.4,271.739h0L409.884,288.97a1.383,1.383,0,0,0,.79,2.279l22.489.973a1.292,1.292,0,0,1,1.14,1.4h0a1.246,1.246,0,0,1-1.216,1.292l-26.667-1.17a1.109,1.109,0,0,0-.9.41l-19.5,23.066a1.064,1.064,0,0,1-1.656,0h0a1.52,1.52,0,0,1,0-1.884l10.53-12.46a1.519,1.519,0,0,0,.319-1.109L392.7,280.643a1.322,1.322,0,0,1,.957-1.489Z" transform="translate(-270.581 -71.013)" fill="#fff"/></g><g transform="translate(105.511 59.77)"><rect width="51.162" height="13.189" transform="translate(206.516 61.585)" stroke-width="1" stroke="#263238" stroke-linecap="round" stroke-linejoin="round" fill="#fff"/><rect width="8.099" height="13.189" transform="translate(216.544 61.585)" stroke-width="1" stroke="#263238" stroke-linecap="round" stroke-linejoin="round" fill="#263238"/><rect width="65.05" height="13.189" transform="translate(199.572 74.167)" stroke-width="1" stroke="#263238" stroke-linecap="round" stroke-linejoin="round" fill="#fff"/><rect width="9.117" height="13.189" transform="translate(211.469 74.167)" stroke-width="1" stroke="#263238" stroke-linecap="round" stroke-linejoin="round" fill="#263238"/><path d="M230.943,55h0A25.588,25.588,0,0,0,205.37,80.573V93.337h51.1V80.573A25.573,25.573,0,0,0,230.943,55Z" transform="translate(1.146 -31.205)" fill="#f77e0e"/><path d="M239.458,65.3a5.2,5.2,0,1,0-10.378,0,.257.257,0,0,0,0,.106,10.743,10.743,0,0,0-3.221-.5,10.393,10.393,0,1,0,10.409,10.378,10.257,10.257,0,0,0-1.216-4.862A5.182,5.182,0,0,0,239.458,65.3Z" transform="translate(6.398 -28.698)" fill="#fff"/><path d="M214.18,62.29l-.82.957a22.413,22.413,0,0,0-4.817,10.3c-.213,1.307,0,9.649,0,9.649" transform="translate(2.745 -27.417)" fill="none" stroke="#263238" stroke-linecap="round" stroke-linejoin="round" stroke-width="1"/><path d="M219.329,58.16a29.235,29.235,0,0,0-4.209,2.492" transform="translate(6.211 -29.563)" fill="none" stroke="#263238" stroke-linecap="round" stroke-linejoin="round" stroke-width="1"/><line y2="14.314" transform="translate(231.572)" stroke-width="1" stroke="#263238" stroke-linecap="round" stroke-linejoin="round" fill="#c6ff00"/><line y1="7.294" x2="8.251" transform="translate(252.025 16.168)" stroke-width="1" stroke="#263238" stroke-linecap="round" stroke-linejoin="round" fill="#c6ff00"/><line x2="12.84" transform="translate(261.294 47.333)" stroke-width="1" stroke="#263238" stroke-linecap="round" stroke-linejoin="round" fill="#c6ff00"/><line x1="8.236" y1="7.294" transform="translate(203.613 16.168)" stroke-width="1" stroke="#263238" stroke-linecap="round" stroke-linejoin="round" fill="#c6ff00"/><line x1="12.84" transform="translate(189.756 47.333)" stroke-width="1" stroke="#263238" stroke-linecap="round" stroke-linejoin="round" fill="#c6ff00"/><path d="M116.78,96.32H449.232a12.156,12.156,0,0,1,12.156,12.156V340.7H104.67V108.43A12.156,12.156,0,0,1,116.78,96.32Z" transform="translate(-51.168 -9.739)" fill="#161f2b"/><path d="M533.136,365.187H69.46l53.5-108.037H479.635Z" transform="translate(-69.46 73.813)" fill="#fff" stroke="#263238" stroke-linecap="round" stroke-linejoin="round" stroke-width="1"/><rect width="313.458" height="205.68" transform="translate(75.109 105.925)" fill="#f77e0e"/><path d="M218.895,284.149l.623-13.159H200.676l-1.246,13.159Z" transform="translate(-1.94 81.003)" fill="#263238" stroke="#fff" stroke-linecap="round" stroke-linejoin="round" stroke-width="1"/><path d="M244.545,284.149l-.638-13.159H225.05l.015,13.159Z" transform="translate(11.369 81.003)" fill="#263238" stroke="#fff" stroke-linecap="round" stroke-linejoin="round" stroke-width="1"/><path d="M306.017,293.736h20.149L321.44,279.65H301.96Z" transform="translate(51.324 85.502)" fill="#263238" stroke="#fff" stroke-linecap="round" stroke-linejoin="round" stroke-width="1"/><path d="M206.09,284.149l1.246-13.159H188.479l-1.869,13.159Z" transform="translate(-8.6 81.003)" fill="#263238" stroke="#fff" stroke-linecap="round" stroke-linejoin="round" stroke-width="1"/><path d="M180.45,284.149l2.507-13.159H164.115l-3.145,13.159Z" transform="translate(-21.92 81.003)" fill="#263238" stroke="#fff" stroke-linecap="round" stroke-linejoin="round" stroke-width="1"/><path d="M296.678,284.149,293.5,270.99H274.66l2.538,13.159Z" transform="translate(37.142 81.003)" fill="#263238" stroke="#fff" stroke-linecap="round" stroke-linejoin="round" stroke-width="1"/><path d="M309.7,284.149l-3.784-13.159H287.06l3.176,13.159Z" transform="translate(43.584 81.003)" fill="#263238" stroke="#fff" stroke-linecap="round" stroke-linejoin="round" stroke-width="1"/><path d="M167.625,284.149l3.145-13.159H151.928l-3.768,13.159Z" transform="translate(-28.575 81.003)" fill="#263238" stroke="#fff" stroke-linecap="round" stroke-linejoin="round" stroke-width="1"/><path d="M257.563,284.149,256.3,270.99H237.46l.638,13.159Z" transform="translate(17.816 81.003)" fill="#263238" stroke="#fff" stroke-linecap="round" stroke-linejoin="round" stroke-width="1"/><path d="M322.734,284.149l-4.422-13.159H299.47l3.784,13.159Z" transform="translate(50.031 81.003)" fill="#263238" stroke="#fff" stroke-linecap="round" stroke-linejoin="round" stroke-width="1"/><path d="M283.639,284.149,281.1,270.99H262.26l1.9,13.159Z" transform="translate(30.7 81.003)" fill="#263238" stroke="#fff" stroke-linecap="round" stroke-linejoin="round" stroke-width="1"/><path d="M270.6,284.149l-1.9-13.159H249.86l1.261,13.159Z" transform="translate(24.258 81.003)" fill="#263238" stroke="#fff" stroke-linecap="round" stroke-linejoin="round" stroke-width="1"/><path d="M231.72,284.149,231.7,270.99H212.863l-.623,13.159Z" transform="translate(4.715 81.003)" fill="#263238" stroke="#fff" stroke-linecap="round" stroke-linejoin="round" stroke-width="1"/><path d="M143.839,279.65h-19.48l-5.379,14.086h20.149Z" transform="translate(-43.734 85.502)" fill="#263238" stroke="#fff" stroke-linecap="round" stroke-linejoin="round" stroke-width="1"/><path d="M146.391,270.99H127.55l-5.03,13.159H142Z" transform="translate(-41.895 81.003)" fill="#263238" stroke="#fff" stroke-linecap="round" stroke-linejoin="round" stroke-width="1"/><path d="M154.82,284.149l3.768-13.159H139.731l-4.391,13.159Z" transform="translate(-35.235 81.003)" fill="#263238" stroke="#fff" stroke-linecap="round" stroke-linejoin="round" stroke-width="1"/><path d="M117.31,298.85l-6.2,16.2h21.653l5.425-16.2Z" transform="translate(-47.823 95.476)" fill="#263238" stroke="#fff" stroke-linecap="round" stroke-linejoin="round" stroke-width="1"/><path d="M141.1,288.92H120.949l-5.759,15.089h20.878Z" transform="translate(-45.703 90.318)" fill="#263238" stroke="#fff" stroke-linecap="round" stroke-linejoin="round" stroke-width="1"/><path d="M130.785,298.85l-5.425,16.2h21.653l4.634-16.2Z" transform="translate(-40.42 95.476)" fill="#263238" stroke="#fff" stroke-linecap="round" stroke-linejoin="round" stroke-width="1"/><path d="M193.27,284.149l1.869-13.159H176.3l-2.507,13.159Z" transform="translate(-15.26 81.003)" fill="#263238" stroke="#fff" stroke-linecap="round" stroke-linejoin="round" stroke-width="1"/><path d="M192.179,293.736l2.006-14.086H174.7l-2.674,14.086Z" transform="translate(-16.175 85.502)" fill="#263238" stroke="#fff" stroke-linecap="round" stroke-linejoin="round" stroke-width="1"/><path d="M178.924,293.736,181.6,279.65h-19.48l-3.358,14.086Z" transform="translate(-23.068 85.502)" fill="#263238" stroke="#fff" stroke-linecap="round" stroke-linejoin="round" stroke-width="1"/><path d="M205.439,293.736l1.337-14.086H187.3l-2.006,14.086Z" transform="translate(-9.286 85.502)" fill="#263238" stroke="#fff" stroke-linecap="round" stroke-linejoin="round" stroke-width="1"/><path d="M156.43,279.65H136.95l-4.71,14.086h20.149Z" transform="translate(-36.846 85.502)" fill="#263238" stroke="#fff" stroke-linecap="round" stroke-linejoin="round" stroke-width="1"/><path d="M308.976,304.009h20.878l-5.075-15.089H304.63Z" transform="translate(52.712 90.318)" fill="#263238" stroke="#fff" stroke-linecap="round" stroke-linejoin="round" stroke-width="1"/><path d="M165.649,293.736l3.358-14.086H149.542L145.5,293.736Z" transform="translate(-29.957 85.502)" fill="#263238" stroke="#fff" stroke-linecap="round" stroke-linejoin="round" stroke-width="1"/><path d="M133.96,288.92l-5.03,15.089h20.863l4.315-15.089Z" transform="translate(-38.565 90.318)" fill="#263238" stroke="#fff" stroke-linecap="round" stroke-linejoin="round" stroke-width="1"/><path d="M285.695,293.736l-2.7-14.086H263.51l2.036,14.086Z" transform="translate(31.35 85.502)" fill="#263238" stroke="#fff" stroke-linecap="round" stroke-linejoin="round" stroke-width="1"/><path d="M272.206,293.736,270.17,279.65H250.69l1.368,14.086Z" transform="translate(24.689 85.502)" fill="#263238" stroke="#fff" stroke-linecap="round" stroke-linejoin="round" stroke-width="1"/><path d="M312.672,293.736l-4.057-14.086H289.15l3.373,14.086Z" transform="translate(44.67 85.502)" fill="#263238" stroke="#fff" stroke-linecap="round" stroke-linejoin="round" stroke-width="1"/><path d="M231.959,293.736l-.015-14.086h-19.48l-.653,14.086Z" transform="translate(4.491 85.502)" fill="#263238" stroke="#fff" stroke-linecap="round" stroke-linejoin="round" stroke-width="1"/><path d="M258.712,293.736l-1.368-14.086H237.88l.684,14.086Z" transform="translate(18.035 85.502)" fill="#263238" stroke="#fff" stroke-linecap="round" stroke-linejoin="round" stroke-width="1"/><path d="M245.224,293.736l-.684-14.086H225.06l.015,14.086Z" transform="translate(11.375 85.502)" fill="#263238" stroke="#fff" stroke-linecap="round" stroke-linejoin="round" stroke-width="1"/><path d="M218.7,293.736l.653-14.086H199.887l-1.337,14.086Z" transform="translate(-2.397 85.502)" fill="#263238" stroke="#fff" stroke-linecap="round" stroke-linejoin="round" stroke-width="1"/><path d="M251.59,288.92l1.459,15.089h20.878l-2.188-15.089Z" transform="translate(25.157 90.318)" fill="#263238" stroke="#fff" stroke-linecap="round" stroke-linejoin="round" stroke-width="1"/><path d="M264.85,288.92l2.188,15.089H287.9L285,288.92Z" transform="translate(32.046 90.318)" fill="#263238" stroke="#fff" stroke-linecap="round" stroke-linejoin="round" stroke-width="1"/><path d="M146.975,288.92l-4.315,15.089h20.878l3.586-15.089Z" transform="translate(-31.432 90.318)" fill="#263238" stroke="#fff" stroke-linecap="round" stroke-linejoin="round" stroke-width="1"/><path d="M278.11,288.92l2.9,15.089H301.89l-3.632-15.089Z" transform="translate(38.934 90.318)" fill="#263238" stroke="#fff" stroke-linecap="round" stroke-linejoin="round" stroke-width="1"/><path d="M225.07,288.92l.015,15.089h20.863l-.729-15.089Z" transform="translate(11.38 90.318)" fill="#263238" stroke="#fff" stroke-linecap="round" stroke-linejoin="round" stroke-width="1"/><path d="M291.37,288.92,295,304.009h20.863l-4.346-15.089Z" transform="translate(45.823 90.318)" fill="#263238" stroke="#fff" stroke-linecap="round" stroke-linejoin="round" stroke-width="1"/><path d="M238.33,288.92l.729,15.089h20.878l-1.459-15.089Z" transform="translate(18.268 90.318)" fill="#263238" stroke="#fff" stroke-linecap="round" stroke-linejoin="round" stroke-width="1"/><path d="M173.017,288.92l-2.887,15.089h20.878l2.158-15.089Z" transform="translate(-17.162 90.318)" fill="#263238" stroke="#fff" stroke-linecap="round" stroke-linejoin="round" stroke-width="1"/><path d="M159.986,288.92,156.4,304.009h20.863l2.887-15.089Z" transform="translate(-24.294 90.318)" fill="#263238" stroke="#fff" stroke-linecap="round" stroke-linejoin="round" stroke-width="1"/><path d="M212.054,288.92l-.714,15.089h20.878L232.2,288.92Z" transform="translate(4.247 90.318)" fill="#263238" stroke="#fff" stroke-linecap="round" stroke-linejoin="round" stroke-width="1"/><path d="M199.038,288.92l-1.428,15.089h20.863l.714-15.089Z" transform="translate(-2.886 90.318)" fill="#263238" stroke="#fff" stroke-linecap="round" stroke-linejoin="round" stroke-width="1"/><path d="M186.028,288.92l-2.158,15.089h20.878l1.428-15.089Z" transform="translate(-10.024 90.318)" fill="#263238" stroke="#fff" stroke-linecap="round" stroke-linejoin="round" stroke-width="1"/><path d="M299.183,293.736,295.81,279.65H276.33l2.7,14.086Z" transform="translate(38.01 85.502)" fill="#263238" stroke="#fff" stroke-linecap="round" stroke-linejoin="round" stroke-width="1"/><path d="M144.672,275.6l4.513-13.478h-18.2L125.83,275.6Z" transform="translate(-40.176 76.395)" fill="#263238" stroke="#fff" stroke-linecap="round" stroke-linejoin="round" stroke-width="1"/><path d="M133.7,270.99H116.3l-5.607,13.159h17.976Z" transform="translate(-48.041 81.003)" fill="#263238" stroke="#fff" stroke-linecap="round" stroke-linejoin="round" stroke-width="1"/><path d="M136.929,262.12H120.124L114.38,275.6h17.4Z" transform="translate(-46.124 76.395)" fill="#263238" stroke="#fff" stroke-linecap="round" stroke-linejoin="round" stroke-width="1"/><path d="M130.718,279.65H112.742l-6,14.086h18.6Z" transform="translate(-50.093 85.502)" fill="#263238" stroke="#fff" stroke-linecap="round" stroke-linejoin="round" stroke-width="1"/><path d="M127.536,288.92h-18.6l-6.427,15.089h19.267Z" transform="translate(-52.29 90.318)" fill="#263238" stroke="#fff" stroke-linecap="round" stroke-linejoin="round" stroke-width="1"/><path d="M124.141,298.85H104.874l-6.914,16.2h19.981Z" transform="translate(-54.654 95.476)" fill="#263238" stroke="#fff" stroke-linecap="round" stroke-linejoin="round" stroke-width="1"/><path d="M327.6,279.65l5.394,14.086h17.839l-6-14.086Z" transform="translate(64.644 85.502)" fill="#263238" stroke="#fff" stroke-linecap="round" stroke-linejoin="round" stroke-width="1"/><path d="M336.955,304.009h18.462l-6.427-15.089H331.15Z" transform="translate(66.489 90.318)" fill="#263238" stroke="#fff" stroke-linecap="round" stroke-linejoin="round" stroke-width="1"/><path d="M341.185,315.048h19.146l-6.9-16.2H334.97Z" transform="translate(68.473 95.476)" fill="#263238" stroke="#fff" stroke-linecap="round" stroke-linejoin="round" stroke-width="1"/><path d="M243.912,275.6l-.669-13.478h-18.2l.015,13.478Z" transform="translate(11.364 76.395)" fill="#263238" stroke="#fff" stroke-linecap="round" stroke-linejoin="round" stroke-width="1"/><path d="M329.33,284.149h17.231l-5.607-13.159H324.27Z" transform="translate(62.915 81.003)" fill="#263238" stroke="#fff" stroke-linecap="round" stroke-linejoin="round" stroke-width="1"/><path d="M322.965,304.009h20.878l-5.8-15.089H317.89Z" transform="translate(59.6 90.318)" fill="#263238" stroke="#fff" stroke-linecap="round" stroke-linejoin="round" stroke-width="1"/><path d="M157.087,275.6l3.86-13.478h-18.2L138.23,275.6Z" transform="translate(-33.734 76.395)" fill="#263238" stroke="#fff" stroke-linecap="round" stroke-linejoin="round" stroke-width="1"/><path d="M311.87,270.99l4.422,13.159h19.48l-5.06-13.159Z" transform="translate(56.473 81.003)" fill="#263238" stroke="#fff" stroke-linecap="round" stroke-linejoin="round" stroke-width="1"/><path d="M342.72,275.6l-5.759-13.478H320.87l5.166,13.478Z" transform="translate(61.148 76.395)" fill="#263238" stroke="#fff" stroke-linecap="round" stroke-linejoin="round" stroke-width="1"/><path d="M332.26,275.6l-5.166-13.478h-18.2l4.528,13.478Z" transform="translate(54.925 76.395)" fill="#263238" stroke="#fff" stroke-linecap="round" stroke-linejoin="round" stroke-width="1"/><path d="M280.02,298.85l3.115,16.2h21.653l-3.89-16.2Z" transform="translate(39.927 95.476)" fill="#263238" stroke="#fff" stroke-linecap="round" stroke-linejoin="round" stroke-width="1"/><path d="M326.67,315.048h21.653l-6.215-16.2H321.23Z" transform="translate(61.335 95.476)" fill="#263238" stroke="#fff" stroke-linecap="round" stroke-linejoin="round" stroke-width="1"/><path d="M319.642,275.6l-4.528-13.478h-18.2L300.8,275.6Z" transform="translate(48.701 76.395)" fill="#263238" stroke="#fff" stroke-linecap="round" stroke-linejoin="round" stroke-width="1"/><path d="M307.49,298.85l4.68,16.2h21.638l-5.44-16.2Z" transform="translate(54.197 95.476)" fill="#263238" stroke="#fff" stroke-linecap="round" stroke-linejoin="round" stroke-width="1"/><path d="M293.76,298.85l3.89,16.2H319.3l-4.68-16.2Z" transform="translate(47.064 95.476)" fill="#263238" stroke="#fff" stroke-linecap="round" stroke-linejoin="round" stroke-width="1"/><path d="M319.506,293.736h20.149L334.26,279.65H314.78Z" transform="translate(57.984 85.502)" fill="#263238" stroke="#fff" stroke-linecap="round" stroke-linejoin="round" stroke-width="1"/><path d="M206.7,275.6l1.276-13.478h-18.2L187.84,275.6Z" transform="translate(-7.961 76.395)" fill="#263238" stroke="#fff" stroke-linecap="round" stroke-linejoin="round" stroke-width="1"/><path d="M307.024,275.6l-3.89-13.478h-18.2l3.237,13.478Z" transform="translate(42.477 76.395)" fill="#263238" stroke="#fff" stroke-linecap="round" stroke-linejoin="round" stroke-width="1"/><path d="M194.282,275.6l1.93-13.478h-18.2L175.44,275.6Z" transform="translate(-14.403 76.395)" fill="#263238" stroke="#fff" stroke-linecap="round" stroke-linejoin="round" stroke-width="1"/><path d="M231.492,275.6l-.015-13.478H213.288L212.65,275.6Z" transform="translate(4.928 76.395)" fill="#263238" stroke="#fff" stroke-linecap="round" stroke-linejoin="round" stroke-width="1"/><path d="M181.882,275.6l2.568-13.478h-18.2L163.04,275.6Z" transform="translate(-20.845 76.395)" fill="#263238" stroke="#fff" stroke-linecap="round" stroke-linejoin="round" stroke-width="1"/><path d="M169.482,275.6l3.206-13.478H154.5L150.64,275.6Z" transform="translate(-27.287 76.395)" fill="#263238" stroke="#fff" stroke-linecap="round" stroke-linejoin="round" stroke-width="1"/><path d="M219.092,275.6l.638-13.478h-18.2L200.25,275.6Z" transform="translate(-1.514 76.395)" fill="#263238" stroke="#fff" stroke-linecap="round" stroke-linejoin="round" stroke-width="1"/><path d="M294.385,275.6l-3.237-13.478H272.96l2.583,13.478Z" transform="translate(36.259 76.395)" fill="#263238" stroke="#fff" stroke-linecap="round" stroke-linejoin="round" stroke-width="1"/><path d="M281.767,275.6l-2.583-13.478h-18.2l1.945,13.478Z" transform="translate(30.035 76.395)" fill="#263238" stroke="#fff" stroke-linecap="round" stroke-linejoin="round" stroke-width="1"/><path d="M256.53,275.6l-1.307-13.478h-18.2l.669,13.478Z" transform="translate(17.588 76.395)" fill="#263238" stroke="#fff" stroke-linecap="round" stroke-linejoin="round" stroke-width="1"/><path d="M352.963,298.85H144.244l-4.634,16.2H356.078Z" transform="translate(-33.017 95.476)" fill="#263238" stroke="#fff" stroke-linecap="round" stroke-linejoin="round" stroke-width="1"/><path d="M269.149,275.6,267.2,262.12H249l1.307,13.478Z" transform="translate(23.812 76.395)" fill="#263238" stroke="#fff" stroke-linecap="round" stroke-linejoin="round" stroke-width="1"/><rect width="463.889" height="6.579" transform="translate(0 439)" stroke-width="1" stroke="#161f2b" stroke-linecap="round" stroke-linejoin="round" fill="#161f2b"/><path d="M256.736,134.6,328.3,258.558a8.418,8.418,0,0,1-7.294,12.627H177.874a8.418,8.418,0,0,1-7.278-12.627L242.164,134.6a8.418,8.418,0,0,1,14.572,0Z" transform="translate(-17.506 7.963)" fill="#e50000" stroke="#263238" stroke-linecap="round" stroke-linejoin="round" stroke-width="1"/><path d="M251.1,141.55,311,247.991a7.248,7.248,0,0,1-6.078,10.849H185.09a7.233,7.233,0,0,1-6.078-10.849l59.9-106.441a6.959,6.959,0,0,1,12.186,0Z" transform="translate(-13.052 11.89)" fill="none" stroke="#fff" stroke-linecap="round" stroke-linejoin="round" stroke-width="1"/><path d="M214.758,164.642a8.631,8.631,0,0,1,5.212-9.694,13.417,13.417,0,0,1,12.156,0,8.631,8.631,0,0,1,5.212,9.694l-5.5,43.9a6.458,6.458,0,0,1-2.021,4.27,5.227,5.227,0,0,1-7.4,0,6.4,6.4,0,0,1-2.021-4.27Zm4.346,76.522a9.785,9.785,0,0,1-2.933-7.2,9.983,9.983,0,0,1,2.841-7.142,9.5,9.5,0,0,1,7.172-3.039,9.8,9.8,0,0,1,6.99,2.841,9.679,9.679,0,0,1,3.039,7.294,9.968,9.968,0,0,1-2.872,7.142,9.436,9.436,0,0,1-7.081,3.039,9.7,9.7,0,0,1-7.157-2.933Z" transform="translate(5.935 19.962)" fill="#fff"/></g><g transform="translate(15.645 203.252)"><path d="M90.8,234.868l1.018,8.175s15.848,53.866,16.092,59.185-56.13,74.608-56.13,74.608l-10.8-4.8,39.006-75.079s-40.738-37.729-42.546-50.28,5.136-29.934,5.136-29.934S90.8,231.145,90.8,234.868Z" transform="translate(3.611 -90.663)" fill="#161f2b"/><path d="M103.381,177.81l-6.64,63.333,48.472,21.06L142.3,269.36,89.919,255.806a14.542,14.542,0,0,1-10.849-12.779l-2.279-25.3Z" transform="translate(24.214 -110.887)" fill="#f77e0e"/><g transform="translate(101.004 66.923)" clip-path="url(#a)"><path d="M82.425,199.647,84.871,196l4.559,7.248-5.759,25.315,6.731,1.93s-6.412,3.525-5.136,4.8,6.078.319,6.078.319l52.514,20.316-1.626,3.981L89.855,246.356a14.542,14.542,0,0,1-10.849-12.779L77,212.107C78.52,208.156,80.784,203.218,82.425,199.647Z" transform="translate(-76.681 -168.36)" fill="#c6ff00"/><path d="M82.425,199.647,84.871,196l4.559,7.248-5.759,25.315,6.731,1.93s-6.412,3.525-5.136,4.8,6.078.319,6.078.319l52.514,20.316-1.626,3.981L89.855,246.356a14.542,14.542,0,0,1-10.849-12.779L77,212.107C78.52,208.156,80.784,203.218,82.425,199.647Z" transform="translate(-76.681 -168.36)" fill="#fc933d"/></g><path d="M103.381,177.81l-6.64,63.333,48.472,21.06L142.3,269.36,89.919,255.806a14.542,14.542,0,0,1-10.849-12.779l-2.279-25.3Z" transform="translate(24.214 -110.887)" fill="none" stroke="#263238" stroke-linecap="round" stroke-linejoin="round" stroke-width="1"/><path d="M85.753,222.686a15.818,15.818,0,0,1,7.886-2.841,15.894,15.894,0,0,0-10.88-.152" transform="translate(27.315 -89.589)" fill="none" stroke="#263238" stroke-linecap="round" stroke-linejoin="round" stroke-width="1"/><path d="M95.4,168.738l27.093,17.14L90.022,266.9s-4.65,3.039-24.054-2.507S40,246.4,40,246.4l14.45-82.6,25.832-1.519Z" transform="translate(5.101 -118.955)" fill="#f77e0e"/><g transform="translate(45.101 43.325)" clip-path="url(#b)"><path d="M40,246.4l14.45-82.6,25.832-1.519,14.861,6.427L88.624,186.47l-8.464-3.48L59.754,196.074l13.676,3.844-11.214,5.455-9.938,31.408s32.046-4.163,27.883-3.206S47.6,245.427,47.6,247.357s14.1,12.156,21.471,15.7a49.5,49.5,0,0,0,15.393,4.163l-9.543-.653c-2.538-.5-5.47-1.2-8.874-2.173C46.579,258.875,40,246.4,40,246.4Z" transform="translate(-40 -162.28)" fill="#c6ff00"/><path d="M40,246.4l14.45-82.6,25.832-1.519,14.861,6.427L88.624,186.47l-8.464-3.48L59.754,196.074l13.676,3.844-11.214,5.455-9.938,31.408s32.046-4.163,27.883-3.206S47.6,245.427,47.6,247.357s14.1,12.156,21.471,15.7a49.5,49.5,0,0,0,15.393,4.163l-9.543-.653c-2.538-.5-5.47-1.2-8.874-2.173C46.579,258.875,40,246.4,40,246.4Z" transform="translate(-40 -162.28)" fill="#fc933d"/></g><path d="M95.4,168.738l27.093,17.14L90.022,266.9s-4.65,3.039-24.054-2.507S40,246.4,40,246.4l14.45-82.6,25.832-1.519Z" transform="translate(5.101 -118.955)" fill="none" stroke="#263238" stroke-linecap="round" stroke-linejoin="round" stroke-width="1"/><line x1="1.124" y2="5.257" transform="translate(78.773 138.552)" stroke-width="1" stroke="#263238" stroke-linecap="round" stroke-linejoin="round" fill="none"/><line x1="13.341" y2="62.102" transform="translate(81.053 71.071)" stroke-width="1" stroke="#fff" stroke-linecap="round" stroke-linejoin="round" fill="none"/><line x1="16.866" y1="3.799" transform="translate(63.274 73.503)" stroke-width="1" stroke="#fff" stroke-linecap="round" stroke-linejoin="round" fill="none"/><path d="M80.526,165.38l4.1,20.164L75.39,175.181Z" transform="translate(23.486 -117.344)" fill="#f77e0e" stroke="#263238" stroke-linecap="round" stroke-linejoin="round" stroke-width="1"/><path d="M90.1,178.08,76.422,203.015l-.334-15.5-6.078-9.239.258-10.241s-5.2-5.759-5.744-9.968.4-14.815,7.324-17.6,16.441-2.841,16.441-2.841-5.121-4.011-.532-3.86,6.975,6.078,6.975,6.078,1.519-5.349,3.13-.851a6.078,6.078,0,0,1-3.51,8.266c-2.431.821-3.8,9.694-4.239,15.347S90.1,178.08,90.1,178.08Z" transform="translate(17.774 -133.767)" fill="#fff"/><g transform="translate(82.168)" clip-path="url(#c)"><path d="M70.268,168.036s-5.2-5.759-5.744-9.968.4-14.815,7.324-17.6,16.441-2.841,16.441-2.841-5.121-4.011-.532-3.86,6.975,6.078,6.975,6.078,1.519-5.349,3.13-.851a6.078,6.078,0,0,1-3.51,8.266c-2.431.821-3.8,9.694-4.239,15.347s0,15.514,0,15.514l-1.52,2.7-7.278,1.915L76.3,198.229l-.228-10.637-6.078-9.239Z" transform="translate(-64.394 -133.767)" fill="#c6ff00"/><path d="M70.268,168.036s-5.2-5.759-5.744-9.968.4-14.815,7.324-17.6,16.441-2.841,16.441-2.841-5.121-4.011-.532-3.86,6.975,6.078,6.975,6.078,1.519-5.349,3.13-.851a6.078,6.078,0,0,1-3.51,8.266c-2.431.821-3.8,9.694-4.239,15.347s0,15.514,0,15.514l-1.52,2.7-7.278,1.915L76.3,198.229l-.228-10.637-6.078-9.239Z" transform="translate(-64.394 -133.767)" fill="#f4ad85"/></g><path d="M90.1,178.08,76.422,203.015l-.334-15.5-6.078-9.239.258-10.241s-5.2-5.759-5.744-9.968.4-14.815,7.324-17.6,16.441-2.841,16.441-2.841-5.121-4.011-.532-3.86,6.975,6.078,6.975,6.078,1.519-5.349,3.13-.851a6.078,6.078,0,0,1-3.51,8.266c-2.431.821-3.8,9.694-4.239,15.347S90.1,178.08,90.1,178.08Z" transform="translate(17.774 -133.767)" fill="none" stroke="#263238" stroke-linecap="round" stroke-linejoin="round" stroke-width="1"/><path d="M71.858,140.472c6.929-2.781,16.441-2.841,16.441-2.841s-5.121-4.011-.532-3.86,6.975,6.078,6.975,6.078,1.519-5.349,3.13-.851a6.078,6.078,0,0,1-3.51,8.266c-2.279.775-3.632,8.661-4.148,14.3l-13.888,8.008-6.078-.562v-.927s-5.2-5.759-5.744-9.968S64.929,143.238,71.858,140.472Z" transform="translate(17.764 -133.767)" fill="#263238" stroke="#263238" stroke-linecap="round" stroke-linejoin="round" stroke-width="1"/><path d="M87.906,142.354s-2.446.805-10.637-.273a10.895,10.895,0,0,0-12.779,9.512" transform="translate(17.824 -129.54)" fill="none" stroke="#fff" stroke-linecap="round" stroke-linejoin="round" stroke-width="0.5"/><path d="M85.88,147.952a120.406,120.406,0,0,1-14.147,0c-3.814-.547-7.354,2.446-5.44,6.26" transform="translate(18.482 -126.432)" fill="none" stroke="#fff" stroke-linecap="round" stroke-linejoin="round" stroke-width="0.5"/><path d="M91.6,140.78s3.753,5.121,3.875,7.932a9.786,9.786,0,0,1-1.185,4.984l5.288,7.871L95.746,162.8l-.729,15.195-1.383.41-16.441-4.908-3.161-7.6s-3.632-2.644-4.437-4.726a18.627,18.627,0,0,1-.79-3.981,2.9,2.9,0,0,1,2.933-3.206,3.282,3.282,0,0,1,2.887,1.322,41.025,41.025,0,0,1,2.69,5.166l2.112-.091.836-4.984s5.607-.957,5.531-2.355a84.871,84.871,0,0,0-2.127-8.372Z" transform="translate(20.057 -130.124)" fill="#f4ad85"/><g transform="translate(88.847 10.656)" clip-path="url(#d)"><path d="M71.737,153.1a3.282,3.282,0,0,1,2.887,1.322,41.028,41.028,0,0,1,2.69,5.166l2.112-.091.836-4.984s5.607-.957,5.531-2.355a84.867,84.867,0,0,0-2.127-8.372l2.75-1.337c2.1,2.841,4.209,6.412,3.51,8.494-1.276,3.844-5.44,9.618-4.163,12.825a93.692,93.692,0,0,1,2.689,12.156l-11.26-3.358-3.161-7.6s-3.632-2.644-4.437-4.726a18.629,18.629,0,0,1-.79-3.981,2.9,2.9,0,0,1,2.933-3.161Z" transform="translate(-68.788 -139.912)" fill="#c6ff00"/><path d="M71.737,153.1a3.282,3.282,0,0,1,2.887,1.322,41.028,41.028,0,0,1,2.69,5.166l2.112-.091.836-4.984s5.607-.957,5.531-2.355a84.867,84.867,0,0,0-2.127-8.372l2.75-1.337c2.1,2.841,4.209,6.412,3.51,8.494-1.276,3.844-5.44,9.618-4.163,12.825a93.692,93.692,0,0,1,2.689,12.156l-11.26-3.358-3.161-7.6s-3.632-2.644-4.437-4.726a18.629,18.629,0,0,1-.79-3.981,2.9,2.9,0,0,1,2.933-3.161Z" transform="translate(-68.788 -139.912)" fill="#f7c0a4"/></g><path d="M77,173.315l-9.907,10.409L65.01,163.879l4.65-3.009Z" transform="translate(18.094 -119.687)" fill="#c6ff00"/><g transform="translate(83.104 41.183)" clip-path="url(#e)"><path d="M77,173.315l-9.907,10.409L65.01,163.879l4.65-3.009Z" transform="translate(-65.01 -160.87)" fill="#f77e0e"/></g><path d="M77,173.315l-9.907,10.409L65.01,163.879l4.65-3.009Z" transform="translate(18.094 -119.687)" fill="none" stroke="#263238" stroke-linecap="round" stroke-linejoin="round" stroke-width="1"/><path d="M73.053,237.541s34.553,41.239,44.066,53.441,11.822,18.234,11.077,19.875-15.3,80.746-15.3,80.746L101,391.33s1.4-29.235.137-45.388,3.8-35.845,3.8-35.845-43.9-27.2-60.78-53.456c-8.129-12.688-8.889-17.429-5.2-31.651" transform="translate(3.456 -86.377)" fill="#161f2b"/><path d="M82.577,323.91c-.3,5.318-.517,8.752-.517,8.752" transform="translate(26.951 -34.987)" fill="none" stroke="#fff" stroke-linecap="round" stroke-linejoin="round" stroke-width="0.5"/><path d="M50.57,246.75a140.966,140.966,0,0,0,15.2,16.912c13.675,12.536,43.64,37.091,40.373,37.091s-6.078,2.72-4.908,5.455c.7,1.778-.669,29.448-1.7,48.533" transform="translate(10.592 -75.072)" fill="none" stroke="#fff" stroke-linecap="round" stroke-linejoin="round" stroke-width="0.5"/><path d="M43.911,225.21s-6.549,6.549-2.72,7.6,12.536,3.282,9.269,4.376a15.833,15.833,0,0,0-6.078,4.361s2.294,3.616,5.956,8.752" transform="translate(5.096 -86.262)" fill="none" stroke="#fff" stroke-linecap="round" stroke-linejoin="round" stroke-width="0.5"/><path d="M91.413,265.891S60.856,233.662,48.32,228.8" transform="translate(9.423 -84.397)" fill="none" stroke="#fff" stroke-linecap="round" stroke-linejoin="round" stroke-width="0.5"/><path d="M92.137,334.734l24.312,13.22s0,1.626-3.176,1.763-34.493,1.52-36.134,1.079,3.039-16.335,3.039-16.335Z" transform="translate(24.214 -29.507)" fill="#29b2fe"/><path d="M69.916,163.28,13.8,206.4a8.889,8.889,0,0,0-2.9,10.211l18.234,47.712,9.664-1.52L32.931,221.9a8.9,8.9,0,0,1,4.467-9.026l26.287-14.648S70.919,167.413,69.916,163.28Z" transform="translate(-10.318 -118.435)" fill="#f77e0e"/><g transform="translate(0 44.845)" clip-path="url(#f)"><path d="M13.811,206.4,69.926,163.28c1,4.163-6.276,34.949-6.276,34.949l-13.676,7.6c-3.692-2.841-9.239-6.792-13.341-8.357C29.9,194.9,11.957,208.683,12.322,212.527c.274,3.3,16.806,40.51,21.5,51.04l-4.726.745L10.863,216.6a8.889,8.889,0,0,1,2.948-10.2Z" transform="translate(-10.329 -163.28)" fill="#c6ff00"/><path d="M13.811,206.4,69.926,163.28c1,4.163-6.276,34.949-6.276,34.949l-13.676,7.6c-3.692-2.841-9.239-6.792-13.341-8.357C29.9,194.9,11.957,208.683,12.322,212.527c.274,3.3,16.806,40.51,21.5,51.04l-4.726.745L10.863,216.6a8.889,8.889,0,0,1,2.948-10.2Z" transform="translate(-10.329 -163.28)" fill="#f77e0e"/></g><path d="M69.916,163.28,13.8,206.4a8.889,8.889,0,0,0-2.9,10.211l18.234,47.712,9.664-1.52L32.931,221.9a8.9,8.9,0,0,1,4.467-9.026l26.287-14.648S70.919,167.413,69.916,163.28Z" transform="translate(-10.318 -118.435)" fill="none" stroke="#263238" stroke-linecap="round" stroke-linejoin="round" stroke-width="1"/><path d="M17.21,195.023a83.68,83.68,0,0,1,11.974,6.26s-3.54-7.354-8.707-9.254" transform="translate(-6.738 -103.5)" fill="none" stroke="#fff" stroke-linecap="round" stroke-linejoin="round" stroke-width="1"/><path d="M32.3,228.79l5.045,4.133,4.072,7.977-1.52,1.7-3.951-4.726-1.276,2.629.745,16.517-2.781.593L30.992,252.1l-2.614-1.048-2.355-5.729a45.014,45.014,0,0,1-2.72-3.616c-.517-.9-.653-11.411-.653-11.411Z" transform="translate(-3.912 -84.403)" fill="#f4ad85" stroke="#263238" stroke-linecap="round" stroke-linejoin="round" stroke-width="1"/><line x1="0.593" y1="7.901" transform="translate(26.518 159.795)" stroke-width="1" stroke="#263238" stroke-linecap="round" stroke-linejoin="round" fill="#fff"/><line x1="1.261" y1="7.172" transform="translate(23.236 159.476)" stroke-width="1" stroke="#263238" stroke-linecap="round" stroke-linejoin="round" fill="#fff"/><line x1="0.638" y1="3.936" transform="translate(21.503 156.984)" stroke-width="1" stroke="#263238" stroke-linecap="round" stroke-linejoin="round" fill="#fff"/><path d="M122.817,233.563l7.825-.623,5.075,3.981-2.811,9.907-8.965-2.963L119.9,240.72Z" transform="translate(46.609 -82.247)" fill="#f4ad85" stroke="#263238" stroke-linecap="round" stroke-linejoin="round" stroke-width="1"/><rect width="8.388" height="3.495" transform="translate(186.654 160.665) rotate(-154.57)" stroke-width="1" stroke="#263238" stroke-linecap="round" stroke-linejoin="round" fill="#f4ad85"/><rect width="8.388" height="3.495" transform="translate(184.952 163.777) rotate(-154.57)" stroke-width="1" stroke="#263238" stroke-linecap="round" stroke-linejoin="round" fill="#f4ad85"/><rect width="8.388" height="3.495" transform="translate(182.004 166.011) rotate(-154.57)" stroke-width="1" stroke="#263238" stroke-linecap="round" stroke-linejoin="round" fill="#f4ad85"/><rect width="6.306" height="2.735" transform="translate(179.876 167.763) rotate(-154.57)" stroke-width="1" stroke="#263238" stroke-linecap="round" stroke-linejoin="round" fill="#f4ad85"/><path d="M128.751,232.94l6.473,3.905-3.039,8.54-1.823-1.717.289-3.966s-4.133,1.519-7.02-.4" transform="translate(48.547 -82.247)" fill="#f4ad85" stroke="#263238" stroke-linecap="round" stroke-linejoin="round" stroke-width="1"/><path d="M52.828,323.722l5.5,5.865,10.044,6.078s1.018,1.808-2.234,1.96-14.025-1.246-15.894-1.155-4.315-3.039-7.111-2.948c-1.52.076-4.361-1.261-6.519-2.446a2.948,2.948,0,0,1-.851-4.422l6.26-7.734Z" transform="translate(2.561 -37.58)" fill="#29b2fe"/><path d="M68.159,332.946l.213.137s1.018,1.808-2.234,1.96-14.025-1.246-15.894-1.155-4.315-3.039-7.111-2.948c-1.52.076-4.361-1.261-6.519-2.446a2.948,2.948,0,0,1-.851-4.422l.152-.182c3.343,2.173,8.327,3.6,12.749,5.881C53.663,332.338,63.525,332.855,68.159,332.946Z" transform="translate(2.561 -34.998)" fill="#263238" stroke="#263238" stroke-linecap="round" stroke-linejoin="round" stroke-width="1"/><path d="M77.094,342.761c9.36,1.641,26.758.441,36.468-.441l2.887,1.519s0,1.626-3.176,1.763-34.493,1.52-36.134,1.079C76.668,346.575,76.775,344.873,77.094,342.761Z" transform="translate(24.229 -25.424)" fill="#263238" stroke="#263238" stroke-linecap="round" stroke-linejoin="round" stroke-width="1"/></g></g></g></svg>