<svg xmlns="http://www.w3.org/2000/svg" width="39.965" height="53.992" viewBox="0 0 39.965 53.992"><g transform="translate(0 0)"><path d="M19.116,1.6A3.814,3.814,0,0,0,20.137,0,2.808,2.808,0,0,0,20.9,1.406c2.132,1.757,4.971,2.217,7.27,3.685A10.813,10.813,0,0,1,31,7.467c1.065,1.3,1.623,2.947,2.736,4.215a10.111,10.111,0,0,0,1.978,1.567,8.526,8.526,0,0,1-2.283,1.025c.443.4,1.1.943,1.709.576.128-.3.179-.62.291-.923.337-.132.622.112.9.267.066.325.136.65.213.975.847.142,1.009,1.017,1.1,1.731l-.3.425a9.355,9.355,0,0,1,.666,1.306,6.044,6.044,0,0,1-.8,1.545c-.024.211-.046.423-.068.636.772.514.666,1.466.636,2.271.439-.371.58-1.151,1.16-1.282.542.345.632,1.067.764,1.645.146.445-.167.827-.337,1.212.219.373.6.71.58,1.174.122.508-.4.764-.7,1.055-.112.4-.1.939-.574,1.081a2.829,2.829,0,0,0-1.344,1.143c.634.1.6.722.748,1.2a7.271,7.271,0,0,0,.618.6c.381-.114.784-.439,1.186-.211a3.683,3.683,0,0,1-.271,1.924c0,.253.259.614-.046.78a8.175,8.175,0,0,1-.843.377,1.687,1.687,0,0,1,.225,1.886,5.634,5.634,0,0,1-.891.156c-.381.889-1.691.369-2.016,1.336a6.706,6.706,0,0,1,.07,1.414A12.874,12.874,0,0,1,37.43,38.3c.471.6-.016,1.266-.2,1.878-.219.357-.5.668-.736,1.019l-.732-.213a7.071,7.071,0,0,0,.227,1.27,2.865,2.865,0,0,1-.534.618c-.1.345-.2.851-.678.75a4.212,4.212,0,0,0-3.1,1.156c.235.225.536.451.526.816.126.469-.377.712-.622,1.023.078.829-.949,1.129-.786,1.994.542.1,1.089.177,1.627.291a5.617,5.617,0,0,1-.211.69c-.223.062-.451.112-.68.152a4.106,4.106,0,0,1-.756.6c-.229-.036-.453-.1-.676-.16a2.3,2.3,0,0,1-1.121,1.26c-1.244-.134-2.592-.5-3.771.09l.371.165c-.084.162-.247.483-.331.642a6.981,6.981,0,0,1,4.239.2c-.724.126-1.46.086-2.193.169a15.331,15.331,0,0,0,1,1.288,8.353,8.353,0,0,0-2.706-.211,3.5,3.5,0,0,1-2.417-.371c-.225-.283.255-.463.367-.678-.869-.07-1.876-.058-2.435-.859a4.835,4.835,0,0,0-1.535.022l-.421-.3c-.532.859-1.6.847-2.482.945.2.2.381.4.566.61-1.474,1.061-3.366.686-5.027.455l.845-.72a19.542,19.542,0,0,1-2.1-.985c1.366-.032,2.73.343,4.1.082-.108-.253-.213-.508-.317-.764a2.159,2.159,0,0,1,1.059-.2,6.779,6.779,0,0,0,3.113-.373c-1.681-.158-3.36.345-5.051.189-2.034-.046-3.788-1.18-5.384-2.327a1.935,1.935,0,0,0-1.454-.263,3.416,3.416,0,0,1,2.556-1.324c-.138-.4-.259-.818-.375-1.23A14.687,14.687,0,0,1,4.642,42.78c-.8-.718-.951-1.812-1.42-2.72-.177-.423-.664-.5-1.029-.694a3.01,3.01,0,0,1,2.638-.086c.1-.6.221-1.208.323-1.812a10.548,10.548,0,0,1-3.487-3.455A7.866,7.866,0,0,1,.925,31.42C.833,30.878.357,30.571,0,30.21a3.8,3.8,0,0,1,2.592.512c.165-.489.353-.971.528-1.454A6.421,6.421,0,0,1,.959,25.626c-.333-1.442.237-2.9-.022-4.339a21.1,21.1,0,0,1,1.571,2.138,7.158,7.158,0,0,1,1.182-1.641,4.1,4.1,0,0,1-.929-2.11c-.229-2.042.726-3.936,1.489-5.762a1.905,1.905,0,0,1,1.184,1.912,9.539,9.539,0,0,1,2.084-1.751A5.654,5.654,0,0,1,5.284,12.5,5.112,5.112,0,0,0,7.5,10.516a26.82,26.82,0,0,1,2.742-3.854,11.236,11.236,0,0,1,4.289-2.873A17.256,17.256,0,0,0,19.114,1.6m1-.471c-1.422,1.751-3.727,2.3-5.719,3.134a10.923,10.923,0,0,0-4.175,3C8.67,8.995,7.868,11.349,5.91,12.717c.632.419,1.314.752,1.974,1.123.947.5,1.523,1.466,2.441,2.01a14.636,14.636,0,0,1,5.33-5.146,9.4,9.4,0,0,1,7.727-.6,13.638,13.638,0,0,1,6.564,5.741,6.089,6.089,0,0,0,1.6-1c.977-.869,2.313-1.075,3.481-1.577a8.477,8.477,0,0,1-1.569-1.3c-1.151-1.31-1.7-3-2.817-4.339A12.137,12.137,0,0,0,26.629,4.69C24.4,3.635,21.81,3.027,20.107,1.127m-2.393,9.15a12.8,12.8,0,0,0-6.847,5.463A22.416,22.416,0,0,0,7.776,31.42a19.726,19.726,0,0,0,5.158,10.867q7.238,0,14.47-.2a18.863,18.863,0,0,0,4.508-8.375,23.691,23.691,0,0,0-1.222-15.6A15.108,15.108,0,0,0,24.813,11.2a9.025,9.025,0,0,0-7.088-.921M7.11,17.335a4.113,4.113,0,0,1,2.285-.73,19.616,19.616,0,0,1-1.7,3.334A6,6,0,0,1,5,21.933q.054.654.092,1.31c.522-.4,1.055-.762,1.6-1.139-.229,1.047.233,2.118-.074,3.154-.52,1.731-1.565,3.3-1.761,5.126a13.694,13.694,0,0,0,1.454-2.1c.235.786-.144,1.615.162,2.393a5.581,5.581,0,0,1,.451,2.74c-.074,1.252-.648,2.393-.808,3.631a8.924,8.924,0,0,0,1.011,1.466c.253-.772.714-1.456.933-2.243a9.294,9.294,0,0,1,.843,2.143c.251.847.8,1.567,1.025,2.427a7.266,7.266,0,0,1,.086,3.565c.469.2.929.423,1.4.656-.2-.869-.018-1.769-.223-2.64a5.859,5.859,0,0,1,1.17,1.487c.572.644,1.472.911,1.994,1.621a16.053,16.053,0,0,1,1.29,3.286c.11.419.618.481.911.724-.75-.572-.383-1.539-.425-2.327.032-.786,1-.5,1.509-.512.851.126,1.6-.4,2.393-.506.754.048,1.416.6,2.193.461.644.02,1.416-.253,1.97.183A2.5,2.5,0,0,1,24.21,48.6,8.435,8.435,0,0,0,22.8,49.842a2.563,2.563,0,0,0,1.906-1.448,2.132,2.132,0,0,1,.335-1.131c.343-.363.309-.879.461-1.322.321-.235.672-.429.985-.678.335-.309.879-.227,1.166-.6.245-.2.461-.6.827-.487.313.028.353.385.491.6a3.589,3.589,0,0,0,1.244-2.556,6.681,6.681,0,0,0-.491-1.336A3.351,3.351,0,0,1,31,39.689a1.2,1.2,0,0,1,.213-1.234c.524-.5.371-1.432,1.115-1.721a12.534,12.534,0,0,0,1.035,1.22,4.01,4.01,0,0,0,.776-1.926c.108-.969-.732-1.677-.887-2.582.12-.578.287-1.2.9-1.414-.221-.3-.451-.6-.672-.907a6.736,6.736,0,0,1,.73-.544c.072-.4-.136-1.019.4-1.133.347-.16.622.3.925.435-.425-.979-1.386-1.767-1.2-2.933-.221-.169-.443-.341-.652-.524a1.884,1.884,0,0,0,.167-1.364,2.437,2.437,0,0,0-.106-2.419c.235-.092.455-.327.724-.277a8.3,8.3,0,0,1,.726.772q.323-.449.642-.9a5.751,5.751,0,0,0-.851-.961c-.423-.347-1.011-.293-1.483-.526a5.634,5.634,0,0,1-.584-.833c-.66-.415-1.5-1.113-1.087-1.98a5.53,5.53,0,0,1-.8-1.868l-.215-.235-.672.375a23.5,23.5,0,0,1,2.532,16.015,19.474,19.474,0,0,1-5.439,10.614,10.438,10.438,0,0,1-7.218,3.033,10.778,10.778,0,0,1-7.734-3.7A20.446,20.446,0,0,1,7.4,31.536a23.047,23.047,0,0,1,2.734-15.353c-.911-.514-1.5-1.428-2.359-2a6.861,6.861,0,0,0-.664,3.154m27.716-1.906c.273.552.951.628,1.354,1.041.2.343-.06.738-.108,1.093.81,1,.3,2.331.3,3.481l.487-.259c.028-.241.058-.481.09-.722a12.136,12.136,0,0,0,.756-1.412,9.235,9.235,0,0,1-.556-1.17c.028-.508.247-1.059-.034-1.535-.267-.317-.722-.469-.873-.879-.158-.343-.3-.692-.461-1.033a2.046,2.046,0,0,1-.949,1.4m-31.8,3.629A3.2,3.2,0,0,0,4.042,21.6c.185-1.18.05-2.393.351-3.565a13.383,13.383,0,0,0,.73-2.562c0-.481-.411-.8-.668-1.168a11.684,11.684,0,0,0-1.428,4.758M30.976,15.74a10.381,10.381,0,0,0,1.976.425,13.878,13.878,0,0,0-.092-1.727c-.674.367-1.25.877-1.884,1.3M33.155,14.5a7.5,7.5,0,0,1,.05,1.878c.239.225.475.457.708.69-.167.2-.337.4-.506.6.2.487.678.656,1.093.9a7.6,7.6,0,0,1,.14.822,9.868,9.868,0,0,1,1.47,1.635c0-.925.138-1.848.058-2.776-.642-.389-.379-1.049-.177-1.609-.4-.211-.812-.381-1.184-.624-.154-.225-.239-.489-.4-.718a11.633,11.633,0,0,1-1.26-.8M5.23,16.645a8.557,8.557,0,0,0-.8,3.918c.169.247.333.5.494.754A12.4,12.4,0,0,0,6.369,19.17c.692-1.418.339-3.055.8-4.536a7.4,7.4,0,0,0-1.934,2.012M31.3,16.221a15.951,15.951,0,0,0,.915,1.725c-.1.2-.2.379-.289.568a4.454,4.454,0,0,0,1.2,1.154c.265.4.5.933,1.063.953a3.619,3.619,0,0,1,1.727,1.031c-.181-1.208-1.645-1.637-1.725-2.883A1.609,1.609,0,0,1,33.1,17.521c.11-.124.333-.369.443-.491a3.414,3.414,0,0,0-2.237-.81M7.262,17.694a6.489,6.489,0,0,0-.441,1.168A10.7,10.7,0,0,1,5.25,21.469a6.855,6.855,0,0,0,1.6-1,11.628,11.628,0,0,0,2.092-3.555A2.987,2.987,0,0,0,7.26,17.7m29.365,3.589A9.048,9.048,0,0,1,35.5,23.185a7.906,7.906,0,0,1,.7.714,3.663,3.663,0,0,1-.782.6c.144.536.383,1.039.556,1.563a3.254,3.254,0,0,1-.371.786,4.264,4.264,0,0,1,.656.891,17.469,17.469,0,0,1,.074,2.07,6.472,6.472,0,0,0,.65-1.553,13.521,13.521,0,0,1,.955-2.193,1.542,1.542,0,0,1-.048-1.777c-.66-.684-.377-1.619-.4-2.459-.056-.379-.508-1-.869-.534M2.664,24.063a7.743,7.743,0,0,0,.666,3.788c.241.213.475.435.7.662-.06-2.453,1.256-4.839.512-7.29-.686.893-1.673,1.661-1.882,2.829m35.115-.584a7.03,7.03,0,0,1,.419.748,7.776,7.776,0,0,1-.265.841c.1.443.4.907.167,1.356a19.217,19.217,0,0,0-.943,2.193,15.988,15.988,0,0,1,1.531-1.049c.2-.331.251-.756.544-1.033.148-.223.471-.369.453-.67-.138-.435-.427-.8-.588-1.22a6.553,6.553,0,0,1,.379-.857,10.123,10.123,0,0,0-.5-1.737,13.426,13.426,0,0,1-1.2,1.432M1.362,22.31a11.534,11.534,0,0,0-.16,2.915,5.523,5.523,0,0,0,2.1,3.723c-.2-1.152-.8-2.193-.937-3.364-.1-.624,0-1.26-.09-1.882a6.432,6.432,0,0,0-.915-1.4m32.754.225a6.9,6.9,0,0,1,.331,2.157c-.092.14-.181.281-.271.423a1.994,1.994,0,0,1-.122,1.242l.58.4a2.551,2.551,0,0,0,.225,1.378A8.773,8.773,0,0,1,35.935,30.3a12.717,12.717,0,0,0,.08-2.08c0-.554-.494-.915-.706-1.4a7.626,7.626,0,0,1,.353-.8,3.248,3.248,0,0,1-.469-1.733,6.2,6.2,0,0,1,.614-.473,16.268,16.268,0,0,1-1.691-1.294m-29.143,1.7c-.243,1.795-1.011,3.657-.409,5.455C5.017,28.334,5.6,27.028,6.137,25.7a5.775,5.775,0,0,0,.134-2.967c-.518.4-1.3.728-1.3,1.5m-2.116,7.79A10.909,10.909,0,0,0,5.306,36.5c-.088-1.234.012-2.466.024-3.7a9.342,9.342,0,0,0-1.695-4.3c-.223,1.18-1.055,2.269-.778,3.513m2.437-1.216a11.515,11.515,0,0,1,.351,2.411,19.955,19.955,0,0,0,.04,3.669,10.207,10.207,0,0,0,.887-4.813,10.6,10.6,0,0,1-.6-2.714c-.305.433-.754.869-.674,1.448m30.569-.2c.046.255.078.512.1.774a11.676,11.676,0,0,0-1.151.977l.524.692-.72.365a24.115,24.115,0,0,1,.5,2.955,12.78,12.78,0,0,1-.8,1.571c1.037-.475,1.481-1.639,2.01-2.576.3-.375.8-.538,1.075-.931-.02-.333-.092-.66-.1-1,.229-.2.492-.363.726-.56a7.247,7.247,0,0,0,.351-1.836,2.149,2.149,0,0,1-.823-1.611c-.582.365-1.113.8-1.693,1.174m-1.972.538c.152.3.62.618.387,1a8.9,8.9,0,0,0-.812,1.28A9.588,9.588,0,0,1,34.4,35.59a4.48,4.48,0,0,1-.949,2.78,5.041,5.041,0,0,0,1.324-1.98c.058-1.067-.427-2.078-.453-3.138.167-.116.341-.223.518-.327-.12-.213-.237-.427-.353-.642a8.774,8.774,0,0,1,1.2-1.107,2.552,2.552,0,0,0-.939-1.549c-.323.51-.13,1.3-.847,1.519m-33-.752c.54,1.266.437,2.766,1.308,3.89a8.94,8.94,0,0,0,3.079,2.847C4.169,35.4,2.686,33.755,2.5,31.616c.1-.909-.987-1-1.607-1.222m37.811.812c-.1.618-.223,1.232-.333,1.848-.257.181-.516.357-.776.534.062.429.327,1.007-.164,1.282a3,3,0,0,0-1.282,1.472,2.932,2.932,0,0,0,1.428-.522,2.132,2.132,0,0,1,1.226-.481,2.523,2.523,0,0,0-.4-1.645c.347-.221.708-.423,1.067-.626l-.241-.417a4.676,4.676,0,0,0,.435-1.779c-.319.11-.636.219-.953.333M5.489,36.956c0,1.172-.684,2.393-.114,3.519A13.334,13.334,0,0,0,8.55,44.192,29.924,29.924,0,0,1,7.93,40.9a8.96,8.96,0,0,0-2.441-3.948m1.994,1.818a21.115,21.115,0,0,1,.76,2.155c.167,1,.3,1.994.522,2.971.329.1.662.2,1,.291a6.982,6.982,0,0,0-.556-4.321A14.148,14.148,0,0,1,8.135,37c-.277.56-.75,1.113-.65,1.777M31.213,39.8a8.889,8.889,0,0,0-1.162,1.113A4.225,4.225,0,0,1,30.5,42.18a11.032,11.032,0,0,1-.4,1.807c.867-.76.644-2.024,1.35-2.869l-.369-.656c.285-.443.481-.937.766-1.378a6.92,6.92,0,0,1,.973-.134c.1-.239.329-.461.283-.734-.269-.427-.626-.8-.929-1.2-.173,1-1.109,1.713-.961,2.782M34.2,38.252a4.748,4.748,0,0,0-1.368,1A6.948,6.948,0,0,1,32,39.36a8.955,8.955,0,0,1-.564,1.154c.144.213.283.429.427.644-.8.658-.53,1.795-1.164,2.548-.538.818-1.358,1.4-1.878,2.231.879-.546,1.464-1.442,2.337-1.994a10.783,10.783,0,0,0,1.795-1.5,3.075,3.075,0,0,1,.058-1,4.641,4.641,0,0,1,1.647-.112c.116-.658.094-1.334.249-1.984.078-.411.58-.413.879-.586.022-.461.04-.923.046-1.384a5.6,5.6,0,0,1-1.623.871m.987,1.1a9.593,9.593,0,0,1-.323,2.12c-.455.353-1.091.118-1.625.165-.028.355.223.818-.114,1.083-1.019,1.1-2.433,1.735-3.39,2.905a3.364,3.364,0,0,0,1.6-.871,4.2,4.2,0,0,1,3.589-1.434c.2-.4.437-.784.652-1.176-.026-.473-.255-1.009.088-1.426a6.619,6.619,0,0,1,.744.024,4.331,4.331,0,0,0,.947-1.958l-.233-.165a7.831,7.831,0,0,0-1.948.734M3.055,39.273c.843,1.079.9,2.622,1.994,3.519a13.481,13.481,0,0,0,4.084,2.516,16.253,16.253,0,0,0-1.9-1.916,8.81,8.81,0,0,1-2.371-3.374c-.169-.8-1.2-.616-1.809-.746M13.16,42.507c.323.273.65.542.975.814,3.89.05,7.776-.1,11.665-.108.62.012.981-.576,1.426-.911-4.688.078-9.372.221-14.065.2m1.258,1.043c.512.271.975.8,1.6.74,2.931-.014,5.866-.022,8.793-.185a5.794,5.794,0,0,0,1.107-.7c-3.834.056-7.671.164-11.505.148m-2.843-.126a3.139,3.139,0,0,0,.229,1.617,6.13,6.13,0,0,0,.9.893c.943.831,1.545,1.98,2.54,2.76a13.842,13.842,0,0,0-.973-2.728c-.333-.674-1.051-.987-1.621-1.418a5.855,5.855,0,0,1-1.073-1.125m-2.546.917c.3.74.518,1.509.756,2.273a3.068,3.068,0,0,0,1.761,1.7,21.48,21.48,0,0,0,4.728,1.4,7.569,7.569,0,0,1-1.739-1.242c-.983-1-1.711-2.285-2.959-3A16.883,16.883,0,0,0,9,44.341m7.074.187a8.973,8.973,0,0,0,8.281-.165c-2.76.06-5.521.16-8.281.165m10.767.831q-.546.4-1.115.772a2.728,2.728,0,0,1-.578,1.5,5.184,5.184,0,0,1-.722,1.739,5.117,5.117,0,0,0,1.154-.788,6.325,6.325,0,0,0,.534-1.125l.728-.108c.126-.349.132-.81.491-1.017.283-.2.632-.042.943-.038.106-.221.215-.441.325-.658-.042-.429-.062-.857-.118-1.284-.518.379-.937.927-1.621,1m1.954-.078c.271.066.367-.04.289-.319-.271-.068-.367.04-.289.319m-.164.925-.263.658-.714-.433a2.068,2.068,0,0,0-.6,1.234c-.241.014-.481.026-.718.042a2.9,2.9,0,0,1-.752,1.286,7.714,7.714,0,0,1-2.871,1.131,11.61,11.61,0,0,0,2.562-.233,17.4,17.4,0,0,1,2.592-1l.4.688c.666-.092.6-.788.893-1.236.417,0,.857.339,1.254.122a2.7,2.7,0,0,1,.714-1.358,1.988,1.988,0,0,1,.8-1.318c-.044-.165-.13-.494-.171-.66A11.336,11.336,0,0,1,28.659,46.2M18.2,46.951c-.6.034-1.2-.014-1.795-.018-.02.664-.034,1.326-.038,1.994a11.008,11.008,0,0,1,2.02,1.18l.52-.576c-.624-.68-1.254-1.354-1.926-1.984.054-.054.162-.16.217-.211.361.361.726.722,1.085,1.085a3.531,3.531,0,0,1,1.529-.52,6.342,6.342,0,0,1,2.06.477c.514-.257,1-.568,1.523-.81a2.461,2.461,0,0,1-1.228,1.013c-.383.183-.54.6-.77.935l.67.5c.646-.558,1.256-1.154,1.914-1.7A6.3,6.3,0,0,0,24,46.937a11.963,11.963,0,0,0-1.994,0c-.7.052-1.306-.389-1.982-.481a14.4,14.4,0,0,1-1.795.5M7.78,47.781c1.37.706,2.524,1.795,3.988,2.311,2.02.8,4.217.335,6.317.259-1.539-.345-3.115-.532-4.624-1a7.466,7.466,0,0,1-3.818-2.128,7.061,7.061,0,0,0-1.868.56m10.733.855c.181.211.367.421.554.63a6.8,6.8,0,0,1,2.165.022c.13-.237.257-.473.387-.706a3.341,3.341,0,0,0-3.107.054m10.8.06c-.076.379-.058.921-.534,1.033-.483.259-.871-.154-1.166-.479-.839.3-1.611.778-2.474,1.011-.909.154-1.84.11-2.748.271a27.367,27.367,0,0,1,3.22.449,8.016,8.016,0,0,1,3.28.175,4.239,4.239,0,0,0,1.119-1.324c.253.038.5.11.75.171a3.667,3.667,0,0,1,1.454-.837c-.528-.11-1.059-.211-1.6-.321A4.785,4.785,0,0,1,29.3,48.7m-9.786.784c-.237.175-.471.361-.7.546a3.725,3.725,0,0,0,.708,1.533,10.663,10.663,0,0,1,1.472-.034,3.96,3.96,0,0,0,.728-1.4c-.343-.253-.69-.5-1.049-.726a1.958,1.958,0,0,1-1.156.072m1.962,1.474a9,9,0,0,0,3.545.445c0-.062.02-.187.026-.249a22.9,22.9,0,0,0-2.608-.3,1.794,1.794,0,0,0-.963.1m-6.524.341a3.751,3.751,0,0,0,1.069,1.236,9.8,9.8,0,0,1,2.223-.546c.365-.173.8-.544.6-1a13.449,13.449,0,0,1-3.894.305m6.363.03c.148.333.279.742.66.877.75.233,1.613.064,2.275.56a5.316,5.316,0,0,0,1.139-1.069,26.832,26.832,0,0,1-4.074-.369m-9.138.857a6.513,6.513,0,0,1,1,.622c-.088.217-.185.429-.291.64,1.3.068,2.682.325,3.88-.331a8.278,8.278,0,0,1-1.559-.933,8.314,8.314,0,0,1-3.037,0m12.815.349a8.468,8.468,0,0,1-1.617.77c1.372.433,2.807-.046,4.2.227-.285-.4-.558-.847-.08-1.22C26.649,52.377,25.819,52.5,24.98,52.528Z" transform="translate(0)" fill="#2c241a"/><path d="M25.8,2.212c1.7,1.9,4.293,2.508,6.522,3.563a12.109,12.109,0,0,1,4.006,2.943c1.113,1.34,1.667,3.029,2.823,4.331a8.556,8.556,0,0,0,1.569,1.3c-1.168.5-2.5.708-3.481,1.577a6.089,6.089,0,0,1-1.6,1,13.662,13.662,0,0,0-6.57-5.741,9.4,9.4,0,0,0-7.727.6,14.722,14.722,0,0,0-5.33,5.154c-.917-.544-1.493-1.505-2.441-2.01-.66-.371-1.342-.7-1.974-1.123,1.958-1.368,2.76-3.723,4.307-5.455a10.923,10.923,0,0,1,4.171-2.991c1.994-.835,4.3-1.384,5.719-3.134m-.267,1.3c.02.1.062.309.082.413.253-.114.506-.229.758-.347l-.839-.066m-.04,3.759c.221.189.467.351.688.54a1.587,1.587,0,0,1-1.926,1.027c-.7-.644-.116-1.645-.018-2.415a4.153,4.153,0,0,0-.421,2.7.969.969,0,0,0,1.466.433,2.4,2.4,0,0,0,.957-2.343,3.488,3.488,0,0,1-.55-1.015c.748.062.877-.62.881-1.2l-.56.379c-.064-.421-.112-.841-.167-1.264-.1,1.055-.2,2.108-.349,3.154m-3.25-1.958a7,7,0,0,0,.54,2.839,9,9,0,0,0-.54-2.839m-2.859,1.6a6.915,6.915,0,0,0,.865,2.662,8.365,8.365,0,0,0-.863-2.664M32.5,7.534l.323.4a.82.82,0,0,0,.556-.909q-.447.245-.879.512M21.3,8.543a4.807,4.807,0,0,1-.558,1.627c.245-.239.676-.4.68-.8.044-.716.305-1.4.329-2.114A2.7,2.7,0,0,0,21.3,8.541m5.406.2a3.24,3.24,0,0,0,1.43,1,4.269,4.269,0,0,0,3.707.2c-.255.5-.762.969-.688,1.583.4.323.748-.165,1.1-.321l-.423-.257c-.06-.931.839-1.6,1.35-2.285,1.1.078,2.179.333,3.268.5a4.767,4.767,0,0,0-2.57-.642c-.971-.171-1.454.875-2.138,1.358a5.863,5.863,0,0,1-4.7-1.88,5.478,5.478,0,0,0-.335.75m-8.492-.558c.136.76.748,1.306.941,2.04a1.591,1.591,0,0,1-1.677,1.637c-.514-.377-.584-1.063-.825-1.6a4.631,4.631,0,0,0,.686,1.922.928.928,0,0,0,.965.425,1.635,1.635,0,0,0,1.1-1.623A4.363,4.363,0,0,0,18.2,8.2M22.53,9.7l-.714-.076q-.038.409-.072.82l.6.046c.028-.146.084-.437.114-.582l.638.146c.038-.171.116-.514.156-.686l-.558-.285c-.042.154-.124.465-.164.618m10.682,2.347a3.268,3.268,0,0,0,1-.285l-.461-.6c.351-.666.812-1.262,1.2-1.9A4.589,4.589,0,0,0,33.2,12.042m-15.65-2.2c0,.261,0,.524.014.786l.662.02c0-.267-.01-.534-.018-.8q-.329-.016-.658,0m15.216,3.328a6.636,6.636,0,0,0,.646-.329,5.617,5.617,0,0,0-.046-.66c-.369.237-.927.445-.6,1Z" transform="translate(-5.693 -1.085)" fill="#fff6b1"/><path d="M30.4,4.791l.839.066c-.251.118-.5.233-.758.347-.02-.1-.062-.311-.082-.413m-.04,3.759c.148-1.047.253-2.1.349-3.154.056.423.1.843.167,1.264l.56-.379c0,.578-.134,1.26-.881,1.2a3.409,3.409,0,0,0,.55,1.015,2.393,2.393,0,0,1-.957,2.343.968.968,0,0,1-1.466-.433A4.153,4.153,0,0,1,29.1,7.7c-.1.77-.678,1.771.018,2.415A1.584,1.584,0,0,0,31.044,9.09c-.221-.189-.467-.351-.688-.54m-3.25-1.956a9,9,0,0,1,.54,2.839,7,7,0,0,1-.54-2.839m-2.859,1.6a8.171,8.171,0,0,1,.863,2.664,6.845,6.845,0,0,1-.863-2.664M37.363,8.8q.435-.267.879-.512a.82.82,0,0,1-.556.909l-.323-.4m-11.2,1.009a2.7,2.7,0,0,1,.451-1.276c-.024.718-.285,1.4-.329,2.114,0,.4-.435.556-.68.8a4.867,4.867,0,0,0,.558-1.627m5.406.2a5.477,5.477,0,0,1,.327-.754,5.882,5.882,0,0,0,4.7,1.88c.684-.483,1.166-1.529,2.138-1.358a4.767,4.767,0,0,1,2.57.642c-1.089-.167-2.165-.423-3.268-.5-.51.7-1.41,1.354-1.35,2.285l.423.257c-.351.156-.708.644-1.1.321-.074-.614.433-1.081.688-1.583a4.269,4.269,0,0,1-3.707-.2,3.209,3.209,0,0,1-1.43-1m-8.484-.56a4.363,4.363,0,0,1,1.2,2.792,1.623,1.623,0,0,1-1.1,1.623.928.928,0,0,1-.965-.425,4.631,4.631,0,0,1-.686-1.922c.241.542.311,1.228.825,1.6a1.586,1.586,0,0,0,1.677-1.637c-.2-.734-.8-1.28-.941-2.04M27.4,10.943c.04-.154.122-.465.163-.618l.558.285c-.04.171-.118.514-.156.686l-.638-.146c-.03.146-.086.437-.114.582l-.6-.046q.034-.409.072-.82l.714.076m10.67,2.375a4.589,4.589,0,0,1,1.745-2.776c-.4.64-.853,1.236-1.2,1.9l.461.6a3.268,3.268,0,0,1-1.009.275M22.41,11.108h.658c0,.265.014.532.018.8l-.662-.02c-.01-.261-.022-.524-.014-.786m15.216,3.328c-.323-.546.235-.754.6-1a5.617,5.617,0,0,1,.048.684,6.636,6.636,0,0,1-.65.331m-9.266,6.58c.257.522.493,1.288,1.2,1.3.514.1.839-.373,1.168-.678.283.317.546.78,1.043.706.636-.036.837-.716,1.135-1.16a1.387,1.387,0,0,1-.576,1.755,2.132,2.132,0,0,1-1.669-.164,1.937,1.937,0,0,1-2.365-.359,13.759,13.759,0,0,1,.06-1.4m1.262,2.792a11.889,11.889,0,0,1,1.077-.923c.317.329.766.564,1,.967.036,3.224-.13,6.452-.1,9.679a7.783,7.783,0,0,0,1.32-10.189A7.033,7.033,0,0,1,35.3,26.675a6.871,6.871,0,0,1-.654,5.784,9.413,9.413,0,0,1-2.287,2.5,8.738,8.738,0,0,0,3.148.518c-1.292.752-2.831.471-4.251.522-.183.329-.367.656-.548.985a7,7,0,0,0-.756-.967c-1.362-.152-3,.323-4.106-.732a6.179,6.179,0,0,0,3.113-.309,9.853,9.853,0,0,1-2.937-4.046,6.529,6.529,0,0,1,2.393-7.559A7.333,7.333,0,0,0,29.744,33.46c.014-3.222-.162-6.446-.116-9.667m-6.245,2.965A7.624,7.624,0,0,1,27.77,23.17c-1.414,1.4-2.9,2.925-3.306,4.953-.544,2.243.339,4.456,1.113,6.526a6.457,6.457,0,0,1-2.193-7.882m10.368-3.539a7.569,7.569,0,0,1,4.235,3.753,6.318,6.318,0,0,1-2.453,7.746,16.812,16.812,0,0,0,1.358-4.05,6.861,6.861,0,0,0-1.065-4.955A22.386,22.386,0,0,0,33.752,23.227Z" transform="translate(-10.556 -2.351)" fill="#e30612"/><path d="M35.681,28.947a2.028,2.028,0,0,0,.949-1.4c.162.341.3.69.461,1.033.152.411.6.562.873.879.281.477.062,1.027.034,1.535a9.234,9.234,0,0,0,.556,1.17,12.138,12.138,0,0,1-.756,1.412c-.032.241-.062.481-.09.722l-.487.259c0-1.151.514-2.492-.3-3.481.048-.355.315-.75.108-1.093-.4-.413-1.081-.489-1.354-1.041m-31.8,3.629a11.563,11.563,0,0,1,1.428-4.758c.257.361.666.688.668,1.168a13.383,13.383,0,0,1-.73,2.562c-.3,1.166-.165,2.393-.351,3.565a3.2,3.2,0,0,1-1.015-2.538m28.278-2.837a3.414,3.414,0,0,1,2.227.81c-.11.122-.333.367-.443.491a1.609,1.609,0,0,0,1.1,1.244c.08,1.246,1.543,1.675,1.725,2.883a3.619,3.619,0,0,0-1.727-1.031c-.558-.02-.8-.548-1.063-.953a4.454,4.454,0,0,1-1.2-1.154c.1-.2.2-.379.289-.568a15.951,15.951,0,0,1-.913-1.721M8.12,31.212A2.993,2.993,0,0,1,9.8,30.424,11.773,11.773,0,0,1,7.706,33.98a6.855,6.855,0,0,1-1.6,1A10.89,10.89,0,0,0,7.682,32.37,6.489,6.489,0,0,1,8.122,31.2M38.64,36.984a13.425,13.425,0,0,0,1.2-1.432,10.123,10.123,0,0,1,.5,1.737,6.553,6.553,0,0,0-.379.857c.162.423.451.786.588,1.22.018.3-.305.447-.453.67-.293.277-.339.7-.544,1.033a15.986,15.986,0,0,0-1.531,1.049,19.848,19.848,0,0,1,.943-2.193c.241-.449-.066-.913-.167-1.356a7.778,7.778,0,0,0,.265-.841,7.029,7.029,0,0,0-.419-.748M2.22,35.828a6.387,6.387,0,0,1,.915,1.4c.088.622,0,1.258.09,1.882.138,1.166.736,2.211.937,3.364a5.523,5.523,0,0,1-2.108-3.727,11.534,11.534,0,0,1,.16-2.915m32.76.221a16.27,16.27,0,0,0,1.691,1.308,6.2,6.2,0,0,0-.614.473,3.248,3.248,0,0,0,.469,1.733,7.626,7.626,0,0,0-.353.8c.211.475.7.835.706,1.4a12.718,12.718,0,0,1-.08,2.08,8.773,8.773,0,0,0-1.075-2.173,2.459,2.459,0,0,1-.225-1.378l-.58-.4a1.994,1.994,0,0,0,.122-1.242c.09-.142.179-.283.271-.423a6.9,6.9,0,0,0-.331-2.171m-29.143,1.7c0-.77.78-1.089,1.3-1.5A5.67,5.67,0,0,1,7,39.222c-.534,1.324-1.121,2.63-1.573,3.988-.6-1.795.165-3.659.409-5.455m.321,6.58c-.08-.578.369-1.015.674-1.448a11.41,11.41,0,0,0,.6,2.714,10.207,10.207,0,0,1-.887,4.813,19.955,19.955,0,0,1-.04-3.669,11.5,11.5,0,0,0-.351-2.411m28.609.325c.718-.221.524-1.009.847-1.519a2.552,2.552,0,0,1,.939,1.549,8.773,8.773,0,0,0-1.2,1.107c.116.215.233.429.353.642-.177.1-.351.211-.518.327.026,1.061.51,2.072.453,3.138a5.063,5.063,0,0,1-1.324,1.98,4.48,4.48,0,0,0,.949-2.78,9.411,9.411,0,0,0-.923-2.171,8.9,8.9,0,0,1,.812-1.28c.233-.375-.235-.69-.387-1M1.75,43.911c.62.231,1.7.313,1.607,1.222.185,2.139,1.671,3.788,2.78,5.515A8.94,8.94,0,0,1,3.058,47.8c-.871-1.125-.768-2.624-1.308-3.89m37.811.812c.317-.114.634-.223.953-.333a4.676,4.676,0,0,1-.435,1.779l.241.417c-.359.2-.72.4-1.067.626a2.435,2.435,0,0,1,.4,1.645,2.092,2.092,0,0,0-1.226.481A2.893,2.893,0,0,1,37,49.859a3,3,0,0,1,1.282-1.472c.491-.275.225-.853.164-1.282.259-.177.518-.353.776-.534.11-.616.229-1.23.333-1.848M8.34,52.3c-.1-.664.373-1.216.65-1.777A14.148,14.148,0,0,0,10.061,53.4a6.968,6.968,0,0,1,.556,4.321c-.333-.094-.666-.187-1-.291-.225-.981-.355-1.98-.522-2.971a22.28,22.28,0,0,0-.76-2.155m23.728,1.025c-.148-1.069.788-1.781.961-2.782.3.4.66.772.929,1.2.046.273-.187.494-.283.734a6.921,6.921,0,0,0-.973.134c-.285.441-.481.935-.766,1.378l.369.656c-.706.845-.483,2.11-1.35,2.869a10.986,10.986,0,0,0,.4-1.807,4.225,4.225,0,0,0-.449-1.268,8.888,8.888,0,0,1,1.162-1.113m3.974-.453a7.83,7.83,0,0,1,1.948-.734l.233.165a4.331,4.331,0,0,1-.947,1.958,6.62,6.62,0,0,0-.744-.024c-.343.417-.114.953-.088,1.426-.215.4-.457.772-.652,1.176A4.216,4.216,0,0,0,32.2,58.272a3.45,3.45,0,0,1-1.6.871c.951-1.17,2.365-1.807,3.39-2.905.337-.265.086-.728.114-1.083.534-.048,1.17.187,1.625-.165a9.593,9.593,0,0,0,.323-2.12M3.935,52.788c.6.13,1.639-.052,1.809.746a8.833,8.833,0,0,0,2.371,3.374,16.253,16.253,0,0,1,1.9,1.916,13.481,13.481,0,0,1-4.084-2.516c-1.1-.9-1.151-2.441-1.994-3.519m8.488,4.147A5.8,5.8,0,0,0,13.5,58.06c.57.431,1.288.744,1.621,1.418a13.751,13.751,0,0,1,.973,2.728c-1-.78-1.6-1.928-2.54-2.76a5.592,5.592,0,0,1-.9-.893,3.225,3.225,0,0,1-.229-1.617m15.3,1.936c.684-.078,1.1-.626,1.621-1,.056.427.076.855.118,1.284-.11.217-.219.437-.325.658-.311,0-.66-.164-.943.038-.359.2-.365.668-.491,1.017l-.726.1a6.325,6.325,0,0,1-.512,1.121,5.208,5.208,0,0,1-1.154.788,5.184,5.184,0,0,0,.722-1.739,2.728,2.728,0,0,0,.578-1.5q.568-.369,1.115-.772M8.615,61.294a7.061,7.061,0,0,1,1.868-.56A7.442,7.442,0,0,0,14.3,62.862c1.509.471,3.085.658,4.624,1-2.1.076-4.3.544-6.317-.259-1.47-.516-2.624-1.6-3.988-2.311m21.535.915a4.785,4.785,0,0,0,1.312.15c.528.11,1.059.211,1.6.321a3.667,3.667,0,0,0-1.454.837c-.249-.062-.5-.134-.75-.171a4.239,4.239,0,0,1-1.119,1.324,8.023,8.023,0,0,0-3.28-.175,27.365,27.365,0,0,0-3.22-.449c.907-.162,1.838-.118,2.748-.271.863-.233,1.635-.708,2.474-1.011.3.325.684.738,1.166.479.477-.112.459-.654.534-1.033Z" transform="translate(-0.859 -13.518)" fill="#f7a70b"/><path d="M35.667,28.463a11.633,11.633,0,0,0,1.26.8c.15.229.235.492.4.718.373.243.8.413,1.184.624-.2.56-.465,1.22.177,1.609.08.927-.062,1.85-.058,2.776a10.113,10.113,0,0,0-1.47-1.635,7.6,7.6,0,0,0-.14-.821c-.415-.243-.9-.413-1.093-.9.169-.2.339-.4.506-.6-.233-.233-.469-.465-.708-.69a7.5,7.5,0,0,0-.05-1.878M7.762,30.615A7.368,7.368,0,0,1,9.7,28.6c-.455,1.481-.1,3.119-.8,4.536a12.4,12.4,0,0,1-1.442,2.147c-.162-.253-.325-.506-.494-.754a8.469,8.469,0,0,1,.8-3.918m31.393,4.644c.361-.457.814.156.869.534.026.839-.257,1.775.4,2.459a1.543,1.543,0,0,0,.048,1.777,12.461,12.461,0,0,0-.955,2.193,6.472,6.472,0,0,1-.65,1.553,17.409,17.409,0,0,0-.074-2.07,4.37,4.37,0,0,0-.656-.891,3.254,3.254,0,0,0,.371-.786c-.173-.524-.413-1.027-.556-1.563a3.663,3.663,0,0,0,.782-.6,7.9,7.9,0,0,0-.7-.714,9.048,9.048,0,0,0,1.121-1.892M5.176,38.028c.209-1.168,1.2-1.936,1.882-2.829.744,2.451-.572,4.837-.512,7.29-.229-.227-.463-.449-.7-.662a7.8,7.8,0,0,1-.666-3.788m.2,7.96c-.277-1.244.554-2.333.778-3.513a9.334,9.334,0,0,1,1.695,4.3c-.012,1.23-.112,2.463-.024,3.7A10.935,10.935,0,0,1,5.375,46m33.006-1.414c.58-.367,1.111-.81,1.693-1.174a2.149,2.149,0,0,0,.823,1.611,7.247,7.247,0,0,1-.351,1.836c-.233.2-.5.359-.726.56,0,.333.078.66.1,1-.275.4-.776.556-1.075.931-.528.937-.973,2.1-2.01,2.576a12.925,12.925,0,0,0,.8-1.571,24.245,24.245,0,0,0-.5-2.955l.72-.365-.524-.692a11.675,11.675,0,0,1,1.15-.977c-.022-.261-.054-.518-.1-.774M8,50.921a8.96,8.96,0,0,1,2.441,3.948,29.748,29.748,0,0,0,.62,3.288A13.334,13.334,0,0,1,7.888,54.44C7.317,53.312,8,52.093,8,50.921m28.713,1.294a5.681,5.681,0,0,0,1.623-.871c0,.461-.024.923-.046,1.384-.3.173-.8.175-.879.586-.156.65-.134,1.326-.249,1.984a4.642,4.642,0,0,0-1.647.112,3.075,3.075,0,0,0-.058,1,10.783,10.783,0,0,1-1.795,1.5c-.873.554-1.458,1.45-2.337,1.994.52-.831,1.34-1.414,1.878-2.231.634-.752.369-1.89,1.164-2.548-.144-.215-.283-.431-.427-.644a8.954,8.954,0,0,0,.564-1.154,6.947,6.947,0,0,0,.835-.112c.451-.339.8-.831,1.368-1M11.523,58.3a16.883,16.883,0,0,1,2.554,1.127c1.242.718,1.97,1.994,2.945,3.007a7.569,7.569,0,0,0,1.739,1.242,22.055,22.055,0,0,1-4.728-1.4,3.068,3.068,0,0,1-1.761-1.7c-.237-.764-.453-1.533-.756-2.273m19.8.941c-.078-.279.018-.387.289-.319.078.279-.018.385-.289.319m-.164.925A11.337,11.337,0,0,0,34.279,59.1c.042.165.128.494.171.66a1.937,1.937,0,0,0-.8,1.318,2.68,2.68,0,0,0-.714,1.358c-.4.217-.837-.114-1.254-.122-.285.449-.227,1.145-.893,1.236l-.4-.688a18.278,18.278,0,0,0-2.592,1,11.982,11.982,0,0,1-2.562.233,7.767,7.767,0,0,0,2.871-1.131,2.953,2.953,0,0,0,.752-1.286c.237-.016.477-.028.718-.042a2.025,2.025,0,0,1,.6-1.234l.714.433.263-.658m-10.438.74a13.181,13.181,0,0,0,1.795-.5c.676.092,1.28.532,1.982.481a11.964,11.964,0,0,1,1.994,0,6.3,6.3,0,0,1-.012,1.384c-.658.542-1.268,1.139-1.914,1.7l-.67-.5c.229-.329.387-.752.77-.935a2.428,2.428,0,0,0,1.228-1.013c-.522.241-1.009.552-1.523.81a6.241,6.241,0,0,0-2.06-.477,3.558,3.558,0,0,0-1.529.52c-.359-.363-.724-.724-1.085-1.085-.056.052-.164.158-.217.211.672.63,1.3,1.3,1.926,1.984l-.52.576a11.008,11.008,0,0,0-2.02-1.18c0-.664.018-1.326.038-1.994.6,0,1.2.052,1.795.018m1.3,2.524a1.958,1.958,0,0,0,1.156-.072c.359.229.706.473,1.049.726a3.93,3.93,0,0,1-.728,1.4A10.662,10.662,0,0,0,22,65.52a3.772,3.772,0,0,1-.708-1.533c.231-.185.465-.371.7-.546m-4.528,1.82a13.374,13.374,0,0,0,3.894-.305c.2.451-.237.822-.6,1a9.494,9.494,0,0,0-2.223.546,3.751,3.751,0,0,1-1.069-1.236m6.363.03a26.832,26.832,0,0,0,4.074.369,5.315,5.315,0,0,1-1.139,1.069c-.662-.5-1.525-.327-2.275-.56-.381-.136-.512-.544-.66-.877m-9.146.853a8.4,8.4,0,0,0,3.037,0,8.279,8.279,0,0,0,1.559.933c-1.2.656-2.592.4-3.88.331.106-.211.2-.423.291-.64a6.512,6.512,0,0,0-1-.622m12.815.349c.839-.018,1.669-.152,2.5-.223-.479.373-.2.82.08,1.22-1.4-.273-2.829.2-4.2-.227a8.468,8.468,0,0,0,1.617-.77Z" transform="translate(-2.512 -13.965)" fill="#fef481"/></g></svg>