<svg xmlns="http://www.w3.org/2000/svg" xmlns:xlink="http://www.w3.org/1999/xlink" width="676" height="451" viewBox="0 0 676 451"><defs><clipPath id="a"><rect width="676" height="451" transform="translate(191 1308)" fill="none" stroke="#707070" stroke-width="1"/></clipPath></defs><g transform="translate(-191 -1308)" clip-path="url(#a)"><g transform="translate(191 1195)"><g transform="translate(0 111.989)"><g transform="translate(0 0)"><rect width="144.426" height="21.264" rx="5.809" transform="translate(331.287 138.905)" fill="#333"/><rect width="144.426" height="21.264" rx="5.809" transform="translate(356.753 138.905)" fill="#5c5c5c"/><rect width="18.895" height="85.373" transform="translate(475.239 319.667)" fill="#b4b5b5"/><path d="M373.98,292.345h25.5v12.007l97.569,5.656v11.217H276.411V310.007l97.569-5.656Z" transform="translate(97.942 103.595)" fill="#3e3a39" fill-rule="evenodd"/><rect width="30.554" height="28.879" transform="translate(469.394 299.856)" fill="#3e3a39"/><rect width="45.657" height="39.716" transform="translate(461.842 265.732)" fill="#3e3a39"/><path d="M341.394,270.053a13.586,13.586,0,0,1-12.638,2.749l-9.479-2.749a14.755,14.755,0,0,1-10.142-17.6L369.7,10.332c1.9-7.52,8.089-9.479,17-9.795L538.9,0,475.141,270.053Z" transform="translate(109.39 0.008)" fill="#454545" fill-rule="evenodd"/><rect width="249.8" height="42.497" rx="11.618" transform="translate(294.572 231.924)" fill="#333"/><path d="M521.663,20.887l-60.7,242.122a13.586,13.586,0,0,1-17.03,9.795l-9.479-2.749a14.724,14.724,0,0,1-10.142-17.6l60.57-242.122A13.618,13.618,0,0,1,501.915.539l9.479,2.749a14.755,14.755,0,0,1,10.269,17.6Z" transform="translate(150.2 0.006)" fill="#5c5c5c" fill-rule="evenodd"/><rect width="144.426" height="42.497" rx="11.618" transform="translate(478.462 231.924)" fill="#666"/><path d="M284.882,332.664a10.711,10.711,0,1,0-10.711-10.68,10.711,10.711,0,0,0,10.711,10.68Z" transform="translate(97.148 110.291)" fill="#3e3a39" fill-rule="evenodd"/><path d="M356.2,332.664a10.711,10.711,0,1,0-10.711-10.68A10.711,10.711,0,0,0,356.2,332.664Z" transform="translate(122.419 110.291)" fill="#3e3a39" fill-rule="evenodd"/><path d="M438.322,332.664a10.711,10.711,0,1,0-10.711-10.68,10.711,10.711,0,0,0,10.711,10.68Z" transform="translate(151.517 110.291)" fill="#3e3a39" fill-rule="evenodd"/><rect width="144.426" height="21.264" rx="5.809" transform="translate(497.831 138.905)" fill="#333"/><rect width="144.426" height="21.264" rx="5.809" transform="translate(523.297 138.905)" fill="#5c5c5c"/><rect width="5.087" height="64.488" transform="translate(487.72 330.062)" fill="#c8c9ca"/><rect width="13.334" height="19.084" transform="translate(484.876 307.85)" fill="#464444"/><rect width="22.054" height="28.089" transform="translate(483.138 275.969)" fill="#464444"/><path d="M370.254,5.553h118.8a4.8,4.8,0,0,1,4.74,6.319h0a8.91,8.91,0,0,1-8.089,6.319h-118.8a4.8,4.8,0,0,1-4.74-6.319h0a8.942,8.942,0,0,1,8.089-6.319Z" transform="translate(128.24 1.974)" fill="#4a4a4a" fill-rule="evenodd"/><path d="M360.806,35.532h118.77a4.8,4.8,0,0,1,4.739,6.319h0a8.879,8.879,0,0,1-8.057,6.319h-118.8a4.8,4.8,0,0,1-4.739-6.319h0A8.879,8.879,0,0,1,360.806,35.532Z" transform="translate(124.892 12.597)" fill="#4a4a4a" fill-rule="evenodd"/><path d="M353.27,61.755h118.8a4.8,4.8,0,0,1,4.739,6.319h0a8.878,8.878,0,0,1-8.089,6.319h-118.8a4.8,4.8,0,0,1-4.739-6.319h0a9,9,0,0,1,8.089-6.319Z" transform="translate(122.222 21.888)" fill="#4a4a4a" fill-rule="evenodd"/><path d="M346.831,92.084H465.6a4.771,4.771,0,0,1,4.74,6.319h0a8.879,8.879,0,0,1-8.057,6.319h-118.8a4.8,4.8,0,0,1-4.739-6.319h0A8.91,8.91,0,0,1,346.831,92.084Z" transform="translate(119.94 32.634)" fill="#4a4a4a" fill-rule="evenodd"/><path d="M336.939,125.515H455.71a4.771,4.771,0,0,1,4.739,6.319h0a8.879,8.879,0,0,1-8.057,6.319H333.59a4.8,4.8,0,0,1-4.739-6.319h0a8.91,8.91,0,0,1,8.089-6.319Z" transform="translate(116.435 44.48)" fill="#4a4a4a" fill-rule="evenodd"/><path d="M331.542,153.977h118.8a4.8,4.8,0,0,1,4.739,6.319h0a8.879,8.879,0,0,1-8.089,6.319H328.224a4.8,4.8,0,0,1-4.739-6.319h0A8.942,8.942,0,0,1,331.542,153.977Z" transform="translate(114.534 54.566)" fill="#4a4a4a" fill-rule="evenodd"/><path d="M279.132,194.685,200.141,296.3s-13.839-3.823-17.346-10.553.822-8.942-2.085-11.09,75.831-98.422,75.831-98.422Z" transform="translate(64.004 62.453)" fill="#e6e7e8" fill-rule="evenodd"/><path d="M250.42,178.909c6.54,4.455,10.9,11.09,9.7,14.787s-7.488,3.16-14.06-1.359-10.9-11.122-9.7-14.819S243.848,174.423,250.42,178.909Z" transform="translate(83.679 62.051)" fill="#a6a8ab" fill-rule="evenodd"/><path d="M258.616,193.746a.948.948,0,0,0,.253-.253l.411-.664c-1.833-7.172-12.639-15.8-15.514-13.966a.758.758,0,0,0-.348.284,67.072,67.072,0,0,1-5.245,5.087,29.89,29.89,0,0,0,7.172,6.856c5.277,3.57,10.364,4.676,12.639,3.16a2.023,2.023,0,0,0,.632-.506Z" transform="translate(84.393 63.297)" fill="#d0d2d3" fill-rule="evenodd"/><path d="M252.834,188.348a17.915,17.915,0,0,1-9.258-9.479l-5.4,5.245a29.89,29.89,0,0,0,7.172,6.856,27.588,27.588,0,0,0,4.771,2.591l2.5-4.834Z" transform="translate(84.393 63.387)" fill="#bbbdbf" fill-rule="evenodd"/><path d="M239.834,178.559,195.6,299.573s-14.345.6-19.748-4.739-1.991-8.752-5.4-9.89,42.244-116.969,42.244-116.969Z" transform="translate(60.331 59.526)" fill="#e6e7e8" fill-rule="evenodd"/><path d="M215.307,166.733c7.615,2.243,13.776,7.2,13.776,11.09s-6.161,5.245-13.776,3.16S201.5,173.747,201.5,169.861,207.66,164.49,215.307,166.733Z" transform="translate(71.398 58.714)" fill="#a6a8ab" fill-rule="evenodd"/><path d="M227.469,178.412a1.168,1.168,0,0,0,.158-.348,5.69,5.69,0,0,0,.158-.7c-3.95-6.319-16.936-10.932-18.958-8.5a1.706,1.706,0,0,0-.221.411,63.952,63.952,0,0,1-3.444,6.319,28.879,28.879,0,0,0,8.973,4.3c6.1,1.8,11.28,1.3,13.112-.979Z" transform="translate(72.696 59.61)" fill="#d0d2d3" fill-rule="evenodd"/><path d="M220.33,174.993a18.1,18.1,0,0,1-11.722-6.319l-3.539,6.635a28.88,28.88,0,0,0,8.973,4.3,24.961,24.961,0,0,0,5.308,1.043l.916-5.371Z" transform="translate(72.663 59.774)" fill="#bbbdbf" fill-rule="evenodd"/><path d="M111.306,234.106c1.137,0,38.2-17.947,44.235-21.422s10.142-7.52,9.89-6.825S179.744,243.4,179.744,243.4Z" transform="translate(39.439 72.922)" fill="#fff" fill-rule="evenodd"/><path d="M211.5,304.451C209.669,299.964,199.242,268.241,191,243c1.611-1.643,3.16-3.507,3.16-3.507s-7.014-21.77-7.9-22.117a31.094,31.094,0,0,0-3.76-.474l-1.959-6.066L107.55,232s25.277,77.822,25.814,77.221S211.5,304.451,211.5,304.451Z" transform="translate(38.109 74.712)" fill="#54a175" fill-rule="evenodd"/><path d="M164.214,264.063c-2.338-7.615-10.237-29.132-10.237-29.132l58.453-14.092s8.373,50.744,10.49,49.638-48.753,14.629-48.753,14.629Z" transform="translate(54.559 78.258)" fill="#fff" fill-rule="evenodd"/><path d="M120.918,315.019c1.833-4.487,12.259-36.178,20.506-61.455-1.611-1.611-3.16-3.507-3.16-3.507s7.014-21.738,7.9-22.117c.379,0,1.991-.284,3.76-.474l1.959-6.066,72.924,21.2s-25.277,77.79-25.783,77.19S120.918,315.019,120.918,315.019Z" transform="translate(42.845 78.457)" fill="#f8a98e" fill-rule="evenodd"/><path d="M261.747,254.364c0-.727,5.751-14.092,5.751-14.092l-56.115-23s-8.183,32.576-7.9,31.849S261.747,254.364,261.747,254.364Z" transform="translate(72.099 76.994)" fill="#fff" fill-rule="evenodd"/><path d="M180.876,314.156c1.833-4.487,12.259-36.178,20.506-61.455a45.345,45.345,0,0,1-3.16-3.507s7.014-21.738,7.9-22.117c.379,0,1.959-.284,3.76-.474l1.959-6.066,72.924,21.2s-25.277,77.79-25.783,77.19S180.876,314.156,180.876,314.156Z" transform="translate(64.09 78.151)" fill="#a37275" fill-rule="evenodd"/><path d="M108.46,245.382H307.738V361.214H108.46Zm71.692,15.609a4.423,4.423,0,0,0-4.423,4.424v2.275a4.455,4.455,0,0,0,4.424,4.455h31.6a4.455,4.455,0,0,0,4.455-4.455v-2.275a4.455,4.455,0,0,0-4.455-4.423Z" transform="translate(38.431 86.955)" fill="#f48366" fill-rule="evenodd"/><path d="M250.548,245.382H296.11c.6,34.156,1.517,87.964,1.8,115.832H125.3l-16.841-2.243V350.25c37.5-12.291,117.38-42.149,135.106-78.043A62.591,62.591,0,0,0,250.548,245.382Z" transform="translate(38.431 86.955)" fill="#ec8166" fill-rule="evenodd"/><rect width="31.596" height="115.832" transform="translate(314.572 332.337)" fill="#e47a5f"/><path d="M12.785,188.178H173.041V381.484H12.785V351.151a52.608,52.608,0,0,0,4.2-22.876,52.45,52.45,0,0,0-4.2-22.907V213.234A22.781,22.781,0,0,0,15.6,201.48a22.781,22.781,0,0,0-2.812-11.754Z" transform="translate(4.53 66.685)" fill="#e6e7e8" fill-rule="evenodd"/><path d="M12.785,276.438l37.947-27.3H12.785Z" transform="translate(4.53 88.286)" fill="#d0d2d3" fill-rule="evenodd"/><path d="M12.785,210.131l24.929,1.264L12.785,227.256Z" transform="translate(4.53 74.464)" fill="#d0d2d3" fill-rule="evenodd"/><path d="M102.672,188.178h39.874v5.593a59.4,59.4,0,0,1,8.278,4.961l-8.278-1.2v34.219l1.738,1.011a41.423,41.423,0,0,1,10.522,8.879l-12.259-2.844v47.774c4.234,1.643,8.089,3.16,8.089,3.16l-8.089-1.3v45.783a37.032,37.032,0,0,0,6.319,1.548c4.9.537,9.258-.19,8.152.379s-8.5,4.518-9.763,4.866c-.537,0-2.591.537-4.834.948v39.369H102.672s-3.16-49.353-3.539-52.45a60.981,60.981,0,0,1,1.264-19.59c.98-3.57.948-19.211.727-34.756a81.613,81.613,0,0,1,0-38.263C101.6,224.008,102.672,188.178,102.672,188.178Z" transform="translate(35.024 66.685)" fill="#d0d2d3" fill-rule="evenodd"/><path d="M55.262,249.143H19.242A14.376,14.376,0,0,0,7.078,254.8,33.492,33.492,0,0,0,0,270.091Z" transform="translate(0 88.281)" fill="#e6e7e8" fill-rule="evenodd"/><path d="M39.458,211.428c-5.087.916-31.6,9.479-31.6,9.479l6.6-10.869Z" transform="translate(2.786 74.431)" fill="#e6e7e8" fill-rule="evenodd"/><path d="M111.156,187.067c-5.435,4.2-44.235,4.2-45.151,4.2a172.856,172.856,0,0,1-21.011-1.3c-8.531-1.264-18.958-9.258-18.958-9.258l60.033-1.264s.632,1.738,7.267,4.171a89.07,89.07,0,0,0,17.82,3.444Z" transform="translate(9.225 63.594)" fill="#e6e7e8" fill-rule="evenodd"/><path d="M54.895,195.585a126.827,126.827,0,0,0,40.6-7.109,80.76,80.76,0,0,0,31.6-20.285l46.036-.916c-10.3,12.923-17.852,24.613-34.756,28.437Z" transform="translate(19.451 59.278)" fill="#d0d2d3" fill-rule="evenodd"/><rect width="99.718" height="1.453" transform="translate(26.193 263.52)" fill="#d0d2d3"/><rect width="99.718" height="1.453" transform="translate(28.753 269.682)" fill="#d0d2d3"/><rect width="99.718" height="1.453" transform="translate(27.299 297.613)" fill="#d0d2d3"/><rect width="99.718" height="1.453" transform="translate(29.827 303.774)" fill="#d0d2d3"/><rect width="99.718" height="1.453" transform="translate(24.74 355.623)" fill="#d0d2d3"/><rect width="99.718" height="1.453" transform="translate(27.299 361.785)" fill="#d0d2d3"/><rect width="99.718" height="1.453" transform="translate(24.74 381.374)" fill="#d0d2d3"/><rect width="99.718" height="1.453" transform="translate(27.299 387.536)" fill="#d0d2d3"/><rect width="99.718" height="1.453" transform="translate(27.647 370.853)" fill="#d0d2d3"/><rect width="99.718" height="1.453" transform="translate(30.206 377.014)" fill="#d0d2d3"/><rect width="99.718" height="1.453" transform="translate(24.74 324.438)" fill="#d0d2d3"/><rect width="99.718" height="1.453" transform="translate(27.299 330.599)" fill="#d0d2d3"/><rect width="99.718" height="1.453" transform="translate(27.299 312.115)" fill="#d0d2d3"/><rect width="99.718" height="1.453" transform="translate(29.827 318.277)" fill="#d0d2d3"/><rect width="99.718" height="1.453" transform="translate(32.355 282.383)" fill="#d0d2d3"/><rect width="99.718" height="1.453" transform="translate(34.914 288.545)" fill="#d0d2d3"/><rect width="86.479" height="1.453" transform="translate(41.423 345.829)" fill="#d0d2d3"/><rect width="99.718" height="1.453" transform="translate(30.743 398.594)" fill="#d0d2d3"/><rect width="35.072" height="1.011" transform="translate(140.414 260.708)" fill="#bbbdbf"/><rect width="35.072" height="1.011" transform="translate(139.877 269.145)" fill="#bbbdbf"/><rect width="35.072" height="1.011" transform="translate(141.709 279.919)" fill="#bbbdbf"/><rect width="35.072" height="1.011" transform="translate(138.076 287.723)" fill="#bbbdbf"/><rect width="35.072" height="1.011" transform="translate(140.066 316.381)" fill="#bbbdbf"/><rect width="35.072" height="1.011" transform="translate(138.423 306.049)" fill="#bbbdbf"/><rect width="35.072" height="1.011" transform="translate(138.076 296.538)" fill="#bbbdbf"/><rect width="35.072" height="1.011" transform="translate(137.159 361.248)" fill="#bbbdbf"/><rect width="35.072" height="1.011" transform="translate(138.613 339.383)" fill="#bbbdbf"/><rect width="35.072" height="1.011" transform="translate(138.613 330.789)" fill="#bbbdbf"/><rect width="35.072" height="1.011" transform="translate(139.687 350.284)" fill="#bbbdbf"/><rect width="35.072" height="1.011" transform="translate(139.245 323.522)" fill="#bbbdbf"/><rect width="35.072" height="1.011" transform="translate(139.245 358.625)" fill="#bbbdbf"/><rect width="35.072" height="1.011" transform="translate(141.962 354.549)" fill="#bbbdbf"/><rect width="35.072" height="1.011" transform="translate(139.877 344.565)" fill="#bbbdbf"/><rect width="35.072" height="1.011" transform="translate(138.834 383.175)" fill="#bbbdbf"/><rect width="35.072" height="1.011" transform="translate(137.76 371.39)" fill="#bbbdbf"/><rect width="35.072" height="1.011" transform="translate(141.551 402.765)" fill="#bbbdbf"/><rect width="35.072" height="1.011" transform="translate(139.561 391.706)" fill="#bbbdbf"/><rect width="35.072" height="1.011" transform="translate(139.75 397.868)" fill="#bbbdbf"/><rect width="35.072" height="1.011" transform="translate(138.834 419.069)" fill="#bbbdbf"/><rect width="35.072" height="1.011" transform="translate(137.381 409.843)" fill="#bbbdbf"/><rect width="35.072" height="1.011" transform="translate(141.014 426.683)" fill="#bbbdbf"/><path d="M532.932,244.655l-153.3-.253a4.139,4.139,0,0,0-4.107,4.076l-5.277,112.767a4.044,4.044,0,0,0,4.107,3.981h164.3a4.076,4.076,0,0,0,4.107-4.107l-5.687-112.483a4.234,4.234,0,0,0-4.139-3.981Z" transform="translate(131.189 86.607)" fill="#404041" fill-rule="evenodd"/><path d="M531.53,247.875l5.656,111.977h-163.7l5.245-112.23Z" transform="translate(132.339 87.748)" fill="#404041" fill-rule="evenodd"/><path d="M461.723,232.014a4.9,4.9,0,0,1,4.866,4.9V249.8a4.866,4.866,0,0,1-4.866,4.866H419.669A4.866,4.866,0,0,1,414.8,249.8V236.912a4.9,4.9,0,0,1,4.866-4.9Zm-42.055,7.457h0a.411.411,0,0,0-.411.411V249.8a.379.379,0,0,0,.411.379h42.055a.379.379,0,0,0,.379-.379v-9.921a.379.379,0,0,0-.379-.411Z" transform="translate(146.978 82.218)" fill="#281e25" fill-rule="evenodd"/><path d="M540.917,243.586h-167.9a4.171,4.171,0,0,0-4.171,4.171v51.407c20.285,13.365,52.229,22.117,88.122,22.117s67.837-8.626,88.154-22.117V247.757a4.2,4.2,0,0,0-4.2-4.171Z" transform="translate(130.693 86.318)" fill="#58595b" fill-rule="evenodd"/><path d="M370.746,296.628l-.316-.221V244.083a4.456,4.456,0,0,1,1.422-.474v52.039c20.632,13.934,51.439,21.928,84.552,21.928s63.919-7.994,84.552-21.928V243.609a4.612,4.612,0,0,1,1.453.474v52.323l-.316.221c-20.885,14.218-52.1,22.4-85.689,22.4S391.6,310.846,370.746,296.628Z" transform="translate(131.256 86.326)" fill="#404041" fill-rule="evenodd"/><rect width="18.705" height="19.748" rx="1.283" transform="translate(580.486 398.152)" fill="#dad8dd"/><rect width="13.586" height="12.954" rx="0.747" transform="translate(583.046 401.533)" fill="#838189"/></g></g></g><text transform="translate(591 1541)" fill="#0bbee3" font-size="323" font-family="SegoeUI-Bold, Segoe UI" font-weight="700"><tspan x="0" y="0">?</tspan></text></g></svg>