<svg xmlns="http://www.w3.org/2000/svg" width="382.195" height="255.151" viewBox="0 0 382.195 255.151"><g transform="translate(-294 -485)"><path d="M-812.42,291.16A68.658,68.658,0,0,1-881,222.58,68.658,68.658,0,0,1-812.42,154a68.658,68.658,0,0,1,68.58,68.58A68.658,68.658,0,0,1-812.42,291.16Zm0-122.567a54.049,54.049,0,0,0-53.988,53.987,54.049,54.049,0,0,0,53.988,53.987,54.049,54.049,0,0,0,53.988-53.987A54.049,54.049,0,0,0-812.42,168.592Zm35.741,63.164h-36.466a5.653,5.653,0,0,1-5.647-5.648v-42.7a5.653,5.653,0,0,1,5.647-5.647,5.653,5.653,0,0,1,5.647,5.647v37.057h30.82a5.653,5.653,0,0,1,5.648,5.647A5.654,5.654,0,0,1-776.679,231.756Z" transform="translate(1175 331)" fill="#fff" opacity="0.23"/><path d="M-814.63,251.272a43.629,43.629,0,0,1-59.531-15.951A43.629,43.629,0,0,1-858.21,175.79a43.629,43.629,0,0,1,59.531,15.951A43.629,43.629,0,0,1-814.63,251.272Zm-38.943-67.452a34.346,34.346,0,0,0-12.558,46.865,34.346,34.346,0,0,0,46.865,12.557,34.346,34.346,0,0,0,12.558-46.865A34.347,34.347,0,0,0-853.574,183.82Zm39.739,23.4L-833.9,218.811a3.592,3.592,0,0,1-4.9-1.313L-852.374,194a3.592,3.592,0,0,1,1.313-4.9,3.592,3.592,0,0,1,4.9,1.313l11.774,20.394,16.961-9.792a3.592,3.592,0,0,1,4.9,1.313A3.592,3.592,0,0,1-813.835,207.225Z" transform="translate(1393 483.049)" fill="#fff" opacity="0.23"/><path d="M-861.883,137.78a21.312,21.312,0,0,1,26.374,15.45,22.457,22.457,0,0,1-15.45,27.147,21.312,21.312,0,0,1-26.374-15.45A22.457,22.457,0,0,1-861.883,137.78Zm9.762,38.065a17.679,17.679,0,0,0,12.163-21.371,16.777,16.777,0,0,0-20.762-12.163,17.679,17.679,0,0,0-12.163,21.371A16.777,16.777,0,0,0-852.121,175.845Zm-15.929-16.568,11.12-3.11a1.755,1.755,0,0,1,2.172,1.272l3.4,13.262a1.849,1.849,0,0,1-1.272,2.235,1.755,1.755,0,0,1-2.172-1.272l-2.951-11.509-9.4,2.628a1.755,1.755,0,0,1-2.172-1.272A1.849,1.849,0,0,1-868.05,159.277Z" transform="translate(1511 380.049)" fill="#fff" opacity="0.23"/></g></svg>