<svg xmlns="http://www.w3.org/2000/svg" xmlns:xlink="http://www.w3.org/1999/xlink" width="22" height="22" viewBox="0 0 22 22"><defs><clipPath id="a"><rect width="22" height="22" transform="translate(1401 207)" fill="#fff" stroke="#707070" stroke-width="1"/></clipPath></defs><g transform="translate(-1401 -207)" clip-path="url(#a)"><path d="M18.975-.046H3.025A3.028,3.028,0,0,0,0,2.979V12.74a3.028,3.028,0,0,0,3.014,3.025v4.43l6.366-4.43h9.6A3.028,3.028,0,0,0,22,12.74V2.979A3.028,3.028,0,0,0,18.975-.046ZM16.112,11.3H5.888V10.009H16.112Zm0-2.75H5.888V7.259H16.112Zm0-2.75H5.888V4.509H16.112Zm0,0" transform="translate(1401 207.925)" fill="#fff"/></g></svg>