<svg xmlns="http://www.w3.org/2000/svg" width="17.002" height="17.002" viewBox="0 0 17.002 17.002"><g transform="translate(-0.001)"><g transform="translate(0.001)"><g transform="translate(0)"><path d="M12.753,9.564V1.771A1.773,1.773,0,0,0,10.982,0H3.189a.354.354,0,0,0-.25.1L.1,2.937a.354.354,0,0,0-.1.25V15.231A1.773,1.773,0,0,0,1.772,17h9.21a1.773,1.773,0,0,0,1.771-1.771v-.708h-.708v.708a1.063,1.063,0,0,1-1.063,1.063H1.772A1.063,1.063,0,0,1,.709,15.231V3.335L3.336.708h7.646a1.063,1.063,0,0,1,1.063,1.063V9.564Z" transform="translate(-0.001)" fill="#fff"/></g></g><g transform="translate(1.772 0.354)"><path d="M54.4,10.667v2.125a.354.354,0,0,1-.354.354h-.708v.708h.708a1.063,1.063,0,0,0,1.063-1.063V10.667Z" transform="translate(-53.334 -10.667)" fill="#fff"/></g><g transform="translate(9.919 7.439)"><path d="M305.65,225.087l-.981-.981a.354.354,0,0,0-.5,0l-5.395,5.4a.354.354,0,0,0,0,.5l.981.981a.354.354,0,0,0,.5,0l5.4-5.4A.354.354,0,0,0,305.65,225.087ZM300,230.231l-.48-.48,4.894-4.894.48.48Z" transform="translate(-298.67 -224.002)" fill="#fff"/></g><g transform="translate(9.919 13.106)"><path d="M299.376,395.375v-.708h-.708v1.063a.354.354,0,0,0,.354.354h1.063v-.708Z" transform="translate(-298.668 -394.667)" fill="#fff"/></g><g transform="translate(9.565 1.417)"><path d="M288.709,42.667H288v.708h.708a.354.354,0,0,1,.354.354v.708h.708V43.73A1.063,1.063,0,0,0,288.709,42.667Z" transform="translate(-288.001 -42.667)" fill="#fff"/></g><g transform="translate(3.189 4.959)"><path d="M102.023,149.333H96.355a.354.354,0,0,0-.354.354v4.959a.354.354,0,0,0,.2.319l2.464,1.2a1.076,1.076,0,0,0,.531.142h0a1.009,1.009,0,0,0,.5-.13l2.482-1.216a.354.354,0,0,0,.2-.319v-4.959A.354.354,0,0,0,102.023,149.333Zm-.354,5.092-2.3,1.13a.368.368,0,0,1-.371-.011l-2.284-1.119v-4.384h4.959v4.384Z" transform="translate(-96.001 -149.333)" fill="#fff"/></g><g transform="translate(4.71 6.888)"><path d="M144.98,207.413l-1.875,1.875-.812-.812-.5.5,1.063,1.063a.354.354,0,0,0,.5,0l2.125-2.125Z" transform="translate(-141.792 -207.413)" fill="#fff"/></g><g transform="translate(6.023 12.752)"><path d="M182.4,385.063a.354.354,0,0,1-.354-.354V384h-.708v.708a1.063,1.063,0,0,0,1.063,1.063h2.125v-.708Z" transform="translate(-181.334 -384)" fill="#fff"/></g><g transform="translate(8.148 1.417)"><rect width="0.708" height="0.708" fill="#fff"/></g></g></svg>