<svg xmlns="http://www.w3.org/2000/svg" width="658.424" height="584.488" viewBox="0 0 658.424 584.488"><g transform="translate(-1218 -1951.968)"><g transform="translate(1218 1951.968)"><g transform="translate(396.451 97.573)"><path d="M396.084,258.612l-95.277-55.381L300.458,84.95l95.293,55.381Z" transform="translate(-300.458 -70.432)" fill="#ff9c00"/><path d="M395.751,143.846,300.458,88.466l25.157-14.518,95.293,55.381Z" transform="translate(-300.458 -73.948)" fill="#ffac33"/><path d="M397.835,115.919l.332,118.281L373.01,248.718l-.332-118.281Z" transform="translate(-277.385 -60.538)" fill="#ffba5f"/></g><path d="M377.585,126.087V244.559l14.3-8.249V117.839Z" transform="translate(120.634 37.648)" fill="#ebeded"/><path d="M400.843,139.32,304.79,84.383l13.79-7.964,96.56,54.652Z" transform="translate(97.377 24.415)" fill="#fff"/><g transform="translate(366.924 113.136)"><path d="M373.706,270.407l-95.293-55.381-.332-118.281,95.293,55.381Z" transform="translate(-278.081 -82.227)" fill="#0b357c"/><path d="M373.374,155.641,278.081,100.26l25.141-14.518,95.309,55.381Z" transform="translate(-278.081 -85.742)" fill="#1f5699"/><path d="M375.458,127.714l.317,118.281-25.141,14.518L350.3,142.232Z" transform="translate(-255.007 -72.333)" fill="#1a4789"/></g><path d="M355.2,137.882V256.353l14.3-8.249V129.633Z" transform="translate(113.481 41.416)" fill="#ebeded"/><path d="M378.449,151.115,282.412,96.178l13.774-7.964,96.56,54.652Z" transform="translate(90.227 28.183)" fill="#fff"/><path d="M494.99,232.511c12.872,7.425,12.951,19.473.174,26.915s-33.6,7.441-46.467,0-12.935-19.473-.142-26.915S482.135,225.134,494.99,232.511Z" transform="translate(140.256 72.509)" fill="#d1d1d1"/><path d="M428.8,180.28l14.027,84.147h64.611l14-84.147Z" transform="translate(136.995 57.597)" fill="#d1d1d1"/><path d="M507.751,167.814c18.144,10.465,18.254,27.453.237,38s-47.385,10.465-65.529,0-18.239-27.453-.19-38S489.608,157.333,507.751,167.814Z" transform="translate(136.994 51.096)" fill="#fffffe"/><path d="M507.751,167.814c18.144,10.465,18.254,27.453.237,38s-47.385,10.465-65.529,0-18.239-27.453-.19-38S489.608,157.333,507.751,167.814Z" transform="translate(136.994 51.096)" fill="#fffffe"/><path d="M501.29,169.6c15.484,8.929,15.579,23.416.206,32.345s-40.4,8.945-55.887,0-15.547-23.416-.158-32.361S485.822,160.705,501.29,169.6Z" transform="translate(138.642 52.046)" fill="#d1d1d1"/><path d="M445.43,199.438c15.484,8.929,40.5,8.945,55.887,0a24.508,24.508,0,0,0,9.689-9.325c-1.314-4.56-5-8.929-11.082-12.444-15.468-8.945-40.483-8.945-55.856,0a24.587,24.587,0,0,0-9.705,9.341C435.74,191.553,439.4,195.923,445.43,199.438Z" transform="translate(138.774 54.62)" fill="#58361a"/><path d="M449.646,235.483l.237-.111a18.909,18.909,0,0,0,1.963-.982l-4.4-2.565a15.3,15.3,0,0,1-1.979.982,3.434,3.434,0,0,1-.554.237l-1.108.38-.633.174-.649.142-.76.127h-.491a7.559,7.559,0,0,1-.839,0h-.348a7.909,7.909,0,0,1-1.092-.127h-.206a6.742,6.742,0,0,1-.855-.237l-.253-.095a6.5,6.5,0,0,1-.95-.443l4.385,2.549h.079l.713.348h.158l.3.111.3.1a4.447,4.447,0,0,0,.491.127h.332a7.907,7.907,0,0,0,.887.1H446.5l.4-.1.681-.142h.285l.348-.127a11.5,11.5,0,0,0,1.108-.38Z" transform="translate(139.529 74.066)" fill="#d1d1d1"/><path d="M434.063,239.185a14.583,14.583,0,0,1,.1-2.026v-.6a9.3,9.3,0,0,1,.158-1.314c.063-.443.143-.871.222-1.314s.158-.792.253-1.187.142-.586.222-.887.269-.966.412-1.457a2.148,2.148,0,0,1,.206-.665c.222-.7.459-1.393.728-2.074a2.86,2.86,0,0,0,.127-.332c.253-.6.507-1.2.776-1.789l.237-.554c.3-.633.617-1.282.95-1.916l.095-.158c.348-.681.728-1.346,1.124-2.011l.364-.586.9-1.425.443-.649c.348-.491.681-.966,1.045-1.441.127-.174.253-.364.4-.538.317-.427.649-.807,1-1.219a10.133,10.133,0,0,1,.649-.792,6.537,6.537,0,0,1,.443-.491c.522-.586,1.061-1.172,1.583-1.726l1-.966.665-.617c.4-.364.792-.7,1.187-1.029a8.318,8.318,0,0,1,.649-.522c.222-.158.9-.7,1.362-1.013l.538-.4c.649-.443,1.3-.855,1.963-1.235l-4.4-2.565c-.665.4-1.314.807-1.963,1.251l-.538.38c-.459.332-.918.665-1.362,1.013l-.649.538-1.187,1.013-.665.633-.7.633-.285.317c-.57.57-1.124,1.156-1.662,1.773l-.317.332-.095.111c-.253.3-.522.617-.76.934l-.776.934-.095.127-.459.617c-.253.348-.522.7-.776,1.061l-.222.332c-.142.206-.269.412-.412.6s-.348.507-.507.776-.3.475-.443.712l-.348.554c0,.127-.143.253-.222.38q-.475.807-.9,1.583h0c-.253.507-.522,1.013-.76,1.583l-.222.475c-.1.19-.174.4-.269.586s-.174.364-.253.554-.332.807-.491,1.219l-.142.348a.126.126,0,0,0,0,.079q-.332.855-.617,1.71v.285c0,.1-.143.412-.206.633s-.19.6-.269.9-.1.4-.142.586-.158.586-.222.871l-.143.586a1.368,1.368,0,0,1-.1.6q-.142.665-.237,1.33a1.143,1.143,0,0,1-.095.554c-.1.19,0,.491,0,.728v.633c0,.681-.1,1.362-.1,2.027,0,5.62,2.042,9.5,5.351,11.494l4.4,2.549C436.105,248.763,434.079,244.8,434.063,239.185Z" transform="translate(137.332 65.076)" fill="#fffffe"/><path d="M452.936,205.633v5.731c-8.074,4.655-14.6,15.452-14.566,24.128s6.586,11.922,14.645,7.267v5.731c-11.082,6.333-19.948,1.916-20-9.927S441.917,211.981,452.936,205.633Z" transform="translate(138.344 65.697)" fill="#a7a7a7"/><g transform="translate(244.78 305.021)"><path d="M185.511,340.114l.047,14.3,82.564,48-.048-14.312Z" transform="translate(-185.511 -196.358)" fill="#c8d2db"/><path d="M248.084,411.285l.048,14.312L497.122,281.842l-.047-14.3Z" transform="translate(-165.52 -219.543)" fill="#c3c5c5"/><path d="M185.511,374.921l82.564,47.987L517.066,279.169l-82.58-48Z" transform="translate(-185.511 -231.166)" fill="#e6e7ec"/></g><path d="M208.368,340.556l7.584,4.4,9.515-5.51-7.584-4.385Z" transform="translate(66.571 107.048)" fill="#a8aaaa"/><path d="M218.963,334.5l7.584,4.4,9.515-5.51-7.584-4.4Z" transform="translate(69.956 105.109)" fill="#a8aaaa"/><path d="M230.3,328.317l7.568,4.433,9.547-5.525-7.568-4.4Z" transform="translate(73.579 103.138)" fill="#a8aaaa"/><path d="M240.9,322.278l7.568,4.385,9.563-5.494-7.6-4.417Z" transform="translate(76.964 101.198)" fill="#a8aaaa"/><path d="M251.264,316.315l7.568,4.417,9.531-5.51-7.584-4.385Z" transform="translate(80.276 99.309)" fill="#a8aaaa"/><path d="M261.858,310.275l7.568,4.385,9.547-5.494-7.568-4.4Z" transform="translate(83.661 97.369)" fill="#a8aaaa"/><path d="M273.2,304.1l7.6,4.4,9.531-5.51-7.568-4.4Z" transform="translate(87.283 95.395)" fill="#a8aaaa"/><path d="M283.792,298.033l7.584,4.4,9.547-5.51-7.6-4.385Z" transform="translate(90.668 93.463)" fill="#a8aaaa"/><path d="M293.727,292.753l7.584,4.4,9.515-5.525-7.552-4.37Z" transform="translate(93.842 91.776)" fill="#a8aaaa"/><path d="M304.31,286.7l7.584,4.385,9.515-5.494-7.584-4.4Z" transform="translate(97.223 89.836)" fill="#a8aaaa"/><path d="M315.672,280.515l7.568,4.4,9.547-5.51-7.584-4.385Z" transform="translate(100.853 87.866)" fill="#a8aaaa"/><path d="M326.255,274.459l7.584,4.4,9.531-5.51-7.584-4.4Z" transform="translate(104.234 85.926)" fill="#a8aaaa"/><path d="M336.622,268.528l7.584,4.385,9.515-5.494-7.584-4.385Z" transform="translate(107.547 84.036)" fill="#a8aaaa"/><path d="M347.2,262.457l7.584,4.4,9.515-5.494-7.552-4.4Z" transform="translate(110.928 82.097)" fill="#a8aaaa"/><path d="M358.556,256.293l7.584,4.385,9.515-5.478-7.584-4.417Z" transform="translate(114.554 80.122)" fill="#a8aaaa"/><path d="M369.162,250.234l7.568,4.417,9.515-5.525-7.568-4.4Z" transform="translate(117.943 78.186)" fill="#a8aaaa"/><path d="M219.755,346.971l7.552,4.4,9.563-5.525-7.6-4.4Z" transform="translate(70.209 109.088)" fill="#a8aaaa"/><path d="M230.338,340.912l7.568,4.385,9.563-5.494-7.6-4.417Z" transform="translate(73.59 107.152)" fill="#a8aaaa"/><path d="M241.689,334.728l7.584,4.4,9.515-5.51-7.552-4.4Z" transform="translate(77.217 105.181)" fill="#a8aaaa"/><path d="M252.284,328.669l7.584,4.385,9.547-5.494-7.615-4.4Z" transform="translate(80.601 103.245)" fill="#a8aaaa"/><path d="M262.65,322.714l7.552,4.417,9.563-5.525-7.584-4.385Z" transform="translate(83.914 101.348)" fill="#a8aaaa"/><path d="M273.233,316.671l7.584,4.4,9.515-5.51-7.552-4.4Z" transform="translate(87.295 99.412)" fill="#a8aaaa"/><path d="M284.584,310.491l7.584,4.4,9.515-5.494-7.568-4.417Z" transform="translate(90.921 97.438)" fill="#a8aaaa"/><path d="M295.191,304.432l7.568,4.4,9.515-5.51-7.552-4.4Z" transform="translate(94.31 95.502)" fill="#a8aaaa"/><path d="M305.114,299.152l7.552,4.385,9.547-5.494-7.568-4.4Z" transform="translate(97.48 93.815)" fill="#a8aaaa"/><path d="M315.7,293.077l7.568,4.4,9.531-5.494-7.552-4.4Z" transform="translate(100.861 91.879)" fill="#a8aaaa"/><path d="M327.047,286.914l7.584,4.417,9.515-5.525-7.552-4.4Z" transform="translate(104.488 89.905)" fill="#a8aaaa"/><path d="M337.63,280.855l7.584,4.4,9.547-5.51-7.584-4.4Z" transform="translate(107.869 87.969)" fill="#a8aaaa"/><path d="M347.973,274.911,355.6,279.3l9.531-5.478-7.584-4.4Z" transform="translate(111.173 86.076)" fill="#a8aaaa"/><path d="M358.592,268.856l7.568,4.385,9.531-5.478-7.552-4.417Z" transform="translate(114.566 84.136)" fill="#a8aaaa"/><path d="M369.942,262.673l7.583,4.4,9.531-5.478-7.6-4.417Z" transform="translate(118.192 82.166)" fill="#a8aaaa"/><path d="M380.537,256.629l7.568,4.4,9.531-5.51-7.6-4.4Z" transform="translate(121.577 80.23)" fill="#a8aaaa"/><path d="M230.41,353.742l7.568,4.4,9.547-5.51-7.584-4.386Z" transform="translate(73.613 111.261)" fill="#a8aaaa"/><path d="M241,347.675l7.552,4.4,9.547-5.494-7.584-4.417Z" transform="translate(76.998 109.318)" fill="#a8aaaa"/><path d="M252.356,341.5l7.552,4.4,9.531-5.51-7.568-4.385Z" transform="translate(80.625 107.351)" fill="#a8aaaa"/><path d="M262.938,335.448l7.552,4.4,9.547-5.51-7.568-4.4Z" transform="translate(84.006 105.411)" fill="#a8aaaa"/><path d="M273.317,329.509l7.552,4.4,9.547-5.494L282.832,324Z" transform="translate(87.321 103.514)" fill="#a8aaaa"/><path d="M283.9,323.454l7.552,4.4,9.547-5.51-7.584-4.417Z" transform="translate(90.703 101.574)" fill="#a8aaaa"/><path d="M295.239,317.279l7.568,4.385,9.547-5.494-7.584-4.385Z" transform="translate(94.325 99.611)" fill="#a8aaaa"/><path d="M305.834,311.207l7.552,4.417,9.547-5.525-7.552-4.385Z" transform="translate(97.71 97.672)" fill="#a8aaaa"/><path d="M315.768,305.932l7.568,4.417,9.515-5.525-7.552-4.4Z" transform="translate(100.884 95.981)" fill="#a8aaaa"/><path d="M326.351,299.888l7.568,4.385,9.547-5.494-7.584-4.417Z" transform="translate(104.265 94.045)" fill="#a8aaaa"/><path d="M337.726,293.689l7.536,4.4,9.531-5.494-7.552-4.4Z" transform="translate(107.899 92.075)" fill="#a8aaaa"/><path d="M348.3,287.646l7.552,4.385,9.547-5.51-7.584-4.385Z" transform="translate(111.276 90.139)" fill="#a8aaaa"/><path d="M358.664,281.7l7.584,4.4,9.531-5.525-7.615-4.37Z" transform="translate(114.589 88.245)" fill="#a8aaaa"/><path d="M369.246,275.643l7.568,4.4,9.547-5.494-7.6-4.4Z" transform="translate(117.97 86.309)" fill="#a8aaaa"/><path d="M380.6,269.48l7.568,4.385,9.531-5.494-7.568-4.4Z" transform="translate(121.596 84.335)" fill="#a8aaaa"/><path d="M391.192,263.4l7.552,4.4,9.547-5.51-7.584-4.385Z" transform="translate(124.981 82.399)" fill="#a8aaaa"/><path d="M240.165,360.138l7.584,4.4,9.547-5.525-7.584-4.37Z" transform="translate(76.73 113.304)" fill="#a8aaaa"/><path d="M250.772,354.066l7.568,4.417,9.547-5.51-7.584-4.4Z" transform="translate(80.118 111.365)" fill="#a8aaaa"/><path d="M262.122,347.915l7.568,4.385,9.531-5.51-7.568-4.385Z" transform="translate(83.745 109.394)" fill="#a8aaaa"/><path d="M273.317,360.427l8.407,4.48L429.9,280.934l-7.584-4.4Z" transform="translate(87.321 88.349)" fill="#a8aaaa"/><path d="M390.376,275.879l7.552,4.4,9.547-5.494-7.584-4.433Z" transform="translate(124.72 86.375)" fill="#a8aaaa"/><path d="M400.959,269.816l7.568,4.385,9.531-5.494-7.552-4.4Z" transform="translate(128.101 84.443)" fill="#a8aaaa"/><path d="M22.178,392.411c-2.533,1.457-2.533,3.847,0,5.32l140.905,81.915a10.2,10.2,0,0,0,9.183,0l115.3-66.574c2.549-1.457,2.549-3.847,0-5.3L146.665,325.837a10.117,10.117,0,0,0-9.167,0Z" transform="translate(6.478 103.75)" fill="#efefef"/><g transform="translate(57.265 438.358)"><path d="M125.211,355.1h0l-.317-.19a1.873,1.873,0,0,1,.317.19Z" transform="translate(-17.363 -324.97)" fill="#d09a74"/><path d="M120.6,351.56l-5.81,3.372,4.75,2.707.887.522,1.979,1.14c-1.156-.665-.792-1.963.823-2.881a5.684,5.684,0,0,1,5-.475l-1.995-1.156-.792-.459Z" transform="translate(-20.59 -326.039)" fill="#f1b287"/><path d="M121.547,355.461c-1.583.918-1.979,2.216-.823,2.881a1.949,1.949,0,0,0,.364.174,6,6,0,0,0,4.623-.633c1.457-.839,1.9-1.979,1.124-2.691a1.871,1.871,0,0,0-.285-.206A5.684,5.684,0,0,0,121.547,355.461Z" transform="translate(-18.908 -325.063)" fill="#f1b287"/><path d="M126.019,354.716l2.312,1.346c.744.728.3,1.868-1.156,2.707a6,6,0,0,1-4.623.633l-.364-.174-1.979-1.14c-5.937,4.75-6.57,10.972-1.884,16.006l35.385-20.423a42.51,42.51,0,0,0-27.69,1.045Z" transform="translate(-20.451 -325.949)" fill="#1d2932"/><path d="M176.082,359.624l-46.815,27.041L82.119,359.323l46.8-27.1Zm-11.795.317a42.509,42.509,0,0,0-27.69,1.045l-.792-.459c1.457-2.644-.348-6.175-4.971-8.866-5.985-3.467-14.407-4.227-18.824-1.678s-3.166,7.425,2.834,10.908a24.112,24.112,0,0,0,15.056,2.945l.887.523c-5.937,4.75-6.57,10.972-1.884,16.006l35.385-20.423Z" transform="translate(-31.029 -332.219)" fill="#fff"/><path d="M105.411,346.043c-4.417,2.549-3.166,7.425,2.834,10.908A24.112,24.112,0,0,0,123.3,359.9l-4.75-2.707,5.89-3.388,4.75,2.771c1.457-2.644-.348-6.174-4.971-8.866C118.251,344.3,109.828,343.494,105.411,346.043Z" transform="translate(-24.43 -328.28)" fill="#f1b287"/><path d="M120.831,357.6h0a1.948,1.948,0,0,1-.364-.174Z" transform="translate(-18.777 -324.165)" fill="#d09a74"/><path d="M43.4,389.116l3.531,2.042,46.182-26.645-3.531-2.058Z" transform="translate(-43.399 -322.558)" fill="#6e7c66"/><path d="M49.974,394.013l3.515,2.058,53.924-31.142-3.515-2.042Z" transform="translate(-41.298 -322.42)" fill="#6e7c66"/><path d="M56.538,397.832l3.515,2.042,53.924-31.126-3.515-2.058Z" transform="translate(-39.202 -321.205)" fill="#6e7c66"/><path d="M63.1,400.563l3.515,2.042L112.8,375.96l-3.531-2.058Z" transform="translate(-37.105 -318.901)" fill="#6e7c66"/><path d="M69.664,405.46l3.515,2.042L127.1,376.376l-3.515-2.042Z" transform="translate(-35.008 -318.763)" fill="#6e7c66"/><path d="M91.538,425.584l3.546,2.042,106.882-61.7-3.546-2.058Z" transform="translate(-28.019 -322.106)" fill="#6e7c66"/><path d="M98.1,427.253l3.546,2.042,91.509-52.832-3.531-2.058Z" transform="translate(-25.923 -318.74)" fill="#6e7c66"/></g><path d="M36.836,386.382l3.531,2.042L94.29,357.3l-3.515-2.042Z" transform="translate(11.769 113.5)" fill="#6e7c66"/><path d="M104.676,433.216l3.531,2.042,106.882-61.7-3.546-2.058Z" transform="translate(33.443 118.69)" fill="#6e7c66"/><path d="M82.832,303.136c13.584,7.916,13.6,20.582.158,28.339s-35.321,7.821-48.889,0-13.616-20.487-.142-28.308S69.3,295.3,82.832,303.136Z" transform="translate(7.632 94.977)" fill="#ffac33"/><path d="M15.586,271.434l10.956,56.457H95.586l11.1-57.9Z" transform="translate(4.98 86.26)" fill="#ffac33"/><path d="M93.192,257.711c17.89,10.338,17.954,27.057.237,37.348s-46.53,10.307-64.421,0-17.938-26.914-.222-37.269S75.4,247.436,93.192,257.711Z" transform="translate(4.967 79.876)" fill="#ffba5f"/><path d="M80.667,261.027c13.077,7.552,13.093,19.743.127,27.295s-33.976,7.52-47.069,0-13.109-19.711-.174-27.263S67.621,253.507,80.667,261.027Z" transform="translate(7.628 81.594)" fill="#26aa4b"/><path d="M27.99,301.415s-33.6-42.477-.57-118.867c0,0,29,36.572,12.381,130.345C39.8,312.893,33.341,310.565,27.99,301.415Z" transform="translate(4.118 58.322)" fill="#26aa4b"/><path d="M24.2,182.955c.633,29.416,2.28,80.49,6.333,126.007a20.17,20.17,0,0,0,5.652,3.8C51.654,225.322,27.542,187.657,24.2,182.955Z" transform="translate(7.732 58.452)" fill="#1a8e35"/><path d="M38.832,297.184s-26.915-47.005,17.1-117.648c0,0,23.257,40.5-7.14,130.757C48.775,310.293,42.775,306.936,38.832,297.184Z" transform="translate(9.804 57.359)" fill="#26aa4b"/><path d="M53.395,179.536c-3.736,29.194-12.032,79.873-14.771,125.5a20.455,20.455,0,0,0,5.019,4.623C76.668,230.784,56.007,184.681,53.395,179.536Z" transform="translate(12.34 57.359)" fill="#1a8e35"/><path d="M50.33,301.927S10.053,287.678,0,222.767c0,0,34.736,12.222,63.059,81.82C63.059,304.634,57.724,305.727,50.33,301.927Z" transform="translate(0 71.171)" fill="#26aa4b"/><path d="M.372,222.947c12.792,19.394,35.321,52.8,57.185,81.472a16.18,16.18,0,0,0,5.383.158C36.548,239.7,4.631,224.688.372,222.947Z" transform="translate(0.119 71.229)" fill="#1a8e35"/><path d="M54.331,295.366s-21.563-24.619-3.911-71.735c0,0,18.6,21.2,11.4,78.321a15.832,15.832,0,0,1-7.489-6.586Z" transform="translate(13.89 71.447)" fill="#26aa4b"/><path d="M48.93,223.859c1.267,17.748,3.8,48.541,7.6,75.9a12.254,12.254,0,0,0,3.546,2.122C66.789,248.636,51.084,226.6,48.93,223.859Z" transform="translate(15.633 71.52)" fill="#1a8e35"/><path d="M60.4,288.436s-20.582-37.427,14.977-92.57c0,0,17.827,32.25-7.3,103.019C68.09,298.885,63.341,296.178,60.4,288.436Z" transform="translate(17.403 62.577)" fill="#26aa4b"/><path d="M73.276,196.238c-3.325,22.972-8.723,62.917-11.447,98.84a15.689,15.689,0,0,0,3.911,3.689C89.139,232.762,75.239,200.338,73.276,196.238Z" transform="translate(19.754 62.696)" fill="#1a8e35"/><path d="M63.016,286.11S58.124,254.573,97.2,225c0,0,4.29,27.168-31.458,70.421a15.721,15.721,0,0,1-2.723-9.309Z" transform="translate(20.07 71.884)" fill="#26aa4b"/><path d="M96.972,225.287c-8.248,15.278-22.165,41.939-33.247,66.495a11.24,11.24,0,0,0,1.726,3.546C98.745,255,97.32,228.691,96.972,225.287Z" transform="translate(20.359 71.976)" fill="#1a8e35"/><g transform="translate(207.558 274.021)"><path d="M157.3,265.878l.032,11.542,56.125,32.6-.032-11.542Z" transform="translate(-157.302 -189.077)" fill="#a9b5c4"/><path d="M199.837,309.171l.032,11.542,133.037-76.786-.047-11.526Z" transform="translate(-143.713 -199.772)" fill="#c3c5c5"/><path d="M157.3,284.474l56.125,32.6L346.448,240.3l-56.141-32.63Z" transform="translate(-157.302 -207.673)" fill="#e6e7ec"/><g opacity="0.5"><path d="M157.3,284.474,346.448,240.3h0l-56.141-32.63Z" transform="translate(-157.302 -207.673)" fill="#939599"/></g></g><g transform="translate(249.133 200.196)"><path d="M199.086,300.86l-9.974-5.795-.3-103.795,9.974,5.795Z" transform="translate(-188.811 -139.088)" fill="#a9b5c4"/><path d="M198.785,209.7l-9.974-5.795,90.369-52.182,9.958,5.795Z" transform="translate(-188.811 -151.723)" fill="#c0c5d1"/><path d="M286.723,156.114l.317,103.8-90.369,52.182-.3-103.8Z" transform="translate(-186.396 -150.32)" fill="#d5dfe6"/></g><path d="M142.788,341.744l-10.164-2.834-43.57-214.9,10.164,2.834Z" transform="translate(28.452 39.618)" fill="#c8d2db"/><path d="M99.218,166.458l-10.164-2.834L372.48,0l10.148,2.834Z" transform="translate(28.452)" fill="#e1eaef"/><path d="M380.167,2.148l43.6,214.9L140.327,380.677l-43.57-214.9Z" transform="translate(30.913 0.686)" fill="#d5dfe6"/><path d="M369.724,15.118l38.694,193.595L145.985,360.526,105.756,164.462Z" transform="translate(33.788 4.83)" fill="#53aacf"/><path d="M321.845,63.065l25.22,126.023L176.189,287.975,150.019,160.29Z" transform="translate(47.929 20.148)" fill="#f2f2f2"/><path d="M303.534,94.765l1.077,5.636-95.7,57.819-1.029-5.462Z" transform="translate(66.414 30.276)" fill="#939599"/><path d="M301.742,83.343l1.108,5.62-95.7,57.819L206.1,141.32Z" transform="translate(65.847 26.627)" fill="#939599"/><path d="M309.009,120.562l1.061,5.6L214.381,184l-1.045-5.478Z" transform="translate(68.158 38.518)" fill="#939599"/><path d="M307.2,109.128l1.124,5.62L212.6,172.567l-1.029-5.478Z" transform="translate(67.595 34.865)" fill="#939599"/><path d="M128.609,126.154l2.153,10.671-14.5,8.391-2.2-10.813Z" transform="translate(36.44 40.305)" fill="#f5f3f2"/><path d="M133.6,147.067l2.137,10.687-14.486,8.375L119,155.316Z" transform="translate(38.02 46.986)" fill="#f5f3f2"/><path d="M138.02,169.6l2.137,10.687-14.486,8.359-2.216-10.8Z" transform="translate(39.442 54.185)" fill="#f5f3f2"/><path d="M141.675,190.131l2.106,10.671-14.471,8.375-2.232-10.813Z" transform="translate(40.6 60.744)" fill="#f5f3f2"/><path d="M161.322,146.512l44.741-23.574,11.193,57.6-44.741,23.558Z" transform="translate(51.54 39.277)" fill="#e6e7e9"/><g transform="translate(226.229 176.384)"><path d="M186.723,160.542h0a2.9,2.9,0,0,0,0-.744Z" transform="translate(-166.573 -125.331)" fill="#cf9974"/><path d="M184.185,158.769c2.011-1.156,3.926-.459,4.259,1.583a2.9,2.9,0,0,1,0,.744,6.507,6.507,0,0,1-3.166,5.082c-1.8,1.045-3.5.617-4.1-.918A3.692,3.692,0,0,1,181,164.6,6.238,6.238,0,0,1,184.185,158.769Z" transform="translate(-168.405 -125.838)" fill="#f1b287"/><path d="M181.206,163.722h0l-.111-.7a3.69,3.69,0,0,0,.111.7Z" transform="translate(-168.371 -124.3)" fill="#cf9974"/><path d="M181.3,134.611c5.288-3.04,10.718,1.583,12.127,10.259a25.869,25.869,0,0,1-3.594,18.017l-1-6.333-7.346,4.243,1,6.333c-3.863-.364-7.219-4.591-8.264-11.082C172.835,147.277,176,137.683,181.3,134.611Z" transform="translate(-170.67 -133.676)" fill="#f1b287"/><path d="M179.668,155.294l7.346-4.243,1,6.333.269,1.583.586,3.689c-.332-2.042-2.248-2.739-4.259-1.583a6.238,6.238,0,0,0-3.166,5.826l-.522-3.293-.332-2.011Z" transform="translate(-168.827 -128.126)" fill="#f1b287"/><path d="M190.905,157.327c9.04-3.546,17.415,1,20.5,11.082l-39.944,23.051a39.58,39.58,0,0,1,12.159-29.5l.633,3.99c.665,1.5,2.359,1.932,4.164.887a6.507,6.507,0,0,0,3.166-5.082v-.744Z" transform="translate(-171.452 -126.502)" fill="#19232b"/></g><path d="M230.023,75.456,161.106,331.729l62.363-36L288.617,42.319Z" transform="translate(51.471 13.52)" fill="#fff" opacity="0.2"/><path d="M189.178,91.13l-57.455,191.5L115.955,205.8l26.6-87.061Z" transform="translate(37.046 29.115)" fill="#fff" opacity="0.2"/><path d="M326.319,42.319,265.3,253.313l54.6-31.569,25.822-87.187Z" transform="translate(84.761 13.52)" fill="#fff" opacity="0.2"/><path d="M446.027,316.572l-24.635,28.846,4.528-6.333Z" transform="translate(134.63 101.141)" fill="#aac6c3"/><path d="M448.189,316.572l-20.107,22.513-13.457-16.719Z" transform="translate(132.468 101.141)" fill="#dbdcdd"/><path d="M340.486,399.132l112.724-65.5-4.528,6.333L335.974,405.48Z" transform="translate(107.34 106.592)" fill="#aac6c3"/><path d="M336.01,390.4l112.724-65.5,4.465,11.526-112.724,65.5Z" transform="translate(107.351 103.801)" fill="#e6e6e6"/><path d="M329.207,386.461l112.708-65.5,8.993,5.193-112.724,65.5Z" transform="translate(105.178 102.544)" fill="#fff"/><path d="M339.28,375.8l4.465,11.526-4.512,6.349-8.993-5.193-4.465-11.526L330.3,370.6Z" transform="translate(104.081 118.403)" fill="#e6e6e6"/><path d="M335.548,378.381l1.963,5.082-1.979,2.8-3.974-2.3-1.979-5.082,1.995-2.8Z" transform="translate(105.296 120.155)" fill="#565858"/><path d="M448.189,316.572,423.618,327.56l-8.993-5.193Z" transform="translate(132.468 101.141)" fill="#f4f4f4"/><path d="M436.636,318.836l5.082-2.264-6.839,1.172Z" transform="translate(138.938 101.141)" fill="#5a5c5d"/><path d="M436.211,318.836l1.029,2.486,4.053-4.75Z" transform="translate(139.364 101.141)" fill="#6d6f70"/><g transform="translate(384.719 93.409)" opacity="0.2"><path d="M416.815,123.228c0,28.957-45.771,96.386-74.506,96.386s-50.742-8.818-50.742-37.775,44.5-111.046,73.239-111.046a52.246,52.246,0,0,1,52.008,52.436Z" transform="translate(-291.567 -70.792)" fill="#33ade3"/></g><path d="M405.144,105.174,394.98,99.269,394.647,66.5,404.812,72.4Z" transform="translate(126.085 21.245)" fill="#b54c04"/><path d="M482.887,38.186l.982-.4c.475-.19.95-.348,1.409-.491l.7-.206.792-.174.9-.158h1.979a8.6,8.6,0,0,1,1.3.127h0a6.5,6.5,0,0,1,1.156.3l.285.1a7.681,7.681,0,0,1,1.092.507l-10.022-5.985h-.095c-.237-.127-.491-.253-.76-.364l-.253-.095-.269-.095-.332-.111a7.186,7.186,0,0,0-.839-.19h0a7.092,7.092,0,0,0-1.013-.127h-2.517l-.617.127-.792.174-.427.19-.427.142c-.475.142-.966.3-1.441.491l-.38.127-.6.269-.491.237c-.57.269-1.14.554-1.726.887L394.624,77.957l10.164,5.905,75.851-44.488c.586-.332,1.156-.617,1.726-.887Z" transform="translate(126.077 9.848)" fill="#e27124"/><path d="M478.2,37.9c9.278-5.351,16.734-2.391,16.829,6.618s-7.314,20.772-16.513,26.155l-75.836,44.488-.332-32.772Z" transform="translate(128.546 11.258)" fill="#d25400"/><g transform="translate(501.892 93.425)"><path d="M390.771,107.432l-10.164-5.921-.237-22.26,10.148,5.905Z" transform="translate(-380.369 -68.105)" fill="#452617"/><path d="M390.517,87.855,380.369,81.95,399.3,70.8l10.164,5.905Z" transform="translate(-380.369 -70.804)" fill="#414042"/><path d="M407.011,75.28l.269,22.276L388.314,108.7l-.253-22.276Z" transform="translate(-377.912 -69.374)" fill="#303030"/></g><path d="M403.4,126.715c.127-.744.237-1.488.348-2.232a6.558,6.558,0,0,1,.142-.95,1.388,1.388,0,0,1,0-.253c.19-1.583.332-3.166.443-4.623v-.887c.1-1.583.158-3.166.158-4.67,0-16.782-5.985-28.593-15.531-34.15L378.8,73.06c9.5,5.541,15.484,17.415,15.531,34.134,0,1.583,0,3.166-.158,4.75v.887c-.111,1.583-.253,3.071-.459,4.623a7.628,7.628,0,0,1-.158,1.187c-.111.76-.222,1.583-.348,2.248a7.733,7.733,0,0,1-.237,1.346q-.19,1.108-.427,2.232a4.924,4.924,0,0,1-.222,1.045c-.38,1.789-.823,3.578-1.314,5.367-.079.3-.174.6-.253.9-.443,1.583-.918,3.166-1.425,4.67a.291.291,0,0,1-.079.237c-.491,1.488-1.045,2.992-1.583,4.48-.142.348-.269.7-.412,1.061-.507,1.282-1.029,2.581-1.583,3.863l-.19.427c-.6,1.393-1.235,2.771-1.884,4.148-.174.332-.332.681-.507,1.013-.522,1.092-1.077,2.185-1.583,3.261l-.491.934c-.712,1.346-1.457,2.676-2.216,3.99l-.412.681c-.681,1.156-1.377,2.311-2.106,3.451l-.617.982c-.871,1.33-1.757,2.676-2.676,3.99-.142.19-.3.4-.427.6-.95,1.33-1.916,2.644-2.9,3.926-.174.206-.317.427-.491.633-1.235,1.583-2.533,3.166-3.847,4.75l-.6.681c-.776.887-1.583,1.773-2.375,2.628l-.237.269c-.887.95-1.8,1.884-2.707,2.786l-.586.554c-1.2,1.172-2.406,2.311-3.641,3.388-.111.111-.237.206-.332.317-1.282,1.108-2.581,2.185-3.879,3.166l-.776.586c-1.282,1-2.581,1.947-3.911,2.85l-.712.475c-1.377.918-2.771,1.8-4.2,2.628q-1.694.966-3.372,1.8c-.317.174-.649.317-.966.475-.839.412-1.694.792-2.517,1.156l-.918.4-2.327.887-.6.222c-.966.332-1.916.617-2.866.887-.554.142-1.108.285-1.583.4l-.792.206c-.823.174-1.583.317-2.406.443-1.219.19-2.391.285-3.562.364h-4.306a17.772,17.772,0,0,1-2.406-.269l-.728-.127a24.088,24.088,0,0,1-2.66-.617h-.111c-.823-.237-1.583-.538-2.406-.839l-.7-.3c-.649-.285-1.3-.6-1.916-.934l-.665-.364h0l10.148,5.905.3.174.348.174c.633.332,1.282.665,1.963.95l.364.19.317.095a23.742,23.742,0,0,0,2.391.855h.095c.871.253,1.757.443,2.66.617l.317.079h.443c.776.127,1.583.206,2.375.269a3.007,3.007,0,0,0,.4,0h3.847a35.321,35.321,0,0,0,3.546-.348h0c.792-.127,1.583-.269,2.406-.443l.712-.174,1.583-.38h.158c.95-.269,1.9-.554,2.85-.887a2.381,2.381,0,0,0,.681-.253c.744-.269,1.488-.538,2.248-.855l.332-.127.617-.285c.823-.348,1.583-.712,2.47-1.124l1.013-.491c1.108-.57,2.232-1.156,3.356-1.8,1.425-.823,2.8-1.71,4.2-2.628l.712-.475c1.314-.9,2.628-1.852,3.91-2.834l.776-.617c1.3-1.029,2.6-2.074,3.863-3.166l.364-.317c1.219-1.092,2.422-2.216,3.61-3.356l.38-.364.222-.237c.918-.9,1.821-1.821,2.707-2.771l.222-.253c.807-.855,1.583-1.757,2.406-2.66.079-.095.174-.174.253-.285s.206-.253.3-.364c1.346-1.583,2.644-3.166,3.926-4.75l.095-.127.269-.348c1-1.33,2.011-2.676,2.976-4.037l.3-.412.127-.19c.918-1.33,1.821-2.676,2.707-4.053l.237-.348c.127-.206.222-.4.348-.57.712-1.14,1.409-2.28,2.106-3.451.1-.158.206-.317.3-.491a1.187,1.187,0,0,1,.111-.19c.76-1.314,1.5-2.644,2.216-3.99l.174-.3.317-.633,1.583-3.246.332-.649a4.039,4.039,0,0,1,.174-.38c.649-1.377,1.282-2.755,1.884-4.132v-.111l.143-.348c.554-1.282,1.077-2.549,1.583-3.847l.253-.57a1.78,1.78,0,0,1,.158-.491c.57-1.488,1.108-2.992,1.583-4.48h0a.888.888,0,0,0,0-.19c.522-1.583.982-3.166,1.425-4.655a3.042,3.042,0,0,1,.174-.586c.048-.206,0-.206.079-.317.491-1.789.934-3.578,1.314-5.367a2.85,2.85,0,0,1,.111-.427,1.891,1.891,0,0,1,.111-.617q.237-1.124.427-2.232A4.807,4.807,0,0,0,403.4,126.715Z" transform="translate(96.986 23.342)" fill="#414042"/><path d="M364.081,67.919c1.092-.522,2.169-1.013,3.246-1.472l1.14-.491c1.029-.427,2.058-.807,3.071-1.172l.7-.253c1.251-.427,2.47-.807,3.7-1.14.7-.206,1.393-.364,2.09-.538a6.037,6.037,0,0,0,1.029-.237c1.045-.222,2.074-.412,3.087-.586h0c.95-.142,1.9-.253,2.834-.332l.918-.079a13.589,13.589,0,0,0,1.963-.095h4.322c1.061.079,2.09.206,3.166.364l.95.158a34.628,34.628,0,0,1,3.42.792h.111c1.061.317,2.09.681,3.166,1.092l.855.38c.855.38,1.71.792,2.533,1.219l.823.443-10.164-5.905-.38-.222-.443-.206c-.823-.459-1.662-.855-2.533-1.235l-.459-.222a3.958,3.958,0,0,0-.4-.142,31.092,31.092,0,0,0-3.087-1.092h-.127c-1.108-.317-2.264-.57-3.42-.792l-.4-.1h-.538c-1.029-.158-2.058-.285-3.166-.348a2.614,2.614,0,0,0-.491,0h-4.512l-1.267.111h-.966c-.871.079-1.757.174-2.66.317h-.332c-.982.158-1.963.332-2.961.554l-1.029.237c-.633.158-1.267.3-1.9.475h-.19c-1.219.332-2.454.7-3.7,1.124l-.7.269c-1.013.364-2.042.744-3.071,1.172l-.38.142-.76.348c-1.077.459-2.169.95-3.246,1.472l-1.251.617c-1.441.728-2.881,1.488-4.338,2.327q-1.583.95-3.277,1.995l-1.045.681-2.2,1.457-1.219.855-2.011,1.457-1.219.918c-.681.522-1.362,1.045-2.027,1.583l-1.124.9c-.76.633-1.583,1.267-2.28,1.932-.269.222-.538.443-.792.681-1.029.887-2.042,1.8-3.056,2.739l-.491.475-2.09,2.011c-.111.095-.206.222-.3.317-1.172,1.156-2.327,2.327-3.451,3.546a2.849,2.849,0,0,0-.3.317c-1.045,1.124-2.09,2.28-3.166,3.451l-.285.317-.364.443c-1.726,1.995-3.42,4.037-5.05,6.143a1.2,1.2,0,0,0-.127.174l-.364.475c-1.3,1.694-2.565,3.42-3.816,5.177l-.38.522-.158.237c-1.187,1.694-2.343,3.4-3.467,5.145a5.593,5.593,0,0,1-.332.507l-.475.792c-.887,1.393-1.757,2.818-2.6,4.259-.158.237-.317.475-.459.728a2.767,2.767,0,0,1-.158.3q-1.441,2.47-2.8,5.035l-.237.412c-.158.3-.3.617-.459.9-.7,1.33-1.377,2.676-2.027,4.006-.142.317-.317.6-.475.918l-.237.554c-.823,1.726-1.583,3.467-2.391,5.209a1.467,1.467,0,0,1-.079.158l-.238.586c-.665,1.583-1.314,3.166-1.932,4.75l-.332.839c-.095.222-.174.459-.253.7-.712,1.868-1.393,3.736-2.011,5.62v.127a1.429,1.429,0,0,1-.127.4q-.95,2.9-1.757,5.795c-.079.269-.174.522-.253.776s-.111.491-.174.728c-.158.554-.3,1.108-.443,1.583-.222.823-.412,1.583-.617,2.486-.142.57-.253,1.124-.4,1.694s-.19.855-.285,1.282-.111.617-.174.918c-.19.871-.348,1.757-.507,2.628-.111.633-.237,1.267-.332,1.9q-.237,1.377-.427,2.755a8.64,8.64,0,0,1-.19,1.282v.538a8.814,8.814,0,0,1-.158,1.3c-.1.871-.19,1.742-.269,2.612a5.524,5.524,0,0,1-.111,1.346c0,.9-.111,1.8-.158,2.691v4.908c0,21.547,7.663,36.7,19.933,43.839l10.164,5.905c-12.27-7.14-19.885-22.292-19.933-43.839,0-1.251,0-2.517.079-3.784v-1.124c0-.887.1-1.789.158-2.691a5.524,5.524,0,0,1,.111-1.346c.079-.871.174-1.742.269-2.6a9.3,9.3,0,0,1,.158-1.314c.063-.443.158-1.2.237-1.8.143-.918.269-1.852.427-2.771.095-.633.222-1.267.332-1.884.158-.887.332-1.773.507-2.66s.3-1.441.459-2.169.269-1.156.4-1.726c.19-.823.4-1.583.617-2.454.143-.554.285-1.108.443-1.678s.269-.982.412-1.472c.554-1.947,1.14-3.895,1.789-5.842l.142-.475c.633-1.884,1.314-3.768,2.027-5.636.19-.522.38-1.029.586-1.583q.926-2.375,1.947-4.75l.3-.728c.776-1.742,1.583-3.483,2.391-5.225l.7-1.425c.665-1.362,1.346-2.707,2.058-4.053.222-.427.443-.871.681-1.3.9-1.694,1.837-3.388,2.818-5.05l.586-1q1.282-2.153,2.612-4.275c.269-.427.538-.871.823-1.3,1.124-1.742,2.264-3.451,3.436-5.13.174-.269.38-.522.57-.792,1.235-1.757,2.5-3.467,3.8-5.177.174-.206.332-.412.491-.633,1.583-2.106,3.325-4.148,5.05-6.159.222-.237.427-.491.649-.744,1.029-1.187,2.09-2.343,3.166-3.5l.253-.269c1.14-1.219,2.3-2.391,3.451-3.546.792-.776,1.583-1.583,2.391-2.311l.507-.491c1.013-.934,2.027-1.852,3.04-2.739l.807-.7,2.28-1.916,1.124-.9c.665-.538,1.346-1.061,2.027-1.583l1.219-.918,2.011-1.457,1.219-.839c.728-.507,1.472-1,2.2-1.472l1.045-.681q1.5-.871,3.087-1.821c1.457-.839,2.9-1.583,4.322-2.327Z" transform="translate(89.587 17.796)" fill="#414042"/><path d="M356.046,69.464c37.759-21.8,68.458-4.306,68.569,39.074s-30.366,96.2-68.078,118-68.442,4.29-68.569-39.074S318.334,91.264,356.046,69.464Zm.4,139.718c29.432-16.988,53.18-58.135,53.085-91.937s-24.017-47.5-53.433-30.429-53.132,58.135-53.022,91.889,24,47.5,53.4,30.445Z" transform="translate(92.002 19.196)" fill="#6b6c70"/></g></g></svg>