<svg xmlns="http://www.w3.org/2000/svg" width="210" height="199.848" viewBox="0 0 210 199.848"><g transform="translate(0 0)"><path d="M186.652,70.8,208.8,48.652a4.1,4.1,0,0,0-.926-6.5l-26.625-14.62a4.1,4.1,0,1,0-3.948,7.191l21.834,11.989-19.007,19-68.36-37.537,19-19.005,19.212,10.55a4.1,4.1,0,1,0,3.948-7.191L132.022.506a4.1,4.1,0,0,0-4.874.7L105,23.35,82.852,1.2a4.1,4.1,0,0,0-4.874-.7L2.127,42.156a4.1,4.1,0,0,0-.926,6.5L23.348,70.8,1.2,92.944a4.1,4.1,0,0,0,.926,6.5l22.921,12.587V154.1a4.1,4.1,0,0,0,2.128,3.6l75.85,41.649a4.1,4.1,0,0,0,3.948,0l75.85-41.649a4.1,4.1,0,0,0,2.128-3.6v-42.07l22.921-12.585a4.1,4.1,0,0,0,.926-6.5ZM105,107.767,37.672,70.8,105,33.825,172.328,70.8ZM79.229,9.179l19,19L29.873,65.721l-19.005-19Zm-49.353,66.7,68.36,37.537L79.229,132.418,10.868,94.881Zm146.873,75.8L109.1,188.815V146.887a4.1,4.1,0,1,0-8.2,0v41.927L33.251,151.67V116.531l44.726,24.56a4.1,4.1,0,0,0,4.874-.7L105,118.247,127.149,140.4a4.1,4.1,0,0,0,4.874.7l44.726-24.56Zm-45.976-19.252L111.766,113.41l68.36-37.536,19.008,19Zm0,0" transform="translate(0 0)" fill="#b2b2b2"/><path d="M188.394,30.691a4.105,4.105,0,1,0-2.9-1.2A4.137,4.137,0,0,0,188.394,30.691Zm0,0" transform="translate(-22.362 -2.729)" fill="#b2b2b2"/><path d="M118.934,147.007a4.1,4.1,0,1,0,2.9,1.2A4.127,4.127,0,0,0,118.934,147.007Zm0,0" transform="translate(-13.934 -17.838)" fill="#b2b2b2"/></g></svg>