<svg xmlns="http://www.w3.org/2000/svg" width="341" height="131" viewBox="0 0 341 131"><path d="M402.78,183H389.475a18.856,18.856,0,0,1,26.715-1.905A10.941,10.941,0,0,1,410,183h-5.251v-.3a.985.985,0,0,0-1.969,0v.3Zm-22.938,0H91a11,11,0,0,1-11-11V63A11,11,0,0,1,91,52h17.465v8.128c0,34.666,31.626,62.87,70.5,62.87s70.5-28.2,70.5-62.87V52h105.7v8.666c0,23.895,21.8,43.334,48.593,43.334A53.5,53.5,0,0,0,421,101.185V172a11.058,11.058,0,0,1-.276,2.459,27.222,27.222,0,0,0-16.961-5.9A26.881,26.881,0,0,0,379.842,183Zm7.081,0h0l-4.784,0a24.682,24.682,0,0,1,21.626-12.475,25.03,25.03,0,0,1,16.281,5.966,10.978,10.978,0,0,1-2.293,3.313,20.928,20.928,0,0,0-30.829,3.2ZM181.577,117.911h0V107.846a73.18,73.18,0,0,0,7.834-.687v10.059a73.82,73.82,0,0,1-7.833.692Zm-5.222,0h0a73.81,73.81,0,0,1-7.833-.692V107.159a73.178,73.178,0,0,0,7.834.687V117.91Zm18.278-1.637h0V106.2a71.938,71.938,0,0,0,7.833-2.183v10.059a71.14,71.14,0,0,1-7.831,2.2Zm-31.334,0h0a71.137,71.137,0,0,1-7.832-2.2V104.016A71.938,71.938,0,0,0,163.3,106.2v10.073Zm44.39-4.22V102a72.127,72.127,0,0,0,7.834-3.946v9.858h.183a68.148,68.148,0,0,1-8.015,4.144Zm-57.445,0h0a67.97,67.97,0,0,1-8.015-4.144h.183v-9.86a71.446,71.446,0,0,0,7.834,3.946v10.059Zm70.5-7.522v-9.87a70.4,70.4,0,0,0,7.834-6.463v9.461a63.027,63.027,0,0,1-7.832,6.871Zm-83.556,0h0a63.032,63.032,0,0,1-7.832-6.871V88.2a70.814,70.814,0,0,0,7.834,6.463v9.87Zm41.778-1.843a66.911,66.911,0,0,1-22.506-3.863,65.567,65.567,0,0,1-19.112-10.663A63.66,63.66,0,0,1,123.074,72.09,60.767,60.767,0,0,1,115.083,52h11.091c5.8,23.693,27.508,40.24,52.791,40.24S225.957,75.693,231.757,52h11.092a60.763,60.763,0,0,1-7.991,20.089,63.664,63.664,0,0,1-14.274,16.072,65.571,65.571,0,0,1-19.112,10.663A66.909,66.909,0,0,1,178.966,102.688Zm226.6-2.2h0V93.557a50.49,50.49,0,0,0,5.4-.473v6.934a50.776,50.776,0,0,1-5.4.476Zm-3.6,0h0a50.735,50.735,0,0,1-5.4-.476V93.083a50.459,50.459,0,0,0,5.4.473v6.935Zm12.6-1.128h0V92.421a49.626,49.626,0,0,0,5.4-1.5V97.85a49.019,49.019,0,0,1-5.4,1.515Zm-21.6,0h0a48.987,48.987,0,0,1-5.4-1.515V90.917a49.584,49.584,0,0,0,5.4,1.5v6.943Zm-9-2.909h0a46.888,46.888,0,0,1-5.524-2.856h.126V86.8a49.115,49.115,0,0,0,5.4,2.72v6.934Zm-150.167-5V82.761a.2.2,0,0,0-.012-.061.221.221,0,0,1-.011-.05,67.5,67.5,0,0,0,10.048-16.034,51.988,51.988,0,0,1-3.439,13.078A55.461,55.461,0,0,1,233.8,91.45Zm-109.667,0,0,0a55.479,55.479,0,0,1-6.583-11.757,51.984,51.984,0,0,1-3.439-13.08,67.5,67.5,0,0,0,10.048,16.037.234.234,0,0,1-.012.054.191.191,0,0,0-.011.057v8.691Zm250.835-.18h0a43.508,43.508,0,0,1-5.4-4.736V80.014a48.767,48.767,0,0,0,5.4,4.454v6.8ZM403.763,90a46.052,46.052,0,0,1-16.246-2.931,45.1,45.1,0,0,1-13.607-8.052A42.672,42.672,0,0,1,359.231,52h7.54c2.649,17.559,18.551,30.8,36.992,30.8A38.561,38.561,0,0,0,421,78.738v7.947A45.957,45.957,0,0,1,403.763,90Zm-224.8-2.983a50.241,50.241,0,0,1-16.138-2.641,49.264,49.264,0,0,1-13.872-7.319A48.026,48.026,0,0,1,138.29,65.965,45.9,45.9,0,0,1,131.767,52h44.59v9.765c-7.964-.222-10.708-1.576-14.448-5.278a2.683,2.683,0,0,0-3.692-.05,2.449,2.449,0,0,0-.052,3.556c5.017,4.972,9.266,6.562,18.189,6.8v3.6a2.613,2.613,0,0,0,5.222,0v-3.7A27.813,27.813,0,0,0,194.8,62.436c3.476-2.359,5.47-5.373,5.767-8.718A8.627,8.627,0,0,0,200.544,52h25.62a45.9,45.9,0,0,1-6.522,13.965,48.03,48.03,0,0,1-10.666,11.094,49.263,49.263,0,0,1-13.871,7.32A50.238,50.238,0,0,1,178.966,87.019Zm187-4.762,0,0a38.258,38.258,0,0,1-4.537-8.1,35.839,35.839,0,0,1-2.371-9.015,46.543,46.543,0,0,0,6.926,11.054.162.162,0,0,1-.008.037.131.131,0,0,0-.008.039v5.99ZM403.763,79.2a34.561,34.561,0,0,1-11.875-2.084,33.865,33.865,0,0,1-10.025-5.74A32.169,32.169,0,0,1,370.555,52h31.411v9.795c-5.489-.153-7.381-1.087-9.958-3.638a1.848,1.848,0,0,0-2.544-.035,1.688,1.688,0,0,0-.036,2.451c3.458,3.427,6.387,4.523,12.537,4.691v2.48a1.8,1.8,0,0,0,3.6,0V65.192a19.17,19.17,0,0,0,9.116-2.935,8.239,8.239,0,0,0,3.975-6.009l0-.035A10.889,10.889,0,0,1,421,63V74.616A34.522,34.522,0,0,1,403.763,79.2Zm1.8-17.5h0V52H410a11,11,0,0,1,3.38.529,4.324,4.324,0,0,1,1.69,3.425,5.189,5.189,0,0,1-2.7,3.608,15.55,15.55,0,0,1-6.8,2.133Zm-223.986-.074h0V52h13.7a4.265,4.265,0,0,1,.089,1.291c-.167,1.863-1.559,3.723-3.921,5.236a22.557,22.557,0,0,1-9.869,3.1Z" transform="translate(-80 -52)" fill="#0abee3"/></svg>