<svg xmlns="http://www.w3.org/2000/svg" width="13.589" height="21.893" viewBox="0 0 13.589 21.893"><g transform="translate(-97.103 0.001)"><path d="M97.1,15.1a6.794,6.794,0,0,0,6.794,6.794h0a6.794,6.794,0,0,0,6.794-6.794c0-3.775-1.887-6.794-.621-9.437,0,0-2.021.377-3.154,3.4A9.583,9.583,0,0,1,104.719,0a6.113,6.113,0,0,0-3.44,6.417c.345,4.208-.4,4.907-.4,4.907a5.8,5.8,0,0,0-2.656-4.907C98.99,10.568,97.1,11.7,97.1,15.1Z" fill="#ff4646"/><path d="M159.157,177.26a5.049,5.049,0,0,1-5.008,5.184,4.332,4.332,0,0,1-4.426-4.717,11.44,11.44,0,0,1,2.453-5.025l.975.59a19.745,19.745,0,0,1,1.1-5.568C155,171.071,159.157,171.939,159.157,177.26Z" transform="translate(-50.356 -160.553)" fill="#ffb546"/><path d="M186.511,284.748c-.377,2.265-1.132,3.089-1.132,4.53a3.126,3.126,0,0,0,3.02,3.02h0a3.029,3.029,0,0,0,3.02-3.052,9.183,9.183,0,0,0-2.642-6.762,3.949,3.949,0,0,1-.755,3.4A3.835,3.835,0,0,0,186.511,284.748Z" transform="translate(-84.501 -270.405)" fill="#fff"/></g></svg>