<svg xmlns="http://www.w3.org/2000/svg" width="212.027" height="171.047" viewBox="0 0 212.027 171.047"><g transform="translate(-876.483 -1123.698)"><path d="M29.727,53.656a4.2,4.2,0,0,1-2.1-.563L2.105,38.357A4.214,4.214,0,0,1,.564,32.606L13.721,9.817a1.052,1.052,0,0,1,1.438-.385l2.734,1.579L20,7.365a14.7,14.7,0,0,1,5.5-5.453A14.857,14.857,0,0,1,32.785,0,14.741,14.741,0,0,1,45.522,22.1l-2.105,3.646,2.734,1.579a1.055,1.055,0,0,1,.386,1.438L33.38,51.552A4.228,4.228,0,0,1,29.727,53.656ZM15.018,11.781,2.388,33.658a2.108,2.108,0,0,0,.77,2.875L28.681,51.269a2.106,2.106,0,0,0,2.875-.77L44.187,28.622,15.018,11.781h0ZM32.779,4.209A10.529,10.529,0,0,1,41.875,20L39.77,23.641l1.823,1.053L43.7,21.048A12.628,12.628,0,0,0,32.781,2.1,12.681,12.681,0,0,0,21.822,8.418l-2.105,3.646,1.823,1.052L23.645,9.47a10.5,10.5,0,0,1,3.932-3.895A10.615,10.615,0,0,1,32.779,4.209Zm-.005,2.1h0a8.454,8.454,0,0,0-7.306,4.209l-2.105,3.646,14.584,8.42,2.105-3.646A8.418,8.418,0,0,0,32.775,6.314ZM21.427,39.626a1.058,1.058,0,0,1-.528-.141L17.254,37.38a1.052,1.052,0,0,1-.321-1.535l3.56-4.838a4.143,4.143,0,0,1,.2-3.794,4.21,4.21,0,1,1,7.293,4.21A4.146,4.146,0,0,1,24.8,33.493L22.391,39a1.052,1.052,0,0,1-.964.63Zm2.917-12.413a2.114,2.114,0,0,0-1.827,1.052,2.091,2.091,0,0,0,.092,2.233,1.054,1.054,0,0,1-.022,1.215l-3.262,4.433,1.608.929,2.208-5.041a1.054,1.054,0,0,1,.965-.629l.077,0c.053,0,.106.006.159.006a2.1,2.1,0,0,0,1.05-3.918A2.1,2.1,0,0,0,24.344,27.213Z" transform="translate(1041.013 1240.656)" fill="#fff" opacity="0.46"/><path d="M36.68,58.823a5.206,5.206,0,0,1-2.588-.691L2.6,40.037l-.011-.005A5.161,5.161,0,0,1,.7,32.975L16.931,4.992a1.3,1.3,0,0,1,1.775-.473l3.375,1.938,2.6-4.477a18.092,18.092,0,0,1,6.791-6.7,18.4,18.4,0,0,1,8.985-2.348,18.22,18.22,0,0,1,9.062,2.421,18.066,18.066,0,0,1,6.655,24.718l-2.6,4.477,3.375,1.939a1.287,1.287,0,0,1,.474,1.766L41.188,56.238A5.223,5.223,0,0,1,36.68,58.823ZM18.532,7.4,2.947,34.268A2.579,2.579,0,0,0,3.9,37.8l31.494,18.1a2.607,2.607,0,0,0,3.549-.947L54.525,28.084,18.532,7.4Zm21.915-9.3h0A13.01,13.01,0,0,1,46.919-.166,12.906,12.906,0,0,1,51.673,17.49l-2.6,4.478,2.249,1.292,2.6-4.478A15.484,15.484,0,0,0,48.247-2.386L48.226-2.4,48.217-2.4A15.641,15.641,0,0,0,26.927,3.272L24.33,7.75l2.249,1.292,2.6-4.477A12.925,12.925,0,0,1,34.028-.217,13.149,13.149,0,0,1,40.447-1.894ZM40.441.689h0a10.441,10.441,0,0,0-9.014,5.168l-2.6,4.477,18,10.339,2.6-4.477A10.323,10.323,0,0,0,45.638,2.084l-.019-.011A10.409,10.409,0,0,0,40.441.69ZM26.44,41.6a1.31,1.31,0,0,1-.65-.173l-4.5-2.585a1.29,1.29,0,0,1-.4-1.886l4.394-5.942a5.067,5.067,0,0,1,.247-4.658,5.214,5.214,0,0,1,7.1-1.893A5.157,5.157,0,0,1,30.6,34.065l-2.974,6.756a1.3,1.3,0,0,1-1.189.774Zm3.6-15.244h0a2.612,2.612,0,0,0-2.255,1.292,2.557,2.557,0,0,0,.115,2.741,1.291,1.291,0,0,1-.029,1.492L23.846,37.32l1.986,1.141,2.723-6.19a1.3,1.3,0,0,1,1.192-.774q.046,0,.093,0c.066,0,.133.007.2.007a2.575,2.575,0,0,0,1.3-4.807l-.005,0a2.6,2.6,0,0,0-1.294-.346Z" transform="translate(882.6 1177.986) rotate(-60)" fill="#fff" opacity="0.46"/><path d="M23.842,43.057a3.366,3.366,0,0,1-1.681-.451L1.689,30.78A3.384,3.384,0,0,1,.453,26.165L11.005,7.879a.844.844,0,0,1,1.154-.31l2.193,1.266L16.04,5.91A11.82,11.82,0,1,1,36.51,17.734L34.823,20.66l2.193,1.267a.847.847,0,0,1,.309,1.155L26.772,41.368A3.39,3.39,0,0,1,23.842,43.057Zm-11.8-33.6L1.916,27.01a1.69,1.69,0,0,0,.617,2.307L23,41.142a1.687,1.687,0,0,0,2.306-.618L35.44,22.969ZM26.291,3.377a8.442,8.442,0,0,1,7.3,12.668L31.9,18.972l1.462.844,1.688-2.926A10.131,10.131,0,1,0,17.5,6.754L15.814,9.68l1.463.845L18.965,7.6A8.478,8.478,0,0,1,26.291,3.377Zm0,1.688h0a6.78,6.78,0,0,0-5.859,3.377l-1.688,2.927,11.7,6.756L32.125,15.2A6.754,6.754,0,0,0,26.287,5.067ZM17.186,31.8a.845.845,0,0,1-.423-.113L13.838,30a.845.845,0,0,1-.258-1.232l2.857-3.883a3.326,3.326,0,0,1,.161-3.045,3.377,3.377,0,1,1,5.848,3.379,3.323,3.323,0,0,1-2.554,1.661l-1.933,4.415a.842.842,0,0,1-.773.505Zm2.339-9.961a1.7,1.7,0,0,0-1.465.843,1.678,1.678,0,0,0,.074,1.792.847.847,0,0,1-.018.975L15.5,29.005l1.291.745,1.771-4.045a.845.845,0,0,1,.775-.506l.06,0c.043,0,.086,0,.129,0a1.664,1.664,0,0,0,1.459-.835,1.688,1.688,0,0,0-1.459-2.533Z" transform="translate(912.596 1238.41) rotate(30)" fill="#fff" opacity="0.46"/></g></svg>