<svg xmlns="http://www.w3.org/2000/svg" width="282.875" height="214.932" viewBox="0 0 282.875 214.932"><g transform="translate(-882.6 -1134.76)"><path d="M-874.247,218.069h0l-5.783,0L-881.882,217a5.746,5.746,0,0,1-2.693-3.513A5.745,5.745,0,0,1-884,209.1l18.075-31.307a1.451,1.451,0,0,1,1.253-.723,1.447,1.447,0,0,1,.722.194l3.757,2.169,2.892-5.008a20.2,20.2,0,0,1,7.562-7.491,20.409,20.409,0,0,1,10-2.626,20.2,20.2,0,0,1,10.087,2.708,20.106,20.106,0,0,1,9.423,12.294,20.106,20.106,0,0,1-2.013,15.359l-2.892,5.009,3.757,2.169a1.448,1.448,0,0,1,.53,1.976l-8.225,14.247h-3.34l8.337-14.441-40.073-23.135L-881.5,210.545a2.872,2.872,0,0,0-.287,2.193,2.873,2.873,0,0,0,1.346,1.757l6.187,3.572Zm34.5-47.981h0a14.428,14.428,0,0,1,7.2,1.934,14.362,14.362,0,0,1,6.731,8.782,14.363,14.363,0,0,1-1.438,10.971l-2.892,5.008,2.5,1.445,2.892-5.008a17.372,17.372,0,0,0-6.351-23.7,17.32,17.32,0,0,0-8.647-2.321A17.424,17.424,0,0,0-854.8,175.87l-2.892,5.008,2.5,1.445,2.892-5.008a14.424,14.424,0,0,1,5.4-5.351A14.583,14.583,0,0,1-839.745,170.088Zm-.006,2.892a11.614,11.614,0,0,0-10.037,5.782l-2.892,5.008,20.036,11.568,2.892-5.008a11.582,11.582,0,0,0-4.234-15.8A11.546,11.546,0,0,0-839.751,172.98Zm-14.366,45.087H-856.9l-4.174-2.41a1.444,1.444,0,0,1-.692-.956,1.451,1.451,0,0,1,.25-1.153l4.891-6.648a5.693,5.693,0,0,1,.277-5.211,5.808,5.808,0,0,1,5.019-2.891,5.771,5.771,0,0,1,2.882.774,5.792,5.792,0,0,1,2.118,7.9,5.692,5.692,0,0,1-4.376,2.844l-3.311,7.56a1.449,1.449,0,0,1-.1.189Zm2.783-16.378h0a2.9,2.9,0,0,0-2.509,1.445,2.869,2.869,0,0,0,.128,3.067,1.451,1.451,0,0,1-.031,1.669l-4.481,6.089,2.211,1.277,3.033-6.925a1.446,1.446,0,0,1,1.324-.865c.035,0,.07,0,.105,0,.073.005.147.008.22.008a2.853,2.853,0,0,0,2.5-1.432,2.87,2.87,0,0,0,.287-2.194,2.873,2.873,0,0,0-1.347-1.756,2.885,2.885,0,0,0-1.441-.387Z" transform="translate(1985 1115.932)" fill="#fff" opacity="0.46"/><path d="M-834.383,253.018a7.148,7.148,0,0,1-3.557-.951l-43.266-24.857-.006,0-.007,0a7.058,7.058,0,0,1-3.314-4.321,7.026,7.026,0,0,1,.714-5.373l22.3-38.442a1.792,1.792,0,0,1,1.546-.888,1.794,1.794,0,0,1,.891.238l4.635,2.663,3.568-6.151a25.081,25.081,0,0,1,1.827-2.721l1.96,3.377c-.24.361-.474.737-.7,1.118l-3.568,6.151,3.091,1.776,3.211-5.534,2.06,3.551-2.18,3.759,6.542,3.758,3.569,6.152-24.257-13.937-21.411,36.9a3.515,3.515,0,0,0-.355,2.691,3.53,3.53,0,0,0,1.661,2.161l43.267,24.857a3.57,3.57,0,0,0,1.777.475,3.588,3.588,0,0,0,3.1-1.775l13.014-22.432,2.06,3.551-11.984,20.657A7.174,7.174,0,0,1-834.383,253.018Zm-14.07-23.667a1.8,1.8,0,0,1-.893-.238l-6.18-3.551a1.771,1.771,0,0,1-.854-1.174,1.769,1.769,0,0,1,.308-1.416l6.036-8.163a6.955,6.955,0,0,1,.341-6.4,7.171,7.171,0,0,1,6.191-3.551,7.151,7.151,0,0,1,3.557.951,7.058,7.058,0,0,1,3.325,4.323,7.021,7.021,0,0,1-.713,5.378,7.021,7.021,0,0,1-5.4,3.494l-4.087,9.283a1.781,1.781,0,0,1-1.077.974A1.78,1.78,0,0,1-848.453,229.35Zm4.944-20.942h0a3.586,3.586,0,0,0-3.1,1.775,3.509,3.509,0,0,0,.157,3.766,1.772,1.772,0,0,1-.039,2.049l-5.529,7.478,2.728,1.567,3.741-8.5a1.786,1.786,0,0,1,1.636-1.063c.043,0,.087,0,.129,0,.09.007.182.01.272.01a3.519,3.519,0,0,0,3.083-1.758,3.511,3.511,0,0,0,.357-2.686,3.527,3.527,0,0,0-1.656-2.16l-.007,0a3.574,3.574,0,0,0-1.778-.475Z" transform="translate(1175.852 341.801) rotate(-60)" fill="#fff" opacity="0.46"/><path d="M-862.955,219.416l-19.5-11.265a4.608,4.608,0,0,1-2.16-2.818,4.61,4.61,0,0,1,.462-3.521l14.5-25.123a1.164,1.164,0,0,1,1.006-.58,1.161,1.161,0,0,1,.579.156l3.013,1.741,2.319-4.019a16.2,16.2,0,0,1,6.065-6.011,16.362,16.362,0,0,1,8.023-2.108,16.2,16.2,0,0,1,8.091,2.174,16.267,16.267,0,0,1,5.942,22.19l-2.319,4.019,3.014,1.741a1.163,1.163,0,0,1,.424,1.585l-4.19,7.261-4.015,2.317,5.617-9.734-32.14-18.565-13.917,24.117a2.324,2.324,0,0,0,.849,3.17l20.662,11.935-2.32,1.339Zm14.3-48.909a11.561,11.561,0,0,1,5.774,1.55l0,0a11.618,11.618,0,0,1,4.244,15.85l-2.319,4.019,2.009,1.161,2.32-4.019a13.944,13.944,0,0,0-5.094-19.021,13.886,13.886,0,0,0-6.936-1.863,13.973,13.973,0,0,0-12.075,6.96l-2.319,4.019,2.008,1.16,2.32-4.019a11.569,11.569,0,0,1,4.332-4.294A11.689,11.689,0,0,1-848.659,170.507Zm0,2.32a9.314,9.314,0,0,0-8.051,4.641l-2.319,4.019,16.069,9.283,2.319-4.02a9.3,9.3,0,0,0-3.4-12.681A9.257,9.257,0,0,0-848.663,172.827Zm-12.5,36.724a1.163,1.163,0,0,1-.581-.156l-4.018-2.32a1.161,1.161,0,0,1-.555-.768,1.161,1.161,0,0,1,.2-.925l3.923-5.334a4.569,4.569,0,0,1,.221-4.182,4.658,4.658,0,0,1,4.025-2.32,4.633,4.633,0,0,1,2.312.62,4.649,4.649,0,0,1,1.7,6.341,4.566,4.566,0,0,1-3.509,2.283l-2.655,6.067a1.17,1.17,0,0,1-.7.636A1.157,1.157,0,0,1-861.165,209.55Zm3.214-13.685a2.329,2.329,0,0,0-2.014,1.16,2.3,2.3,0,0,0,.1,2.461,1.163,1.163,0,0,1-.024,1.34l-3.594,4.886,1.773,1.024,2.433-5.557a1.16,1.16,0,0,1,1.063-.7l.084,0c.058,0,.118.006.176.006a2.288,2.288,0,0,0,2.007-1.148,2.326,2.326,0,0,0-.85-3.171A2.313,2.313,0,0,0-857.952,195.866Z" transform="translate(1772.979 1575.896) rotate(30)" fill="#fff" opacity="0.46"/></g></svg>