<svg xmlns="http://www.w3.org/2000/svg" xmlns:xlink="http://www.w3.org/1999/xlink" width="48" height="48" viewBox="0 0 48 48"><defs><clipPath id="a"><rect width="48" height="48" transform="translate(881 2268)" fill="#ff9c2c"/></clipPath></defs><g transform="translate(-881 -2268)" clip-path="url(#a)"><g transform="translate(881 2268)"><path d="M48,48H0V0H48Z" fill="#fec478"/><path d="M48,48H24V0H48Z" fill="#fea832"/><path d="M45.188,45.188H2.813V2.813H45.188Z" fill="#994c0f"/><path d="M45.188,45.188H24V2.813H45.188Z" fill="#713708"/><path d="M19.453,17.025H22.2L28.273,33H25.078l-1.485-3.983h-5.58L16.551,33h-3.2Zm3.578,9.81-2.2-6.278-2.3,6.278Z" fill="#fec478"/><path d="M29.736,19.568V16.575h3.015v2.993Zm0,13.432V21.21h3.015V33Z" fill="#fea832"/><path d="M24,21.763v8.345L25.078,33h3.195Z" fill="#fea832"/></g></g></svg>