<svg xmlns="http://www.w3.org/2000/svg" xmlns:xlink="http://www.w3.org/1999/xlink" width="1920" height="960" viewBox="0 0 1920 960"><defs><clipPath id="a"><rect width="1920" height="960" transform="translate(0 0)" fill="#fafafa"/></clipPath></defs><g transform="translate(0 0)"><rect width="1920" height="960" transform="translate(0 0)" fill="#f7f7f7"/><g clip-path="url(#a)"><g transform="translate(-184.003 563.787)"><path d="M872.849,474.419a.767.767,0,0,1-.533-.2L578.583,230.886a.867.867,0,0,1-.234-1,.834.834,0,0,1,.9-.467l307.7,49.467a.833.833,0,0,1,.7.867L873.683,473.586a.834.834,0,0,1-.533.7A.5.5,0,0,1,872.849,474.419Zm-290.833-242.8,290,240.3,13.8-191.433Z" transform="translate(-578.279 -229.406)" fill="#bdbdbd"/></g><g transform="translate(2406.839 782.486)"><path d="M1511.259,881.863a.867.867,0,0,1-.8-.633l-154.9-585.167a.837.837,0,0,1,1.567-.567l256.633,562.8a.665.665,0,0,1,0,.7.767.767,0,0,1-.567.433l-101.6,22.3ZM1359.693,305.2l152.2,574.867,99.8-21.9Z" transform="translate(-1355.532 -295.016)" fill="#bdbdbd"/></g><g transform="translate(2133.648 782.47)"><path d="M1702.493,881.874a.9.9,0,0,1-.6-.266L1273.659,407.574a.834.834,0,0,1,0-.733.767.767,0,0,1,.5-.6l273.333-111.167a1,1,0,0,1,.7,0,.867.867,0,0,1,.433.534l154.9,585.167a.834.834,0,0,1-.434.967.7.7,0,0,1-.6.133ZM1275.826,407.341l425.133,470.6-153.9-580.967Z" transform="translate(-1273.574 -295.011)" fill="#bdbdbd"/></g><g transform="translate(-183.864 253.004)"><path d="M886.718,498.167h0L579.018,448.7a.733.733,0,0,1-.667-.6.8.8,0,0,1,.3-.867l404.933-310.9a.8.8,0,0,1,.967,0,.867.867,0,0,1,.367.9l-97.4,360.3A.866.866,0,0,1,886.718,498.167ZM581.051,447.334l305.067,49.033,96.4-357.267Z" transform="translate(-578.321 -136.171)" fill="#bdbdbd"/></g><g transform="translate(123.706 252.933)"><path d="M671.419,498.217a.833.833,0,0,1-.6-.267.865.865,0,0,1-.2-.8l97.233-360.367a.933.933,0,0,1,.833-.633.9.9,0,0,1,.8.633l80,317.067a.834.834,0,0,1,0,.633.867.867,0,0,1-.533.367L671.686,498.183Zm97.2-357.933L672.586,496.217l175.1-42.767Z" transform="translate(-670.592 -136.15)" fill="#bdbdbd"/></g><g transform="translate(220.908 253.074)"><path d="M780.578,454.785h-.267a.767.767,0,0,1-.533-.567l-80-317.033a.834.834,0,0,1,.3-.867.866.866,0,0,1,.9,0l308.5,150.933a.867.867,0,0,1,.467.7.767.767,0,0,1-.333.733l-228.5,166.1a.9.9,0,0,1-.534,0ZM701.811,138.451l79.267,314.1,226.4-164.567Z" transform="translate(-699.752 -136.192)" fill="#bdbdbd"/></g><g transform="translate(-473.004 -25.275)"><path d="M492.416,690.163a.8.8,0,0,1-.567-.2.833.833,0,0,1-.267-.7l41.4-635.8a.8.8,0,0,1,.667-.767.9.9,0,0,1,.933.5L782.25,642.329a.8.8,0,0,1,0,.733.766.766,0,0,1-.6.4l-289,46.667Zm41.933-633.1L493.317,688.329,780.25,642Z" transform="translate(-491.579 -52.687)" fill="#bdbdbd"/></g><g transform="translate(-431.659 -25.299)"><path d="M752.475,643.512h-.2a.767.767,0,0,1-.567-.5L504.042,53.746a.866.866,0,0,1,.2-.933.834.834,0,0,1,.9,0l652.633,278.2a.867.867,0,0,1,.5.667.8.8,0,0,1-.3.767l-405,310.9A.834.834,0,0,1,752.475,643.512ZM506.342,55.112l246.5,586.233,402.933-309.367Z" transform="translate(-503.982 -52.68)" fill="#bdbdbd"/></g><g transform="translate(2406.722 782.484)"><path d="M1612.974,859.565h0a.833.833,0,0,1-.7-.5L1355.608,296.2a.835.835,0,0,1,0-.833.668.668,0,0,1,.733-.333l594.333,36.033a.866.866,0,0,1,.7.467.833.833,0,0,1,0,.833L1613.841,859.2A.866.866,0,0,1,1612.974,859.565Zm-255.167-562.8L1613.074,857l336.267-524.367Z" transform="translate(-1355.496 -295.015)" fill="#bdbdbd"/></g><g transform="translate(1598.387 733.567)"><path d="M1113.742,564.94a.717.717,0,0,1-.6-1.167l129.4-282.933a.9.9,0,0,1,.767-.5.866.866,0,0,1,.732.467l96.134,193.333a1,1,0,0,1,0,.7.966.966,0,0,1-.5.467l-225.5,89.5Zm129.433-281.8-127.833,279.4,222.767-88.433Z" transform="translate(-1112.996 -280.34)" fill="#bdbdbd"/></g><g transform="translate(301.077 403.895)"><path d="M925.159,388.41h0l-200.7-39.233a.833.833,0,0,1-.633-.633.766.766,0,0,1,.333-.833l228.467-166.1a.833.833,0,0,1,1.333.767l-27.867,205.3a.767.767,0,0,1-.333.567.832.832,0,0,1-.6.167Zm-198.6-40.5,197.9,38.733,27.5-202.467Z" transform="translate(-723.803 -181.438)" fill="#bdbdbd"/></g><g transform="translate(951.394 528.312)"><path d="M919.738,457.185a1.1,1.1,0,0,1-.466,0,.833.833,0,0,1-.367-.8l8.733-81.567a.8.8,0,0,1,.5-.667L1294.6,218.818a.833.833,0,0,1,.767,1.467l-375.2,236.767a1.1,1.1,0,0,1-.433.133Zm9.5-81.833-8.5,79.367,365.167-230.5Z" transform="translate(-918.898 -218.764)" fill="#bdbdbd"/></g><g transform="translate(109.757 613.32)"><path d="M899.583,451.546h0l-232.4-11.8a.767.767,0,0,1-.566-.267.733.733,0,0,1-.2-.633l13.967-193.8a.834.834,0,0,1,1.4-.567L900.15,450.046a.8.8,0,0,1,.2.933A.834.834,0,0,1,899.583,451.546Zm-231.5-13.333L897.35,449.846,681.883,246.979Z" transform="translate(-666.407 -244.266)" fill="#bdbdbd"/></g><g transform="translate(123.703 569.927)"><path d="M889.821,481.921a.766.766,0,0,1-.567-.233l-218.4-205.6a.849.849,0,0,1,.366-1.433l177.267-43.333a.8.8,0,0,1,.667,0,.834.834,0,0,1,.366.567l41.133,248.933a.866.866,0,0,1-.433.867Zm-216.667-206L888.621,478.788l-40.567-245.6Z" transform="translate(-670.591 -231.248)" fill="#bdbdbd"/></g><g transform="translate(300.982 570.023)"><path d="M765.726,481.854h-.2a.833.833,0,0,1-.633-.667l-41.1-248.933a.767.767,0,0,1,.233-.733.866.866,0,0,1,.733-.233l200.634,39.067a.833.833,0,0,1,.5,1.333L766.393,481.42a.867.867,0,0,1-.667.433Zm-40-248.733,40.6,245.867L923.859,271.854Z" transform="translate(-723.775 -231.277)" fill="#bdbdbd"/></g><g transform="translate(1021.065 907.776)"><path d="M972.1,724.46a.8.8,0,0,1-.467-.167.9.9,0,0,1-.367-.6L939.8,333.494a.834.834,0,0,1,1.4-.667l341.667,311.1a.833.833,0,0,1-.367,1.433L972.3,724.427Zm-30.467-389,31.233,387.1,307.6-78.433Z" transform="translate(-939.799 -332.603)" fill="#bdbdbd"/></g><g transform="translate(1020.987 907.59)"><path d="M1282.356,645.524a.767.767,0,0,1-.567-.233L940.123,334.057a.833.833,0,0,1,.9-1.4l513.667,216.467a.966.966,0,0,1,.5.733.835.835,0,0,1-.433.766l-172,94.667a.8.8,0,0,1-.4.234Zm-337.5-309.3,337.633,307.433,170-93.533Z" transform="translate(-939.776 -332.547)" fill="#bdbdbd"/></g><g transform="translate(1021.232 907.782)"><path d="M1454.184,550.589h-.333l-513.5-216.4a.826.826,0,0,1,.5-1.567l577.2,108.7a.833.833,0,0,1,.6.5.8.8,0,0,1,0,.767l-63.567,107.733a.8.8,0,0,1-.9.267Zm-506.134-214.9,505.767,213.333,62.6-106.1Z" transform="translate(-939.85 -332.605)" fill="#bdbdbd"/></g><g transform="translate(951.48 528.188)"><path d="M989.344,599.972h0a.767.767,0,0,1-.633-.467l-69.7-142.7a.867.867,0,0,1,.3-1.1l375.2-236.867a.833.833,0,0,1,1.1,1.2l-305.6,379.6a.833.833,0,0,1-.667.333Zm-68.6-143.333,68.767,140.867,301.567-374.533Z" transform="translate(-918.924 -218.726)" fill="#bdbdbd"/></g><g transform="translate(1534.741 1016.504)"><path d="M1094.728,474.484a.834.834,0,0,1-.7-.333.867.867,0,0,1,0-.9l63.533-107.633a.8.8,0,0,1,1-.333l171.1,62.7a.767.767,0,0,1,.533.833.834.834,0,0,1-.666.767l-234.634,44.9Zm63.933-107.533-62.267,105.533,230-44.133Z" transform="translate(-1093.902 -365.221)" fill="#bdbdbd"/></g><g transform="translate(1769.393 893.71)"><path d="M1957.471,804.006h-.267L1164.838,515.573a.834.834,0,0,1-.533-.733.767.767,0,0,1,.433-.8L1528.9,328.473a.866.866,0,0,1,1,.167l428.2,474.033a.817.817,0,0,1-.633,1.333ZM1167.2,514.573,1954.6,801.24,1529.071,330.173Z" transform="translate(-1164.298 -328.383)" fill="#bdbdbd"/></g><g transform="translate(1598.3 927.021)"><path d="M1284.9,492.222h-.3l-171.1-62.733a.766.766,0,0,1-.533-.767.834.834,0,0,1,.533-.767L1339,338.422a.9.9,0,0,1,.9.2.833.833,0,0,1,.2.867l-54.433,152.2a.8.8,0,0,1-.433.5Zm-168.767-63.567,168.267,61.8,53.333-149.7Z" transform="translate(-1112.97 -338.376)" fill="#bdbdbd"/></g><g transform="translate(1769.386 893.664)"><path d="M1165.143,515.572a.9.9,0,0,1-.567-.2.833.833,0,0,1-.234-.9l54.434-152.233a.8.8,0,0,1,.7-.533l309.7-33.333a.866.866,0,0,1,.9.6.8.8,0,0,1-.433.967L1165.51,515.472Zm55-152.267-53.5,149.733,358.233-182.567Z" transform="translate(-1164.296 -328.369)" fill="#bdbdbd"/></g><g transform="translate(845.677 907.787)"><path d="M1094.873,724.452h0L887.906,701.786a.822.822,0,0,1-.633-1.2l175.533-367.533a.833.833,0,0,1,1.567.3l31.467,390.2a.833.833,0,0,1-.233.667.967.967,0,0,1-.733.234Zm-205.7-24.2,204.8,22.433-31.133-386.1Z" transform="translate(-887.183 -332.606)" fill="#bdbdbd"/></g><g transform="translate(1731.918 1367.665)"><path d="M1672.67,774.538h-.4L1153.5,487.871a.834.834,0,0,1-.433-.9.867.867,0,0,1,.8-.633l830-15.767a.8.8,0,0,1,.8.5.866.866,0,0,1-.2.933L1673.437,774.3a.8.8,0,0,1-.766.234ZM1157,487.871l515.533,284.767,309.1-300.433Z" transform="translate(-1153.055 -470.569)" fill="#bdbdbd"/></g><g transform="translate(1362.733 1124.364)"><path d="M1412.333,658.315a.564.564,0,0,1-.333,0l-369.2-164.5a.9.9,0,0,1-.5-.733.833.833,0,0,1,.433-.767l172-94.633a.867.867,0,0,1,1.067.2L1413,657.048a.867.867,0,0,1-.667,1.367ZM1045,492.848l364.7,162.533-194.8-256Z" transform="translate(-1042.3 -397.579)" fill="#bdbdbd"/></g><g transform="translate(1534.954 1079.09)"><path d="M1291.779,690.007a.866.866,0,0,1-.666-.333l-197.034-259a.767.767,0,0,1,0-.8.8.8,0,0,1,.6-.533l234.4-45.333a.867.867,0,0,1,.733.233.766.766,0,0,1,.233.7l-37.466,304.233a.832.832,0,0,1-.6.7ZM1096.045,430.674,1291.179,687.34l37.1-301.067Z" transform="translate(-1093.966 -383.997)" fill="#bdbdbd"/></g><g transform="translate(1731.921 1079.245)"><path d="M1153.9,689.9a.832.832,0,0,1-.633-.3.766.766,0,0,1-.2-.667l37.467-304.2a.768.768,0,0,1,.4-.6.734.734,0,0,1,.7,0L1984,672.565a.867.867,0,0,1,.533.933.833.833,0,0,1-.8.7l-830,15.767Zm38.167-303.933L1154.835,688.2l824.4-15.667Z" transform="translate(-1153.056 -384.043)" fill="#bdbdbd"/></g><g transform="translate(687.336 891.284)"><path d="M998.745,713.338h0a.8.8,0,0,1-.733-.5L839.779,328.8a.865.865,0,0,1,0-.8.667.667,0,0,1,.733-.333L1174.178,344.1a.934.934,0,0,1,.7.4.968.968,0,0,1,0,.8L999.512,712.871a.834.834,0,0,1-.767.466Zm-156.9-383.9L998.812,710.471l174.133-364.733Z" transform="translate(-839.681 -327.655)" fill="#bdbdbd"/></g><g transform="translate(342.069 609.2)"><path d="M1082.432,526.83h-.2L736.8,454.4a.767.767,0,0,1-.6-.5.867.867,0,0,1,0-.8L895.765,243.363a.934.934,0,0,1,.7-.333.767.767,0,0,1,.667.367L1082.9,525.53a.878.878,0,0,1-.466,1.3Zm-344-73.9,342,71.7-184-279.467Z" transform="translate(-736.101 -243.03)" fill="#bdbdbd"/></g><g transform="translate(687.415 765.046)"><path d="M1174.19,434.171h0l-333.7-16.433a.867.867,0,0,1-.767-.667.833.833,0,0,1,.467-.933l263.833-126.267a.8.8,0,0,1,1.1.4l69.7,142.7a.933.933,0,0,1,0,.833A.866.866,0,0,1,1174.19,434.171ZM844.023,416.238l328.967,16.2-68.967-140.7Z" transform="translate(-839.704 -289.784)" fill="#bdbdbd"/></g><g transform="translate(501.581 609.186)"><path d="M970.773,526.84h-.167a.7.7,0,0,1-.533-.367L784.107,244.34a.833.833,0,0,1,.833-1.3l458.533,74.3a.767.767,0,0,1,.667.6.8.8,0,0,1-.3.867L971.107,526.673a1,1,0,0,1-.333.167ZM786.74,245.007l184.033,279.8,270.5-206.133Z" transform="translate(-783.954 -243.026)" fill="#bdbdbd"/></g><g transform="translate(687.552 683.517)"><path d="M840.594,474.808a.9.9,0,0,1-.733-.4.867.867,0,0,1,.2-1.1l272.767-207.833a.8.8,0,0,1,.934,0,.833.833,0,0,1,.4.8l-8.767,81.567a.833.833,0,0,1-.467.667l-264,126.267a.632.632,0,0,1-.333.033Zm271.7-206.833L847.26,469.708l256.267-122.567ZM1104.427,347.575Z" transform="translate(-839.745 -265.325)" fill="#bdbdbd"/></g><g transform="translate(1021.065 701.882)"><path d="M1517.868,587.119h0l-577.4-108.733a.867.867,0,0,1-.667-.767.833.833,0,0,1,.533-.833l543.333-205.867a.834.834,0,0,1,.733,0,.8.8,0,0,1,.367.633L1518.7,586.119a1,1,0,0,1-.266.7A.766.766,0,0,1,1517.868,587.119ZM943.8,477.286l573.333,107.967-33.667-312.4Z" transform="translate(-939.799 -270.834)" fill="#bdbdbd"/></g><g transform="translate(1021.062 528.244)"><path d="M940.636,599.932a.85.85,0,0,1-.667-1.367l305.5-379.6a.833.833,0,0,1,1.133,0L1484.4,392.7a.833.833,0,0,1-.2,1.467L940.869,600.032Zm305.667-379.3L943.2,597.3l539.033-204.367Z" transform="translate(-939.798 -218.743)" fill="#bdbdbd"/></g><g transform="translate(1564.529 701.921)"><path d="M1137.443,587.092h0a.833.833,0,0,1-.7-.733l-33.9-314.6a.825.825,0,0,1,.967-.9l163.333,31.667a.766.766,0,0,1,.566.433.8.8,0,0,1,0,.734l-129.434,282.9A.833.833,0,0,1,1137.443,587.092Zm-32.967-314.367,33.333,310.433,127.7-279.2Z" transform="translate(-1102.839 -270.846)" fill="#bdbdbd"/></g><g transform="translate(950.827 462.433)"><path d="M928.868,421.733a1.1,1.1,0,0,1-.433,0,.934.934,0,0,1-.4-.667l-9.3-221.033a.734.734,0,0,1,.267-.667.867.867,0,0,1,.633-.367L1295.4,264.7a.833.833,0,0,1,0,1.6L929.2,421.667Zm-8.433-220.867,9.2,218.767L1292.367,265.9Z" transform="translate(-918.728 -199)" fill="#bdbdbd"/></g><g transform="translate(501.6 505.417)"><path d="M1243.327,391.645h0l-458.667-74.3a.867.867,0,0,1-.7-.767.9.9,0,0,1,.566-.867l300.367-103.767a.767.767,0,0,1,.867.233l158.333,178.067a.867.867,0,0,1,0,.967A.833.833,0,0,1,1243.327,391.645ZM788.193,316.211l452.967,73.333L1084.894,213.612Z" transform="translate(-783.96 -211.895)" fill="#bdbdbd"/></g><g transform="translate(501.621 403.939)"><path d="M784.779,388.379a.856.856,0,0,1-.8-.933l27.833-205.3a.932.932,0,0,1,.4-.633,1.133,1.133,0,0,1,.733,0l272.5,101.533a.9.9,0,0,1,.533.8.833.833,0,0,1-.567.767l-300.333,103.8Zm28.567-205L785.812,386.313l296.867-102.6Z" transform="translate(-783.966 -181.452)" fill="#bdbdbd"/></g><g transform="translate(802.054 462.36)"><path d="M1033.009,421.785a.7.7,0,0,1-.6-.3l-158.2-178.067a.767.767,0,0,1,0-.8.866.866,0,0,1,.567-.567l148.7-43a.867.867,0,0,1,.7,0,1.034,1.034,0,0,1,.367.667l9.3,221a.866.866,0,0,1-.5.833Zm-156.667-178.5,155.733,175.333-9.167-217.6Z" transform="translate(-874.096 -198.978)" fill="#bdbdbd"/></g><g transform="translate(-1453.2 1058.582)"><path d="M735.053,655.029h-.267L198.12,476.129a.833.833,0,0,1,0-1.6l452.033-96.667a.833.833,0,0,1,.967.567L735.787,653.9a.833.833,0,0,1-.2.833.8.8,0,0,1-.533.3ZM201.72,475.463,733.787,652.829,649.887,379.5Z" transform="translate(-197.52 -377.845)" fill="#bdbdbd"/></g><g transform="translate(2246.814 67.978)"><path d="M1836.443,808.452a.934.934,0,0,1-.667-.333L1307.744,81.986a.8.8,0,0,1,0-1.1.833.833,0,0,1,1.133,0l656.667,640.8a.935.935,0,0,1,.267.7.9.9,0,0,1-.366.6L1836.91,808.452a.766.766,0,0,1-.467,0ZM1314.877,88.986l521.767,717.533,127.033-84.3Z" transform="translate(-1307.524 -80.663)" fill="#bdbdbd"/></g><g transform="translate(1928.529 67.988)"><path d="M2059.243,808.445a.768.768,0,0,1-.367,0l-846.366-425.9a.833.833,0,0,1-.467-.633.9.9,0,0,1,.267-.733l318.333-300.3a.767.767,0,0,1,.667-.2.7.7,0,0,1,.566.333L2059.91,807.145a.8.8,0,0,1,0,1.033.833.833,0,0,1-.667.267ZM1214.31,381.579l842.233,423.767-525.434-722.6Z" transform="translate(-1212.039 -80.666)" fill="#bdbdbd"/></g><g transform="translate(-1453.117 508.009)"><path d="M198.362,861.463a.833.833,0,0,1-.667-.333.8.8,0,0,1,0-.933L591.028,213.1a.8.8,0,0,1,.9-.4.867.867,0,0,1,.633.733l58.8,550.5a.833.833,0,0,1-.667.9L198.662,861.5Zm392.667-645.4L200.1,859.4,649.5,763.33Z" transform="translate(-197.545 -212.673)" fill="#bdbdbd"/></g><g transform="translate(-1059.902 508.186)"><path d="M375.145,764.74a.651.651,0,0,1-.833-.667l-58.8-550.433a.867.867,0,0,1,.533-.867.9.9,0,0,1,1,.3L597.712,608.607a.8.8,0,0,1,.167.6.7.7,0,0,1-.367.533l-221.9,155a.8.8,0,0,1-.467,0ZM317.512,216.473l58.3,545.933,220-153.7Z" transform="translate(-315.509 -212.726)" fill="#bdbdbd"/></g><g transform="translate(-1059.859 508.033)"><path d="M597.115,609.847a.766.766,0,0,1-.667-.367l-280.8-395.5a.867.867,0,0,1,0-.9.967.967,0,0,1,.8-.4l507.6,43.333a.867.867,0,0,1,.7.467.766.766,0,0,1,0,.8L597.715,609.48a.867.867,0,0,1-.667.367ZM318.048,214.48,597.115,607.513l225.5-350Z" transform="translate(-315.522 -212.68)" fill="#bdbdbd"/></g><g transform="translate(-2111.633 473.229)"><path d="M284.69,1105.376h-.3a.867.867,0,0,1-.5-.533L.023,203.376a.867.867,0,0,1,.367-.967.867.867,0,0,1,1.033,0l658.6,682a.867.867,0,0,1,.233.7.933.933,0,0,1-.4.6L285.123,1105.243A1.1,1.1,0,0,1,284.69,1105.376ZM2.723,206.243l282.433,897.033,372.833-218.5Z" transform="translate(0.01 -202.239)" fill="#bdbdbd"/></g><g transform="translate(-2111.499 473.296)"><path d="M659.229,885.763a.833.833,0,0,1-.6-.267L.162,203.663a.833.833,0,0,1,0-.9.767.767,0,0,1,.8-.5L1052.662,237a.767.767,0,0,1,.7.433.934.934,0,0,1,0,.833l-393.433,647.1a.767.767,0,0,1-.6.4ZM2.8,204,659.1,883.563,1051.029,238.6Z" transform="translate(-0.03 -202.259)" fill="#bdbdbd"/></g><g transform="translate(2246.776 -201.002)"><path d="M1965.037,911.438a.8.8,0,0,1-.6-.233L1307.77,270.4a.833.833,0,0,1-.233-.8.767.767,0,0,1,.567-.6L2149.4.072a.833.833,0,0,1,.8,0,.8.8,0,0,1,.267.8L1965.8,910.772a.8.8,0,0,1-.566.633ZM1310,270.072l654.533,638.767L2148.57,2.172Z" transform="translate(-1307.513 0.031)" fill="#bdbdbd"/></g><g transform="translate(1254.231 364.612)"><path d="M1010.584,631.942h-.366a.866.866,0,0,1-.466-.833l27.2-460.633a.984.984,0,0,1,1.4-.7l236.667,215.933a.8.8,0,0,1,0,1.2L1011.184,631.642A.767.767,0,0,1,1010.584,631.942Zm27.933-459.667-27,456.667,261.667-242.7Z" transform="translate(-1009.749 -169.654)" fill="#bdbdbd"/></g><g transform="translate(-779.092 551.289)"><path d="M400.577,579.568a.867.867,0,0,1-.7-.367.933.933,0,0,1,0-.933l226.9-352.233a.833.833,0,0,1,.833-.367.9.9,0,0,1,.7.633l71.567,298.833a.933.933,0,0,1,0,.667.7.7,0,0,1-.533.366L400.844,579.5ZM627.244,228.6,402.211,577.568l295.733-52.9Z" transform="translate(-399.752 -225.657)" fill="#bdbdbd"/></g><g transform="translate(193.36 295.664)"><path d="M723.794,679.405h0a.833.833,0,0,1-.634-.6l-31.633-117.5a.766.766,0,0,1,.2-.8l423.333-411.333a.833.833,0,0,1,1.233,1.1l-391.833,528.8a.767.767,0,0,1-.667.333Zm-30.6-118.067,31.067,115.367,384.667-519.2Z" transform="translate(-691.488 -148.969)" fill="#bdbdbd"/></g><g transform="translate(-1001.101 1058.687)"><path d="M418.584,654.956a.666.666,0,0,1-.367,0,.834.834,0,0,1-.433-.467l-84.6-275.533a.867.867,0,0,1,.233-.867.9.9,0,0,1,.867-.167l412.3,167.033a.833.833,0,0,1,0,1.567L418.85,654.956ZM335.25,380.023l84.067,272.967,324.7-107.333Z" transform="translate(-333.15 -377.876)" fill="#bdbdbd"/></g><g transform="translate(-1001.105 903.552)"><path d="M746.287,655.183h-.333l-412.3-167.267a.9.9,0,0,1-.5-.7.8.8,0,0,1,.367-.767l221.9-155a.933.933,0,0,1,1.2.266l190.367,322.2a.867.867,0,0,1-.7,1.267ZM335.72,486.884l408.567,165.7L555.62,333.283Z" transform="translate(-333.148 -331.336)" fill="#bdbdbd"/></g><g transform="translate(-779.164 850.179)"><path d="M590.928,692.545a.867.867,0,0,1-.733-.433L399.828,369.945a.8.8,0,0,1,0-.767.966.966,0,0,1,.633-.5l298.467-53.333a.794.794,0,0,1,.933,1.033L591.728,691.911a.834.834,0,0,1-.7.6ZM401.862,370.111l188.767,319.5L697.8,317.178Z" transform="translate(-399.731 -315.324)" fill="#bdbdbd"/></g><g transform="translate(397.758 984.586)"><path d="M1006.383,879.859h-.2a.867.867,0,0,1-.533-.433l-252.767-522.6a.833.833,0,0,1,1.033-1.133l639.333,247a.8.8,0,0,1,.533.667.833.833,0,0,1-.333.767L1006.783,879.693a.832.832,0,0,1-.4.167Zm-251.1-522,251.433,520,384.5-274.366Z" transform="translate(-752.807 -355.646)" fill="#bdbdbd"/></g><g transform="translate(397.879 984.433)"><path d="M1392.865,604.267a.5.5,0,0,1-.3,0L753.365,357.2a.8.8,0,0,1-.5-.933.833.833,0,0,1,.833-.667l826.333,23.9a.834.834,0,0,1,.733.467.868.868,0,0,1,0,.9l-187.4,223.1A.834.834,0,0,1,1392.865,604.267ZM758.365,357.4,1392.6,602.434,1578.2,381.1Z" transform="translate(-752.844 -355.6)" fill="#bdbdbd"/></g><g transform="translate(397.596 825.221)"><path d="M1580.229,492.615h0l-826.667-23.9a.834.834,0,0,1-.8-.767.8.8,0,0,1,.667-.867L1610.1,307.849a.833.833,0,0,1,.733.233.766.766,0,0,1,.233.733l-30,183.1a.833.833,0,0,1-.833.7ZM761.663,467.282l817.867,23.633,29.8-181.2Z" transform="translate(-752.759 -307.836)" fill="#bdbdbd"/></g><g transform="translate(224.859 295.644)"><path d="M874.645,839.419a.767.767,0,0,1-.566-.233l-172.934-160.1a.833.833,0,0,1,0-1.1l391.733-528.7a.842.842,0,0,1,1.467.767l-218.9,688.8a.8.8,0,0,1-.6.533Zm-171.8-160.933,171.4,158.6,216.9-682.767Z" transform="translate(-700.938 -148.963)" fill="#bdbdbd"/></g><g transform="translate(1224.248 820.333)"><path d="M1001.573,496.037a.8.8,0,0,1-.433,0,.767.767,0,0,1-.367-.833l30-183.067a.833.833,0,0,1,.8-.7l270.233-5.067h0a.86.86,0,0,1,.433,1.567L1001.906,496.07a1.1,1.1,0,0,1-.333-.034Zm30.833-183.1-29.7,180.567L1298.94,307.937Z" transform="translate(-1000.754 -306.37)" fill="#bdbdbd"/></g><g transform="translate(1524.507 368.28)"><path d="M1091.658,624.308a.833.833,0,0,1-.633-1.367l404.033-451.9a.833.833,0,0,1,1-.2l846.367,425.867a.8.8,0,0,1,.467.9.833.833,0,0,1-.8.667L1091.658,624.308Zm404.233-451.7-402.366,450,1245.166-25.933Z" transform="translate(-1090.832 -170.754)" fill="#bdbdbd"/></g><g transform="translate(1254.232 580.501)"><path d="M1010.584,480.819a.8.8,0,0,1-.766-.533.768.768,0,0,1,.2-.9l263.9-244.733a.833.833,0,0,1,.9-.167.8.8,0,0,1,.5.733l6.4,239.7a1.036,1.036,0,0,1-.233.6.965.965,0,0,1-.6.233Zm263.067-243.7-260.9,242,267.2-5Z" transform="translate(-1009.749 -234.42)" fill="#bdbdbd"/></g><g transform="translate(1518.132 368.307)"><path d="M1096.121,624.288h-.267a.833.833,0,0,1-.534-.767l-6.4-239.667a.8.8,0,0,1,.467-.767l410.4-212.233a.861.861,0,0,1,1.067,1.3L1096.721,624.021a.9.9,0,0,1-.6.267Zm-5.533-240,6.3,237.067,399.633-446.967Z" transform="translate(-1088.919 -170.762)" fill="#bdbdbd"/></g><g transform="translate(352.159 984.449)"><path d="M739.969,959.622a.767.767,0,0,1-.533-.2.734.734,0,0,1-.3-.7L784.7,356.356a.8.8,0,0,1,.667-.733.867.867,0,0,1,.933.433l252.767,522.7a.865.865,0,0,1,0,.7.832.832,0,0,1-.533.467L740.169,959.589Zm46.167-600L740.869,957.689l296.267-79.1Z" transform="translate(-739.128 -355.605)" fill="#bdbdbd"/></g><g transform="translate(1635.961 794.298)"><path d="M1996.074,884.928h0L1125.007,766.861a.8.8,0,0,1-.733-.7.833.833,0,0,1,.5-.867l1139.1-466.667a.767.767,0,0,1,.9.2.834.834,0,0,1,0,.9L1996.707,884.461A.8.8,0,0,1,1996.074,884.928Zm-867.9-119.3,867.4,117.733,266.667-582.4Z" transform="translate(-1124.268 -298.559)" fill="#bdbdbd"/></g><g transform="translate(1037.012 1008.316)"><path d="M1544.238,617.082h0l-598.8-29.533a.8.8,0,0,1-.733-.5.834.834,0,0,1,0-.867l187.067-223.133a.9.9,0,0,1,1.1-.167l411.667,252.633a.867.867,0,0,1,.367.967.834.834,0,0,1-.667.6ZM947.2,585.982l593.833,29.267-408.4-250.567Z" transform="translate(-944.584 -362.765)" fill="#bdbdbd"/></g><g transform="translate(1224.133 820.348)"><path d="M1413.253,748.66a.932.932,0,0,1-.433,0l-411.7-252.633a.841.841,0,0,1,0-1.433L1301.453,306.46a.9.9,0,0,1,.767,0,.866.866,0,0,1,.5.567l111.333,440.8a.8.8,0,0,1-.3.867,1,1,0,0,1-.5-.033Zm-410-253.5,408.8,250.867L1301.387,308.46Z" transform="translate(-1000.72 -306.374)" fill="#bdbdbd"/></g><g transform="translate(1524.475 794.233)"><path d="M1203.014,766.94a.666.666,0,0,1-.366,0,.7.7,0,0,1-.434-.533l-111.367-440.8a.766.766,0,0,1,.167-.7.866.866,0,0,1,.633-.333L2342.081,298.54h0a.833.833,0,0,1,.333,1.6l-1139.1,466.6Zm-110.3-440.8,110.867,438.833,1134.067-464.9Z" transform="translate(-1090.823 -298.54)" fill="#bdbdbd"/></g><g transform="translate(-72.527 984.38)"><path d="M1037.249,959.671a.9.9,0,0,1-.633-.267L611.949,513.271a.867.867,0,0,1-.2-.8.767.767,0,0,1,.534-.567l470.367-156.234a.966.966,0,0,1,.8,0,.9.9,0,0,1,.3.733l-45.7,602.5a.833.833,0,0,1-.533.733ZM613.916,513l422.633,443.967,45.333-599.233Z" transform="translate(-611.722 -355.584)" fill="#bdbdbd"/></g><g transform="translate(-588.708 850.102)"><path d="M457.609,692.6a.866.866,0,0,1-.633-.3.734.734,0,0,1,0-.767l108.067-375.6a.934.934,0,0,1,.533-.533.8.8,0,0,1,.767,0l408.2,290.5a.867.867,0,0,1,.333.867.9.9,0,0,1-.7.634L457.742,692.565ZM566.176,317.632l-107.4,373.333,512.967-84.5Z" transform="translate(-456.868 -315.301)" fill="#bdbdbd"/></g><g transform="translate(-72.471 824.462)"><path d="M612.61,625.58a.883.883,0,0,1-.7-1.4L909.276,307.847a.834.834,0,0,1,1.167,0l172.9,160a.767.767,0,0,1,.233.767.8.8,0,0,1-.533.633L612.776,625.58Zm297.4-315.833L615.476,623.08l465.8-154.733Z" transform="translate(-611.739 -307.609)" fill="#bdbdbd"/></g><g transform="translate(-480.717 706.815)"><path d="M898.382,707.933a.766.766,0,0,1-.467,0l-408.3-290.767a.867.867,0,0,1-.333-.867.834.834,0,0,1,.634-.633l673.933-143.333a.8.8,0,0,1,.834.333.866.866,0,0,1,0,.933l-265.7,433.667a.867.867,0,0,1-.567.4ZM492.115,416.9,898.049,705.8l264.233-431.2Z" transform="translate(-489.265 -272.314)" fill="#bdbdbd"/></g><g transform="translate(-72.425 707.26)"><path d="M612.578,707.621a.767.767,0,0,1-.5,0,.833.833,0,0,1-.2-1.1L877.611,272.855a.8.8,0,0,1,.8-.4.867.867,0,0,1,.7.6l31.633,117.5a.9.9,0,0,1-.2.8l-297.333,316.2A.866.866,0,0,1,612.578,707.621ZM877.911,275.055,617.444,700.188l291.467-310Z" transform="translate(-611.752 -272.448)" fill="#bdbdbd"/></g><g transform="translate(397.745 408.391)"><path d="M753.625,760.5a.833.833,0,0,1-.567-1.433L1393.992,183a.841.841,0,0,1,1.3.233l215.6,416.933a.8.8,0,0,1,0,.767.767.767,0,0,1-.6.433L753.792,760.5Zm640.667-575.533L756.392,758.3l852.5-158.433Z" transform="translate(-752.803 -182.787)" fill="#bdbdbd"/></g><g transform="translate(397.736 295.781)"><path d="M753.631,839.323a.667.667,0,0,1-.433,0,.833.833,0,0,1-.366-.933l218.9-688.8a.867.867,0,0,1,1-.567l422.033,112.633a.8.8,0,0,1,.6.6.865.865,0,0,1-.234.8L754.2,838.99a.9.9,0,0,1-.566.333ZM973.1,150.723l-217.733,685.1,637.5-572.967Z" transform="translate(-752.801 -149.004)" fill="#bdbdbd"/></g><g transform="translate(1038.645 364.756)"><path d="M1161.5,631.841a.8.8,0,0,1-.733-.466l-215.6-416.667a.8.8,0,0,1,0-.733,1.034,1.034,0,0,1,.6-.467l242.833-43.8a.867.867,0,0,1,.7.2.766.766,0,0,1,.267.667l-27.2,460.633a.833.833,0,0,1-.667.767ZM947.162,214.774l213.667,413.333,27-456.667Z" transform="translate(-945.073 -169.697)" fill="#bdbdbd"/></g><g transform="translate(61.644 295.751)"><path d="M784.362,561.878H784.2a.8.8,0,0,1-.6-.467l-131.534-300.7a.733.733,0,0,1,0-.7.766.766,0,0,1,.567-.433l555-110.567a.833.833,0,0,1,.9.433.8.8,0,0,1-.167.967L785.029,561.744A.867.867,0,0,1,784.362,561.878ZM654.1,261.011l130.533,298.6L1205.2,151.078Z" transform="translate(-651.973 -148.995)" fill="#bdbdbd"/></g><g transform="translate(-480.713 545.628)"><path d="M490.079,530.13a.8.8,0,0,1-.733-.467.867.867,0,0,1,.2-1L849.246,224.1a.8.8,0,0,1,.9,0L1164.379,385.53a.8.8,0,0,1,.467.833.9.9,0,0,1-.667.7L490.279,530.4ZM849.879,225.7,493.212,527.8l668.5-142Z" transform="translate(-489.266 -223.958)" fill="#bdbdbd"/></g><g transform="translate(-552.344 545.633)"><path d="M540.221,530.127h-.233a.866.866,0,0,1-.567-.6L467.854,230.76a.833.833,0,0,1,0-.7.867.867,0,0,1,.667-.333l431.233-5.767a.9.9,0,0,1,.8.567.8.8,0,0,1-.233.9l-359.667,304.6A.9.9,0,0,1,540.221,530.127Zm-70.5-298.867,71,296.667L897.587,225.693Z" transform="translate(-467.777 -223.96)" fill="#bdbdbd"/></g><g transform="translate(-121.036 406.393)"><path d="M912.238,484.428a.9.9,0,0,1-.4,0L597.6,322.895a.8.8,0,0,1-.433-.667.833.833,0,0,1,.333-.733l182.8-139.233a.866.866,0,0,1,.7,0,.8.8,0,0,1,.567.467L913.005,483.395a.833.833,0,0,1-.2.933A.934.934,0,0,1,912.238,484.428Zm-312.7-162.4,311,159.733-130-297.533Z" transform="translate(-597.169 -182.188)" fill="#bdbdbd"/></g><path d="M1227.957,240.063a11.633,11.633,0,1,1-11.633-11.633A11.633,11.633,0,0,1,1227.957,240.063Z" transform="translate(699.343 332.103)" fill="#5cc7ff"/></g><path d="M1134.386,261.743a10.5,10.5,0,1,1-3.075-7.458,10.533,10.533,0,0,1,3.075,7.458Z" transform="translate(486.147 385.257)" fill="#ff5284"/><path d="M1119.27,240.79a10.5,10.5,0,1,1-10.5-10.5A10.5,10.5,0,0,1,1119.27,240.79Z" transform="translate(451.03 336.443)" fill="#ff5284"/><path d="M1201.41,291.31a10,10,0,1,1-10-10A10,10,0,0,1,1201.41,291.31Z" transform="translate(645.024 455.49)" fill="#ff5284"/><circle cx="10.2" cy="10.2" r="10.2" transform="translate(1588.733 766.6)" fill="#ff5284"/><circle cx="5.467" cy="5.467" r="5.467" transform="translate(1405.4 689)" fill="#ff5284"/><circle cx="16.567" cy="16.567" r="16.567" transform="translate(919.967 658.467)" fill="#ff5284"/><path d="M1008.767,282.893a5.934,5.934,0,1,1-5.934-5.933,5.934,5.934,0,0,1,5.934,5.933Z" transform="translate(214.5 445.34)" fill="#ff5284"/><path d="M1019.507,309.983a12.833,12.833,0,1,1-12.833-12.833,12.834,12.834,0,0,1,12.833,12.833Z" transform="translate(207.36 492.45)" fill="#ff5284"/><path d="M919.592,192.65a6.667,6.667,0,1,1-6.667-6.5A6.667,6.667,0,0,1,919.592,192.65Z" transform="translate(3.008 233.45)" fill="#ff5284"/><path d="M920.153,301.063a13.067,13.067,0,1,1-13.067-13.033,13.067,13.067,0,0,1,13.067,13.033Z" transform="translate(-25.553 471.17)" fill="#ff5284"/><circle cx="9.233" cy="9.233" r="9.233" transform="translate(610.433 581.467)" fill="#ff5284"/><path d="M841.53,335.96a9.367,9.367,0,1,1-2.732-6.645A9.4,9.4,0,0,1,841.53,335.96Z" transform="translate(-191.897 561.073)" fill="#ff5284"/><circle cx="16.067" cy="16.067" r="16.067" transform="translate(176.5 700.567)" fill="#ff5284"/><path d="M669.474,228.963A13.567,13.567,0,1,1,655.94,215.43,13.567,13.567,0,0,1,669.474,228.963Z" transform="translate(-612.807 301.77)" fill="#ff5284"/><path d="M689.77,205.03a12.9,12.9,0,1,1-12.9-12.9A12.9,12.9,0,0,1,689.77,205.03Z" transform="translate(-562.336 247.403)" fill="#ff5284"/><path d="M1190.107,302.48a4.833,4.833,0,1,1-4.8-4.8A4.834,4.834,0,0,1,1190.107,302.48Z" transform="translate(642.76 493.687)" fill="#5cc7ff"/><path d="M1148.427,333.853a9.633,9.633,0,1,1-9.633-9.633A9.634,9.634,0,0,1,1148.427,333.853Z" transform="translate(523.107 555.613)" fill="#5cc7ff"/><path d="M1080.713,203.423a14.167,14.167,0,1,1-14.167-14.133,14.167,14.167,0,0,1,14.167,14.133Z" transform="translate(343.953 240.777)" fill="#5cc7ff"/><circle cx="7.633" cy="7.633" r="7.633" transform="translate(1391.034 546.033)" fill="#5cc7ff"/><path d="M983.013,195.5a8.467,8.467,0,1,1-8.467-8.467,8.467,8.467,0,0,1,8.467,8.467Z" transform="translate(142.587 235.503)" fill="#5cc7ff"/><circle cx="15.233" cy="15.233" r="15.233" transform="translate(1029.9 467.433)" fill="#5cc7ff"/><path d="M918.617,321.383a11.733,11.733,0,1,1-11.733-11.733A11.733,11.733,0,0,1,918.617,321.383Z" transform="translate(-22.916 521.617)" fill="#5cc7ff"/><circle cx="12.833" cy="12.833" r="12.833" transform="translate(644.233 642.2)" fill="#5cc7ff"/><path d="M882.177,206.493a12.133,12.133,0,1,1-12.133-12.133,12.133,12.133,0,0,1,12.133,12.133Z" transform="translate(-109.81 252.607)" fill="#5cc7ff"/><path d="M781.237,266.9A13.533,13.533,0,1,1,767.9,253.371,13.333,13.333,0,0,1,781.237,266.9Z" transform="translate(-351.87 390.296)" fill="#5cc7ff"/><path d="M797.59,289.43a9.4,9.4,0,1,1-9.4-9.4,9.4,9.4,0,0,1,9.4,9.4Z" transform="translate(-294.423 452.503)" fill="#5cc7ff"/><path d="M688.43,253.617a5.166,5.166,0,1,1-1.525-3.665A5.2,5.2,0,0,1,688.43,253.617Z" transform="translate(-529.53 378.817)" fill="#5cc7ff"/><circle cx="15.9" cy="15.9" r="15.9" transform="translate(135.8 503.067)" fill="#5cc7ff"/><circle cx="11.4" cy="11.4" r="11.4" transform="translate(1741.3 355.333)" fill="#ffb700"/><circle cx="9.133" cy="9.133" r="9.133" transform="translate(1722.467 583.133)" fill="#ffb700"/><circle cx="11.067" cy="11.067" r="11.067" transform="translate(1783.567 645.1)" fill="#ffb700"/><path d="M1171.85,266.27a10,10,0,1,1-10-10,10,10,0,0,1,10,10Z" transform="translate(576.05 397.063)" fill="#ffb700"/><path d="M1109.09,322.71a15.9,15.9,0,1,1-15.9-15.9,15.9,15.9,0,0,1,15.9,15.9Z" transform="translate(402.077 514.99)" fill="#ffb700"/><path d="M1056.643,299.317a13.667,13.667,0,1,1-13.667-13.667A13.667,13.667,0,0,1,1056.643,299.317Z" transform="translate(290.124 465.617)" fill="#ffb700"/><circle cx="14.133" cy="14.133" r="14.133" transform="translate(1314.767 622.133)" fill="#ffb700"/><circle cx="16.1" cy="16.1" r="16.1" transform="translate(1159.633 473.733)" fill="#ffb700"/><path d="M1014.586,181.923a5.533,5.533,0,1,1-5.533-5.533A5.533,5.533,0,0,1,1014.586,181.923Z" transform="translate(229.947 210.677)" fill="#ffb700"/><path d="M937.05,295.8a5,5,0,1,1-4.966-4.967,5,5,0,0,1,4.966,4.967Z" transform="translate(51.516 477.703)" fill="#ffb700"/><path d="M813.73,253.587a11.1,11.1,0,1,1-11.1-11.067,11.1,11.1,0,0,1,11.1,11.067Z" transform="translate(-264.697 364.98)" fill="#ffb700"/><circle cx="10.867" cy="10.867" r="10.867" transform="translate(378.967 855.633)" fill="#ffb700"/><circle cx="8.833" cy="8.833" r="8.833" transform="translate(666.1 573.033)" fill="#ffb700"/><path d="M805.71,217.64a14,14,0,1,1-14-14,14,14,0,0,1,14,14Z" transform="translate(-296.943 274.26)" fill="#ffb700"/><path d="M762.917,181.423a15.033,15.033,0,1,1-15.033-15.033A15.033,15.033,0,0,1,762.917,181.423Z" transform="translate(-401.617 187.343)" fill="#ffb700"/><path d="M839.207,179.083a9.433,9.433,0,1,1-9.433-9.433A9.433,9.433,0,0,1,839.207,179.083Z" transform="translate(-197.473 194.95)" fill="#ffb700"/><path d="M762.816,349.88a15.3,15.3,0,1,1-4.493-10.83A15.333,15.333,0,0,1,762.816,349.88Z" transform="translate(-403.25 579.787)" fill="#ff5284"/></g></svg>