<svg xmlns="http://www.w3.org/2000/svg" width="22.448" height="28.322" viewBox="0 0 22.448 28.322"><g transform="translate(0)"><path d="M184.9,465.044a4.278,4.278,0,0,0,7.832,0Z" transform="translate(-177.596 -439.277)" fill="#fff"/><path d="M199.562,2.706a9.624,9.624,0,0,1,3.286.576V3.155A3.159,3.159,0,0,0,199.694,0h-.261a3.159,3.159,0,0,0-3.155,3.155V3.28A9.642,9.642,0,0,1,199.562,2.706Z" transform="translate(-188.339 0)" fill="#fff"/><path d="M74.608,98.573H53.867a.845.845,0,0,1-.833-.648.806.806,0,0,1,.444-.918,4.4,4.4,0,0,0,1.339-1.821c1.154-2.439,1.4-5.874,1.4-8.326a8.024,8.024,0,0,1,16.048-.032c0,.011,0,.021,0,.032,0,2.452.242,5.887,1.4,8.326A4.4,4.4,0,0,0,75,97.007a.806.806,0,0,1,.444.918A.845.845,0,0,1,74.608,98.573Zm.4-1.56h0Z" transform="translate(-53.013 -74.468)" fill="#fff"/></g></svg>