<svg xmlns="http://www.w3.org/2000/svg" xmlns:xlink="http://www.w3.org/1999/xlink" width="48" height="48" viewBox="0 0 48 48"><defs><clipPath id="a"><rect width="48" height="48" transform="translate(881 2200)" fill="#ff9c2c"/></clipPath></defs><g transform="translate(-881 -2200)" clip-path="url(#a)"><g transform="translate(881 2200)"><path d="M1,0H47a1,1,0,0,1,1,1V47a1,1,0,0,1-1,1H1a1,1,0,0,1-1-1V1A1,1,0,0,1,1,0Z" fill="#90caf9"/><path d="M5,4H43a1,1,0,0,1,1,1V43a1,1,0,0,1-1,1H5a1,1,0,0,1-1-1V5A1,1,0,0,1,5,4Z" fill="#283593"/><path d="M15,34a1,1,0,0,1-1-1V15a1,1,0,0,1,.866-1c2.926-.4,6.91-.434,9.294,1.652A5.492,5.492,0,0,1,26,20a5.838,5.838,0,0,1-2.832,4.944A10.25,10.25,0,0,1,16,26.34V33A1,1,0,0,1,15,34Zm1-9.708a8.232,8.232,0,0,0,6.072-1.018A3.8,3.8,0,0,0,24,20a3.534,3.534,0,0,0-1.156-2.834A9.32,9.32,0,0,0,16,15.89v8.4Z" fill="#90caf9"/><path d="M32.084,34.046a5.915,5.915,0,0,1-3.778-1.328,1,1,0,1,1,1.4-1.438,3.838,3.838,0,0,0,3.358.6c.234-.1.948-.4.948-1.874,0-1.322-.712-1.7-2.462-2.29C30.044,27.2,28,26.512,28,24a3.684,3.684,0,0,1,2.226-3.624,5.46,5.46,0,0,1,5.462.9,1,1,0,1,1-1.374,1.454h0a3.508,3.508,0,0,0-3.3-.514A1.734,1.734,0,0,0,30,24c0,.986.6,1.282,2.178,1.818C33.8,26.364,36,27.112,36,30a3.676,3.676,0,0,1-2.166,3.716A4.482,4.482,0,0,1,32.084,34.046Z" fill="#90caf9"/></g></g></svg>