<svg xmlns="http://www.w3.org/2000/svg" width="123.661" height="123.661" viewBox="0 0 123.661 123.661"><g transform="translate(-1020.05 -396.684)"><g transform="translate(1081.873 396.683) rotate(45)"><g transform="translate(0 0)"><path d="M87.453,71.255l-16.2,16.176S45.632,59.938,43.719,59.938c-1.884,0-27.514,27.493-27.514,27.493L0,71.255S27.522,46,27.522,43.755C27.522,41.472,0,16.212,0,16.212L16.2,0S42.046,27.507,43.719,27.507,71.255,0,71.255,0l16.2,16.212S59.924,41.835,59.924,43.755C59.924,45.581,87.453,71.255,87.453,71.255Z" transform="translate(0)" fill="#acacac"/></g><g transform="translate(0 0)"><path d="M87.453,71.255l-16.2,16.176S45.632,59.938,43.719,59.938c-1.884,0-27.514,27.493-27.514,27.493L0,71.255S27.522,46,27.522,43.755C27.522,41.472,0,16.212,0,16.212L16.2,0S42.046,27.507,43.719,27.507,71.255,0,71.255,0l16.2,16.212S59.924,41.835,59.924,43.755C59.924,45.581,87.453,71.255,87.453,71.255Z" transform="translate(0 0)" fill="#acacac"/></g></g></g></svg>