<svg xmlns="http://www.w3.org/2000/svg" width="780.68" height="913.212" viewBox="0 0 780.68 913.212"><g transform="translate(-0.025 -0.007)"><g transform="translate(0.025 0.007)"><path d="M190.919,352.962a15.107,15.107,0,1,1-.958-30.2,152.553,152.553,0,0,0,42.26-11.168,182.287,182.287,0,0,0,79.3-62.25A15.108,15.108,0,0,1,335.9,267.187c-58.186,79.53-140.425,85.544-143.895,85.742Z" transform="translate(403.904 560.242)" fill="#74818e"/><path d="M2.506,204.791a15.108,15.108,0,1,1,30.2-.991,154.336,154.336,0,0,0,11.1,42.293,182.222,182.222,0,0,0,62.283,79.3,15.132,15.132,0,1,1-17.877,24.419C8.751,291.425,2.77,209.219,2.539,205.716,2.539,205.419,2.506,205.089,2.506,204.791Z" transform="translate(5.671 435.889)" fill="#74818e"/><path d="M262.279,39.908a15.133,15.133,0,0,1-19.494,23.129,153.675,153.675,0,0,0-38.89-19.99A182.354,182.354,0,0,0,103.45,36.439,15.189,15.189,0,0,1,97.239,6.7c96.48-20.155,161.6,30.431,164.314,32.612Z" transform="translate(196.117 4.511)" fill="#74818e"/><path d="M25.87,221.956l87.1-45.7,32.777,86.3-86.3,30.431Z" transform="translate(59.524 406.103)" fill="#fda080"/><path d="M34.35,226.059s27.391-5.617,39.055,0,21.609,40.31,21.609,40.31l57.459,4.1L100.5,172.83,46.641,198.338Z" transform="translate(79.063 398.199)" fill="#f4907c"/><path d="M76.533,289.518A87.262,87.262,0,0,0,31.7,404.535L179.523,741.191a87.3,87.3,0,0,0,115.05,44.837l430.2-188.9V5Z" transform="translate(55.911 11.499)" fill="#d4d2d1"/><circle cx="29.374" cy="29.374" r="29.374" transform="matrix(0.229, -0.973, 0.973, 0.229, 677.095, 588.693)" fill="gray" opacity="0.4"/><circle cx="29.374" cy="29.374" r="29.374" transform="matrix(0.229, -0.973, 0.973, 0.229, 561.195, 201.65)" fill="gray" opacity="0.4"/><circle cx="29.374" cy="29.374" r="29.374" transform="matrix(0.231, -0.973, 0.973, 0.231, 144.385, 422.256)" fill="gray" opacity="0.4"/><g transform="translate(129.702 502.205)" opacity="0.4"><path d="M230.137,177.78l-28.019,28.68L84.524,308.524l-18.4-4.262,17.049,38.823a82.828,82.828,0,0,0,5.419,10.342c13.943-3.767,31.323-9.351,38.856-15.3,13.547-10.705,75.3-97.34,75.3-97.34s18.272-11.333,20.717-17.479,7-33.041,8.888-37.337a7.9,7.9,0,0,0-2.214-8.194Z" transform="translate(22.563 -92.6)" fill="gray"/><path d="M185.52,221.387c6.311-.628,11-9.45,11-9.45l9.912-4.428,1.256-9.747-16.355-6.906L99.448,164.424,42.221,152l-2.941,9.912L56,199.91l95.82,18.933S179.21,222.08,185.52,221.387Z" transform="translate(-39.28 -152)" fill="gray"/></g><path d="M294.759,174.066l6.377,59.474L335,288.323l51.61,52.436L173.1,434.133,160.479,331.21,148.32,276.428l-33.9-58.086L291.455,141.19a10.277,10.277,0,0,1,1.355,3.833C292.909,146.807,294.759,174.066,294.759,174.066Z" transform="translate(263.554 325.297)" fill="gray" opacity="0.4"/><rect width="177.332" height="121.096" rx="1.82" transform="translate(398.327 570.779) rotate(-23.36)" fill="#e5e5e5"/><rect width="140.69" height="75.301" rx="1.48" transform="translate(416.979 567.709) rotate(-23.36)" fill="#666"/><rect width="32.281" height="28.448" rx="1.53" transform="translate(498.624 620.115) rotate(-23.36)" fill="#cbcbcb"/><path d="M286.654,141.145l-84.817,36.709-84.784,36.61a4.461,4.461,0,0,0-1.487,7.137l20.618,21.972a3.3,3.3,0,0,0,3.668.76l76.457-33.041,76.457-33.041a3.3,3.3,0,0,0,1.949-3.3l-1.883-30.068a4.428,4.428,0,0,0-6.179-3.734Z" transform="translate(263.431 324.35)" fill="#fff"/><path d="M293.976,172.647l-1.85-29.737a4.494,4.494,0,0,0-4.824-.694l-84.949,36.577-84.784,36.643a4.461,4.461,0,0,0-2.809,3.965l20.519,21.873a3.3,3.3,0,0,0,3.668.76L215.4,208.992l76.457-33.041a3.3,3.3,0,0,0,2.115-3.3Z" transform="translate(264.337 326.716)" fill="gray"/><path d="M279.664,169.5l-.562-24.682a4.163,4.163,0,0,0-4.3-.4l-77.25,33.372-77.283,33.372a4.13,4.13,0,0,0-2.643,3.3l17.743,17.413a3.007,3.007,0,0,0,3.3.5l69.387-30.1,69.651-30.067A2.974,2.974,0,0,0,279.664,169.5Z" transform="translate(270.95 331.779)" fill="#a5b4c2"/><path d="M181.109,281.809l-6.873-33.041s6.608-20.981,5.98-24.979-7.566-29.076-7.566-29.076-4.791-.5-5.815,2.049,0,14.836,0,14.836a32.315,32.315,0,0,1-4.56-6.179c-.793-1.718-2.445-18.933-3.3-27.193a4.824,4.824,0,0,0-4.824-4.394h0a4.824,4.824,0,0,0-4.791,4.229l-1.024,9.549L140.2,189.26l-3.833,8.888-8.591,18.371,5.419,20.717,12.093,15.992,2.544,28.448Z" transform="translate(294.337 400.504)" fill="#eac9b8"/><path d="M229.659,252.619,206.828,227.64s-20.783-7.038-23.724-9.912S163.973,194.6,163.973,194.6s2.412-4.163,5.055-3.5,12.027,8.657,12.027,8.657a34.327,34.327,0,0,0-2.313-7.3c-.958-1.652-13.943-13.216-20.188-18.536a4.791,4.791,0,0,1-.76-6.443h0a4.857,4.857,0,0,1,6.245-1.421l8.591,4.659,6.08-5.65,9.483,2.148,19.825,3.8,13.613,16.521,5.881,19.164,21.576,18.734Z" transform="translate(361.398 380.296)" fill="#eac9b8"/><rect width="148.256" height="106.261" transform="translate(206.585 553.943) rotate(-19.6)" fill="#fff"/><rect width="144.456" height="98.364" transform="translate(206.58 553.94) rotate(-19.6)" fill="#c4ccd7"/><rect width="148.256" height="106.261" transform="translate(199.229 546.526) rotate(-19.6)" fill="#fff"/><path d="M74.351,155.8l17.479,7.269s19.825-4.2,26.433-1.685A258.568,258.568,0,0,1,146.645,177.9a23.129,23.129,0,0,1,5.287,9.912,12.787,12.787,0,0,1-8.69,8.293c-4.56.43-25.607,1.057-25.607,1.057a79.765,79.765,0,0,1,6.245,5.881,6.608,6.608,0,0,1,.363,5.452c-.727.628-16.917-6.278-21.543-7.765a45.4,45.4,0,0,1-12.853-8.822c-1.223-1.256-5.518-6.08-5.518-6.08L65,178Z" transform="translate(149.684 358.96)" fill="#fad1b1"/><path d="M114.007,252.82l12.126-14.505s19.825-5.419,24.384-10.672,3.3-13.58,4.361-15.86-.562-16.983.463-18.041c3.635-3.866,8.723-7.633,11.73-10.937,5.287-5.815,1.52-8.459-1.156-7.368-4.262,1.718-32.38,20.816-32.38,20.816a76.3,76.3,0,0,0,2.842-8.1c.231-1.52-1.256-4.791-2.181-5.022s-12.159,13.216-15.6,16.785a46.028,46.028,0,0,0-7.368,13.712c-.529,1.685-2.115,7.93-2.115,7.93L95.57,237.324Z" transform="translate(220.121 403.654)" fill="#fad1b1"/><rect width="141.714" height="95.06" rx="3.81" transform="matrix(0.949, -0.316, 0.316, 0.949, 314.282, 339.194)" fill="#647889"/><path d="M248.474,186.067,137.918,222.875a15.827,15.827,0,0,1-19.825-9.912L96.022,146.682a15.794,15.794,0,0,1,9.912-19.825L216.49,90.049a15.761,15.761,0,0,1,19.99,9.912l22.072,66.281A15.794,15.794,0,0,1,248.474,186.067ZM112.807,131.053a9.384,9.384,0,0,0-5.914,11.862L128.964,209.2a9.384,9.384,0,0,0,11.829,5.947l105.732-35.189a9.351,9.351,0,0,0,5.914-11.862L230.3,101.713A9.351,9.351,0,0,0,218.473,95.8Z" transform="translate(219.372 205.549)" fill="#f8fbfc"/><path d="M107.13,117.467a3.932,3.932,0,1,1-4.956-2.478,3.932,3.932,0,0,1,4.956,2.478Z" transform="translate(229.113 264.468)" fill="#d4d2d1"/><path d="M71.01,146.009,175.321,295.85l47.018-11.895-13.249-31.488-27.16-7.666-31.918-57.459L313.7,127.638l2.511-25.97L294.666,47.81Z" transform="translate(163.532 110.138)" fill="gray" opacity="0.4"/><path d="M132.786,121.28l-21.609-9.912a2.61,2.61,0,0,0-3.106.76l-.2.3a2.544,2.544,0,0,0,.991,3.866l21.84,9.648a2.551,2.551,0,1,0,2.082-4.659Z" transform="translate(247.27 256.062)" fill="#fdf5ea"/><path d="M140.17,72a55.64,55.64,0,0,1-12.324,3.3c-5.947.76-13.514-2.511-18.569-1.718S91.666,83.2,91.666,83.2l-4.89,11.928L84,114.326l21.642,8.822s5.551,2.478,14.6-2.346a205.784,205.784,0,0,0,25.31-18.867l10.9-5.683Z" transform="translate(193.463 165.875)" fill="#eac9b8"/><path d="M133.335,113.733l14.736,5.121s7.732,8.293,9.152,10.573,0,9.119,0,9.119,5.121,5.121,4.824,9.912-8,11.4-17.677,11.7-19.825,1.421-22.237,0-13.216-23.129-13.216-23.129l-15.4-21.245,29.935-14.571Z" transform="translate(215.398 233.178)" fill="#eac9b8"/><path d="M11.785,333.994s-4.824-50.454,6.608-66.082S91.811,143.148,97.031,138.852s115.017,56.17,115.017,56.17-12.324,28.878-13.613,29.44-82.6-29.01-82.6-29.01l-14.175,45.465,21.047-8.128,18.9,42.954s-22.4,14.076-60.432,32.843a328.033,328.033,0,0,1-69.387,25.409Z" transform="translate(24.741 319.407)" fill="#0bbee3"/><path d="M23.892,297.387c-.5,1.289,54.617,41.83,75.995,34.528S204,304.061,215.267,296.065s73.318-81.777,73.318-81.777L268.761,190.3l-65.356,59.243-45.2,14.009-21.345-48.6S45.237,242.6,23.892,297.387Z" transform="translate(54.96 438.452)" fill="#0bbee3"/><path d="M130.94,254.649l48.868-6.608,18.437,66.743,124.9-54.848-43.317-42.59L309.561,181l96.018,78.836s28.118,83.033,27.391,92.185S398.9,430.957,348.351,454.449,229.4,447.511,220.217,445.4s-63.109-70.675-64.1-72.955S130.94,254.649,130.94,254.649Z" transform="translate(301.618 417.024)" fill="#ff9c2c"/><path d="M331.792,177.923c-6.212-33.041-9.02-107.417-15.232-117.957-8.1-13.811-26.8-33.041-56.335-44.672,0,0-126.25-10.9-155.294,6.906S65.281,196.36,65.513,203.464s97.439,130.81,97.439,130.81l30.86-24.186L131.43,207.66,270.2,146.8l2.478,17.281-97.009,44.606,19.2,34.33L318.807,200.06a19.593,19.593,0,0,0,12.985-22.138Z" transform="translate(150.857 27.605)" fill="#ff9c2c"/><path d="M177.1,187.714l-11.7,2.511L65.78,70.55l96.48,128.795Z" transform="translate(151.482 162.534)" fill="#ea7f13"/><path d="M246.508,64.11a36.94,36.94,0,0,1-15,11.8c-9.152,3.3-116.272,36.345-116.272,36.345l-12.655-1.52,6.873,12.324L233.39,80.1A19.626,19.626,0,0,0,246.508,64.11Z" transform="translate(236.273 147.695)" fill="#ea7f13"/><path d="M85.44,175.372,105.265,28.6s57.128-5.881,73.087,0,39.815,16.521,39.815,16.521l5.848,69.387Z" transform="translate(196.781 59.86)" fill="#ea7f13"/><path d="M80.27,18.27S110.437,55.243,111.1,91.555s12.424,21.212,12.424,21.212l-6.311-66.38S101.681,24.977,80.27,18.27Z" transform="translate(184.868 42.074)" fill="#ea7f13"/><path d="M139.993,76.788S133.384,37.8,152.218,18.9a60.1,60.1,0,0,0-31.059,37.8C114.055,83.991,139.993,76.788,139.993,76.788Z" transform="translate(276.243 43.526)" fill="#ea7f13"/><path d="M180.058,42.952c.991-.363-.76,26.6-.76,26.6l-8.855,13.745S149.891,98,146.025,99.816s-26.433,2.115-26.433,2.115-6.608,3.3-9.912,1.751-6.608-12.622-6.608-12.622S90.648,84.451,91.078,58.613,124.119,21.64,124.119,21.64Z" transform="translate(209.745 49.839)" fill="#eac9b8"/><path d="M103.067,14.2s-7.633-3.106-11.994,2.709,3.007,16.521,3.007,16.521Z" transform="translate(206.578 30.782)" fill="#eac9b8"/><path d="M134.57,28.47s5.683,1.586,5.716,6.344-10.9,16.521-18.536,15.562S134.57,28.47,134.57,28.47Z" transform="translate(276.512 65.576)" fill="#eac9b8"/><path d="M90.391,100.364s-4.3-46.555,10.9-68.693S133.113,5.734,133.113,5.734a42.954,42.954,0,0,1,35.651-3.3,74.508,74.508,0,0,1,43.548,44.9c6.377,19.461-2.809,47.679-13.58,61.391a144.523,144.523,0,0,1-25.607,24.417s6.146-18.041-1.024-19.164c0,0-28.812,21.873-48.075,20.651s-22.931-5.121-22.931-5.121,23.492-5.617,33.306-13.712c0,0-27.424,8.161-39.947,7.9l9.152-11.7L97.23,115.1a23.129,23.129,0,0,1-6.839-14.736Z" transform="translate(206.897 -0.007)" fill="#393f4b"/><path d="M143.935,258.411s2.577,10.375-2.049,17.677-13.448,8.789-19.3,16.95-17.413,24.285-33.6,24.649-28.349-16.521-37.8-20.221-33.6,3.3-41.169-11.961,10.276-40.542-1.454-53.56-9.912-28.647-3.3-36.114c10.871-12.159,25.21-13.216,41.8-3.9s26.036,2.412,33.57,0,20.386-3.3,25.21-1.289,8.1,10.606,8.1,10.606Z" transform="translate(-0.025 427.9)" fill="#11114e"/><path d="M68.316,167.13l-21.047,8.128L34.35,208s20.486-2.842,25.21,0a56.169,56.169,0,0,1,9.912,12.523c11.465-6.443,17.71-10.375,17.71-10.375Z" transform="translate(79.063 385.066)" fill="#00aac1"/><path d="M75.891,197.76s-5.617,1.685-14.439,5.088c3.833,8.789,9.45,23.658,8.161,32.546C67.73,248.611,50.35,258.523,50.35,258.523L97.236,246.2Z" transform="translate(115.929 455.641)" fill="#00aac1"/><path d="M171.931,278.386s-8.359-22.7,0-36.048c9.912-15.562,37.171-25.739,54.419-19.1,25.277,9.747,23.492,17.908,23.492,17.908Z" transform="translate(387.506 509.592)" fill="#fad1b1"/><path d="M265.543,239.03s-18.272-19.825-45.432-15.364-33.206,9.912-33.206,9.912l7.071-.2-12.622,9.648s-14.968,24.451-14.538,41.8a53.428,53.428,0,0,0,8.591,28.449s3.3,17.016,11.234,24.285,27.391,15.034,41.962,13.514a74.08,74.08,0,0,0,27.325-9.219,33.933,33.933,0,0,0,21.642-11.895,35.717,35.717,0,0,0,8.591-23.129s8.822-10.937,9.284-17.38-4.461-22.765-4.461-22.765S284.773,240.021,265.543,239.03Z" transform="translate(384.261 513.825)" fill="#6f251e"/><path d="M151.31,259.617l7.6,31.224,20.783,24.814s5.683-34.792,32.744-57.194,74.343-16.752,81.281-16.521S327.089,273.2,327.089,273.2l-14.472-38.46L276.272,205Z" transform="translate(348.553 472.323)" fill="#ea7f13"/><path d="M360.582,239s-51.181,65.653-98.463,78.7c-41.368,11.4-91.623-1.685-103.419-5.121,15.529,5.154,78.374,30.266,125.557,8.293C320.338,304.091,347.6,263.913,360.582,239Z" transform="translate(365.581 550.663)" fill="#ea7f13"/><path d="M131.123,120.354l-24.054-11.036a2.875,2.875,0,0,0-3.3.892l-.231.3a2.842,2.842,0,0,0,1.123,4.3l24.252,10.738a2.847,2.847,0,0,0,2.346-5.187Z" transform="translate(237.17 251.403)" fill="#fdf5ea"/><rect width="148.256" height="106.261" transform="translate(534.755 341.294)" fill="#fff"/><rect width="144.456" height="98.364" transform="translate(534.755 341.294)" fill="#c4ccd7"/><rect width="148.256" height="106.261" transform="translate(530.327 331.844)" fill="#fff"/><rect width="148.256" height="106.261" transform="translate(546.393 245.091) rotate(-8.77)" fill="#fff"/><rect width="144.456" height="98.364" transform="translate(546.384 245.112) rotate(-8.77)" fill="#c4ccd7"/><rect width="148.256" height="106.261" transform="translate(540.576 236.398) rotate(-8.77)" fill="#fff"/><path d="M44.586,135.922a4.427,4.427,0,0,0,6.113,1.421l15.364-9.516-4.692-7.566L46.04,129.809a4.461,4.461,0,0,0-1.454,6.113Z" transform="translate(101.141 277.072)" fill="#f16a44"/><circle cx="27.325" cy="27.325" r="27.325" transform="translate(142.783 390.728) rotate(-45)" fill="#f16a44"/><path d="M47.31,132.068a24.384,24.384,0,0,1,2.181-7.434,26.433,26.433,0,0,1,4.461-6.608,25.871,25.871,0,0,1,13.712-7.434l1.982-.264h1.982a4.991,4.991,0,0,1,.991,0h.991a8.042,8.042,0,0,1,1.982.165A25.31,25.31,0,0,1,89.636,117.1a25.012,25.012,0,0,1,4.725,6.146,26.9,26.9,0,0,0-11.73-9.516,26,26,0,0,0-14.769-1.619,26.433,26.433,0,0,0-13.217,6.84,27.094,27.094,0,0,0-7.335,13.117Z" transform="translate(108.924 254.129)" fill="#f8fbfc"/><circle cx="22.072" cy="22.072" r="22.072" transform="translate(159.34 368.652)" fill="#93603d"/><path d="M48.52,133.347a22.072,22.072,0,0,0,42.954-3.3,22.072,22.072,0,0,0-42.954,3.3Z" transform="translate(111.712 263.621)" fill="#a4704c"/><g transform="translate(163.133 376.04)" opacity="0.5"><path d="M72.592,115.5a.363.363,0,1,0-.595.363,17.545,17.545,0,0,1-14.8,26.9,15.73,15.73,0,0,1-2.775-.231.363.363,0,1,0,0,.694,16.851,16.851,0,0,0,2.875.231,18.206,18.206,0,0,0,15.4-27.953Z" transform="translate(-38.916 -110.562)" fill="#f8fbfc"/><path d="M57.434,114.424a.351.351,0,1,0-.5-.5A18.206,18.206,0,0,0,54.1,140.89a.363.363,0,0,0,.231,0h.264a.4.4,0,0,0,0-.529,17.512,17.512,0,0,1,2.775-25.9Z" transform="translate(-49.398 -113.816)" fill="#f8fbfc"/><path d="M63.38,115.34a14.469,14.469,0,0,1,1.685,0,.363.363,0,0,0,0-.694,10.537,10.537,0,0,0-1.784,0,12.027,12.027,0,0,0-11.994,12.027,14.964,14.964,0,0,0,0,1.718.363.363,0,0,0,.363.3h0a.4.4,0,0,0,.3-.4,8.923,8.923,0,0,1,0-1.619A11.333,11.333,0,0,1,63.38,115.34Z" transform="translate(-45.101 -111.99)" fill="#f8fbfc"/><path d="M69.949,121.214a.363.363,0,1,0-.5-.5,11.432,11.432,0,0,1-8.293,3.6,11.3,11.3,0,0,1-8.326-3.668.363.363,0,0,0-.529.5,12.192,12.192,0,0,0,8.855,3.866,12.027,12.027,0,0,0,8.789-3.8Z" transform="translate(-42.882 -98.336)" fill="#f8fbfc"/><path d="M56.761,115.7a11.3,11.3,0,0,1,6.212,10.111v.859a.33.33,0,0,0,.3.363h0a.363.363,0,0,0,.363-.33q0-.446,0-.892a11.994,11.994,0,0,0-6.608-10.738.363.363,0,0,0-.463,0,.33.33,0,0,0,.2.628Z" transform="translate(-33.361 -111.123)" fill="#f8fbfc"/><path d="M55.092,124.625a9.251,9.251,0,0,0,8-4.527.327.327,0,1,0-.463-.463,8.591,8.591,0,0,1-7.4,4.2.3.3,0,0,0-.33.33.33.33,0,0,0,.2.463Z" transform="translate(-36.813 -100.624)" fill="#f8fbfc"/><path d="M66.723,118.639a.363.363,0,1,0,.5-.5,9.384,9.384,0,0,0-14.67,1.916.363.363,0,0,0,0,.463h.2a.363.363,0,0,0,.3-.2,8.657,8.657,0,0,1,13.547-1.751Z" transform="translate(-42.331 -110.069)" fill="#f8fbfc"/></g><path d="M202.422,43.761a4.46,4.46,0,0,0-6.278,0L183.39,56.547l6.278,6.278,12.754-12.787a4.395,4.395,0,0,0,0-6.278Z" transform="translate(422.469 97.832)" fill="#f16a44"/><circle cx="27.325" cy="27.325" r="27.325" transform="matrix(0.231, -0.973, 0.973, 0.231, 561.546, 192.541)" fill="#f16a44"/><path d="M172.31,65.849a24.978,24.978,0,0,1,6.608-13.91A25.97,25.97,0,0,1,192.663,44.5l1.949-.264h5.947a25.31,25.31,0,0,1,14.076,6.608,25.835,25.835,0,0,1,4.725,6.146A27.16,27.16,0,0,0,207.7,47.412a25.871,25.871,0,0,0-27.986,5.221,27.391,27.391,0,0,0-7.4,13.216Z" transform="translate(396.94 101.912)" fill="#f8fbfc"/><circle cx="22.072" cy="22.072" r="22.072" transform="translate(572.389 150.183)" fill="#93603d"/><path d="M173.53,67.2a22.072,22.072,0,0,0,42.954-3.3,22.072,22.072,0,0,0-42.954,3.3Z" transform="translate(399.751 111.203)" fill="#a4704c"/><g transform="translate(576.128 157.487)" opacity="0.5"><path d="M197.5,49.258a.363.363,0,0,0-.5,0,.33.33,0,0,0,0,.5,17.512,17.512,0,0,1-14.8,26.863,18.931,18.931,0,0,1-2.775-.2.353.353,0,1,0-.132.694,21.142,21.142,0,0,0,2.908.231,18.272,18.272,0,0,0,15.4-27.986Z" transform="translate(-163.776 -44.237)" fill="#f8fbfc"/><path d="M182.448,48.264a.35.35,0,1,0-.5-.5,18.206,18.206,0,0,0-2.875,26.962.3.3,0,0,0,.264,0,.273.273,0,0,0,.231-.5,17.512,17.512,0,0,1,2.742-25.9Z" transform="translate(-174.392 -47.67)" fill="#f8fbfc"/><path d="M188.353,49.23a9.649,9.649,0,0,1,1.685,0,.363.363,0,0,0,.4-.3.4.4,0,0,0-.3-.4,10.807,10.807,0,0,0-1.784,0A12.027,12.027,0,0,0,176.326,60.53a10.172,10.172,0,0,0,0,1.751.363.363,0,0,0,.33.3h0a.33.33,0,0,0,.3-.4,13.215,13.215,0,0,1,0-1.652,11.333,11.333,0,0,1,11.4-11.3Z" transform="translate(-170.022 -45.762)" fill="#f8fbfc"/><path d="M194.88,55.044a.364.364,0,0,0,0-.5.33.33,0,0,0-.5,0,11.333,11.333,0,0,1-16.521,0,.33.33,0,0,0-.5,0,.363.363,0,0,0,0,.5,11.994,11.994,0,0,0,17.644,0Z" transform="translate(-167.759 -32.082)" fill="#f8fbfc"/><path d="M181.618,49.646a11.3,11.3,0,0,1,6.179,9.912,8.033,8.033,0,0,1,0,.892.4.4,0,0,0,.331.363h0a.33.33,0,0,0,.33-.33,8.361,8.361,0,0,0,0-.925,11.994,11.994,0,0,0-6.608-10.705.363.363,0,0,0-.3.628Z" transform="translate(-158.165 -44.955)" fill="#f8fbfc"/><path d="M180.144,58.547a9.252,9.252,0,0,0,7.963-4.494.35.35,0,1,0-.5-.5,8.558,8.558,0,0,1-7.368,4.163.363.363,0,0,0-.363.363.33.33,0,0,0,.264.463Z" transform="translate(-161.812 -34.33)" fill="#f8fbfc"/><path d="M191.733,52.558a.363.363,0,1,0,.5-.5,9.285,9.285,0,0,0-6.608-2.742,9.384,9.384,0,0,0-8.062,4.626.363.363,0,0,0,0,.5h.165a.363.363,0,0,0,.3-.165,8.591,8.591,0,0,1,13.547-1.751Z" transform="translate(-167.321 -43.87)" fill="#f8fbfc"/></g><path d="M232.926,194.138a4.394,4.394,0,0,0,1.355-6.113L224.6,172.76l-7.6,4.758,9.714,15.265a4.395,4.395,0,0,0,6.212,1.355Z" transform="translate(499.911 398.038)" fill="#f16a44"/><circle cx="27.325" cy="27.325" r="27.325" transform="matrix(0.231, -0.973, 0.973, 0.231, 677.418, 574.789)" fill="#f16a44"/><path d="M207.38,181.671a25.9,25.9,0,0,1,2.214-7.467,25.146,25.146,0,0,1,4.428-6.608,25.97,25.97,0,0,1,13.745-7.434l1.982-.264a19.347,19.347,0,0,1,1.949,0h1.982a19.234,19.234,0,0,1,1.982.165,25.309,25.309,0,0,1,14.076,6.608,25.837,25.837,0,0,1,4.725,6.146,27.16,27.16,0,0,0-11.664-9.582,25.871,25.871,0,0,0-27.986,5.22A27.523,27.523,0,0,0,207.38,181.671Z" transform="translate(477.745 368.344)" fill="#f8fbfc"/><circle cx="22.072" cy="22.072" r="22.072" transform="translate(688.264 532.437)" fill="#93603d"/><path d="M208.6,182.927a22.072,22.072,0,0,0,42.954-3.3,22.072,22.072,0,0,0-42.954,3.3Z" transform="translate(480.556 377.859)" fill="#a4704c"/><g transform="translate(692.004 539.741)" opacity="0.5"><path d="M232.573,164.948a.35.35,0,1,0-.5.5,17.512,17.512,0,0,1-14.8,26.863,19.267,19.267,0,0,1-2.776-.2.363.363,0,0,0-.43.3.4.4,0,0,0,.3.4,21.159,21.159,0,0,0,2.908.231,18.272,18.272,0,0,0,15.4-27.986Z" transform="translate(-198.844 -159.927)" fill="#f8fbfc"/><path d="M217.518,163.921a.33.33,0,0,0,0-.463.363.363,0,0,0-.5,0,18.206,18.206,0,0,0-2.875,26.962.33.33,0,0,0,.5,0,.363.363,0,0,0,0-.5,17.381,17.381,0,0,1-4.494-11.73,17.677,17.677,0,0,1,7.368-14.274Z" transform="translate(-209.462 -163.361)" fill="#f8fbfc"/><path d="M223.482,164.92a9.648,9.648,0,0,1,1.685,0,.363.363,0,0,0,0-.694,10.807,10.807,0,0,0-1.784,0,12.027,12.027,0,0,0-12.027,11.994,10.176,10.176,0,0,0,0,1.751.363.363,0,0,0,.33.3h0a.33.33,0,0,0,.3-.4,13.21,13.21,0,0,1,0-1.652,11.333,11.333,0,0,1,11.5-11.3Z" transform="translate(-205.184 -161.452)" fill="#f8fbfc"/><path d="M229.931,170.734a.364.364,0,0,0,0-.5.33.33,0,0,0-.5,0,11.267,11.267,0,0,1-16.521,0,.363.363,0,0,0-.529.463,11.994,11.994,0,0,0,17.644,0Z" transform="translate(-202.81 -147.772)" fill="#f8fbfc"/><path d="M216.8,165.284a11.3,11.3,0,0,1,6.179,10.078,7.207,7.207,0,0,1,0,.859.4.4,0,0,0,.331.4h0a.33.33,0,0,0,.33-.33,8.338,8.338,0,0,0,0-.925,11.961,11.961,0,0,0-6.608-10.705.33.33,0,0,0-.463,0,.363.363,0,0,0,.231.628Z" transform="translate(-193.348 -160.593)" fill="#f8fbfc"/><path d="M215.2,174.2a9.218,9.218,0,0,0,7.963-4.494.33.33,0,0,0,0-.5.364.364,0,0,0-.5,0,8.525,8.525,0,0,1-7.368,4.163.364.364,0,0,0-.364.364.331.331,0,0,0,.264.463Z" transform="translate(-196.905 -150.112)" fill="#f8fbfc"/><path d="M226.8,168.258a.363.363,0,1,0,.5-.5,9.285,9.285,0,0,0-6.608-2.742,9.384,9.384,0,0,0-8.062,4.626.363.363,0,0,0,0,.5h0a.364.364,0,0,0,.3,0,8.591,8.591,0,0,1,13.547-1.751Z" transform="translate(-202.391 -159.537)" fill="#f8fbfc"/></g><path d="M86.849,217.552c-.628-1.487-4.262-2.082-7.831-2.313-13.58-25.177-47.976-26.07-47.976-26.07s-2.742,10.8,11.895,28.68,14.571,53.362,14.571,53.362a65.093,65.093,0,0,0,15.529-12.688c6.608-7.17,12.919-17.71,10.177-31.621C85.395,223.269,87.543,219.105,86.849,217.552Z" transform="translate(70.972 435.849)" fill="#fad1b1"/><path d="M189.268,216.788l-3.3-12.357a6.608,6.608,0,0,0-7.137-4.758l-42.954,5.485a6.608,6.608,0,0,0-5.551,8l3.3,13.382a6.608,6.608,0,0,0,7.335,4.923l43.152-6.443a6.608,6.608,0,0,0,5.154-8.227Z" transform="translate(299.824 459.94)" fill="#f9e1df"/><path d="M173.283,219.3l9.912,8.029a6.608,6.608,0,0,0,8.558-.33l31.587-29.539a6.608,6.608,0,0,0-.2-9.747l-10.408-8.954a6.608,6.608,0,0,0-8.855.264l-31.092,30.6a6.608,6.608,0,0,0,.5,9.681Z" transform="translate(393.72 408.23)" fill="#f9e1df"/></g></g></svg>