<svg xmlns="http://www.w3.org/2000/svg" width="22.836" height="27.372" viewBox="0 0 22.836 27.372"><g transform="translate(0 0)"><path d="M93.624,13.185a6.379,6.379,0,0,0,4.661-1.931,6.379,6.379,0,0,0,1.931-4.661,6.38,6.38,0,0,0-1.931-4.661,6.591,6.591,0,0,0-9.323,0,6.379,6.379,0,0,0-1.931,4.661,6.379,6.379,0,0,0,1.932,4.661A6.38,6.38,0,0,0,93.624,13.185Zm0,0" transform="translate(-82.379)" fill="#fff"/><path d="M22.781,255.142a16.286,16.286,0,0,0-.222-1.73,13.626,13.626,0,0,0-.425-1.739,8.589,8.589,0,0,0-.715-1.622,6.119,6.119,0,0,0-1.078-1.4,4.752,4.752,0,0,0-1.548-.973,5.351,5.351,0,0,0-1.977-.358,2.007,2.007,0,0,0-1.071.454c-.321.209-.7.452-1.116.72a6.4,6.4,0,0,1-1.444.636,5.608,5.608,0,0,1-3.533,0,6.381,6.381,0,0,1-1.443-.636c-.415-.265-.791-.508-1.117-.72a2,2,0,0,0-1.071-.454,5.344,5.344,0,0,0-1.977.358,4.749,4.749,0,0,0-1.549.973,6.121,6.121,0,0,0-1.078,1.4A8.607,8.607,0,0,0,.7,251.674a13.66,13.66,0,0,0-.425,1.739,16.226,16.226,0,0,0-.222,1.73C.018,255.666,0,256.21,0,256.759A4.545,4.545,0,0,0,1.35,260.2a4.859,4.859,0,0,0,3.478,1.269h13.18a4.858,4.858,0,0,0,3.478-1.269,4.543,4.543,0,0,0,1.35-3.439c0-.552-.019-1.1-.055-1.617Zm0,0" transform="translate(0 -234.095)" fill="#fff"/></g></svg>