<svg xmlns="http://www.w3.org/2000/svg" xmlns:xlink="http://www.w3.org/1999/xlink" width="48" height="48" viewBox="0 0 48 48"><defs><clipPath id="a"><rect width="48" height="48" transform="translate(881 2336)" fill="#ff9c2c"/></clipPath></defs><g transform="translate(-881 -2336)" clip-path="url(#a)"><g transform="translate(881 2336.6)"><path d="M2,2H46V44.8H2Z" fill="#2e001e"/><path d="M0,0V46.8H48V0ZM2,2H46V44.8H2Z" fill="#ff2bc2"/><path d="M34.86,19.66a2.746,2.746,0,0,0-1.16-.2c-2.52,0-4.2,1.94-4.2,5.16,0,3.68,1.72,5.16,3.96,5.16a3.773,3.773,0,0,0,1.38-.22v-9.9ZM25.9,24.78c0-4.66,3-8.3,7.92-8.3a8.869,8.869,0,0,1,1.04.04v-5.2a.2.2,0,0,1,.2-.2h3.22c.16,0,.2.06.2.16V29.56a14.246,14.246,0,0,0,.1,1.96c0,.14,0,.16-.12.22a11.913,11.913,0,0,1-5.12,1.16c-4.34,0-7.44-2.68-7.44-8.12Zm-6.82-3.24,5.6,10.86c.1.16.04.32-.12.32H21.08a.392.392,0,0,1-.42-.26q-1.92-3.96-3.92-8.22H16.7c-1.2,2.68-2.52,5.6-3.8,8.24a.384.384,0,0,1-.36.22H9.22c-.2,0-.22-.16-.12-.28l5.48-10.54L9.28,11.4a.177.177,0,0,1,.14-.3h3.44c.2,0,.3.04.36.22,1.26,2.66,2.54,5.28,3.74,7.96H17c1.16-2.64,2.44-5.3,3.66-7.92.1-.16.16-.26.36-.26h3.22c.16,0,.22.12.12.3L19.08,21.54Z" fill="#ff2bc2"/></g></g></svg>